<svg width="136" height="115" viewBox="0 0 136 115" fill="none" xmlns="http://www.w3.org/2000/svg">
<path d="M21.3975 67.1238L21.7998 66.2654C20.5854 69.0838 19.2344 72.0161 17.9062 74.9105C21.1698 68.7647 25.238 61.601 25.8604 56.0857C26.8774 55.873 30.0044 49.8944 29.8526 49.6893C30.2625 48.3523 30.6951 47 31.1505 45.6478C32.6002 41.3633 34.3534 37.0027 36.2965 32.5586C37.268 30.3404 38.2926 28.0993 39.3552 25.8507C40.3798 23.7084 41.412 21.5433 42.4594 19.3631C42.5277 19.2111 42.5885 19.0364 42.6568 18.8541C42.6871 18.7629 42.7175 18.6718 42.7554 18.573C42.7782 18.4667 42.8237 18.4059 42.8769 18.3603C42.9755 18.2615 43.0742 18.1704 43.1577 18.1096L43.226 18.0716C43.226 18.0716 43.2412 18.102 43.2488 18.14L43.2715 18.254L43.3399 18.687L43.3854 19.082L43.4006 19.2643C43.3854 19.3175 43.3475 19.3631 43.3247 19.4087C43.2108 19.591 43.0894 19.7429 42.9528 19.8645L42.8996 19.91L42.8769 19.9328C42.8769 19.9708 42.9148 20.062 42.93 20.1228C43.0135 20.3962 43.097 20.6545 43.1729 20.9204C43.3323 21.437 43.4765 21.9384 43.6207 22.4094C43.9015 23.3514 44.1368 24.1946 44.3265 24.8935C44.5542 25.7064 44.7819 26.504 45.0096 27.3245C44.787 26.4078 44.5644 25.4937 44.3417 24.582C45.8521 27.7651 47.2866 30.6215 48.5769 33.4323C48.5996 32.8397 48.7742 32.665 48.6148 31.3431L49.0171 32.8777C50.11 33.9868 51.2409 37.0939 52.053 38.4461C51.6052 38.2638 51.9696 39.4337 52.3035 40.4668L52.3718 39.9806C53.6773 43.8702 55.681 48.2003 57.0092 51.6189C57.199 52.0899 57.2142 52.5001 57.1838 52.7584L58.7701 55.911C58.216 55.8426 59.4835 58.7598 58.5652 57.324C60.0983 59.5499 60.8118 62.1328 62.3222 64.2295C65.8514 72.4719 70.0107 81.079 74.1927 89.3899L74.2155 89.1392C75.7107 92.0335 77.3046 94.4797 78.6404 98.1945C80.0142 100.679 81.6156 104.348 82.3139 105.282C83.4751 108.321 84.0368 109.491 85.069 112.507C84.9779 112.104 85.236 112.833 85.4485 113.479C85.6383 114.132 85.9191 114.657 85.6307 113.927C85.1221 111.853 85.0083 111.777 84.606 110.007L84.5909 110.068C82.3822 101.94 80.257 93.7656 77.8207 85.5991C75.817 80.3042 74.0941 74.3787 72.06 68.8559C69.821 62.9304 67.1797 56.6023 64.8268 51.6872C64.2272 50.5325 64.2728 49.507 64.0906 48.3826C62.0641 43.8094 59.7871 37.8688 57.3204 32.7789C57.3584 32.8777 57.3963 32.9764 57.4115 33.0372C56.1668 30.31 55.719 28.0689 54.4818 25.4177C54.368 25.4785 54.1782 25.0682 54.034 24.8859C54.1251 24.7112 53.6621 23.6704 52.9335 22.1815C52.1669 20.6621 51.1498 18.6642 50.1328 16.651C49.3814 15.0329 48.6224 13.4072 47.909 11.8651C47.5674 11.1282 47.2335 10.4141 46.9147 9.73041C46.6035 9.06189 46.3227 8.35539 46.057 7.74006C45.0096 5.24833 44.3038 3.50867 44.1596 2.91613C43.985 2.5059 43.7952 2.07289 43.6131 1.63987L43.4461 1.16887L43.3626 0.933375C43.3626 0.933375 43.3323 0.82702 43.3171 0.834617L43.2791 0.940972L42.9452 1.77661L42.2621 3.4479L40.8504 6.84364C39.8713 9.267 38.8922 11.3105 37.8676 13.5896C37.3514 14.7443 36.8353 15.899 36.3268 17.0309C36.0156 17.707 35.712 18.3755 35.4084 19.0288C34.824 20.3431 34.2851 21.6345 33.8373 22.8804C33.6324 24.0351 33.344 25.3189 33.2225 26.3141C32.7064 27.1194 32.9873 27.4232 32.5319 28.464C30.6799 30.8114 30.4371 32.5206 31.2416 31.252C30.5054 33.5006 29.587 35.6809 28.866 37.656C28.5775 38.5904 28.2891 39.5172 28.0007 40.4516C27.7654 41.2569 27.4846 41.6443 27.1658 41.9634C26.5131 43.9993 26.551 43.3384 25.6858 45.3971C25.2532 45.8074 24.0843 50.7984 23.7807 51.353L23.8794 50.9959C22.9155 53.3889 21.8681 54.8247 20.9725 57.1797C18.3616 63.6977 15.8341 70.9374 13.5116 77.0148C13.6558 77.1439 13.9746 75.655 14.2251 75.6777C12.8437 79.2558 11.303 82.8035 9.95198 86.4271C9.67115 87.0653 9.31443 87.8401 9.16263 88.1212C8.69206 89.2607 8.97288 88.8353 8.64652 89.6786L8.48713 89.7469C8.13041 91.0308 7.70537 91.517 7.33347 92.7096C7.35624 92.7856 7.20444 93.2186 7.05264 93.6365C6.93879 93.6137 6.60484 94.9279 6.52135 94.8215V94.8367C6.43027 95.0874 6.37714 95.2698 6.24812 95.5736C6.12668 96.075 4.77568 100.648 4.62388 101.142L4.52521 101.362C4.28234 102.031 4.24439 102.342 4.39618 101.955L4.085 102.775L4.11536 102.677L3.81176 103.489C3.75104 103.634 3.65238 103.793 3.69792 103.55C3.55371 104.029 3.37914 104.553 3.19698 105.009C3.7131 103.74 4.37342 102.16 4.96543 100.853C4.79086 101.416 4.36583 102.396 4.15331 103.003C3.83453 103.695 3.24252 105.153 2.78713 106.285C2.69605 106.536 2.71123 106.741 2.46077 107.303C2.30897 107.561 2.22548 107.949 2.01296 108.412C2.18753 107.858 2.40005 107.326 2.60497 106.771C2.5063 106.84 2.07368 108.101 1.89152 108.534C1.83081 108.746 1.42854 109.81 1.19326 110.486C1.25397 110.175 0.965559 111.018 0.798581 111.405C0.631604 111.861 0.540526 112.157 0.624014 111.975C0.624014 112.142 1.3071 110.182 1.13254 110.835C1.04905 110.995 0.730273 111.884 0.555705 112.362C0.578475 112.378 0.692323 112.043 0.601245 112.362C0.396318 112.894 0.221751 113.464 0.0851328 113.76C0.115492 113.661 0.198981 113.441 0.2597 113.289C0.0168239 113.988 1.46649 109.468 1.14772 110.372C1.26915 110.152 -0.127384 114.383 0.0320036 113.92C0.198981 113.502 -0.0438952 114.239 0.130672 113.806L0.28247 113.312C0.510166 112.719 0.646784 112.492 0.586065 112.712C0.214161 113.707 1.46649 109.81 1.17049 110.668L1.31469 110.326C1.20085 110.699 0.859301 111.671 0.692323 112.028C0.715093 112.043 0.548115 112.53 0.403908 112.94L0.343189 113.084C0.198981 113.51 -0.0211255 114.087 0.107902 113.829C1.03387 111.39 -0.286771 115.523 0.639194 113.168C0.198981 114.132 0.715093 112.818 1.11736 111.777C1.17808 111.686 1.383 111.238 1.69419 110.501C1.94465 109.856 1.82322 110.114 1.85357 109.985C2.00537 109.635 2.29379 108.959 2.29379 109.058C2.45318 108.541 2.64292 108.268 2.87062 107.66C3.06037 107.121 2.83267 107.69 2.9617 107.303C3.28806 106.513 3.73587 105.396 3.99392 104.766C4.13054 104.538 4.51003 103.824 4.35824 104.393C3.8573 105.594 4.43413 103.892 3.94079 105.153C4.25198 104.652 3.51576 106.27 3.49299 106.528C3.69792 106.148 4.03187 105.335 4.29752 104.659L4.22921 104.788C4.46449 104.188 4.92748 102.988 5.24625 102.365C5.22348 102.532 5.36769 102.259 5.19312 102.699L5.54226 101.887C5.57262 101.78 5.60298 101.666 5.49672 101.902C5.62575 101.507 5.80031 101.127 5.95211 100.838C6.04319 100.77 7.55358 96.4017 7.52322 96.546C7.7585 95.9535 7.89512 95.8395 8.07728 95.247C8.07728 95.2242 7.94066 95.5736 7.74332 96.0978C7.54599 96.6144 7.28793 97.3057 7.03746 97.9818C6.53653 99.3188 6.07355 100.565 6.22535 100.177C6.49858 99.6987 8.73001 93.3858 8.96529 93.0591C9.13986 92.6185 9.34479 92.0867 9.24612 92.1627C9.57248 91.4334 9.2613 92.4286 9.53453 91.9196C9.53453 91.9044 9.48899 91.95 9.5573 91.7828L9.83813 91.3043C10.2176 90.1192 11.0297 88.4859 11.3941 87.2324C11.3182 87.6122 11.2802 88.0528 11.0146 88.8505L10.9235 88.9721C10.9007 89.086 10.6502 89.7317 10.7186 89.7393C11.0677 89.0252 11.3182 88.3947 11.5762 87.597C11.6521 87.4603 11.7432 87.3084 11.8039 87.1944C11.7963 87.1944 11.7811 87.202 11.7735 87.1944C11.9178 86.9589 11.9178 86.9893 11.9026 87.0881C11.9026 87.1033 11.9026 87.1184 11.895 87.1488C12.2821 86.769 12.9803 84.2241 13.6407 82.925C13.7773 82.5224 13.6179 82.8719 13.7849 82.3629C14.4376 81.0259 14.9006 80.1143 15.5533 78.7088C15.652 78.2151 15.6216 78.1619 15.2953 78.6709L15.7734 77.5997C15.6216 78.6861 16.8739 75.6853 16.6842 76.878C16.8815 76.5894 17.17 75.9512 17.3825 75.3283C17.3369 75.2371 17.2686 75.1004 17.595 74.3407C18.1415 73.3228 17.9972 73.5583 18.4602 72.7226C18.6424 72.5555 18.5437 72.8897 18.6348 72.8821C19.0902 71.4843 19.3482 71.7882 19.8795 70.512C20.1983 69.7067 20.8662 68.1342 20.7068 68.0202C21.1774 66.9491 21.3064 67.0023 21.4051 67.1694L21.3975 67.1238Z" fill="#565656"/>
<path d="M112.77 107.645L112.216 107.569C113.112 107.69 114.045 107.637 114.994 107.683C115.465 107.66 115.935 107.645 116.406 107.622L117.119 107.592L117.818 107.5C115.738 107.5 113.491 107.295 111.472 106.916C110.44 106.832 109.499 106.574 108.566 106.543C108.095 106.543 107.662 106.46 107.222 106.467C106.782 106.467 106.349 106.498 105.917 106.574C105.879 106.125 105.067 105.366 104.27 104.796C103.518 104.135 102.782 103.588 102.691 103.679C101.985 103.406 101.317 103.011 100.619 102.646C98.5165 101.309 96.7253 99.2428 95.5034 96.7815C94.2738 94.3201 93.6135 91.4942 93.4161 88.615C93.401 88.2124 93.3099 87.7414 93.3175 87.1868C93.3023 86.6398 93.2947 86.0245 93.2795 85.3636C93.3251 84.0417 93.3858 82.5756 93.6135 81.0562C94.0309 78.0555 94.9113 75.2143 95.6779 73.8241L95.9663 73.2012L96.3003 72.6086C95.8677 73.2468 95.8828 73.2544 95.5185 73.9381C95.5944 72.9657 95.8221 72.0997 95.9663 71.2184C96.1333 70.3448 96.4217 69.5624 96.6494 68.7571C96.3155 68.9242 96.103 68.871 95.5034 69.3876L96.0195 68.6659C95.8828 68.1645 96.1257 67.5492 96.361 66.9187C96.5811 66.273 96.9378 65.7032 97.082 65.2778C97.2642 65.6196 97.7196 65.1259 98.1067 64.6852L97.7803 64.7308C99.2679 63.0671 100.953 61.1603 102.623 60.0892C102.858 59.9449 103.108 59.9677 103.283 60.0132C103.784 59.641 104.247 59.1928 104.786 58.8509C104.869 59.3523 106.372 58.623 105.681 59.2536C106.197 58.7142 106.82 58.342 107.495 58.1141C107.822 57.9773 108.156 57.8482 108.474 57.681C108.634 57.5975 108.793 57.5063 108.953 57.4076C109.12 57.3316 109.279 57.2404 109.438 57.1341C110.053 57.0049 110.676 56.8682 111.305 56.7239C111.943 56.6251 112.603 56.5567 113.256 56.4656L114.25 56.3288L115.229 56.2756C115.89 56.2073 116.55 56.2453 117.218 56.2377C119.89 56.2756 122.599 56.8606 125.142 57.9773L125.089 57.8102C126.857 58.5775 128.664 59.2991 130.098 61.3199C130.424 61.6162 130.804 61.9428 131.123 62.3303C131.434 62.7253 131.753 63.1203 132.049 63.4926C132.572 64.2826 133.035 64.9815 133.309 65.2626C133.642 66.2578 133.946 66.9339 134.098 67.648C134.181 68.005 134.272 68.3545 134.364 68.7419C134.455 69.1293 134.47 69.5775 134.531 70.0865C134.568 69.5472 134.735 72.0617 134.69 71.0589C134.743 69.6763 134.705 69.6003 134.705 68.4L134.675 68.4456C134.515 65.6652 133.825 62.7785 132.413 60.0968C131.024 57.4076 128.906 54.969 126.303 53.1078C124.459 52.0746 122.447 51.1478 120.322 50.4565C118.205 49.7728 115.943 49.393 113.772 49.3474C112.626 49.393 111.45 49.3854 110.273 49.5373C109.681 49.6361 109.097 49.7348 108.505 49.8336C107.92 49.9476 107.336 50.0235 106.767 50.221C104.475 50.8516 102.327 51.7936 100.627 52.9255C99.8524 53.5256 99.0023 53.4573 98.1674 53.7459C97.4312 54.3613 96.5887 54.9538 95.8069 55.6603C95.4275 56.025 95.0404 56.4048 94.6533 56.7846C94.2662 57.1645 93.8563 57.5443 93.53 57.9773C92.8545 58.8433 92.0879 59.6714 91.5566 60.621C90.9798 61.5478 90.4181 62.467 90.0462 63.4318C90.0842 63.3634 90.1221 63.3026 90.1525 63.2571C89.7047 64.2522 89.1506 65.0423 88.7559 65.8931C88.3385 66.7288 87.8603 67.5568 87.6478 68.5824C87.7693 68.6128 87.6934 68.9318 87.7085 69.0989C87.5567 69.1369 87.2911 69.9194 87.1165 71.0817C86.9647 72.244 86.7826 73.7633 86.7826 75.2827C86.6991 76.7945 86.8281 78.3062 86.8281 79.4685C86.8964 80.6308 86.9496 81.4589 86.8661 81.6336C86.8888 81.8387 86.9116 82.0514 86.9192 82.2641C86.8737 83.3049 86.8281 84.3608 86.7826 85.4244C86.775 86.4879 86.7826 87.5514 86.8129 88.5998C86.9192 89.6481 86.9951 90.6813 87.1848 91.6765C87.4201 92.6565 87.6251 93.6212 87.9894 94.4797C88.5055 95.1634 89.0064 95.9383 89.4922 96.4548C89.606 97.1157 90.0083 97.0778 90.3119 97.7919C90.3346 98.8858 90.6914 99.6227 90.9267 99.9645C91.1695 100.306 91.3289 100.246 91.1847 99.729C91.6781 100.39 92.1031 101.089 92.6268 101.704C93.1353 102.327 93.5528 102.98 94.0992 103.482C94.6153 103.93 95.1314 104.378 95.6551 104.804C96.1409 105.13 96.3079 105.419 96.4066 105.746C97.6285 106.604 97.1352 106.513 98.4103 107.432C98.4482 107.538 98.6987 107.706 99.0402 107.896C99.2148 107.987 99.4045 108.101 99.6247 108.192C99.8448 108.275 100.08 108.359 100.323 108.442C101.272 108.769 102.198 109.111 102.403 109.187L102.152 109.134C102.979 109.468 103.625 109.84 104.285 110.213C104.953 110.554 105.651 110.805 106.501 111.025C107.086 111.215 107.7 111.276 108.315 111.367C108.93 111.443 109.545 111.55 110.167 111.588L112.034 111.61H112.96L113.878 111.542C114.493 111.481 115.1 111.466 115.7 111.36C116.3 111.261 116.892 111.162 117.476 111.063C118.637 110.782 119.768 110.539 120.816 110.152C120.808 109.962 119.897 110.516 119.791 110.296C122.28 109.59 124.785 108.61 126.91 107.022C127.328 106.794 127.806 106.452 127.996 106.338C128.664 105.814 128.33 105.951 128.8 105.556L128.944 105.594C129.506 104.864 129.946 104.712 130.485 104.044C130.485 103.976 130.66 103.717 130.842 103.482C130.941 103.55 131.388 102.722 131.449 102.828V102.813C131.555 102.669 131.631 102.563 131.768 102.388C131.844 102.228 132.231 101.416 132.618 100.603C132.929 99.7746 133.24 98.9466 133.309 98.7794L133.392 98.6427C133.559 98.2021 133.567 97.9818 133.453 98.2325L133.658 97.6931L133.643 97.7615L133.847 97.2221C133.893 97.1233 133.969 97.0246 133.946 97.1917C134.045 96.8499 134.143 96.5308 134.235 96.2117C134.113 96.6447 133.878 97.1006 133.673 97.5716C133.453 98.035 133.255 98.5135 132.982 98.901C133.149 98.5515 133.422 97.9134 133.567 97.5184C133.68 97.2981 133.847 96.9486 134.007 96.5612C134.136 96.1586 134.28 95.7255 134.401 95.3457C134.439 95.171 134.401 95.0342 134.538 94.662C134.644 94.4873 134.622 94.2214 134.72 93.9099C134.682 94.2898 134.606 94.6544 134.493 95.0266C134.531 95.0038 134.606 94.7836 134.675 94.5253C134.72 94.267 134.781 93.9859 134.804 93.8264C134.804 93.682 134.956 92.9527 135.016 92.4893C135.047 92.702 135.092 92.1247 135.13 91.8512C135.16 91.5397 135.153 91.3346 135.13 91.4638C135.092 91.3574 135.001 92.702 134.978 92.2538C135.016 92.1475 135.054 91.5321 135.085 91.2055C135.062 91.2055 135.047 91.4258 135.039 91.2055C135.077 90.8408 135.085 90.4534 135.13 90.2483C135.13 90.3167 135.115 90.4686 135.1 90.575C135.13 90.0888 135.069 93.1806 135.092 92.5653C135.069 92.7172 135.153 89.8229 135.138 90.1495C135.1 90.4382 135.115 89.9368 135.077 90.2331V90.5674C135.031 90.9776 134.963 91.1371 134.963 90.9928C135.024 90.3015 134.963 92.9679 134.993 92.3754L134.94 92.6109C134.978 92.3602 134.993 91.6917 135.054 91.441C135.024 91.441 135.054 91.0991 135.062 90.818L135.077 90.7193C135.092 90.4306 135.13 90.0356 135.085 90.2179C134.91 91.8816 134.971 89.1012 134.766 90.7041C134.902 90.0356 134.796 90.9396 134.713 91.6461C134.675 91.7069 134.629 92.0259 134.515 92.5197C134.424 92.9527 134.485 92.778 134.485 92.8616C134.417 93.0971 134.31 93.5529 134.28 93.4845C134.25 93.834 134.136 94.0163 134.06 94.4189C133.976 94.7759 134.09 94.4037 134.037 94.6544C133.87 95.171 133.627 95.9003 133.491 96.3181C133.4 96.4624 133.111 96.8954 133.195 96.5308C133.506 95.7711 133.21 96.8726 133.476 96.0598C133.263 96.3789 133.68 95.3305 133.665 95.1558C133.536 95.3989 133.369 95.9231 133.225 96.3637C133.24 96.3333 133.263 96.3105 133.271 96.2801C133.126 96.6599 132.823 97.412 132.588 97.7919C132.588 97.6779 132.489 97.845 132.603 97.564L132.367 98.0729C132.345 98.1413 132.322 98.2097 132.405 98.0729C132.314 98.316 132.162 98.5363 132.041 98.7035C131.995 98.7111 131.707 99.3948 131.358 100.033C130.994 100.656 130.644 101.279 130.652 101.233C130.432 101.575 130.28 101.583 130.083 101.917C130.083 101.932 130.235 101.75 130.447 101.469C130.629 101.172 130.88 100.777 131.115 100.39C131.237 100.2 131.35 100.01 131.457 99.843C131.548 99.6607 131.624 99.5011 131.692 99.372C131.821 99.1137 131.882 98.9845 131.821 99.0985C131.768 99.1669 131.624 99.4555 131.411 99.8506C131.176 100.23 130.88 100.709 130.576 101.188C130.28 101.666 129.908 102.092 129.65 102.449C129.385 102.798 129.18 103.034 129.104 103.049C128.891 103.262 128.641 103.52 128.739 103.512C128.36 103.846 128.77 103.322 128.466 103.535C128.466 103.55 128.512 103.535 128.428 103.611L128.125 103.793C127.889 104.112 127.502 104.401 127.115 104.697C126.728 104.986 126.364 105.313 126.045 105.579C126.204 105.396 126.349 105.138 126.721 104.758L126.812 104.728C126.857 104.667 127.184 104.386 127.13 104.34C126.705 104.599 126.402 104.887 126.007 105.221C125.916 105.259 125.817 105.297 125.734 105.328C125.734 105.328 125.749 105.335 125.757 105.343C125.59 105.396 125.597 105.381 125.635 105.328C125.635 105.32 125.643 105.313 125.658 105.297C125.468 105.297 125.081 105.571 124.641 105.898C124.186 106.201 123.639 106.521 123.214 106.672C122.994 106.817 123.214 106.718 122.933 106.9C122.493 107.022 122.113 107.128 121.734 107.235C121.354 107.341 120.983 107.463 120.512 107.546C120.254 107.728 120.239 107.774 120.626 107.774L119.92 107.941C120.466 107.5 118.561 108.04 119.176 107.569C118.964 107.569 118.539 107.599 118.159 107.721C118.136 107.797 118.098 107.926 117.605 108.017C116.907 108.047 117.074 108.04 116.482 107.994C116.33 107.903 116.535 107.85 116.505 107.766C115.647 107.964 115.715 107.614 114.903 107.683C114.387 107.713 113.37 107.721 113.347 107.911C112.649 107.911 112.656 107.721 112.725 107.584L112.77 107.645Z" fill="#565656"/>
</svg>
