<svg width="125" height="150" viewBox="0 0 125 150" fill="none" xmlns="http://www.w3.org/2000/svg">
<path d="M40.3084 15.0388L40.8604 15.5649C38.9456 14.0037 36.8754 12.4856 34.6672 11.3815C36.8409 13.1584 38.8075 15.3148 40.7483 17.2901C42.7063 19.2567 44.7333 20.9128 47.3641 21.8099C46.7172 22.5258 46.9501 24.0698 47.1226 25.3808C47.321 26.6919 47.597 27.8478 47.8212 27.8391C48.4509 28.6931 48.9857 29.6591 49.4084 30.7373C49.1324 29.9955 48.8304 29.2882 48.4681 28.6413C48.839 29.2882 49.1324 29.9955 49.4084 30.7373C50.754 34.1444 51.0386 38.4227 50.7626 42.7355C50.4952 47.0569 49.5637 51.4473 48.3216 55.7946C47.6402 58.2098 46.3636 62.6864 44.6384 67.0337C44.233 68.1292 43.7586 69.1987 43.3101 70.2424C42.8788 71.2948 42.4044 72.2867 41.9386 73.2269C41.4815 74.1584 41.0761 75.0382 40.6362 75.8059C40.4119 76.2113 40.2049 76.5908 40.0151 76.9445C39.6442 77.6518 39.3337 78.3246 38.9886 78.9198C38.2382 80.2998 37.3843 81.7231 36.5476 83.1721C38.014 80.7829 38.0571 80.7742 39.3769 78.4798C38.7817 79.9721 38.152 81.4039 37.5482 82.7754C36.9703 84.1037 36.401 85.4062 35.8403 86.6914C34.7535 89.1755 33.7443 91.4009 32.7437 93.5487C33.6149 92.505 34.1238 92.1082 35.6592 90.0554L34.1842 92.3843C34.2101 92.6172 34.1583 92.9449 34.0376 93.3503C34.2618 93.3934 34.7363 93.3072 35.1244 93.2727C35.5126 93.2382 35.918 93.2037 36.332 93.1606C37.1083 93.1088 37.9191 93.0484 38.7127 92.9967C40.2567 92.9018 41.6885 92.8328 42.715 92.7034C41.8524 93.1002 43.5775 93.1778 45.1646 93.2382L44.716 92.9708C46.1824 93.0139 47.7436 93.0226 49.3307 93.0139C50.1242 93.0139 50.9178 92.9967 51.72 92.9967C52.2893 92.988 52.8672 92.9708 53.4365 92.9622C55.4721 92.9104 57.456 92.8414 59.1898 92.8673C59.6728 92.8673 60.0351 93.0139 60.2507 93.1519L63.5629 92.8414C63.3041 93.3762 66.3058 93.3072 64.7273 93.6436C67.2029 93.0139 69.7215 93.4021 72.085 92.7465C80.5294 92.6689 89.5173 92.2635 98.2464 91.3664L98.0307 91.1681C101.084 90.8144 103.784 89.7621 107.502 90.1157C110.158 89.4084 113.928 89.0289 114.989 87.9162C118.051 87.761 119.275 87.2089 122.277 86.9156C121.501 86.3636 125.193 86.2515 123.718 85.8202C121.725 85.0525 121.613 85.7081 119.922 85.087L119.974 85.2682C112.082 84.4401 104.189 83.9657 96.1849 83.7156C90.8456 84.1813 85.0578 83.8018 79.5116 83.9398C73.5427 84.1382 67.0735 84.5005 61.9499 84.9576C60.7251 85.1129 59.8453 84.6557 58.8016 84.397C57.6199 84.4574 56.3692 84.4919 55.0581 84.5177C54.0144 84.535 52.9362 84.5436 51.8408 84.5609C50.9523 84.5867 50.0726 84.6126 48.9599 84.7593C48.9944 84.7593 49.0116 84.7679 49.0202 84.7765C48.8736 84.7851 48.7356 84.7851 48.6234 84.7765C48.5631 84.7765 48.5113 84.7679 48.4681 84.7593C48.425 84.7506 48.3475 84.7593 48.4337 84.673C48.9426 83.9743 49.5808 83.405 49.7447 82.922C49.5463 82.9651 49.5981 82.853 49.5291 82.8013C49.7706 82.7236 49.9 82.4649 50.0121 82.0077C50.038 81.8869 50.0639 81.7576 50.0898 81.6109L50.107 81.4988V81.4384L50.176 81.2831C50.2536 81.0589 50.3399 80.826 50.4262 80.5845C50.7712 79.6443 51.099 78.6265 51.4009 77.5914C52.0564 75.5471 52.5826 73.4511 53.0397 71.8382C53.471 70.2079 53.7729 69.0435 53.954 68.8451C54.0144 68.5518 54.0834 68.2499 54.161 67.948C56.2743 62.35 59.0604 56.476 59.6124 51.1972C59.4313 50.0155 59.2847 48.713 58.9828 47.7211C59.3968 46.8326 58.8016 46.5997 58.9655 45.5043C60.6389 42.7786 60.0523 41.0535 59.483 42.5112C59.3795 40.1823 59.5262 37.8448 59.3881 35.7402C59.2415 34.7655 59.069 33.7994 58.8447 32.8161C58.655 31.988 58.793 31.4877 59.0863 31.0133C58.5429 28.8483 59.0345 29.4435 58.6723 27.0715C58.862 26.7351 58.2927 25.286 57.5423 23.9059C56.8091 22.5172 55.8689 21.2578 55.7912 20.9214C55.8775 21.0249 55.9465 21.1371 56.0242 21.2492C55.4635 19.9726 55.1271 18.8254 54.7303 17.7213C54.5492 17.1521 54.3335 16.6086 54.0661 16.0652C53.816 15.5132 53.5055 14.9612 53.0914 14.4264C48.839 8.22459 41.6712 3.17 34.3567 1.26375C34.167 1.72953 35.9783 1.60015 35.8489 2.30745C33.8219 1.57427 31.6829 1.04811 29.4661 0.659962C28.362 0.54783 27.2234 0.409821 26.1021 0.409821C25.5414 0.427072 24.9721 0.452949 24.4114 0.487451L23.5661 0.54783C23.2901 0.582332 23.0055 0.634085 22.7295 0.685838C22.3154 0.685838 21.8497 0.685839 21.4356 0.659962C21.0216 0.659962 20.6593 0.642711 20.4609 0.608209C18.9946 0.823848 19.6933 1.06536 18.6669 1.35863L18.3735 0.953232C17.0279 1.84167 16.0188 1.29825 14.7336 2.12631C14.7508 2.34195 14.2851 2.60934 13.8193 2.85086C13.6813 2.63522 13.3276 2.8336 12.9912 3.04062C12.6634 3.25626 12.3529 3.48052 12.2667 3.25626V3.29939C11.9993 3.46327 11.8268 3.60991 11.4473 3.74792C11.3438 3.86005 11.0159 4.22232 10.6105 4.7226C10.2051 5.22289 9.68761 5.81805 9.2477 6.4736C8.30752 7.73293 7.57436 9.08714 7.43635 9.35454C7.3501 9.39766 7.26381 9.44079 7.18618 9.48392C6.65139 10.0791 6.71178 10.5794 7.09131 10.312L6.41849 11.002L6.47029 10.8985C6.24603 11.1228 6.03039 11.3643 5.82338 11.6058C5.67674 11.7093 5.3662 11.7179 5.3662 11.3643C5.15918 11.9077 4.84008 12.4339 4.44331 12.822C5.02985 12.3131 5.71983 11.7697 6.42712 11.2608C7.17755 10.7864 7.89354 10.2947 8.65259 9.95832C8.29894 10.5017 7.36738 11.1745 6.92747 11.7179C6.14255 12.1147 4.84008 13.2619 3.89989 14.2452C3.74463 14.504 4.12414 14.987 3.56348 15.4097C3.05457 15.4701 3.18391 16.048 2.64912 16.3671C2.79576 15.7202 3.20984 15.2372 3.57212 14.7024C3.12359 14.5385 2.45935 15.8668 2.09707 16.2464C2.11432 16.531 1.36391 17.5575 1.13965 18.3251C0.880879 17.8162 0.613516 18.7737 0.199488 19.1101C-0.0765299 19.5758 -0.0506701 19.964 0.18222 19.826C0.561745 20.171 1.32943 18.0319 1.48469 18.9203C1.20005 18.9979 0.811912 19.9554 0.639401 20.4815C0.880917 20.585 0.967172 20.2141 1.07068 20.6368C0.794661 21.1802 0.863611 21.8875 0.47546 22.1204C0.449583 21.991 0.579039 21.7754 0.656669 21.6115C0.510034 21.9737 0.458243 20.8265 0.509996 19.6793C0.579001 18.5494 0.682524 17.4022 0.527264 17.9284C0.699776 17.8593 0.535902 19.0928 0.432396 20.2486C0.363391 21.4303 0.302987 22.5258 0.406494 22.2843C0.699763 21.8875 0.73432 22.7587 1.00171 22.336L0.898105 21.715C1.2345 21.1198 1.76938 21.0422 1.85564 21.3268C1.64 21.8357 1.47602 20.93 1.44152 20.0071C1.40702 19.0928 1.44153 18.1354 1.34665 18.6443L1.63136 18.3338C1.60549 18.7909 1.27768 19.8519 0.846406 20.1365C1.0793 20.24 0.967206 20.8007 0.889576 21.2578L0.786073 21.3958C0.73432 21.8875 0.441038 22.4827 0.880942 22.3101C1.36397 21.0163 1.81242 21.6977 2.30408 22.3533C2.78711 23.0174 3.31329 23.6471 3.83082 22.5344C2.92513 23.2935 3.38233 21.9824 3.76185 20.9473C3.98612 20.93 4.46049 20.6023 4.91765 19.9726C5.18504 19.3516 4.91768 19.5241 4.84005 19.3429C5.13332 19.0669 5.57321 18.489 5.79747 18.7305C5.71984 18.0836 6.41849 18.1267 6.63413 17.5316C6.78076 16.9709 6.47888 17.4798 6.53926 17.0485C7.00504 16.3585 7.74689 15.4528 8.20404 14.9698C8.59219 14.9439 9.46334 14.6765 9.46334 15.3838C8.65254 16.2895 9.18729 14.573 8.46275 15.6253C9.29943 15.5736 7.95382 16.6518 8.22984 17.1175C8.71287 16.9709 9.14425 16.2981 9.51515 15.7375L9.35984 15.7892C9.5151 15.5304 9.74801 15.1509 10.0327 14.7973C10.3173 14.4522 10.6882 14.159 11.0246 14.0382C11.0936 14.3056 11.4041 14.2194 11.1539 14.573L11.7232 14.0123C11.7405 13.883 11.7578 13.7536 11.5594 13.8916C11.6888 13.4862 12.051 13.305 12.3443 13.2015C12.4046 13.2274 12.5772 13.0204 12.8101 12.6754C13.0516 12.3476 13.3794 11.9077 13.6985 11.4678C14.3454 10.6052 15.0613 9.78581 15.0441 9.88069C15.5443 9.55292 15.8635 9.78581 16.2171 9.26828C16.1912 9.1734 15.0786 10.0791 14.1815 11.0538C13.2844 12.0371 12.5599 13.0204 12.8187 12.7358C13.0861 12.6668 14.1039 11.3729 15.3029 10.1998C16.5104 9.06127 17.8819 8.07795 18.1492 8.20734C18.5374 8.00895 19.0032 7.75018 18.8134 7.56904C19.538 7.37065 18.7962 8.0952 19.3741 8.08658C19.3741 8.04345 19.2878 7.99169 19.4431 7.93132C19.6328 7.95719 19.8226 7.98307 20.021 8.03482C20.9526 7.27577 22.6605 7.23265 23.7214 6.55123C23.4368 6.88762 23.1435 7.38791 22.5052 7.83644L22.35 7.75018C22.2724 7.85369 21.7117 8.0952 21.7979 8.32809C22.5139 8.31084 23.04 8.06932 23.7128 7.71568C23.8594 7.75018 24.0233 7.78468 24.1354 7.83644C24.1268 7.80193 24.1095 7.78468 24.1095 7.74155C24.3683 7.84506 24.3511 7.87094 24.2821 7.98307C24.2821 8.00032 24.2648 8.0262 24.2476 8.05207C24.3856 8.21596 24.6098 8.21596 24.8859 8.17283C25.1705 8.13833 25.5069 8.03482 25.8778 7.92269C26.2487 7.81056 26.6455 7.6553 27.0336 7.59492C27.4218 7.55179 27.8013 7.55179 28.1032 7.64667C28.4741 7.54317 28.1378 7.52591 28.6035 7.38791C29.2418 7.50866 29.7593 7.76743 30.2768 7.91407C30.5356 8.00032 30.803 8.06933 31.0704 8.16421C31.3378 8.27634 31.6225 8.37985 31.933 8.49198C32.4074 8.27634 32.4764 8.16421 32.0365 7.73293L33.0112 8.04345C32.4591 8.35397 32.8817 8.62136 33.244 8.96638C33.6149 9.29416 33.9513 9.60468 33.3734 9.85482C33.5804 10.1308 34.098 10.2947 34.6414 10.381C34.7622 10.2085 34.9606 9.92382 35.5989 10.1912C36.3665 10.8036 36.2026 10.6225 36.7719 11.2263C36.815 11.5541 36.5131 11.5196 36.4441 11.7266C37.6604 11.9595 37.0824 12.6926 38.0312 13.236C38.6781 13.4948 39.7909 14.3056 40.11 13.9433C40.8863 14.5126 40.6362 14.8318 40.3343 15.0647L40.3084 15.0388Z" fill="#565656"/>
<path d="M78.5455 35.9385L78.5025 36.5423C78.3213 34.5843 78.4421 32.5228 78.6319 30.4958C77.4502 32.7039 76.4496 35.1105 76.4496 37.3876C76.4496 39.6648 77.4156 41.8212 79.9947 43.529C77.338 43.8999 76.5444 48.1782 77.1741 48.2731C77.7175 49.1615 78.1574 50.0586 78.5283 50.9729C80.8399 56.7262 80.2707 62.9797 80.0119 69.4489C79.8826 73.0371 80.2707 82.784 80.1672 86.4671C80.1672 87.0019 80.1672 87.5281 80.1672 88.0715C80.2074 87.4792 80.2448 86.884 80.2793 86.286C80.9003 88.5286 81.4438 90.5643 81.8233 92.5309C82.0044 92.1859 82.1942 92.1255 82.427 91.2974L82.3494 92.298C82.9964 93.2123 83.074 95.3256 83.3587 96.3175C83.0568 96.1019 83.0395 96.8868 83.0395 97.5769L83.212 97.3008C83.2379 99.9144 83.6088 102.951 83.6865 105.288C83.7037 105.616 83.626 105.857 83.557 106.004L83.8503 108.247C83.5398 108.074 83.6951 110.11 83.4535 109.04C83.8934 110.722 83.7813 112.421 84.1867 114.017C84.4972 119.736 84.9802 125.817 85.3684 131.725L85.4116 131.579C85.5668 133.649 85.7738 135.469 85.7393 137.988C85.8687 139.782 85.9031 142.335 85.9808 143.051C85.9549 145.121 85.9636 145.949 85.9032 147.985C85.9204 147.459 85.8514 149.96 85.8686 148.959C85.9376 147.614 85.9377 147.536 86.0153 146.389V146.423C86.3258 141.084 86.8088 135.736 87.2746 130.32C87.4126 126.705 87.8008 122.789 88.0337 119.037C88.2493 114.992 88.3787 110.619 88.3097 107.151C88.2666 106.323 88.5684 105.728 88.7755 105.021C88.8272 101.829 89.2154 97.7752 89.224 94.1784C89.224 94.2474 89.2068 94.3078 89.1982 94.3509C89.2413 92.436 89.7761 91.0042 89.8279 89.1411C89.6985 89.1497 89.707 88.865 89.6466 88.7184C89.9572 88.5545 89.8365 85.8116 89.6122 83.0169C89.3966 80.2308 89.0688 77.393 89.2931 77.0653C89.2672 76.8755 89.2499 76.6685 89.2413 76.4615C89.7157 72.5196 91.5271 68.4483 91.6392 65.0671C91.2942 64.3339 90.9923 63.5059 90.5696 62.8848C90.975 62.2896 90.2591 62.1689 90.3971 61.453C92.2688 59.6244 91.6133 58.5548 90.906 59.495C90.7422 57.9855 90.9923 56.476 91.0009 55.1391C90.8974 54.518 90.7852 53.9056 90.6472 53.2759C90.5092 52.7411 90.8111 52.4479 91.2855 52.1805C91.0871 50.8176 91.5443 51.223 91.8289 49.7998C92.5621 49.4548 90.9147 46.2288 91.139 45.8234L91.2338 46.0563C91.4408 44.4088 92.933 43.3134 93.1141 41.7004C93.9853 37.2237 93.7438 32.333 94.3131 28.1842C93.4333 28.141 94.4425 29.0985 93.2781 29.1502C93.5713 26.7006 94.8652 24.2336 95.2188 21.7667C95.5035 21.3182 96.0209 20.7748 96.3315 20.5764C96.7455 19.7915 95.9175 20.1106 96.0814 19.5327L96.9439 19.4551C96.3057 18.6098 98.0134 18.2216 97.7288 17.4281C97.3838 17.3849 97.3579 17.0917 97.4097 16.8157C98.3412 16.7984 97.4183 15.9445 98.2722 15.9876H98.2032C98.2377 15.8065 98.1859 15.6857 98.3671 15.4787C98.0824 15.1595 95.7191 12.1233 95.3137 11.7956L95.4862 11.6403C95.4862 11.1832 94.7789 10.9934 94.5892 11.2608L94.6754 10.7001L94.7358 10.7605L94.8306 10.2085C94.9255 10.105 95.3827 9.99283 95.8053 10.1481C95.4862 9.83757 95.3223 9.47529 95.5207 9.16477C94.8479 10.0446 93.9336 11.1314 92.9071 12.0457C92.5966 11.6662 93.1401 10.9934 93.0624 10.5794C93.7352 10.0963 94.339 9.08714 94.8393 8.31084C94.7961 8.13833 93.6921 8.01757 94.201 7.62942C94.9773 7.43966 94.201 7.18951 94.7789 6.87037C95.1671 7.24127 94.9601 7.60354 94.8911 7.98307C95.7967 7.92269 95.5638 7.06876 95.8398 6.76686C95.5638 6.62885 95.9088 5.9043 95.6845 5.44715C96.5557 5.64554 96.2711 5.07625 96.7714 4.80886C96.9008 4.49834 96.5557 4.30857 96.2366 4.42933C95.2705 4.32583 95.581 5.65416 94.5977 5.22288C95.0721 5.11075 94.9514 4.50696 94.9255 4.17919C94.3993 4.17919 94.5115 4.40346 94.0199 4.18782C94.1579 3.82554 93.5368 3.44602 94.1061 3.239C94.2441 3.30801 94.1492 3.45464 94.1234 3.55815C94.2269 3.09237 97.4011 6.10269 97.125 5.4989C96.6679 5.65416 94.1837 2.82498 94.1234 3.1355C93.8473 3.42014 93.1746 2.92848 92.9676 3.23038L93.5972 3.55815C93.373 3.96355 92.4414 4.12744 92.0877 3.98943C92.2171 3.30801 95.5811 5.92156 95.0808 5.33502L94.8134 5.56791C94.4856 5.31777 94.2269 4.66222 94.7962 4.41208C94.2787 4.41208 94.1148 4.07568 93.9336 3.80829L94.0285 3.71341C93.7784 3.42877 93.9249 3.03199 93.2176 3.21313C93.2349 4.87786 87.9043 2.11768 87.5593 3.73066C88.7324 3.05787 88.741 3.95493 88.8618 4.67085C88.465 4.73985 87.887 5.059 87.5851 5.56791C87.6714 6.00781 87.9992 5.82668 88.2838 5.91293C88.0251 6.15445 87.8008 6.62885 87.2056 6.56847C87.9129 6.9135 86.7485 7.12051 86.99 7.53454C87.3092 7.89681 87.3005 7.50866 87.6369 7.76743C87.5593 8.31084 87.4472 9.07851 87.3091 9.51842C86.7571 9.69093 85.791 10.1998 84.9371 9.82894C85.0492 9.00088 86.3258 10.1481 86.1361 9.28553C84.8767 9.65643 85.7911 8.52648 84.8336 8.36259C84.2643 8.63861 84.2644 9.19065 84.4282 9.65643L84.5921 9.56155C84.7646 9.97557 85.0233 10.795 84.3678 11.2349C83.9365 11.1314 83.6087 11.3212 83.4966 11.0193L83.4276 11.5886C83.5656 11.6576 83.7037 11.7352 83.8072 11.5713C84.1436 11.8387 83.9624 12.1061 83.7122 12.3131C83.2723 12.3735 85.6444 15.3148 85.3511 15.2285C85.3684 15.6339 84.6956 15.7375 85.1528 16.1342C85.5237 16.1774 83.5829 12.2441 83.7295 12.7789C83.2637 13.1239 86.0153 17.3936 85.17 17.6437C85.2045 17.9456 85.2994 18.3079 85.7393 18.2389C85.5237 18.7478 84.894 18.0836 84.4799 18.4459C84.5489 18.4459 84.7042 18.42 84.6869 18.5321L84.1349 18.8772C84.8249 19.6707 83.9624 20.8265 84.8509 21.6546C84.3851 21.4131 83.557 21.1371 83.1171 20.6109L83.3414 20.516C83.2034 20.4384 83.0482 19.9985 82.6083 20.0157C82.3322 20.5246 82.427 20.9559 82.8583 21.4907C82.7462 21.5856 82.6341 21.7063 82.5134 21.784C82.5738 21.784 82.6168 21.7754 82.6772 21.784C82.4185 21.9565 82.3667 21.9392 82.2028 21.8789C82.1683 21.8789 82.1338 21.8616 82.1079 21.8444C80.8658 22.1635 82.9618 23.8369 82.3322 24.7598C82.5133 25.0358 82.5392 24.7857 82.7894 25.1221C82.3236 26.0709 81.9786 26.7178 81.7284 27.7097C82.2546 28.0289 82.4616 28.0461 82.9964 27.6666L82.8497 28.417C81.4523 27.7356 81.5904 29.8144 80.2017 29.064C79.8998 29.2796 79.8567 29.7281 80.0982 30.1508C80.4432 30.1939 80.9866 30.2543 81.0124 30.7804C80.5984 31.5136 80.7538 31.3411 80.3484 31.9449C79.9171 32.0915 79.7359 31.8673 79.3908 31.8931C79.9946 32.8247 78.4939 32.7126 78.6319 33.5924C78.7958 34.1444 78.9078 35.2399 79.6496 35.2657C79.6496 36.0075 79.1149 36.0075 78.5111 35.9385H78.5455Z" fill="#565656"/>
</svg>
