<svg width="114" height="116" viewBox="0 0 114 116" fill="none" xmlns="http://www.w3.org/2000/svg">
<path d="M96.8273 11.2199L96.6376 11.3321C97.0861 10.8145 97.7071 10.4091 98.3454 10.0296C96.0941 10.0296 93.8256 10.3401 95.4472 13.6006C94.0413 12.4189 92.3938 12.8933 92.6871 13.2297C92.7043 13.6869 92.687 14.1009 92.618 14.489C92.6784 14.2389 92.7302 13.9801 92.7561 13.7041C92.7215 13.9801 92.6784 14.2389 92.618 14.489C92.204 16.9301 90.2028 18.0514 88.081 19.1555C86.9338 19.7938 84.1908 21.9156 82.8883 22.4418C82.7072 22.5281 82.5261 22.6143 82.3536 22.7092C82.5836 22.6402 82.8108 22.5712 83.035 22.5022C82.8021 23.4079 82.621 24.2532 82.3364 24.9605C82.6038 25.064 82.8021 25.2279 83.2593 25.2882L82.8797 25.409C83.173 26.1767 82.6123 26.677 82.5865 27.1514C82.3622 26.815 82.1121 26.9443 81.8879 27.0737L82.1379 27.1945C81.353 27.7206 80.801 28.704 80.1714 29.2474C80.0851 29.325 79.9212 29.2819 79.7918 29.2215L79.4295 29.9978C79.1017 29.5751 78.6274 30.1186 78.6705 29.6183C78.6792 30.4895 77.9719 30.6275 78.015 31.4986C76.609 32.9736 75.3324 34.7764 74.4439 36.881L74.6165 36.9845C74.3318 37.7522 74.6078 38.9598 73.7194 39.3393C73.7625 40.2967 73.3744 41.2024 73.9782 42.1685C73.5641 42.7981 73.7453 43.3933 73.4348 44.1092C73.9523 44.368 73.4089 45.0753 73.9609 45.127C74.8407 45.3341 74.4008 44.851 75.1254 45.0149L74.9873 44.8942C76.9108 44.1524 78.5929 43.169 80.1368 42.0132C80.732 40.7884 81.9914 40.0897 82.8539 39.0633C83.7423 37.9247 84.6135 36.5877 85.1828 35.3974C85.2863 35.0783 85.7606 35.2594 86.1143 35.2766C86.7612 34.3106 87.9257 33.4394 88.6416 32.3267C88.6244 32.344 88.5986 32.3526 88.5813 32.3526C89.004 31.8092 89.7716 31.8609 90.177 31.3261C90.0649 31.214 90.1338 31.1364 90.1079 31.0415C90.7031 31.49 91.859 27.2117 92.3161 27.3498C92.342 27.2807 92.3679 27.2031 92.411 27.1427C93.6445 26.3923 95.6888 26.3837 96.4565 25.4349C96.4047 25.0036 96.396 24.5809 96.2839 24.1497C96.6548 24.2187 96.258 23.7615 96.4995 23.6408C98.0004 24.2187 97.8365 23.5114 97.2327 23.382C97.4742 22.8645 97.9486 22.5712 98.2505 22.1917C98.3282 21.9588 98.4058 21.7259 98.4748 21.4757C98.5179 21.2515 98.7508 21.3291 99.0613 21.5102C99.2597 21.0186 99.415 21.3722 99.8808 21.1135C100.338 21.3895 100.2 19.6212 100.416 19.6299V19.742C100.89 19.3797 101.873 19.7938 102.313 19.4056C103.71 18.5085 104.659 16.9732 105.815 15.9985C105.436 15.619 105.677 16.3176 105.151 15.8432C105.824 15.2653 106.919 15.0669 107.601 14.4804C107.816 14.4632 108.144 14.4977 108.325 14.558C108.67 14.4804 108.248 14.2561 108.446 14.1526L108.817 14.4632C108.731 13.9715 109.516 14.4977 109.567 14.144C109.438 13.9974 109.49 13.9025 109.567 13.8421C109.947 14.1871 109.757 13.5833 110.093 13.9111L110.068 13.8852C110.119 13.8421 110.119 13.7904 110.24 13.7904C110.188 13.5833 109.895 11.8237 109.809 11.5822L109.912 11.5995C110.007 11.4701 109.774 11.1596 109.645 11.1682L109.8 11.0388V11.0819L109.964 10.9525C110.024 10.9525 110.231 11.0819 110.361 11.2803C110.3 11.0733 110.318 10.918 110.464 10.8922C110.016 10.918 109.421 10.9094 108.817 10.8059C108.774 10.5903 109.145 10.5903 109.196 10.435C109.567 10.5299 110.024 10.4523 110.387 10.4005C110.404 10.3315 110.007 9.91748 110.292 9.98648C110.637 10.2021 110.387 9.8571 110.68 9.96061C110.749 10.2021 110.585 10.2366 110.482 10.3229C110.844 10.6161 110.939 10.2884 111.111 10.297C111.034 10.159 111.327 10.0641 111.336 9.8571C111.62 10.2107 111.637 9.94335 111.888 10.0296C112 9.97786 111.913 9.80534 111.767 9.73634C111.422 9.38269 111.249 9.87435 110.973 9.41719C111.18 9.54658 111.258 9.32231 111.327 9.22743C111.129 9.04629 111.12 9.1498 110.982 8.92554C111.111 8.86516 110.965 8.55464 111.223 8.67539C111.258 8.7444 111.189 8.75302 111.163 8.7789C111.301 8.66677 111.844 10.6161 111.879 10.3488C111.663 10.2366 111.344 8.58051 111.258 8.64952C111.094 8.64089 110.947 8.27862 110.809 8.29587L110.973 8.59777C110.801 8.64089 110.413 8.3735 110.309 8.21824C110.507 8.06298 111.206 9.94335 111.146 9.60696L110.991 9.58971C110.922 9.40857 110.965 9.13255 111.241 9.24468C111.042 9.07217 111.051 8.91691 111.051 8.7789H111.111C111.077 8.61502 111.223 8.55464 110.921 8.3735C110.551 8.84791 109.179 6.31199 108.679 6.63976C109.274 6.84677 109.067 7.09692 108.955 7.32981C108.791 7.21767 108.498 7.10554 108.265 7.14867C108.196 7.2953 108.36 7.35568 108.455 7.47644C108.299 7.45056 108.101 7.51094 107.894 7.28668C108.084 7.62308 107.592 7.28668 107.583 7.46781C107.626 7.67483 107.704 7.5627 107.773 7.75246C107.618 7.87322 107.394 8.04573 107.238 8.11473C106.988 7.9681 106.488 7.76108 106.246 7.36431C106.488 7.18317 106.712 7.9336 106.842 7.64033C106.264 7.30393 106.893 7.32118 106.557 6.94166C106.272 6.8209 106.134 6.95891 106.091 7.14004L106.177 7.17455C106.143 7.33843 106.048 7.64895 105.686 7.52819C105.539 7.34706 105.367 7.27805 105.393 7.16592L105.229 7.28668C105.263 7.35568 105.306 7.42469 105.384 7.41606C105.453 7.60582 105.315 7.60582 105.168 7.57132C104.978 7.42469 105.203 9.04629 105.116 8.91691C105.022 9.02904 104.728 8.80478 104.815 9.0808C104.953 9.22743 105.134 7.50232 105.065 7.69208C104.789 7.60582 104.858 9.71909 104.452 9.47757C104.392 9.57245 104.34 9.70184 104.539 9.84847C104.332 9.90023 104.228 9.4862 103.969 9.42582C103.995 9.4517 104.064 9.50345 104.03 9.52933L103.719 9.40857C103.814 9.87435 103.167 9.83985 103.34 10.4005C103.202 10.159 102.926 9.76222 102.874 9.46032L102.995 9.5207C102.96 9.4517 102.995 9.27918 102.813 9.1153C102.572 9.13255 102.503 9.27918 102.555 9.58108C102.486 9.56383 102.408 9.54658 102.339 9.5207C102.365 9.53795 102.382 9.56383 102.408 9.58108C102.253 9.5207 102.244 9.50345 102.184 9.41719C102.175 9.39994 102.158 9.38269 102.149 9.36544C101.546 8.95141 102.003 10.1935 101.502 10.1762C101.511 10.3143 101.589 10.2711 101.606 10.4523C101.166 10.504 100.847 10.5213 100.493 10.6593C100.64 10.9525 100.726 11.0474 101.054 11.1682L100.795 11.2889C100.355 10.5471 99.8808 11.1078 99.4668 10.3401C99.277 10.2625 99.139 10.3574 99.139 10.5558C99.277 10.711 99.5098 10.9612 99.3804 11.0906C99.0009 11.0906 99.1131 11.1078 98.7767 11.0819C98.5438 10.9353 98.5179 10.7973 98.3627 10.6593C98.3885 11.1337 97.733 10.4609 97.5604 10.7197C97.4828 10.918 97.2413 11.2113 97.5777 11.5477C97.3793 11.7202 97.1292 11.4787 96.8705 11.1941L96.8273 11.2199Z" fill="#565656"/>
<path d="M79.0672 8.43386L79.5158 8.51149C78.0581 8.41661 76.5227 8.14059 75.0046 7.8732C78.2995 9.21016 82.1896 11.0215 84.7342 8.32173C85.0102 9.83983 88.2103 10.8663 88.2706 10.4695C88.9348 10.228 89.6077 10.0296 90.2891 9.86571C89.8233 9.96059 89.3575 10.0555 88.8918 10.1762C89.3575 10.0555 89.8147 9.95196 90.2891 9.86571C92.4369 9.34817 94.6795 9.24466 96.9826 9.37405C98.1384 9.44305 99.3028 9.57244 100.493 9.7277C101.08 9.81395 101.675 9.90021 102.279 9.98646L102.727 10.0555L102.951 10.09H103.003L103.193 10.0296C103.245 10.0123 103.305 9.97784 103.365 9.94334C103.426 9.91746 103.486 9.81395 103.547 9.89158C103.659 9.96059 103.771 10.0382 103.848 10.1158C103.797 10.2711 103.745 10.4177 103.693 10.5385C103.659 10.5989 103.659 10.6593 103.598 10.711C103.486 10.7628 103.383 10.8059 103.271 10.849C103.158 10.8921 103.055 10.9267 102.943 10.9525L102.779 10.987L102.701 11.0043C102.701 11.0043 102.684 11.1423 102.675 11.2027C102.615 11.7806 102.555 12.2895 102.486 12.7035C102.425 13.1003 102.382 13.4971 102.348 13.9025C102.44 13.4597 102.534 13.0169 102.632 12.5741C103.158 14.2475 103.667 15.7656 104.021 17.2319C104.262 16.9732 104.504 16.93 104.84 16.3176L104.694 17.0681C105.444 17.7495 105.453 19.328 105.781 20.0611C105.401 19.9059 105.349 20.4838 105.306 21.0013L105.548 20.7943C105.461 22.7437 105.85 25.0122 105.884 26.7546C105.893 26.9961 105.772 27.1772 105.66 27.2894L106.005 28.9627C105.548 28.8333 105.694 30.3514 105.375 29.5493C105.97 30.8 105.746 32.0679 106.324 33.2669C106.635 37.5365 107.316 42.0736 108.023 46.4812L108.109 46.3691C108.377 47.9131 108.825 49.2759 108.739 51.1477C109.015 52.4846 109.101 54.3909 109.283 54.9257C109.231 56.4697 109.265 57.0907 109.11 58.6088C109.145 58.4104 109.11 58.7813 109.058 59.1091C108.998 59.4368 109.041 59.7129 109.024 59.342C109.214 58.3328 109.196 58.281 109.395 57.4271L109.377 57.453C110.137 53.468 111.059 49.4743 111.784 45.4376C111.931 42.7464 112.5 39.8223 112.716 37.019C112.905 34 112.879 30.7396 112.647 28.1519C112.543 27.5309 112.966 27.091 113.224 26.5648C113.155 24.1841 113.466 21.1566 113.276 18.474C113.276 18.5258 113.259 18.5775 113.25 18.6034C113.207 17.1802 113.785 16.1106 113.733 14.7133C113.578 14.7133 113.578 14.5063 113.5 14.4028C113.682 14.3424 113.69 13.799 113.604 13.014C113.561 12.6173 113.492 12.1687 113.414 11.6771C113.397 11.5563 113.371 11.4356 113.354 11.3062L113.319 11.1164L113.302 11.0215L113.285 10.8663C113.233 10.435 113.19 10.0037 113.138 9.56381C112.948 7.83007 112.681 6.28609 112.741 4.88013C112.724 3.54316 112.741 2.62023 112.879 2.29245C112.862 2.07682 112.854 1.85255 112.854 1.61104L112.948 1.03312C111.836 1.03312 110.74 0.981368 109.567 0.920989C108.972 0.895112 108.368 0.860611 107.773 0.834735C107.212 0.748479 106.643 0.653597 106.091 0.567341C105.505 0.489711 104.918 0.403456 104.349 0.325826C104.047 0.291324 103.754 0.256821 103.46 0.222318L103.012 0.179191L102.736 0.136062C102.072 0.0411811 101.433 -0.0105714 100.83 0.0325565C100.277 0.386205 99.6651 0.688099 99.1993 1.07625C98.7507 0.78298 98.6645 1.36952 98.1297 1.30051C96.7669 -0.0795765 95.9647 0.55009 96.672 1.01587C95.5507 1.24014 94.4208 1.14525 93.4202 1.23151C92.9544 1.35227 92.4973 1.4644 92.0315 1.60241C91.6347 1.73179 91.4104 1.53341 91.212 1.23151C90.1942 1.4644 90.4961 1.11938 89.4352 1.04175C89.1764 0.61047 86.7698 1.89568 86.4679 1.7663L86.6405 1.69729C85.407 1.67141 84.5962 0.912364 83.3886 0.964118C80.0506 0.92099 76.4019 1.56791 73.3054 1.80942C73.2709 2.14582 73.9867 1.65416 74.0212 2.10269C72.1926 2.21483 70.3554 2.05956 68.5095 2.29245C68.1731 2.26658 67.7677 2.2062 67.6211 2.14582C67.0345 2.14582 67.276 2.31833 66.8448 2.36146L66.7844 2.15445C66.1548 2.43909 65.8615 2.09407 65.275 2.30108C65.2405 2.38734 65.0248 2.43909 64.8178 2.47359C64.8091 2.2752 64.1709 2.62023 64.1968 2.43909V2.45634C64.0674 2.48222 63.9725 2.50809 63.8172 2.51672C63.5757 2.65473 61.3158 3.55179 61.0743 3.62942H60.9622C60.6258 3.6898 60.4791 3.81055 60.6775 3.80193L60.2634 3.86231L60.3153 3.84506L59.9012 3.91406C59.8236 3.91406 59.7373 3.87956 59.8581 3.81056C59.6252 3.89681 59.3578 3.96582 59.1249 3.99169C59.7805 3.92269 60.5913 3.88819 61.2727 3.93994C60.988 4.02619 60.4877 4.01757 60.1772 4.07795C59.8149 4.05207 59.0645 4.11245 58.4866 4.18146C58.3572 4.21596 58.271 4.31084 57.9777 4.32809C57.8397 4.29359 57.6499 4.38847 57.4084 4.39709C57.6844 4.31946 57.9604 4.27634 58.2365 4.22458C58.1847 4.15558 57.5551 4.31946 57.3308 4.34534C57.2273 4.38847 56.6839 4.47472 56.3475 4.56961C56.4941 4.5006 56.0715 4.61273 55.8731 4.64723C55.6402 4.69899 55.4935 4.74212 55.5884 4.73349C55.5108 4.76799 56.5027 4.55235 56.1836 4.65586C56.0973 4.65586 55.6488 4.75074 55.4073 4.8025C55.4073 4.81112 55.5712 4.77662 55.4073 4.81975C55.1485 4.8715 54.9933 4.906 54.7 4.95776C54.7863 4.9405 54.8639 4.92325 54.9415 4.906C54.5878 5.00951 56.8391 4.40572 56.3906 4.5006C56.5113 4.51785 54.3981 5.04401 54.631 4.96638C54.8466 4.92325 54.4757 4.99226 54.7 4.95776L54.9415 4.91463C55.2434 4.85425 55.3641 4.85425 55.2606 4.88013C54.7517 4.99226 56.7011 4.5351 56.2699 4.62136L56.4423 4.59548C56.2612 4.64724 55.7695 4.75074 55.5798 4.77662C55.5798 4.78525 55.3297 4.84562 55.1226 4.88875L55.0536 4.906C54.838 4.94913 54.5447 5.00951 54.6827 4.98363C55.3038 4.8715 55.0968 4.93188 54.8897 4.96638C54.6827 5.00088 54.4671 5.00088 55.0709 4.97501C54.562 4.99226 55.2434 4.95776 55.7696 4.91463C55.8213 4.91463 56.0542 4.92325 56.4337 4.91463C56.7615 4.89738 56.6321 4.88875 56.6925 4.8715C56.8736 4.8715 57.2273 4.8715 57.1755 4.906C57.4343 4.85425 57.5895 4.92325 57.8914 4.906C58.1674 4.8715 57.8742 4.88013 58.0639 4.85425C58.4693 4.85425 59.0386 4.84562 59.3664 4.837C59.4958 4.88875 59.8753 5.00088 59.5993 5.09576C58.9783 5.07851 59.8322 4.94913 59.1939 4.96638C59.4699 5.09577 58.6246 5.00088 58.5039 5.08714C58.7109 5.13889 59.1249 5.15615 59.4699 5.14752L59.4009 5.13027C59.7028 5.13027 60.3238 5.09577 60.6516 5.19065C60.574 5.2424 60.7206 5.29415 60.4964 5.30278L60.919 5.32866C60.9708 5.3114 61.0312 5.29415 60.9018 5.2769C61.1002 5.23377 61.2985 5.2769 61.4538 5.3114C61.4969 5.40629 63.6964 5.06126 63.6274 5.08714C63.9293 5.08714 64.007 5.22515 64.3003 5.13027C64.3348 5.07851 61.3934 5.35453 61.7988 5.32003C61.9282 5.36316 62.7908 5.32003 63.6447 5.23377C64.4986 5.15614 65.344 5.05264 65.4302 5.14752C65.6545 5.14752 65.9304 5.12164 65.8701 5.01813C66.2496 5.06989 65.758 5.21652 66.0254 5.32003C66.0254 5.30278 65.9995 5.26828 66.0857 5.26828L66.3445 5.40629C66.9311 5.25103 67.8022 5.50117 68.4233 5.26828C68.2421 5.39766 68.0438 5.62193 67.6384 5.71681L67.5693 5.65643C67.509 5.69093 67.1812 5.71681 67.1984 5.82894C67.578 5.92382 67.8971 5.92382 68.2939 5.82894C68.3715 5.86344 68.4492 5.90657 68.5095 5.94107C68.5095 5.92382 68.5095 5.91519 68.5095 5.88932C68.6389 5.97557 68.6216 5.9842 68.5785 6.02733C68.5785 6.02733 68.5613 6.04458 68.5527 6.0532C68.7856 6.44135 70.0362 5.89794 70.7263 6.13083C70.9333 6.08771 70.7435 6.06183 71.0023 6.00145C71.7096 6.19121 72.1926 6.3551 72.9344 6.49311C73.1673 6.3206 73.1846 6.23434 72.8999 6.02733L73.4606 6.11358C72.9517 6.59661 74.5043 6.66562 73.9436 7.15728C74.1075 7.28666 74.4439 7.34704 74.7544 7.27803C74.7889 7.14865 74.8321 6.93301 75.2288 6.95889C75.7723 7.17453 75.6429 7.10552 76.1 7.31254C76.2035 7.5023 76.0397 7.56268 76.0569 7.70931C76.7556 7.52818 76.6693 8.16647 77.3249 8.19234C77.7389 8.17509 78.5496 8.21822 78.5755 7.8732C79.1276 7.92495 79.1276 8.18372 79.0759 8.46836L79.0672 8.43386Z" fill="#565656"/>
<path d="M49.8352 105.256L48.9036 105.342C49.6454 105.221 50.4045 105.109 51.1721 105.006C51.9312 104.868 52.6816 104.661 53.4493 104.514C55.0019 104.264 56.4769 103.677 58.0036 103.263C54.5016 103.824 50.8358 103.893 47.4804 104.152C45.7812 104.143 44.1595 104.428 42.5897 104.583C41.8048 104.695 41.0285 104.919 40.278 105.118C39.5276 105.29 38.7858 105.532 38.0526 105.86C37.9836 105.377 37.5351 104.937 36.9227 104.48C36.3189 103.979 35.5512 103.505 34.7922 103.117C34.0159 102.763 33.3 102.332 32.7393 102.082C32.1786 101.823 31.7732 101.711 31.7042 101.806C31.3678 101.771 31.0228 101.745 30.6864 101.685L29.6945 101.443C29.0303 101.279 28.3575 101.09 27.6847 100.9C28.599 101.193 29.5133 101.461 30.4104 101.711C29.5133 101.461 28.6077 101.193 27.6847 100.9C23.51 99.4767 19.5853 96.6476 16.5664 92.9213C13.5215 89.2123 11.4341 84.6063 10.4163 79.8104C9.76078 77.1796 9.06209 72.1251 9.70039 67.1395C9.73489 66.829 9.73493 66.5184 9.79531 66.2079L9.97641 65.2936C10.0972 64.6898 10.218 64.086 10.3301 63.4909C10.4163 62.8871 10.6492 62.335 10.8045 61.7744C10.977 61.2223 11.1409 60.6789 11.3048 60.1528C12.0983 58.0999 12.8746 56.3575 13.6336 55.2276C14.0477 54.5634 14.3669 53.8647 14.8585 53.2437C14.4272 53.744 14.2633 54.0286 14.0908 54.3046C13.9097 54.5807 13.7372 54.8567 13.3835 55.4087C13.5043 55.0119 13.625 54.6152 13.7458 54.227C13.8579 53.8302 13.9787 53.4421 14.1512 53.0798C14.4704 52.338 14.7809 51.6048 15.0828 50.8889C15.2208 50.518 15.4105 50.1816 15.6003 49.8452C15.7901 49.5088 15.9798 49.1724 16.1696 48.8446C16.5577 48.1891 16.8941 47.4904 17.3685 46.9125C17.0925 47.0247 16.8855 47.0505 16.6095 47.1454C16.3421 47.2489 16.0316 47.4301 15.4968 47.8355C15.8677 47.4646 16.1782 47.0419 16.5923 46.7141C16.782 45.9465 17.4548 44.9373 18.1707 43.954C18.9815 43.0483 19.8441 42.1685 20.3271 41.5129C20.3271 41.7889 20.5686 41.7113 20.9309 41.5129C21.3018 41.3318 21.7935 41.0126 22.242 40.7107L21.7331 40.7625C25.0798 38.3387 29.2546 35.8114 32.8428 34.7677C33.3258 34.5693 33.7571 34.6642 34.0159 34.7246L35.6892 34.1381C36.2499 33.9397 36.8106 33.724 37.3971 33.6119C37.2332 34.1812 40.3643 33.6378 38.7599 34.2157C39.381 33.9742 40.0193 33.7413 40.6748 33.6291C41.3304 33.5343 41.9859 33.4739 42.6501 33.4049C43.3056 33.3618 43.9612 33.2237 44.6081 33.2151C45.255 33.1892 45.9019 33.1202 46.5575 32.9909C51.1118 33.241 55.7696 34.2761 60.1945 36.1306C64.6194 37.9851 68.7942 40.6504 72.4256 43.954L72.4083 43.6434C73.0466 44.23 73.7366 44.7389 74.3749 45.2995C74.996 45.8947 75.617 46.4812 76.2467 47.0937C76.9109 47.6974 77.4456 48.422 77.9891 49.2069C78.5152 50.0005 79.1103 50.8285 79.4554 51.855C79.947 52.4674 80.4559 53.1661 80.9735 53.8906C81.491 54.6152 81.8792 55.4173 82.3277 56.1419C82.7504 56.8751 83.242 57.5392 83.5698 58.1171C83.9234 58.695 84.2857 59.135 84.6307 59.3851C84.8895 60.2822 85.1914 61.0326 85.3898 61.7313C85.5795 62.4299 85.7693 63.0682 85.9677 63.6979C86.1575 64.3362 86.3731 64.9658 86.5542 65.6818C86.6836 66.3977 86.8216 67.1826 86.9338 68.1228C87.1839 67.6225 87.3996 68.5282 87.5893 69.339C87.7963 70.1671 87.8912 70.7708 88.1155 69.9169C88.7451 67.3379 88.1327 67.2257 88.564 64.9917L88.3914 65.078C88.124 54.7877 83.6819 44.437 76.1259 36.7947C74.7113 35.682 73.3744 34.4486 71.8304 33.4135C71.08 32.8787 70.3468 32.3094 69.5705 31.7919C68.7769 31.3089 67.9747 30.8172 67.1726 30.3256L65.965 29.5924L64.697 28.9627L62.1611 27.7206C61.2899 27.3584 60.4015 27.0565 59.5217 26.7287C58.6333 26.4182 57.7707 26.0732 56.8564 25.8834C55.8817 25.6591 54.8984 25.4349 53.9064 25.2106C52.9231 24.9777 51.8967 24.926 50.8875 24.7879C48.8777 24.4688 46.8335 24.5205 44.8496 24.5033H44.1078L43.366 24.5723C42.8744 24.6154 42.3913 24.6672 41.9083 24.7103C40.9422 24.8224 39.9934 24.8656 39.0705 25.0467C38.1562 25.2365 37.2591 25.4262 36.3793 25.616C35.948 25.7109 35.5167 25.8058 35.0941 25.9006C34.68 26.03 34.2747 26.168 33.8692 26.2974C33.1102 26.5734 32.4288 26.6683 31.756 26.7114C31.4196 26.7373 31.0832 26.7373 30.7468 26.7546C30.4104 26.7804 30.0826 26.8322 29.7376 26.884C29.0131 27.1772 28.2626 27.4705 27.4949 27.781C27.1154 27.9363 26.7187 28.0743 26.3305 28.2554C25.951 28.4452 25.5714 28.6349 25.1833 28.8247C24.407 29.2042 23.6221 29.601 22.8199 29.9978C22.035 30.4118 21.2846 30.9207 20.5083 31.3865C18.9211 32.2836 17.4893 33.4394 16.0488 34.5521C15.307 35.0869 14.6774 35.751 14.0218 36.3548C13.3835 36.9845 12.728 37.5797 12.1328 38.2266C12.2191 38.1317 12.314 38.0454 12.383 37.9937C11.7533 38.6751 11.1667 39.3134 10.5716 39.9086C9.99366 40.521 9.35537 41.0299 8.84646 41.6682C8.31168 42.2806 7.78554 42.8844 7.25075 43.5313C6.98336 43.8504 6.72461 44.1868 6.45722 44.5319C6.22433 44.8941 5.99139 45.2737 5.76713 45.6704C5.90514 45.7394 5.62049 46.2225 5.55149 46.4985C5.05983 46.5503 2.54983 51.4064 1.38538 56.6939C0.143296 61.9814 0.367568 67.3896 0.151928 67.9934C0.169179 68.3643 0.177778 68.7438 0.177778 69.132C0.0483941 70.0636 0.108769 70.9951 0.0656411 71.9439C0.0570155 72.8841 -0.0206209 73.8415 0.00525576 74.7817C0.0570092 75.7305 0.100175 76.6794 0.151928 77.6282C0.177805 78.1026 0.195035 78.577 0.238163 79.0514C0.307168 79.5172 0.376164 79.983 0.445168 80.4487C0.591803 81.3803 0.738446 82.3119 0.885081 83.2175C1.09209 84.1146 1.35088 84.9944 1.60102 85.8656C2.04955 87.6252 2.80855 89.2037 3.55035 90.6873C3.78324 90.9719 4.01614 91.2652 4.25766 91.5585C4.52505 91.8345 4.78384 92.1105 5.04261 92.3865C5.56877 92.9299 6.07767 93.4302 6.54345 93.8356C6.71596 94.4049 6.94023 94.6723 7.24212 94.9138C7.54402 95.1553 7.88904 95.3968 8.26857 95.9748C8.49283 96.8891 8.7861 97.674 9.07937 98.295C9.36402 98.9247 9.72627 99.3215 9.97641 99.5889C10.5026 100.115 10.7441 99.9684 10.3301 99.1231C12.3657 101.185 14.3927 103.255 16.437 104.816C17.4548 105.446 18.4554 106.075 19.4991 106.653C20.4306 107.076 20.7929 107.55 21.0517 108.12C23.3892 109.301 22.5439 109.215 24.959 110.561C25.0539 110.75 25.5197 110.983 26.1666 111.242C26.8049 111.509 27.6847 111.656 28.5387 111.854C29.3926 112.027 30.2551 112.208 30.9452 112.346C31.6525 112.432 32.1786 112.51 32.3511 112.596L31.9026 112.553C32.6617 112.769 33.3431 113.028 33.9814 113.304C34.6283 113.588 35.2407 113.873 35.8704 114.088C37.1297 114.528 38.3977 115.055 39.9675 115.21C44.3234 115.788 48.964 115.486 53.4062 114.615C57.8311 113.614 61.9886 111.992 65.6459 110.172C65.4734 109.664 64.0846 111.061 63.6792 110.466L65.3095 109.741C65.8615 109.508 66.3704 109.198 66.9052 108.93L68.5096 108.102C69.0443 107.826 69.5964 107.559 70.088 107.223C71.1144 106.584 72.1409 105.929 73.1587 105.256C74.1161 104.505 75.0563 103.729 75.9707 102.918C76.747 102.461 77.6267 101.797 78.0408 101.625C79.2483 100.589 78.4807 100.762 79.3002 99.9598L79.7745 100.158C80.2144 99.4164 80.6371 98.9678 81.146 98.5883C81.6377 98.2002 82.1466 97.8206 82.5434 97.1133C82.4313 96.9236 82.7762 96.4578 83.104 95.9834C83.5525 96.2422 83.9925 94.4653 84.3461 94.7844L84.3202 94.7499C84.51 94.4567 84.6049 94.2324 84.9068 93.9132C84.9585 93.7494 85.1138 93.2577 85.3208 92.5935C85.5192 91.9294 85.6831 91.0582 85.8815 90.2215C86.054 89.3848 86.2351 88.5481 86.3731 87.8754C86.468 87.1939 86.5111 86.6764 86.5198 86.5125L86.7009 86.2624C86.9941 85.4171 86.7613 84.934 86.5025 85.3912L86.8992 84.3734V84.5028L87.2875 83.4936C87.3996 83.321 87.6756 83.1658 87.8136 83.5367C87.805 82.8811 87.8826 82.1825 88.1241 81.6132C87.4599 83.2262 86.2437 85.0548 85.1655 86.5039C85.2517 85.7707 85.9504 84.6408 86.1661 83.8903C86.3213 83.7006 86.5111 83.4504 86.6922 83.1485C86.8561 82.8466 87.0201 82.5016 87.1839 82.1394C87.5203 81.4148 87.8653 80.604 88.1672 79.8967C88.2017 79.5603 87.7532 79.2325 88.1068 78.5425C88.5554 78.2492 88.2275 77.7058 88.5984 77.1279C88.6847 77.8783 88.5123 78.5684 88.3397 79.2757C88.8659 79.2584 88.9435 77.5678 89.1678 77.0158C89.0556 76.7225 89.4438 75.3338 89.4179 74.4281C89.8406 74.8594 89.7457 73.7294 90.0131 73.2119C90.0993 72.6081 89.9355 72.2027 89.7716 72.4442C89.2972 72.2286 89.3576 74.8162 88.8918 73.9364C89.1419 73.738 89.116 72.5563 89.1332 71.9353C88.8658 71.918 88.909 72.3493 88.6762 71.9353C88.771 71.2453 88.4864 70.5035 88.7797 70.1067C88.8487 70.2361 88.7796 70.5207 88.771 70.7277C88.8055 70.2792 89.1851 71.504 89.5301 72.7461C89.8923 73.9796 90.1683 75.2303 90.1511 74.6179C90.0217 74.7645 89.7112 73.393 89.4007 72.1078C89.0988 70.8226 88.8142 69.615 88.7883 69.9169C88.633 70.4603 88.3225 69.5288 88.2103 70.0894L88.5036 70.7191C88.3656 71.4954 87.8826 71.7887 87.7187 71.5126C87.7705 70.8744 88.1845 71.7887 88.5467 72.7634C88.909 73.738 89.2281 74.7645 89.1332 74.1866C89.0815 74.3332 89.0384 74.4885 88.9694 74.6351C88.8486 74.1434 88.7451 72.8669 89.0556 72.3925C88.7969 72.3752 88.7365 71.7283 88.6675 71.2021L88.7192 71.0124C88.6157 70.4603 88.7106 69.7099 88.3484 70.0549C88.2966 71.642 87.6496 71.09 86.9855 70.5638C86.3213 70.0377 85.6226 69.5374 85.476 70.9692C86.1143 69.7703 86.0539 71.3919 86.0539 72.6857C85.8469 72.7979 85.5364 73.3499 85.3294 74.2383C85.2604 75.0233 85.4674 74.7214 85.5968 74.8852C85.3984 75.3079 85.1655 76.1187 84.8809 75.9634C85.1483 76.6276 84.5013 76.895 84.5186 77.6368C84.5876 78.3096 84.6825 77.6195 84.786 78.1112C84.5359 79.06 84.1218 80.3625 83.8717 81.0957C83.518 81.3113 82.8108 82.0272 82.5434 81.2768C82.9574 79.9053 83.104 82.01 83.3887 80.5264C82.5951 80.9835 83.5439 79.1894 83.1299 78.8099C82.7245 79.2067 82.4829 80.121 82.3622 80.9145L82.4829 80.7851C82.4398 81.5011 82.069 82.8811 81.4652 83.4763C81.3099 83.2348 81.0338 83.4763 81.1546 82.9847L80.7837 83.8645C80.8096 84.0025 80.8355 84.1491 80.9821 83.9076C80.9907 84.3992 80.7406 84.7874 80.4991 85.0634C80.3956 85.0807 80.0591 86.3141 79.7572 87.5648C79.5934 88.1859 79.4727 88.8242 79.3174 89.2641C79.1622 89.704 79.0586 89.9714 79.0414 89.9196C78.6791 90.532 78.2823 90.4803 78.1356 91.1962C78.1701 91.2393 78.3599 90.8684 78.6187 90.3078C78.8689 89.7385 79.2484 89.0225 79.4554 88.2462C79.9384 86.7281 80.3439 85.3394 80.18 85.7707C80.0506 85.8742 79.8522 86.4004 79.602 87.1336C79.3433 87.8667 79.0932 88.8414 78.6705 89.7298C78.2824 90.6355 77.8855 91.5498 77.5491 92.2399C77.1782 92.9127 76.8332 93.3353 76.678 93.3612C76.3761 93.7925 76.0397 94.3273 76.3157 94.379C75.686 95.0173 76.1 93.8788 75.5394 94.241C75.5653 94.2755 75.6688 94.2755 75.5394 94.4308L74.9356 94.7154C74.6941 95.3882 74.0644 95.9575 73.4951 96.5785C72.9 97.1823 72.3824 97.8551 72.0115 98.5021C72.1496 98.0449 72.1237 97.3635 72.5463 96.5268L72.7447 96.5009C72.7792 96.3543 73.2105 95.7505 73.0121 95.6039C72.3134 96.1128 71.8907 96.6907 71.4336 97.5015C71.2611 97.5619 71.08 97.6481 70.9333 97.6826C70.9592 97.6999 70.9851 97.7171 71.0109 97.743C70.6918 97.8293 70.6918 97.7861 70.7091 97.6481C70.7091 97.6222 70.7091 97.5964 70.7091 97.5705C70.2606 97.4842 69.743 98.1139 69.1479 98.8729C68.5872 99.6665 67.7936 100.417 67.0777 100.745C66.7758 101.098 67.1208 100.865 66.7413 101.323C66.3876 101.504 66.0599 101.668 65.7407 101.823C65.4216 101.97 65.0938 102.082 64.7747 102.211C64.145 102.461 63.5154 102.729 62.7822 103.082C62.4889 103.626 62.5062 103.755 63.2135 103.712C62.8426 103.91 62.4716 104.091 62.0749 104.221C62.6873 103.005 59.6511 104.505 60.3929 103.237C59.9961 103.22 59.3406 103.488 58.7972 103.902C58.8144 104.117 58.8661 104.497 58.064 104.781C56.8564 104.928 57.1497 104.928 56.1491 105.006C55.8472 104.825 56.1491 104.6 56.037 104.411C54.769 105.273 54.6483 104.264 53.3458 104.661C52.535 104.963 50.9047 105.411 50.9392 105.834C49.7748 105.989 49.723 105.644 49.7748 105.247L49.8352 105.256Z" fill="#565656"/>
</svg>
