<svg width="90" height="129" viewBox="0 0 90 129" fill="red" xmlns="http://www.w3.org/2000/svg">
<path d="M50.0105 74.5564L49.1739 74.634C49.8467 74.5219 50.5195 74.4184 51.2095 74.3321C51.8909 74.2113 52.5637 74.0302 53.2538 73.8922C54.6511 73.6766 55.9795 73.159 57.3595 72.7968C54.1767 73.228 50.8817 73.2108 47.8714 73.4264C46.3533 73.4092 44.8956 73.6766 43.4896 73.8491C42.7909 73.9612 42.0923 74.1941 41.4108 74.3925C40.7294 74.5736 40.0653 74.8324 39.3925 75.1602C39.3407 74.6858 38.9353 74.2458 38.4005 73.8059C37.8657 73.3229 37.1843 72.8744 36.5115 72.5035C35.8215 72.1671 35.1918 71.7703 34.6829 71.5374C34.1826 71.3045 33.8204 71.2096 33.7514 71.3045C33.4495 71.2786 33.1303 71.2614 32.8284 71.2183L31.9314 71.0199C31.3276 70.8819 30.7238 70.7266 30.1114 70.5627C30.9394 70.8129 31.7588 71.0371 32.5696 71.2441C31.7588 71.0371 30.9394 70.8042 30.1114 70.5627C26.3247 69.3465 22.7796 66.8192 20.0712 63.4639C17.3369 60.1258 15.491 55.9596 14.6112 51.6469C14.0419 49.2834 13.4381 44.7464 14.0247 40.2784C14.0506 39.7177 14.1713 39.1657 14.2921 38.6309C14.4042 38.0875 14.5077 37.5527 14.6198 37.0179C14.6975 36.4831 14.9045 35.9828 15.0511 35.4825C15.2064 34.9909 15.3616 34.5078 15.5083 34.0334C16.2242 32.2048 16.9315 30.6436 17.6215 29.6517C18.0011 29.0651 18.2857 28.4355 18.7342 27.8834C18.3461 28.3319 18.1908 28.5735 18.0356 28.8236C17.8717 29.0651 17.7078 29.3153 17.3887 29.8069C17.6215 29.1082 17.7509 28.3578 18.0442 27.7023C18.3202 27.0295 18.5876 26.3739 18.8464 25.7184C19.0965 25.0542 19.4846 24.4849 19.7952 23.8639C20.1316 23.2687 20.4248 22.6391 20.8475 22.1129C20.5887 22.1992 20.3903 22.225 20.1316 22.294C19.8814 22.3803 19.5882 22.5356 19.0965 22.8806C19.4329 22.5528 19.7175 22.1733 20.0971 21.88C20.2351 21.1641 20.8302 20.2498 21.4685 19.3441C22.1931 18.5247 22.9694 17.7225 23.392 17.1101C23.4093 17.3688 23.6249 17.3085 23.9613 17.1446C24.3064 16.9893 24.7463 16.7047 25.1517 16.4373L24.6772 16.4632C27.7048 14.2895 31.4483 11.9865 34.6915 11.0463C35.1228 10.8652 35.5196 10.9687 35.7611 11.0377L37.2706 10.4943C37.7709 10.3045 38.2798 10.1147 38.8059 10.0026C38.6679 10.5633 41.4885 10.0716 40.048 10.6236C40.6087 10.3908 41.178 10.1665 41.7645 10.063C42.351 9.97673 42.9462 9.91635 43.5414 9.84735C44.1365 9.80422 44.7231 9.67484 45.3096 9.66621C45.8962 9.63171 46.4827 9.56271 47.0692 9.43332C51.1836 9.65759 55.3843 10.5719 59.3952 12.2366C63.3974 13.8927 67.1927 16.2734 70.5221 19.2406V18.9473C71.1001 19.4735 71.7383 19.9306 72.3335 20.4309C72.9028 20.9571 73.4807 21.4919 74.0673 22.0353C74.6797 22.5787 75.1713 23.2342 75.6716 23.9415C76.1546 24.6661 76.6894 25.4079 77 26.3481C77.4571 26.8915 77.9401 27.5298 78.4232 28.1767C78.9062 28.8322 79.2685 29.5568 79.6998 30.2037C80.0965 30.8679 80.5623 31.463 80.8815 31.9892C81.2265 32.5067 81.5715 32.9121 81.9079 33.1278C82.1494 33.9472 82.4254 34.6286 82.6152 35.2669C82.7963 35.9052 82.9775 36.4831 83.1586 37.061C83.3398 37.6389 83.5468 38.2168 83.7193 38.8724C83.8487 39.5279 83.978 40.2525 84.0902 41.1064C84.3403 40.6493 84.5473 41.4773 84.7371 42.2191C84.9355 42.9868 85.039 43.5302 85.2633 42.7453C85.9102 40.3819 85.2891 40.2697 85.7377 38.2169L85.5651 38.2945C85.384 28.8322 81.33 19.2751 74.3864 12.2194C73.0753 11.2016 71.8419 10.063 70.4186 9.1228C69.7286 8.63114 69.0472 8.10498 68.3399 7.63058C67.6067 7.18205 66.8735 6.73352 66.1317 6.28499L65.0191 5.61219L63.8546 5.03428L61.5171 3.89571C60.7149 3.55931 59.8955 3.27466 59.0847 2.98139C58.2738 2.69675 57.4717 2.3776 56.6264 2.20509C55.7293 2.00671 54.8236 1.79969 53.9093 1.59268C53.0036 1.38567 52.0548 1.33391 51.1319 1.20453C49.2774 0.919884 47.397 0.971638 45.577 0.963013H44.8956L44.2142 1.03202C43.7656 1.07515 43.3171 1.11827 42.8686 1.17003C41.9801 1.27353 41.109 1.32529 40.2637 1.48917C39.4184 1.67031 38.5989 1.85145 37.7968 2.02396C37.4 2.11021 37.0032 2.20509 36.615 2.29135C36.2355 2.41211 35.8646 2.54149 35.4937 2.66225C34.8037 2.92102 34.174 3.00727 33.5443 3.03315C33.2338 3.0504 32.9233 3.0504 32.6128 3.0504C32.3023 3.06765 31.9917 3.10215 31.6726 3.15391C31.0084 3.4213 30.3184 3.69732 29.6111 3.99059C29.2574 4.13722 28.8952 4.25798 28.5415 4.43049C28.1965 4.603 27.8428 4.77551 27.4806 4.95665C26.7646 5.3103 26.0401 5.67257 25.3069 6.03485C24.5824 6.41437 23.8923 6.88015 23.1764 7.31143C21.7187 8.13949 20.399 9.20043 19.0706 10.2269C18.3892 10.7185 17.8113 11.3309 17.2075 11.8916C16.621 12.4695 16.0172 13.0216 15.4824 13.6167C15.56 13.5305 15.6549 13.4528 15.7153 13.4097C15.1374 14.0394 14.6026 14.6259 14.0506 15.1693C13.5158 15.73 12.9292 16.1958 12.4548 16.7737C11.9632 17.3343 11.4715 17.8864 10.9799 18.4815C10.7383 18.7748 10.4882 19.0853 10.2467 19.3959C10.031 19.7323 9.82403 20.0773 9.60839 20.4482C9.7464 20.5172 9.48763 20.9657 9.42725 21.2245C8.95284 21.2504 6.65844 25.7443 5.62337 30.6091C4.51067 35.4825 4.76081 40.4422 4.54517 40.9943C4.56242 41.3307 4.57968 41.6843 4.57968 42.038C4.45892 42.8919 4.51067 43.7545 4.46755 44.617C4.45029 45.4796 4.38129 46.3594 4.38992 47.2306C4.42442 48.1017 4.46755 48.9816 4.50205 49.8441C4.52793 50.284 4.52792 50.7239 4.57105 51.1552C4.63143 51.5865 4.69181 52.0178 4.75219 52.4404C4.88157 53.303 5.01096 54.1569 5.13172 54.9936C5.31285 55.8216 5.54574 56.6324 5.77 57.4346C6.1754 59.0562 6.86545 60.5139 7.5555 61.8768C7.77114 62.1355 7.9954 62.4029 8.22829 62.6703C8.47844 62.9205 8.72858 63.1706 8.97009 63.4208C9.46175 63.9124 9.94478 64.3696 10.3933 64.7318C10.6693 65.8187 11.299 65.6375 11.989 66.6898C12.1702 67.5524 12.4289 68.277 12.6877 68.8549C12.9379 69.4414 13.2742 69.8037 13.5071 70.0538C13.9902 70.5368 14.2317 70.3816 13.8694 69.5967C15.7498 71.477 17.6129 73.3833 19.4847 74.8238C20.4249 75.3931 21.3564 75.9623 22.3138 76.4885C23.1764 76.868 23.4956 77.3252 23.7198 77.8686C25.8762 78.9382 25.0827 78.8864 27.2994 80.1285C27.3857 80.3096 27.8083 80.5339 28.4035 80.7581C28.9987 80.9997 29.8095 81.1291 30.5944 81.3016C31.3793 81.4568 32.1729 81.6035 32.8112 81.7242C33.4581 81.7932 33.9411 81.8622 34.105 81.9485L33.691 81.9226C34.3896 82.1296 35.0107 82.3711 35.5972 82.6299C36.1838 82.8973 36.7444 83.1733 37.331 83.3803C38.4782 83.8116 39.6512 84.3119 41.0917 84.4585C45.1026 85.0019 49.3723 84.7259 53.4694 83.9237C57.5493 83.0008 61.3704 81.4999 64.7344 79.8352C64.5533 79.3263 63.2939 80.6633 62.9058 80.0681L64.4066 79.4039C64.9155 79.1883 65.3813 78.9037 65.8816 78.6621L67.3652 77.9117C67.8655 77.6616 68.3658 77.4201 68.8315 77.1095C69.7803 76.523 70.7292 75.9365 71.6694 75.3154C72.5578 74.634 73.4204 73.9181 74.2657 73.1763C74.9902 72.7622 75.8183 72.1671 76.2064 72.0204C77.3364 71.0803 76.5946 71.2096 77.3622 70.4765L77.828 70.6835C78.5353 69.2516 79.6566 69.1999 80.4071 67.8974C80.2863 67.7163 80.6054 67.2764 80.9073 66.8451C81.3472 67.1039 81.7268 65.4391 82.0804 65.7583L82.0546 65.7238C82.2271 65.4564 82.3219 65.2408 82.5979 64.9475C82.6411 64.7922 82.7791 64.3351 82.9602 63.714C83.1327 63.093 83.2707 62.2822 83.4346 61.5059C83.5813 60.7296 83.7279 59.9447 83.8487 59.3236C83.9263 58.6939 83.9522 58.2109 83.9522 58.0557L84.1247 57.8228C84.3921 57.0465 84.1505 56.5893 83.9004 57.0033L84.2713 56.0718V56.1925L84.6336 55.261C84.7457 55.1057 85.0131 54.9677 85.1597 55.3127C85.1339 54.7089 85.2029 54.062 85.4358 53.5359C84.7975 55.0108 83.6503 56.6928 82.6152 58.0039C82.6756 57.3225 83.3484 56.296 83.5381 55.606C83.6934 55.4335 83.8659 55.2006 84.0384 54.9332C84.1937 54.6572 84.3489 54.3467 84.5128 54.0103C84.832 53.3461 85.1597 52.6043 85.4444 51.9574C85.4789 51.6469 85.0131 51.3363 85.3668 50.7067C85.8067 50.4479 85.4703 49.9304 85.8412 49.4128C85.936 50.1029 85.7722 50.7412 85.6083 51.3881C86.1258 51.3795 86.1862 49.8182 86.4104 49.3093C86.2983 49.0419 86.6606 47.7567 86.6261 46.9287C87.0487 47.3341 86.9452 46.2904 87.2126 45.816C87.2989 45.2553 87.135 44.893 86.9625 45.1087C86.4881 44.9017 86.5571 47.2909 86.0827 46.4801C86.3328 46.299 86.307 45.2122 86.3156 44.6343C86.0482 44.617 86.0913 45.0138 85.8584 44.6343C85.9447 43.996 85.66 43.3146 85.9533 42.9523C86.0223 43.073 85.9619 43.3318 85.9533 43.5216C85.9878 43.1075 86.3673 44.2375 86.721 45.3761C87.0833 46.5146 87.3765 47.6705 87.3506 47.1012C87.2213 47.2306 86.9021 45.9712 86.5916 44.7895C86.2811 43.5992 85.9964 42.4951 85.9705 42.7711C85.8153 43.2714 85.5048 42.4175 85.3926 42.9264L85.6859 43.5043C85.5565 44.2116 85.0735 44.479 84.901 44.2289C84.9527 43.6423 85.3668 44.4876 85.7377 45.3847C86.1086 46.2818 86.4277 47.2306 86.3242 46.6958C86.2724 46.8338 86.2379 46.9718 86.1689 47.1012C86.0396 46.644 85.936 45.471 86.2466 45.0397C85.9878 45.0224 85.9188 44.4272 85.8498 43.9442L85.9015 43.7717C85.7894 43.2714 85.8843 42.5728 85.522 42.8919C85.4703 44.3496 84.832 43.8407 84.1592 43.3577C83.4864 42.8746 82.7963 42.4175 82.6497 43.7286C83.288 42.6331 83.2276 44.1167 83.2362 45.2984C83.0292 45.4019 82.7273 45.9022 82.5203 46.713C82.4599 47.429 82.6669 47.1616 82.7963 47.3082C82.6066 47.6963 82.3823 48.4381 82.0977 48.2915C82.3737 48.9039 81.7354 49.1368 81.7526 49.8182C81.8303 50.4307 81.9165 49.8096 82.02 50.2581C81.7871 51.1207 81.4076 52.311 81.1661 52.9838C80.8211 53.1736 80.131 53.8205 79.855 53.1132C80.2432 51.8625 80.4243 53.8032 80.6745 52.449C79.8981 52.8458 80.8038 51.2242 80.3812 50.8792C79.9844 51.2328 79.7688 52.0609 79.6652 52.7941L79.786 52.6733C79.7515 53.3288 79.4237 54.5882 78.8544 55.1143C78.6906 54.8814 78.4318 55.1143 78.5353 54.6486L78.1989 55.4507C78.2334 55.5801 78.2593 55.7181 78.3973 55.4939C78.4232 55.9424 78.1903 56.296 77.9574 56.5462C77.8539 56.5548 77.5692 57.6848 77.3191 58.832C77.1811 59.4012 77.0862 59.9878 76.9482 60.3932C76.8102 60.79 76.7239 61.0487 76.7067 60.997C76.3789 61.549 75.9821 61.4973 75.87 62.1528C75.9045 62.1959 76.077 61.8595 76.3099 61.342C76.5256 60.8245 76.8706 60.1689 77.0431 59.453C77.4657 58.0643 77.8108 56.7963 77.6641 57.1845C77.5434 57.2794 77.3622 57.7538 77.1466 58.4266C76.9223 59.0907 76.7067 59.9878 76.3272 60.7986C75.9821 61.6266 75.6371 62.4633 75.3352 63.1016C74.9988 63.714 74.6883 64.1022 74.5417 64.1194C74.2743 64.5076 73.9724 64.9992 74.2311 65.0596C73.6532 65.6289 73.9983 64.5852 73.4721 64.8957C73.498 64.9302 73.6015 64.9302 73.4807 65.0769L72.9114 65.3184C72.7131 65.9481 72.1265 66.457 71.6176 67.0262C71.0742 67.5697 70.6084 68.1907 70.2893 68.7859C70.3928 68.3546 70.341 67.699 70.7119 66.9314L70.9017 66.9141C70.9275 66.7761 71.3157 66.2241 71.1173 66.0774C70.4704 66.526 70.0909 67.0607 69.6941 67.8026C69.5388 67.8543 69.3577 67.9233 69.2283 67.9578C69.2542 67.9751 69.2801 67.9923 69.306 68.0182C69.0041 68.0872 69.0127 68.0441 69.0127 67.9147C69.0127 67.8974 69.0127 67.8716 69.0127 67.8371C68.5814 67.7335 68.1242 68.3115 67.5895 69.0101C67.0892 69.7433 66.3819 70.4333 65.7177 70.718C65.4503 71.0458 65.7608 70.8388 65.4331 71.2614C65.1053 71.4167 64.8034 71.5633 64.5188 71.7013C64.2255 71.8307 63.9236 71.9256 63.639 72.0377C63.061 72.2533 62.4831 72.4949 61.8189 72.8054C61.5688 73.3229 61.5947 73.4523 62.2416 73.435C61.9052 73.6076 61.5688 73.7714 61.2065 73.8922C61.7241 72.7277 58.9811 74.082 59.6108 72.8658C59.2399 72.8313 58.6534 73.0728 58.1617 73.4609C58.1876 73.6766 58.248 74.0475 57.5148 74.3062C56.4107 74.4097 56.6867 74.4184 55.7724 74.4701C55.4878 74.289 55.7552 74.0733 55.6517 73.8836C54.5131 74.6944 54.3837 73.6938 53.2106 74.0561C52.4861 74.3321 51.0197 74.7461 51.0543 75.1688C50.0019 75.3068 49.9502 74.9618 49.9933 74.565L50.0105 74.5564Z" fill="#565656"/>
<path d="M41.2556 86.175L41.2297 86.3992C41.1348 85.6747 41.2039 84.907 41.2987 84.1566C40.0912 85.7955 39.3752 87.7276 41.9801 88.9955C40.6518 89.1335 40.255 90.7207 40.5742 90.7552C40.8416 91.0829 41.0658 91.4193 41.2556 91.7557C41.1435 91.5228 41.0227 91.2899 40.8761 91.0657C41.0227 91.2986 41.1435 91.5228 41.2556 91.7557C42.4114 93.8949 42.1268 96.2151 41.9974 98.613C41.9284 99.9414 42.1268 103.564 42.075 104.927C42.075 105.125 42.075 105.324 42.075 105.522C42.0923 105.304 42.1124 105.082 42.1354 104.858C42.4459 105.686 42.7133 106.445 42.9117 107.178C42.998 107.049 43.1015 107.023 43.2136 106.721L43.1791 107.092C43.4982 107.428 43.5414 108.213 43.6794 108.584C43.5327 108.507 43.5241 108.791 43.5241 109.05L43.6104 108.946C43.619 109.921 43.8088 111.042 43.8519 111.914C43.8519 112.034 43.826 112.129 43.7829 112.181L43.9295 113.009C43.7743 112.949 43.8519 113.699 43.7311 113.302C43.9468 113.923 43.895 114.553 44.0934 115.148C44.2487 117.27 44.4902 119.53 44.6799 121.721L44.6972 121.669C44.7748 122.437 44.8783 123.11 44.8611 124.05C44.9215 124.714 44.9473 125.663 44.9818 125.93C44.9732 126.698 44.9818 127.008 44.9473 127.759C44.956 127.56 44.9215 128.492 44.9301 128.121C44.9818 127.422 44.956 127.742 44.9991 127.172C45.163 125.206 45.3959 123.222 45.6374 121.212C45.7064 119.875 45.9048 118.417 46.0169 117.029C46.1204 115.528 46.1894 113.906 46.1549 112.621C46.129 112.31 46.2843 112.095 46.3878 111.827C46.4137 110.646 46.6121 109.136 46.6121 107.799C46.6121 107.825 46.6035 107.851 46.6035 107.868C46.6207 107.161 46.8881 106.626 46.914 105.936C46.8536 105.936 46.8536 105.833 46.8277 105.781C46.983 105.721 46.9226 104.703 46.8105 103.668C46.6983 102.633 46.5431 101.58 46.6466 101.459C46.6379 101.39 46.6207 101.313 46.6207 101.235C46.8622 99.7775 47.7593 98.2594 47.8197 97.0087C47.6472 96.7327 47.5005 96.4308 47.2849 96.1979C47.4833 95.9736 47.1296 95.9305 47.1986 95.6631C48.1302 94.9817 47.8024 94.5849 47.4574 94.9386C47.3797 94.3779 47.5005 93.8172 47.5005 93.3256C47.4488 93.0927 47.3884 92.8684 47.328 92.6355C47.259 92.4371 47.4142 92.325 47.6471 92.2301C47.5436 91.7298 47.7765 91.8765 47.9232 91.3417C48.2854 91.2123 47.466 90.0134 47.5781 89.8667L47.6213 89.953C47.7248 89.3406 48.4752 88.9352 48.5614 88.34C49.0014 86.6753 48.8806 84.8639 49.1566 83.3285C48.7167 83.3113 49.2256 83.6649 48.6391 83.6822C48.7857 82.7765 49.4326 81.8622 49.6051 80.9479C49.7431 80.784 50.0019 80.577 50.1658 80.508C50.3728 80.2147 49.9588 80.3355 50.045 80.1198L50.4763 80.094C50.1572 79.7834 51.0111 79.6368 50.8645 79.3435C50.692 79.3263 50.6834 79.2228 50.7092 79.1193C51.175 79.1193 50.7092 78.8001 51.1405 78.8087H51.106C51.1233 78.7397 51.0974 78.6966 51.1836 78.619C51.0456 78.4982 49.8639 77.3769 49.6569 77.2561L49.7431 77.1958C49.7431 77.0319 49.3895 76.9542 49.2946 77.0577L49.3377 76.8507L49.3723 76.8766L49.4154 76.6696C49.4585 76.6351 49.6914 76.592 49.907 76.6437C49.7518 76.523 49.6655 76.3936 49.769 76.2815C49.4326 76.6092 48.9755 77.006 48.4666 77.351C48.3113 77.213 48.5873 76.9629 48.5442 76.8076C48.8806 76.6265 49.1825 76.2556 49.4326 75.9623C49.4068 75.9019 48.8634 75.8588 49.1135 75.7122C49.5016 75.6432 49.1135 75.5483 49.3981 75.4275C49.5879 75.5655 49.4844 75.7035 49.4585 75.8415C49.9157 75.8157 49.7949 75.5052 49.9329 75.393C49.7949 75.3413 49.9674 75.0739 49.8553 74.9014C50.2866 74.979 50.1486 74.7633 50.3987 74.6685C50.4677 74.5563 50.2952 74.4787 50.1313 74.5305C49.6483 74.496 49.8035 74.9876 49.3119 74.8237C49.5448 74.7806 49.4844 74.5563 49.4758 74.4356C49.2084 74.4356 49.2687 74.5218 49.0186 74.4356C49.0876 74.2976 48.7771 74.1596 49.0617 74.0819C49.1307 74.1078 49.079 74.1596 49.0704 74.2027C49.1221 74.0302 50.7092 75.1515 50.5712 74.9186C50.3383 74.979 49.1049 73.9267 49.0704 74.0388C48.9323 74.1423 48.596 73.9612 48.4925 74.0733L48.803 74.1941C48.6908 74.3407 48.225 74.4097 48.0439 74.3493C48.1043 74.0992 49.7949 75.0652 49.5361 74.8496L49.4068 74.9359C49.2429 74.841 49.1135 74.5995 49.4068 74.5046C49.148 74.5046 49.0617 74.3838 48.9755 74.2803L49.0186 74.2458C48.8978 74.1423 48.9668 73.9957 48.6132 74.0647C48.6218 74.6857 45.9565 73.6593 45.784 74.2544C46.3706 74.0043 46.3792 74.3407 46.4309 74.5995C46.2325 74.6253 45.9479 74.7461 45.7926 74.9359C45.8358 75.0997 45.9997 75.0307 46.1463 75.0652C46.0169 75.1601 45.9048 75.3326 45.6115 75.3068C45.9652 75.4361 45.3786 75.5138 45.4994 75.6604C45.6633 75.7984 45.6546 75.6518 45.8185 75.7467C45.7754 75.9537 45.7236 76.2297 45.6546 76.3936C45.3786 76.454 44.8956 76.6437 44.4729 76.5057C44.5333 76.1952 45.163 76.6265 45.0767 76.2987C44.447 76.4367 44.9042 76.0141 44.4298 75.9537C44.1451 76.0572 44.1452 76.2642 44.2314 76.4367L44.3177 76.4022C44.4039 76.5575 44.5333 76.8594 44.2055 77.0233C43.9899 76.9887 43.826 77.0577 43.7743 76.9456L43.7398 77.1526C43.8088 77.1785 43.8778 77.2044 43.9295 77.1526C44.102 77.2475 44.0072 77.351 43.8778 77.4286C43.6535 77.4545 44.8438 78.5413 44.6972 78.5068C44.6972 78.6621 44.3694 78.6966 44.5937 78.8432C44.7834 78.8605 43.8088 77.4028 43.8778 77.6012C43.6449 77.7305 45.025 79.309 44.5937 79.4039C44.6109 79.516 44.6541 79.654 44.8783 79.6282C44.7748 79.8179 44.4557 79.5678 44.2487 79.7058C44.2832 79.7058 44.3608 79.6972 44.3522 79.7403L44.0762 79.8697C44.4212 80.163 43.9899 80.5942 44.4384 80.9048C44.2055 80.8185 43.7915 80.715 43.5759 80.5166L43.688 80.4821C43.619 80.4562 43.5414 80.2923 43.3257 80.2923C43.1877 80.4821 43.2309 80.6374 43.4551 80.8358C43.3947 80.8703 43.343 80.9134 43.2826 80.9393C43.3085 80.9393 43.3344 80.9393 43.3689 80.9393C43.2395 80.9996 43.2136 80.9996 43.1273 80.9738C43.1101 80.9738 43.0928 80.9738 43.0756 80.9565C42.4546 81.0773 43.4983 81.6983 43.1877 82.0347C43.2826 82.1382 43.2912 82.0433 43.412 82.1727C43.1791 82.5264 43.0066 82.7679 42.8858 83.1301C43.1532 83.2509 43.2481 83.2595 43.5155 83.1129L43.4379 83.3889C42.7392 83.1388 42.8082 83.9065 42.1181 83.6304C41.9629 83.7081 41.9456 83.8806 42.0664 84.0358C42.2389 84.0531 42.5149 84.079 42.5235 84.2687C42.3165 84.5361 42.3942 84.4757 42.1958 84.7C41.9801 84.7518 41.8939 84.6741 41.7127 84.6828C42.0146 85.0278 41.2642 84.9847 41.3332 85.3124C41.4108 85.5194 41.4712 85.9248 41.8421 85.9335C41.8421 86.2095 41.5748 86.2095 41.2729 86.1836L41.2556 86.175Z" fill="#565656"/>
<path d="M79.6997 18.4384L79.7774 18.3866C79.6307 18.6627 79.3633 18.8438 79.0701 18.9991C80.407 19.37 81.4766 19.3096 80.0103 17.0928C80.9936 17.9899 81.7354 17.8087 81.5197 17.5758C81.4248 17.2912 81.3645 17.0324 81.3386 16.7995C81.3472 16.9462 81.3731 17.1014 81.399 17.274C81.3645 17.1014 81.3472 16.9462 81.3386 16.7995C81.1488 15.3591 82.0287 14.876 82.8308 14.2636C83.2707 13.9186 84.1937 12.7197 84.6336 12.3574C84.694 12.3056 84.7543 12.2452 84.8061 12.1849C84.7256 12.2366 84.6479 12.2884 84.5732 12.3401C84.5991 11.8743 84.6249 11.4603 84.7026 11.1153C84.5991 11.0894 84.5301 11.029 84.3575 11.0377L84.4956 10.9514C84.3662 10.6236 84.5732 10.3649 84.5818 10.1579C84.6681 10.2872 84.7543 10.2096 84.832 10.132L84.7457 10.0975C85.0217 9.80421 85.2201 9.33843 85.4444 9.06241C85.4703 9.01928 85.5306 9.01928 85.5738 9.02791L85.7118 8.68288C85.8066 8.81227 85.9705 8.53625 85.936 8.73464C85.9619 8.39824 86.1862 8.25161 86.2207 7.93246C86.7296 7.19929 87.2299 6.36261 87.7301 5.5863H87.6956C87.8681 5.31029 87.9889 5.03427 88.2736 4.7755C88.4202 4.53399 88.6876 4.24072 88.7394 4.13721C88.9722 3.92157 89.0585 3.82669 89.3 3.6283C89.2396 3.68005 89.5329 3.42991 89.4208 3.53342C89.2482 3.65418 89.2396 3.6628 89.093 3.75768C88.3943 4.22347 87.6439 4.63749 86.8935 5.06015C86.4536 5.40517 85.8843 5.68981 85.3926 6.01758C84.8751 6.37986 84.3576 6.81114 83.9953 7.21654C83.9177 7.32005 83.7451 7.27692 83.5985 7.28554C83.2362 7.61331 82.6497 7.91521 82.2615 8.31198C82.2702 8.31198 82.2788 8.31198 82.2874 8.30336C82.0632 8.49312 81.7181 8.46725 81.4939 8.64838C81.537 8.69151 81.5025 8.71739 81.5111 8.76051C81.3817 8.66563 81.1316 9.01066 80.8987 9.39018C80.6744 9.76971 80.476 10.1924 80.3639 10.1492C80.3553 10.1751 80.338 10.2096 80.3208 10.2355C79.7256 10.4943 78.6388 10.3045 78.2334 10.6323C78.2765 10.8307 78.2938 11.029 78.3714 11.2447C78.1644 11.167 78.4059 11.4344 78.2765 11.4603C77.414 10.9945 77.5347 11.3482 77.8798 11.4948C77.7763 11.7191 77.5261 11.7967 77.3708 11.9347C77.3363 12.0382 77.3105 12.1504 77.2932 12.2625C77.2846 12.366 77.1466 12.297 76.9482 12.159C76.8706 12.3746 76.7498 12.1762 76.4997 12.228C76.2064 12.0037 76.4307 12.9439 76.3099 12.9094V12.849C76.0511 12.9525 75.4042 12.5471 75.1627 12.6593C74.3691 12.8404 73.9206 13.4528 73.2651 13.7116C73.5756 14.0307 73.3168 13.565 73.7395 13.9704C73.3686 14.1342 72.644 13.9445 72.2472 14.0911C72.1006 14.0394 71.8591 13.9186 71.7211 13.8237C71.4882 13.7633 71.816 14.0221 71.6952 14.0221L71.3847 13.7202C71.5141 14.0394 70.8758 13.4787 70.8844 13.6685C71.0052 13.7978 70.9793 13.8323 70.9275 13.8496C70.5998 13.5218 70.8327 13.9359 70.5308 13.634L70.5566 13.6598C70.5566 13.6598 70.5308 13.6943 70.4445 13.6598C70.5049 13.7978 71.0138 14.9623 71.1259 15.1434L71.0483 15.1003C70.9965 15.1521 71.2294 15.4195 71.3243 15.4626L71.2294 15.4885L71.2122 15.4626L71.1173 15.4885C71.0742 15.4712 70.8931 15.3159 70.7637 15.1521C70.8413 15.2987 70.8585 15.3936 70.7637 15.3591C71.1001 15.4971 71.54 15.7041 71.9971 15.9715C72.0661 16.1268 71.7987 16.006 71.7815 16.075C71.4882 15.8939 71.169 15.7817 70.9017 15.6955C70.9017 15.73 71.2726 16.1354 71.0483 15.9974C70.755 15.7386 71.0052 16.0491 70.7637 15.8766C70.6688 15.6955 70.7809 15.73 70.8413 15.7127C70.5135 15.4022 70.5049 15.5747 70.3755 15.5057C70.4618 15.6178 70.2547 15.5747 70.2892 15.7041C70.0046 15.3763 70.0391 15.5316 69.8321 15.3936C69.7545 15.385 69.8494 15.523 69.9787 15.6265C70.3065 15.9801 70.3496 15.73 70.6429 16.1181C70.4618 15.9629 70.4445 16.075 70.41 16.1181C70.5998 16.3079 70.5825 16.2389 70.7292 16.4373C70.6429 16.4286 70.8154 16.6874 70.5998 16.5149C70.5567 16.4545 70.6084 16.4804 70.6257 16.4718C70.5394 16.489 69.7458 15.0313 69.7717 15.1952C69.9528 15.3418 70.5222 16.5235 70.5739 16.5149C70.7033 16.5839 70.8844 16.8772 70.9879 16.9117L70.7982 16.6529C70.9189 16.6874 71.2639 16.9979 71.3761 17.1359C71.2553 17.1618 70.3496 15.6868 70.4618 15.9284L70.5825 15.9974C70.6688 16.1354 70.6947 16.2993 70.4618 16.1268C70.6429 16.3079 70.6688 16.4028 70.7033 16.4977L70.6601 16.4718C70.7205 16.5925 70.6257 16.5839 70.893 16.8082C71.0656 16.6184 72.6527 18.8093 72.9459 18.7489C72.4629 18.4125 72.5491 18.309 72.5837 18.1883C72.7303 18.3176 72.9718 18.4902 73.1357 18.5419C73.153 18.4643 73.0149 18.3694 72.9287 18.2573C73.0494 18.3263 73.1788 18.3521 73.3772 18.5678C73.1616 18.2831 73.6015 18.6713 73.5583 18.5419C73.4807 18.3866 73.4462 18.4384 73.3599 18.2918C73.4462 18.2573 73.567 18.2141 73.6705 18.2141C73.8861 18.3866 74.2829 18.6799 74.5416 19.0163C74.4123 19.0681 74.0845 18.4902 74.0586 18.654C74.5416 19.0594 74.0931 18.8611 74.4209 19.2147C74.6538 19.3872 74.7142 19.3268 74.7055 19.2147L74.6365 19.163C74.6193 19.0594 74.6193 18.8783 74.8953 19.0594C75.0419 19.2233 75.1713 19.3182 75.18 19.3872L75.2662 19.3527C75.2231 19.2923 75.18 19.2406 75.1282 19.2233C75.0333 19.0767 75.1282 19.1112 75.2403 19.1802C75.4042 19.3268 74.8867 18.171 74.9729 18.2831C75.0161 18.2314 75.2576 18.4557 75.1454 18.2573C75.0161 18.1193 75.2748 19.232 75.2835 19.1284C75.4905 19.2578 74.9729 17.8174 75.3093 18.0934C75.3266 18.0503 75.3352 17.9726 75.1713 17.826C75.3007 17.8432 75.456 18.1451 75.6371 18.2486C75.6112 18.2228 75.5595 18.171 75.5767 18.1624L75.8096 18.3176C75.6543 17.9899 76.0856 18.171 75.8614 17.757C75.9994 17.9467 76.2581 18.2659 76.3617 18.4815L76.2754 18.4125C76.3185 18.4643 76.3271 18.5764 76.4824 18.723C76.6377 18.7662 76.6463 18.6885 76.5514 18.4729L76.7067 18.5592C76.7067 18.5592 76.6722 18.5247 76.6463 18.4988C76.7584 18.5764 76.7757 18.5937 76.8274 18.654L76.8619 18.6972C77.3363 19.1026 76.7757 18.1796 77.0948 18.3004C77.0603 18.2055 77.0258 18.2228 76.9741 18.102C77.2415 18.1624 77.4312 18.2141 77.6296 18.1969C77.4744 17.9726 77.4053 17.9036 77.1811 17.757L77.3191 17.7311C77.7417 18.3004 77.9143 18.0244 78.3283 18.5937C78.4577 18.6799 78.518 18.6454 78.4835 18.516C78.3628 18.3867 78.1816 18.1883 78.2334 18.1279C78.4577 18.1969 78.3887 18.1624 78.5957 18.2314C78.7596 18.3694 78.8027 18.4557 78.9321 18.5764C78.8199 18.2573 79.3375 18.8007 79.3892 18.6627C79.3892 18.5419 79.4668 18.3866 79.2081 18.1193C79.2857 18.033 79.4755 18.2228 79.6825 18.447L79.6997 18.4384Z" fill="#565656"/>
<path d="M14.9303 13.2544L14.8786 13.1768C15.1546 13.3234 15.3357 13.5908 15.491 13.8841C15.8619 12.5471 15.8015 11.4776 13.5848 12.9439C14.4818 11.9606 14.3007 11.2188 14.0678 11.4344C13.7831 11.5293 13.5244 11.5897 13.2915 11.6156C13.4381 11.6069 13.5934 11.5811 13.7659 11.5552C13.5934 11.5897 13.4381 11.6069 13.2915 11.6156C11.851 11.8053 11.368 10.9255 10.7556 10.1233C10.4106 9.68344 9.21159 8.7605 8.84932 8.3206C8.79756 8.26022 8.73719 8.19984 8.67681 8.14809C8.72856 8.22859 8.78031 8.30622 8.83206 8.38097C8.36628 8.3551 7.95226 8.32922 7.60723 8.25159C7.58136 8.3551 7.52098 8.4241 7.52961 8.59661L7.44335 8.4586C7.11557 8.58799 6.85681 8.38097 6.64979 8.37235C6.77918 8.28609 6.70155 8.19984 6.62392 8.12221L6.58942 8.20846C6.29615 7.93245 5.83036 7.73406 5.55434 7.50979C5.51122 7.48392 5.51122 7.42354 5.51985 7.38041L5.17483 7.2424C5.30421 7.14752 5.02819 6.98363 5.22658 7.01813C4.89018 6.99226 4.74354 6.76799 4.4244 6.73349C3.69122 6.22458 2.85454 5.7243 2.07824 5.22402V5.25852C1.80222 5.08601 1.52621 4.96525 1.26745 4.68061C1.02593 4.53397 0.732657 4.26658 0.62915 4.21482C0.413511 3.98193 0.318633 3.89568 0.120245 3.65416C0.171998 3.71454 -0.0781438 3.42127 0.025363 3.53341C0.146121 3.70592 0.154742 3.71454 0.249623 3.86118C0.715404 4.55122 1.12943 5.30165 1.55208 6.0607C1.8971 6.5006 2.18175 7.06989 2.50952 7.56155C2.87179 8.07908 3.30307 8.59661 3.70847 8.95889C3.81198 9.03652 3.76885 9.20903 3.77748 9.35566C4.10525 9.71794 4.40715 10.3045 4.80392 10.6926C4.80392 10.684 4.80393 10.6754 4.7953 10.6668C4.98506 10.891 4.95918 11.236 5.14032 11.4603C5.18345 11.4172 5.20933 11.4517 5.25246 11.4431C5.15757 11.5724 5.50259 11.8226 5.88212 12.0555C6.26164 12.2797 6.6843 12.4781 6.64117 12.5903C6.66705 12.5989 6.70154 12.6161 6.72742 12.6334C6.98619 13.2285 6.79643 14.3154 7.1242 14.7208C7.32259 14.6776 7.52099 14.6604 7.73662 14.5828C7.65899 14.7898 7.92639 14.5483 7.95226 14.6776C7.48648 15.5402 7.84013 15.4194 7.98676 15.0744C8.21103 15.1779 8.28865 15.4281 8.42666 15.5833C8.53017 15.6178 8.6423 15.6437 8.75444 15.661C8.85794 15.6696 8.78894 15.8076 8.65093 16.006C8.86657 16.0836 8.66819 16.2044 8.71994 16.4545C8.49567 16.7478 9.43585 16.5235 9.40135 16.6443H9.34097C9.44447 16.903 9.03908 17.55 9.15122 17.7915C9.33235 18.585 9.94476 19.0336 10.2035 19.6891C10.5227 19.3786 10.0569 19.6373 10.4623 19.2147C10.6262 19.5856 10.4364 20.3101 10.5831 20.7069C10.5313 20.8535 10.4105 21.0951 10.3157 21.2331C10.2553 21.466 10.514 21.1382 10.514 21.259L10.2122 21.5695C10.5313 21.4401 9.97064 22.0784 10.1604 22.0698C10.2898 21.949 10.3243 21.9749 10.3415 22.0266C10.0138 22.3544 10.4364 22.1215 10.1259 22.4234L10.1518 22.3975C10.1518 22.3975 10.1863 22.4234 10.1518 22.5097C10.2898 22.4493 11.4542 21.9404 11.6354 21.8282L11.5922 21.9059C11.644 21.9576 11.9114 21.7247 11.9545 21.6299L11.9804 21.7247L11.9545 21.742L11.9804 21.8369C11.9632 21.88 11.8079 22.0611 11.644 22.1905C11.7906 22.1129 11.8855 22.0956 11.851 22.1905C11.989 21.8541 12.196 21.4142 12.4634 20.9571C12.6187 20.8881 12.4979 21.1554 12.5669 21.1727C12.3858 21.466 12.2737 21.7851 12.1874 22.0525C12.2219 22.0525 12.6273 21.6816 12.4893 21.9059C12.2305 22.1991 12.5411 21.949 12.3686 22.1905C12.1874 22.2854 12.2219 22.1733 12.2047 22.1129C11.8941 22.4407 12.0666 22.4493 11.9976 22.5787C12.1098 22.4924 12.0667 22.6994 12.196 22.6649C11.8683 22.9496 12.0235 22.9151 11.8855 23.1221C11.8769 23.1997 12.0149 23.1048 12.1184 22.9754C12.4721 22.6477 12.2219 22.6045 12.6101 22.3113C12.4548 22.4924 12.5669 22.5097 12.6101 22.5442C12.7998 22.3544 12.7308 22.3716 12.9292 22.225C12.9206 22.3113 13.1793 22.1388 13.0068 22.3544C12.9465 22.3975 12.9723 22.3458 12.9637 22.3285C12.981 22.4148 11.5232 23.2083 11.6871 23.1825C11.8338 23.0013 13.0155 22.432 13.0068 22.3803C13.0758 22.2509 13.3691 22.0698 13.4036 21.9662L13.1448 22.156C13.1793 22.0352 13.4899 21.6902 13.6279 21.5781C13.6538 21.6989 12.1788 22.6045 12.4203 22.4924L12.4893 22.3716C12.6273 22.2854 12.7912 22.2595 12.6187 22.4924C12.7998 22.3113 12.8947 22.2854 12.9896 22.2509L12.9637 22.294C13.0845 22.2336 13.0758 22.3285 13.3001 22.0611C13.1104 21.8886 15.3012 20.3015 15.2409 20.0082C14.9045 20.4913 14.801 20.405 14.6802 20.3705C14.8096 20.2239 14.9821 19.9824 15.0338 19.8185C14.9562 19.8012 14.8613 19.9392 14.7492 20.0255C14.8182 19.9047 14.8441 19.7754 15.0597 19.577C14.7751 19.7926 15.1632 19.3527 15.0338 19.3958C14.8786 19.4735 14.9303 19.508 14.7837 19.5942C14.7492 19.508 14.7061 19.3872 14.7061 19.2837C14.8786 19.0681 15.1718 18.6713 15.5082 18.4125C15.56 18.5419 14.9821 18.8697 15.146 18.8955C15.5514 18.4125 15.353 18.861 15.7066 18.5333C15.8792 18.3004 15.8188 18.24 15.7066 18.2486L15.6549 18.3176C15.5514 18.3349 15.3702 18.3349 15.5514 18.0589C15.7153 17.9122 15.8102 17.7828 15.8792 17.7742L15.8447 17.688C15.7843 17.7311 15.7325 17.7742 15.7153 17.826C15.5686 17.9209 15.6031 17.826 15.6721 17.7138C15.8188 17.55 14.663 18.0675 14.7751 17.9812C14.7233 17.9381 14.9476 17.6966 14.7492 17.8087C14.6112 17.9381 15.7239 17.6793 15.6204 17.6707C15.7498 17.4637 14.3093 17.9812 14.5853 17.6448C14.5422 17.6276 14.4646 17.619 14.3179 17.7828C14.3352 17.6535 14.6371 17.4982 14.7406 17.3171C14.7147 17.3429 14.6629 17.3947 14.6543 17.3774L14.8096 17.1446C14.4818 17.2998 14.6629 16.8685 14.2489 17.0928C14.4387 16.9548 14.7578 16.696 14.9735 16.5925L14.9045 16.6788C14.9562 16.6356 15.0683 16.627 15.215 16.4718C15.2581 16.3165 15.1805 16.3079 14.9649 16.4028L15.0511 16.2475C15.0511 16.2475 15.0166 16.282 14.9907 16.3079C15.0684 16.1957 15.0856 16.1785 15.146 16.1267L15.1891 16.0922C15.5945 15.6178 14.6716 16.1785 14.7923 15.8593C14.6975 15.8938 14.7147 15.9283 14.5939 15.9801C14.6543 15.7127 14.7061 15.5229 14.6888 15.3246C14.4646 15.4798 14.3956 15.5488 14.2489 15.7731L14.223 15.6351C14.7923 15.2124 14.5163 15.0399 15.0856 14.6259C15.1719 14.4965 15.1374 14.4361 15.008 14.4706C14.8786 14.5914 14.6802 14.7725 14.6198 14.7208C14.6888 14.4965 14.6543 14.5655 14.7233 14.3585C14.8613 14.1946 14.9476 14.1515 15.0684 14.0221C14.7492 14.1342 15.2926 13.6167 15.1546 13.5649C15.0339 13.5649 14.8786 13.4873 14.6112 13.7461C14.5249 13.6684 14.7147 13.4787 14.939 13.2717L14.9303 13.2544Z" fill="#565656"/>
<path d="M30.9394 103.435L31.1464 103.512C30.465 103.417 29.7491 103.141 29.0418 102.874C30.5771 104.211 32.3885 106.022 33.5788 103.323C33.7082 104.849 35.2004 105.859 35.2263 105.47C35.5368 105.229 35.8473 105.03 36.1665 104.867C35.9508 104.961 35.7352 105.056 35.5196 105.177C35.7352 105.056 35.9508 104.953 36.1665 104.867C38.1676 103.814 40.3499 104.487 42.6012 105.281C43.8519 105.695 47.2417 106.083 48.5269 106.497C48.7167 106.557 48.8978 106.6 49.0876 106.635C48.8806 106.543 48.6736 106.448 48.4666 106.35C49.2515 105.824 49.9588 105.315 50.6402 104.961C50.5194 104.72 50.5022 104.478 50.2089 104.142L50.5626 104.289C50.8817 103.538 51.6149 103.53 51.9599 103.202C51.8823 103.581 52.1583 103.633 52.3998 103.676L52.3049 103.435C53.2192 103.521 54.2716 103.133 55.091 103.098C55.2031 103.09 55.2894 103.21 55.3411 103.323L56.1174 102.978C56.057 103.435 56.7644 103.288 56.3935 103.607C56.98 103.012 57.5665 103.236 58.1272 102.658C60.1197 102.348 62.233 101.658 64.2945 100.959L64.2427 100.873C64.9672 100.597 65.5969 100.157 66.4767 100.243C67.0978 99.9673 67.9948 99.881 68.2363 99.6999C68.9609 99.743 69.2456 99.7258 69.9529 99.8724C69.858 99.8379 70.0305 99.8724 70.1857 99.9241C70.341 99.9845 70.4704 99.9414 70.2892 99.9586C69.8235 99.7689 69.7976 99.7861 69.3922 99.5964V99.6136C67.5463 98.8373 65.6832 97.9316 63.8028 97.1985C62.5435 97.0605 61.1806 96.4739 59.8782 96.2669C58.4722 96.0771 56.9455 96.103 55.7379 96.3359C55.4533 96.4394 55.2462 96.0168 54.9961 95.758C53.8834 95.827 52.4688 95.5165 51.2181 95.7062C51.244 95.7062 51.2612 95.7235 51.2785 95.7321C50.6143 95.7752 50.114 95.1973 49.4671 95.2491C49.4671 95.4043 49.3722 95.4043 49.3205 95.482C49.2601 95.1197 48.3113 95.4388 47.3366 95.8356C46.3619 96.2238 45.3786 96.6809 45.2664 96.4739C45.1974 96.5084 45.1284 96.5429 45.0594 96.5602C43.688 96.2324 42.2734 94.8437 41.0917 95.0334C40.8329 95.3871 40.5483 95.689 40.3326 96.0771C40.1256 95.7839 40.0825 96.3704 39.8323 96.3014C39.1941 94.9213 38.8232 95.551 39.1509 96.0168C38.6248 96.241 38.0986 96.1461 37.6328 96.2324C37.4172 96.3532 37.2016 96.4653 36.9859 96.6033C36.8048 96.7327 36.7013 96.5343 36.6064 96.2324C36.132 96.4653 36.27 96.1203 35.7783 96.0426C35.6576 95.6027 34.5363 96.8966 34.3896 96.7672L34.4672 96.6982C33.8893 96.6723 33.5098 95.9046 32.9491 95.965C31.3879 95.9219 29.6887 96.5688 28.2482 96.8103C28.231 97.1467 28.5673 96.6551 28.5846 97.1036C27.7307 97.2157 26.8768 97.0777 26.0142 97.2933C25.8589 97.2761 25.6692 97.2071 25.6002 97.1553C25.3241 97.1553 25.4363 97.3365 25.2379 97.371L25.212 97.164C24.9187 97.4486 24.7807 97.095 24.5047 97.302C24.4875 97.3882 24.3926 97.44 24.2891 97.4745C24.2891 97.2761 23.9872 97.6211 24.0044 97.44V97.4572C23.944 97.4831 23.9009 97.509 23.8319 97.5176C23.7198 97.6556 22.6675 98.5527 22.5467 98.6303H22.495C22.3397 98.6907 22.2707 98.8114 22.3656 98.8028L22.1672 98.8632L22.1931 98.846L22.0033 98.9149C22.0033 98.9149 21.9257 98.8804 21.986 98.8114C21.8739 98.8977 21.7532 98.9667 21.641 98.9926C21.9429 98.9236 22.3225 98.8891 22.6416 98.9408C22.5122 99.0271 22.2707 99.0185 22.1327 99.0788C21.9602 99.053 21.6151 99.1133 21.3391 99.1824C21.2787 99.2169 21.2356 99.3117 21.1062 99.329C21.0372 99.2945 20.951 99.3894 20.8389 99.398C20.9682 99.3204 21.0976 99.2686 21.227 99.2255C21.2011 99.1565 20.9079 99.3204 20.8043 99.3549C20.7526 99.398 20.5025 99.4929 20.3472 99.5791C20.4162 99.5101 20.2178 99.6136 20.1229 99.6481C20.0194 99.6999 19.9504 99.743 19.9935 99.7258C19.959 99.7603 20.4162 99.5446 20.2696 99.6481C20.2264 99.6481 20.0194 99.743 19.9073 99.7948C19.9073 99.8034 19.9849 99.7689 19.9073 99.812C19.8038 99.8551 19.7951 99.8551 19.5795 99.95C19.6399 99.9241 19.6571 99.9155 19.6916 99.8983C19.5278 100.002 20.5801 99.4066 20.3644 99.5015C20.4162 99.5187 19.4329 100.036 19.545 99.9586C19.6485 99.9155 19.476 99.9845 19.5795 99.95L19.6916 99.9069C19.8296 99.8465 19.89 99.8465 19.8383 99.8724C19.6054 99.9759 20.5111 99.536 20.3041 99.6136L20.3903 99.5878C20.3041 99.6395 20.0798 99.7344 19.9849 99.7603C19.9849 99.7689 19.8728 99.8293 19.7693 99.8724L19.7348 99.8896C19.6399 99.9328 19.5019 99.9931 19.5623 99.9673C19.8555 99.8551 19.7607 99.9155 19.6572 99.95C19.5623 99.9845 19.4587 99.9845 19.7434 99.9586C19.5105 99.9759 19.821 99.9328 20.0712 99.8983C20.097 99.8983 20.2092 99.9069 20.3817 99.9069C20.537 99.8896 20.4766 99.881 20.5024 99.8638C20.5887 99.8638 20.7526 99.8638 20.7267 99.8983C20.8475 99.8465 20.9165 99.9155 21.0631 99.8983C21.1925 99.8638 21.0631 99.8724 21.1407 99.8465C21.3305 99.8379 21.5979 99.8293 21.7532 99.8293C21.8135 99.881 21.9861 99.9931 21.8567 100.088C21.572 100.071 21.9688 99.9414 21.6669 99.9586C21.7963 100.088 21.3995 99.9931 21.3478 100.079C21.4426 100.131 21.641 100.148 21.7963 100.14L21.7618 100.123C21.9084 100.123 22.1931 100.088 22.3483 100.183C22.3138 100.235 22.3828 100.286 22.2707 100.295L22.4691 100.321C22.4691 100.321 22.5208 100.286 22.4691 100.269C22.564 100.226 22.6589 100.269 22.7279 100.304C22.7451 100.399 23.7715 100.054 23.7457 100.079C23.8837 100.079 23.9182 100.217 24.0562 100.123C24.0734 100.071 22.702 100.347 22.8917 100.312C22.9521 100.355 23.3575 100.312 23.7543 100.226C24.1511 100.148 24.5478 100.045 24.591 100.14C24.6945 100.14 24.8239 100.114 24.798 100.01C24.9791 100.062 24.7462 100.209 24.867 100.312C24.867 100.295 24.8584 100.261 24.8929 100.261L25.0136 100.399C25.2896 100.243 25.695 100.493 25.9797 100.261C25.8934 100.39 25.7985 100.614 25.6174 100.709L25.5829 100.649C25.5829 100.649 25.4018 100.709 25.4104 100.821C25.5829 100.916 25.7382 100.916 25.9193 100.821C25.9538 100.856 25.9969 100.899 26.0228 100.933C26.0228 100.916 26.0228 100.907 26.0228 100.882C26.0832 100.968 26.0746 100.976 26.0573 101.02C26.0573 101.02 26.0573 101.037 26.0487 101.045C26.1608 101.434 26.7387 100.89 27.0665 101.114C27.1614 101.071 27.0751 101.045 27.1959 100.985C27.5237 101.175 27.7479 101.339 28.093 101.477C28.2051 101.304 28.2137 101.218 28.0757 101.011L28.3345 101.097C28.1016 101.58 28.8175 101.649 28.5587 102.141C28.6364 102.27 28.7916 102.331 28.9383 102.262C28.9555 102.132 28.9728 101.917 29.1625 101.943C29.4213 102.158 29.3609 102.089 29.5679 102.296C29.6197 102.486 29.542 102.546 29.5507 102.693C29.8784 102.512 29.8353 103.15 30.1458 103.176C30.3356 103.159 30.7151 103.202 30.7238 102.857C30.9825 102.909 30.9825 103.167 30.9566 103.452L30.9394 103.435Z" fill="#565656"/>
</svg>
