<svg width="101" height="132" viewBox="0 0 101 132" fill="none" xmlns="http://www.w3.org/2000/svg">
<path d="M9.77602 31.7804C9.48275 32.2807 9.21536 32.7896 8.93072 33.2985C11.4321 28.2698 14.9772 23.474 18.9795 19.2906C16.573 21.3607 14.2268 23.7414 12.0877 26.3722C9.94853 29.003 8.10266 31.9098 6.61044 34.8943C5.10096 37.8787 4.1004 41.0012 3.50523 43.977C3.24647 45.4778 3.03945 46.9269 3.03945 48.3415C3.03083 49.0488 3.0222 49.7302 3.06533 50.403C3.12571 51.0758 3.20334 51.7314 3.31547 52.361C2.82381 52.5422 2.23727 53.422 1.76287 54.6813C1.52135 55.311 1.27121 56.0355 1.04695 56.8032C0.857183 57.5709 0.676046 58.3903 0.520786 59.2011C0.193014 60.8313 0.0895073 62.453 0.00325164 63.6864C-0.0139995 64.9199 0.0377539 65.7479 0.149886 65.8083C0.546663 68.4046 1.09007 70.9836 1.66799 73.5627C1.48685 72.6742 1.29709 71.7772 1.11595 70.8888C1.29709 71.7772 1.48685 72.6656 1.66799 73.5627C3.60011 81.6966 6.59319 89.8219 11.0526 97.4641C15.4948 105.098 21.4292 112.231 28.8127 117.993C30.8397 119.615 33.9276 121.702 37.697 123.738C41.475 125.765 45.9775 127.662 50.6698 129.016C55.3535 130.388 60.2183 131.207 64.557 131.544C65.6438 131.604 66.6962 131.665 67.7053 131.716L68.0849 131.734H68.6628C69.0596 131.734 69.4563 131.734 69.8531 131.734C70.6122 131.751 71.4833 131.69 72.2769 131.673C75.4942 131.535 78.2803 131.207 80.5057 130.871C83.0675 130.457 85.4913 129.931 87.7857 129.31C85.8277 129.793 84.8099 130 83.7662 130.198C83.2572 130.302 82.7397 130.397 82.0669 130.509C81.4027 130.612 80.6178 130.759 79.5137 130.888C82.0583 130.319 84.3441 129.672 86.3366 128.973C88.3463 128.275 90.0801 127.541 91.8138 126.851C93.5562 126.153 95.2727 125.471 96.9633 124.799C97.8431 124.454 98.7143 124.1 99.5854 123.755L99.9132 123.625C99.9822 123.591 100.008 123.556 100.051 123.522L100.293 123.324L100.759 122.935C100.12 123.048 99.7321 123.125 99.1283 123.237C98.421 123.401 97.4722 123.617 95.7212 124.005L97.7223 123.41C98.1536 123.298 98.1622 123.229 98.3002 123.151L98.6711 122.918C98.3779 122.478 98.2054 121.944 98.1881 121.331C95.402 120.287 92.6677 119.218 90.1836 118.252C89.5712 118.01 88.9674 117.777 88.3808 117.544C87.846 117.32 87.3285 117.105 86.8369 116.898C85.8449 116.492 84.9479 116.121 84.1802 115.811C85.0082 115.975 84.5942 115.655 83.5246 115.078C82.9898 114.793 82.3084 114.448 81.5494 114.086C81.3596 113.991 81.1699 113.904 80.9715 113.81C80.7731 113.715 80.6609 113.611 80.4971 113.508C80.1952 113.301 79.8933 113.102 79.5914 112.895L80.2555 113.646C79.1256 112.904 77.9784 112.145 76.8139 111.386C76.2274 111.006 75.6322 110.618 75.0371 110.239L74.5885 109.954C74.416 109.85 74.3988 109.807 74.2953 109.73L73.795 109.324C72.4667 108.229 71.0521 107.202 69.8186 105.995C69.1803 105.408 68.5507 104.83 67.9296 104.261C67.3431 103.657 66.7824 103.036 66.2217 102.441C65.6783 101.829 65.0918 101.268 64.6088 100.656C64.1344 100.035 63.6686 99.4394 63.2201 98.8615C62.7198 98.2146 62.461 97.6453 62.3489 97.2744L60.6755 95.0317L59.8302 93.9018C59.5628 93.5222 59.3299 93.1168 59.0711 92.7201C59.7439 92.8149 57.2253 88.459 58.8124 90.6154C58.131 89.8046 57.6393 88.8817 57.139 87.9588L56.4145 86.57C56.173 86.1043 55.9401 85.6385 55.7589 85.1554C55.3708 84.1894 54.9826 83.2319 54.56 82.3004C54.3357 81.8346 54.1546 81.3602 53.9734 80.8858C53.7837 80.4114 53.5853 79.9456 53.3697 79.4884C49.2466 65.7393 50.3162 49.5318 56.7164 35.7309L56.3627 35.9638C56.932 34.7563 57.4495 33.5659 57.9671 32.3497C58.5709 31.1853 59.1747 30.0208 59.7871 28.8305C61.1413 26.5016 62.7715 24.1295 65.1694 21.8438C65.7991 20.8173 66.6962 19.8685 67.5415 18.8162C67.9727 18.3073 68.3954 17.7725 68.8439 17.2808C69.3097 16.7978 69.7669 16.3234 70.2068 15.8663C71.9232 13.96 73.5621 12.4678 74.0365 11.4413C78.6598 8.24988 80.3936 6.65415 85.4654 4.23036C84.6891 4.24761 85.8967 3.58345 86.9662 2.99691C88.0531 2.38449 88.9156 1.97909 87.5959 2.21198C85.7069 2.54838 84.7495 2.90203 83.8869 3.23842C83.447 3.40231 83.033 3.56619 82.5327 3.75596C82.041 3.95434 81.4459 4.16136 80.6523 4.377L80.8162 4.49776C73.8295 7.4132 67.3344 11.657 61.7365 16.9617C56.173 22.3009 51.5583 28.7011 48.1771 35.7827C46.2277 40.6389 44.4939 45.8229 43.5279 51.2311C43.3985 51.9039 43.226 52.5767 43.1397 53.2581L42.881 55.3024C42.7343 56.6652 42.4842 58.028 42.4669 59.4081C42.4152 60.7796 42.3548 62.1511 42.303 63.5139C42.3375 64.8767 42.4152 66.2396 42.4842 67.5938C42.9327 73.4074 44.2093 79.3936 46.2191 84.8794C48.2116 90.3825 51.0321 95.2905 53.8613 99.3186C54.5772 100.259 55.0689 101.139 55.5088 102.027C55.9746 102.881 56.4231 103.718 56.932 104.597C58.3293 106.409 60.0631 108.143 61.771 110.006C63.6255 111.731 65.4799 113.603 67.6105 115.216C68.128 115.63 68.6455 116.052 69.1717 116.475L69.3701 116.63L69.4563 116.691L69.5943 116.785L69.879 116.975C70.2499 117.217 70.6553 117.51 71.0176 117.708C71.3971 117.915 71.7766 118.114 72.1475 118.312C72.5443 118.502 72.9756 118.674 73.4327 118.864C73.381 118.838 73.3465 118.812 73.3292 118.795C73.5449 118.89 73.7346 118.985 73.9071 119.071C74.2263 119.209 74.4678 119.33 74.6489 119.433L74.8904 119.58C74.8904 119.58 74.9767 119.606 74.8904 119.615L74.7179 119.64L74.3902 119.692C73.519 119.83 72.7944 119.916 72.2596 120.089C72.5788 120.21 72.3632 120.27 72.389 120.356C71.975 120.227 71.4575 120.348 70.6984 120.555C70.3103 120.658 69.8445 120.779 69.2752 120.9C69.1286 120.926 68.9819 120.96 68.8267 120.986C68.68 121.012 68.4299 121.038 68.2229 121.064C68.1625 121.081 67.9124 121.081 67.6967 121.09L67.0498 121.107C66.6185 121.124 66.1872 121.141 65.756 121.15C62.2885 121.228 58.7693 120.943 56.0522 120.52C53.3351 120.08 51.4116 119.528 51.0494 119.33C50.5663 119.235 50.0919 119.08 49.5917 118.942C47.2541 118.114 45.0201 116.975 42.8637 115.776C41.8114 115.121 40.7332 114.526 39.7413 113.801C39.241 113.456 38.7407 113.111 38.2404 112.766C37.7574 112.395 37.2743 112.033 36.7999 111.67C32.9788 108.764 29.7615 105.495 26.8805 102.545C26.1215 102.027 25.3797 101.406 24.6465 100.811C23.9133 100.216 23.206 99.6378 22.5936 99.1461C21.9122 97.8005 21.2912 97.904 20.3078 96.3946C19.9542 95.2474 19.635 94.2554 19.29 93.4705C18.9709 92.6769 18.6862 92.0559 18.4361 91.6678C17.9444 90.8828 17.6512 90.9432 18.0134 92.0818C15.9778 88.9248 14.5805 85.4056 13.4678 82.2831C12.8467 80.8685 12.3378 79.4108 11.803 77.9358C11.389 76.6679 11.4235 75.8916 11.6219 75.1757C10.8197 71.8893 11.32 72.8036 11.044 69.293C11.2855 68.8445 10.8456 66.6795 10.5868 64.4368C10.3022 62.2028 10.1383 59.9084 10.2677 59.4168L10.3022 60.0033C10.6817 55.8803 12.0704 53.3444 13.0624 49.5491C13.8559 46.9269 14.7616 44.2789 15.8657 41.6912C16.9956 39.1122 18.2722 36.5849 19.7127 34.1697C21.179 31.7718 22.792 29.5033 24.5171 27.3986C26.2595 25.3113 28.114 23.4223 30.003 21.723C29.7097 21.2572 28.4676 23.3532 27.8811 22.922C30.0547 20.826 32.5216 19.0318 35.0662 17.4189C37.6194 15.8145 40.2847 14.3999 43.0017 13.1233C44.0195 12.7352 45.3565 12.4937 45.8568 12.4333C47.6768 11.864 46.797 11.7691 48.1081 11.312L48.4531 11.6915C49.3156 11.1222 50.0833 11.0532 50.8079 10.9583C51.5324 10.8634 52.2656 10.8548 53.1454 10.5012C53.1885 10.2941 53.8441 10.0612 54.4996 9.91461C54.6549 10.4063 56.5094 9.41433 56.518 9.89736V9.85423C56.9234 9.76798 57.1994 9.68172 57.6997 9.68172C58.0533 9.52646 59.9337 8.75879 61.9003 8.14637C63.8583 7.53396 65.894 7.01642 66.2907 6.92154L66.6703 6.99917C67.7744 6.95604 68.2487 6.55927 67.6018 6.48164C68.059 6.47301 68.5162 6.49026 68.9819 6.50751L68.8267 6.54202C69.2838 6.55064 69.741 6.57652 70.1895 6.6024C70.4396 6.65415 70.7157 6.90429 70.3189 7.11993C71.0952 6.97329 71.9664 6.92154 72.7254 7.0768C71.6731 6.82666 70.4742 6.58514 69.2579 6.335C68.0331 6.08486 66.791 5.91235 65.6352 5.67083C66.5754 5.47245 68.2833 5.67946 69.3011 5.66221C70.5173 6.01586 72.9756 6.43851 74.8473 6.90429C75.27 6.92154 75.6322 6.38675 76.5552 6.77491C76.9606 7.23206 77.6334 6.92154 78.3665 7.35282C77.435 7.39595 76.5638 7.17168 75.6495 7.02505C75.7444 7.50808 77.8231 7.65471 78.5132 7.93936C78.8755 7.84448 80.5833 8.35338 81.696 8.50002C81.1181 8.81917 82.4982 8.98305 83.0675 9.4057C83.7748 9.64722 84.2751 9.62997 84.0335 9.37983C84.4131 8.94855 81.2216 8.31026 82.3688 8.08599C82.5844 8.37064 84.0335 8.68978 84.8012 8.90542C84.8875 8.65528 84.3354 8.55177 84.9047 8.45689C85.7414 8.77604 86.7506 8.77604 87.1474 9.20732C86.9662 9.22457 86.6298 9.06068 86.3883 8.9658C86.9317 9.17281 85.3015 9.06068 83.7317 9.04343C82.1618 9.02618 80.6609 9.07793 81.3941 9.17281C81.2389 9.01755 82.9036 9.0003 84.5338 9.11244C86.1641 9.21594 87.7512 9.43158 87.3889 9.29357C86.7592 8.93992 88.0358 9.00893 87.363 8.68116L86.4832 8.71566C85.5603 8.31026 85.2929 7.74097 85.6897 7.67197C86.5005 7.95661 85.198 7.99974 83.9042 8.06874C82.6103 8.12912 81.3165 8.21538 82.0324 8.24988L81.4976 7.98249C82.1273 7.95661 83.7489 8.224 84.2664 8.68116C84.3441 8.43102 85.1635 8.56902 85.8363 8.68978L86.0519 8.80191C86.7592 8.8968 87.6822 9.28495 87.3544 8.80191C85.3791 8.155 86.2158 7.74097 87.1215 7.30969C88.0186 6.88704 88.9846 6.45576 87.0007 5.70534C88.493 6.82666 86.2589 6.05036 84.4648 5.6277C84.3441 5.39481 83.6368 4.88591 82.3688 4.42013C81.2302 4.20449 81.6529 4.47188 81.4114 4.56676C80.8162 4.29074 79.6345 3.94572 79.8501 3.67833C78.8927 3.86809 78.47 3.18667 77.366 3.13492C76.3913 3.16942 77.4091 3.2988 76.7104 3.37643C75.2958 3.12629 73.3033 2.88477 72.1648 2.73814C71.7507 2.42762 70.4051 1.84971 71.423 1.45293C73.6311 1.64269 70.5432 2.1171 72.8376 2.17748C71.906 1.43568 74.8732 2.16023 75.3476 1.73757C74.6489 1.34942 73.1481 1.21141 71.8974 1.21141L72.1389 1.31492C71.0262 1.32355 68.8353 1.38393 67.6363 1.07341C67.921 0.840515 67.3948 0.676629 68.2056 0.598999H66.6703C66.4805 0.668004 66.2821 0.745633 66.722 0.788761C66.0061 0.987149 65.2816 0.892268 64.7209 0.788761C64.6778 0.728382 64.1516 0.806012 63.3926 0.944021C62.6335 1.08203 61.6416 1.27179 60.6841 1.54781C58.752 2.02222 56.932 2.66914 57.0441 2.56563C55.9746 2.76402 55.6382 2.43624 54.6549 2.9279C54.6376 2.99691 55.25 2.78127 56.173 2.56563C57.0959 2.34999 58.3121 1.96184 59.5197 1.72032C61.9176 1.14241 64.2034 0.806013 63.4788 0.883643C62.9958 0.780136 59.8906 1.3063 56.9234 2.16885C55.4312 2.53975 53.9907 3.06591 52.8521 3.39368C51.7308 3.75596 50.9286 4.01472 50.7302 3.94572C49.9539 4.16998 49.0482 4.52363 49.2984 4.70477C47.97 5.02392 49.5399 4.12686 48.548 4.21311C48.5393 4.25624 48.6601 4.30799 48.3668 4.39425H47.3749C46.4174 4.89453 45.2012 5.40344 43.9592 5.8606C42.743 6.38675 41.5009 6.92154 40.6211 7.65471C41.0696 7.10268 41.5526 6.40401 42.7775 5.57595L43.0621 5.5932C43.2087 5.42069 44.2956 4.90316 44.1748 4.68752C42.8206 5.03254 41.7596 5.61908 40.5348 6.42988C40.2674 6.49026 39.9569 6.57652 39.7413 6.61102C39.7585 6.6369 39.793 6.65415 39.8016 6.68865C39.31 6.76628 39.3445 6.72315 39.4566 6.55927C39.4652 6.53339 39.4825 6.49889 39.5256 6.46439C38.9822 6.35225 37.7746 7.03367 36.498 7.98249C35.187 8.87955 33.8155 10.0267 32.6424 10.5615C32.0817 11.0618 32.6424 10.6995 31.9696 11.3465C30.831 11.9761 29.8563 12.5023 28.9248 13.1147C28.4504 13.4166 27.976 13.7271 27.4843 14.0549C27.0013 14.3999 26.501 14.7794 25.9576 15.1935C25.5004 16.0043 25.5436 16.1336 26.5441 15.6937C26.0093 16.1164 25.4573 16.5218 24.957 16.979C25.7592 15.0727 21.6189 19.0663 22.5419 17.048C21.9467 17.3154 21.0669 18.2297 20.351 19.1612C20.4286 19.3941 20.5149 19.7305 19.566 20.8432C18.0221 22.2147 18.393 21.8869 17.1336 23.06C16.6679 23.2066 16.9784 22.646 16.7627 22.5683C15.3913 24.8541 14.8737 24.0433 13.4505 26.1221C12.6138 27.4676 11.0095 30.1329 11.4063 30.4521C10.3367 32.2635 10.0348 32.1082 9.79327 31.7373L9.77602 31.7804Z" fill="#565656"/>
</svg>
