<svg width="113" height="132" viewBox="0 0 113 132" fill="none" xmlns="http://www.w3.org/2000/svg">
<path d="M10.1702 68.1393L10.1183 68.9264C10.0837 66.3921 10.2481 63.7194 10.447 61.0899C9.63395 63.9529 8.87279 67.0668 8.74304 70.0249C8.70844 70.7601 8.7171 71.4954 8.77765 72.2046C8.8209 72.7928 8.85549 73.381 8.89874 73.9691C8.95064 74.6178 9.01983 75.2406 9.09768 75.8374C9.42636 78.242 9.97994 80.2055 10.8449 81.2694C10.3432 81.8748 9.91938 83.0858 9.56475 84.6427C11.7877 85.5682 17.6607 85.9315 17.877 85.6028L21.2416 85.1444C21.899 85.0752 22.0288 85.006 22.3575 84.9454L23.2397 84.7638L22.0288 84.9714C21.9163 84.9887 21.8558 85.006 21.7001 85.0319C21.8644 85.0146 21.9163 84.9973 22.0288 84.9714L23.2397 84.7638C30.6956 83.3366 38.8003 83.9594 47.1903 84.6686C51.8438 85.0233 64.4722 85.4211 69.2381 85.9574C69.93 86.018 70.6133 86.0785 71.3139 86.1391C70.5413 86.0295 69.7714 85.9199 69.0045 85.8104C71.9108 85.3174 74.5489 84.8416 77.0919 84.5302C76.6421 84.2621 76.5642 84.0113 75.5003 83.648L76.7978 83.821C77.9828 83.0598 80.716 83.0944 82.0048 82.7744C81.728 83.1723 82.74 83.2501 83.6309 83.3107L83.2763 83.0425C84.9716 83.129 86.8053 83.0858 88.5871 83.0339C89.0628 83.0166 89.5386 83.0079 89.997 82.9906C90.6717 82.982 91.329 82.9647 91.9864 82.956C93.2838 82.9387 94.5207 82.9214 95.6884 82.9387C96.3285 82.9387 96.9166 83.0858 97.3145 83.2242L100.316 83.0079L100.221 81.598C100.757 82.4543 100.688 78.1382 101.025 80.6206C100.705 78.6139 100.645 76.8754 100.584 75.1368C100.549 74.2719 100.524 73.4156 100.454 72.5852C100.385 71.9624 100.29 71.504 100.126 70.9591C100.048 63.5464 99.6412 55.6667 98.7417 48.0032L98.5427 48.1935C98.1881 45.5121 97.1329 43.1508 97.4875 39.8899C96.7782 37.5631 96.3977 34.2504 95.2819 33.3249C95.1262 30.6348 94.5726 29.571 94.2785 26.9328C93.7249 27.6162 93.6125 24.3726 93.18 25.67C92.4102 27.4172 93.0676 27.5124 92.4448 29.0001L92.6264 28.9568C91.7961 35.8765 91.3204 42.8048 91.0695 49.8196C91.5366 54.499 91.156 59.5763 91.2944 64.446C91.3896 66.9716 91.5193 69.5925 91.6836 72.1268C91.7009 72.542 91.7269 72.5247 91.7442 72.6371L91.8134 72.9225C91.8566 73.1301 91.9085 73.3377 91.9518 73.5453C92.0556 74.0383 92.1594 74.5141 92.2632 74.9638C92.2026 74.9811 92.1507 74.9984 92.1075 75.0157C91.822 75.1714 91.1647 74.713 90.7841 74.4535C90.5159 74.5141 90.1786 74.5487 89.824 74.5746C88.7342 74.5919 87.6011 74.6005 86.4507 74.6178C84.0374 74.6438 81.555 74.6697 79.2283 74.8168C79.3148 74.8168 79.4013 74.8254 79.4532 74.8341C76.9794 74.9292 75.1198 74.3584 72.6979 74.4535C72.7065 74.6092 72.3346 74.6179 72.153 74.7043C71.7291 73.9691 57.9158 76.2267 57.0595 75.8115C56.8086 75.8461 56.5491 75.8807 56.281 75.898C51.1778 75.5693 45.8929 74.1421 41.5162 74.2719C40.5648 74.6179 39.4922 74.9206 38.6964 75.3098C37.918 74.9984 37.771 75.6039 36.8368 75.5174C34.4668 74.047 33.0743 74.6611 34.3025 75.1801C32.3477 75.379 30.3929 75.2493 28.663 75.3012C27.8586 75.4136 27.0628 75.5347 26.2498 75.6471C25.5578 75.7682 25.1772 75.552 24.8312 75.206C23.0667 75.4136 23.5857 75.0503 21.7433 74.9033C21.6568 74.6438 21.3108 74.8514 20.7573 75.1022C20.2297 75.3531 19.4685 75.6471 19.3993 75.5693L19.5896 75.4915C19.2869 75.4569 19.1139 75.3271 19.0447 75.1541C19.3647 74.3411 19.8058 73.7183 19.8404 73.3377C19.8837 73.1128 19.9269 72.9052 19.9529 72.7063L19.9702 72.5593V72.4901L19.9788 72.4555V72.3257L20.0048 71.2099C20.0221 69.7136 20.0221 68.2085 20.0048 66.7208C19.9788 63.7367 19.9269 60.8132 20.0134 58.1231C19.4771 58.0712 20.1345 59.3081 19.4166 59.3687C19.5118 56.2029 20.1778 53.0026 20.2643 49.8023C20.4113 49.2227 20.6794 48.5221 20.8524 48.254C21.0514 47.2333 20.5929 47.6485 20.6621 46.9047L21.1465 46.8009C20.7486 45.711 21.6828 45.2007 21.4838 44.1714C21.2849 44.1195 21.259 43.7389 21.2763 43.3756C21.7952 43.3583 21.2417 42.2512 21.7087 42.3031H21.6741C21.6741 42.0696 21.6482 41.9139 21.7347 41.6457C21.553 41.2306 20.1432 37.3037 19.9269 36.8712L20.0134 36.6722C19.9961 36.0841 19.6155 35.8332 19.5204 36.1792L19.5463 35.4526L19.5809 35.5391L19.6069 34.8212C19.6501 34.6915 19.8923 34.5358 20.1172 34.7434C19.9356 34.3369 19.8404 33.8784 19.9356 33.4719C19.6155 34.605 19.1658 36.0149 18.6468 37.1999C18.4738 36.7155 18.7419 35.8332 18.69 35.3056C19.0274 34.6742 19.3215 33.3768 19.555 32.3648C19.529 32.1399 18.9495 31.9928 19.2004 31.4825C19.5982 31.2403 19.1831 30.9116 19.4771 30.4965C19.6847 30.9808 19.5896 31.4479 19.5723 31.9323C20.0394 31.8458 19.8923 30.7473 20.0221 30.3581C19.875 30.1764 20.0221 29.2336 19.901 28.6454C20.3508 28.9049 20.1864 28.1697 20.4286 27.8151C20.4805 27.4172 20.2989 27.1577 20.1432 27.3221C19.6501 27.1923 19.8491 28.9049 19.3387 28.3514C19.5723 28.2043 19.4944 27.4259 19.4685 27.002C19.2004 27.002 19.2696 27.2875 19.0101 27.0193C19.0706 26.5523 18.7506 26.0592 19.0274 25.7911C19.0966 25.8776 19.0533 26.0679 19.0447 26.2063C19.0706 25.6008 20.7832 29.5104 20.6275 28.7146C20.394 28.9222 19.0447 25.2462 19.0274 25.6527C18.8976 26.0246 18.543 25.3846 18.4478 25.7738L18.7679 26.1976C18.6641 26.7252 18.197 26.9415 18.0154 26.7512C18.0586 25.8689 19.8404 29.2509 19.5636 28.4984L19.4339 28.8011C19.2609 28.4811 19.1052 27.6335 19.3906 27.3048C19.1312 27.3048 19.036 26.8723 18.9409 26.5177L18.9841 26.3879C18.8544 26.016 18.9149 25.5057 18.5689 25.7478C18.6122 27.9102 15.8876 24.3293 15.7319 26.4225C16.3114 25.5489 16.3287 26.7166 16.3979 27.6335C16.199 27.7199 15.9049 28.1351 15.7578 28.7925C15.8011 29.3634 15.9741 29.1298 16.1211 29.2423C15.9914 29.5623 15.8789 30.1678 15.5762 30.0899C15.9395 30.5397 15.3427 30.8078 15.4724 31.3355C15.6454 31.8112 15.6281 31.3009 15.8097 31.6382C15.7751 32.3475 15.7232 33.3422 15.6454 33.9044C15.36 34.1206 14.8496 34.7866 14.3999 34.3023C14.4604 33.2297 15.1264 34.7088 15.0313 33.593C14.3739 34.0774 14.8496 32.6069 14.3566 32.3994C14.0625 32.754 14.0539 33.4805 14.1404 34.0774L14.2269 33.9563C14.3134 34.4839 14.4518 35.5564 14.0971 36.1273C13.8636 35.9889 13.6906 36.2398 13.6387 35.8505L13.5954 36.5857C13.6646 36.6809 13.7425 36.776 13.7944 36.5598C13.976 36.9058 13.8722 37.2518 13.7338 37.5199C13.4917 37.5977 14.7631 41.4122 14.6074 41.2998C14.6074 41.8274 14.2442 41.9571 14.495 42.4674C14.6939 42.5193 13.656 37.4247 13.7425 38.1254C13.4743 38.5751 14.9621 44.1022 14.5037 44.4309C14.5209 44.8201 14.5728 45.2958 14.8237 45.2007C14.7026 45.8581 14.348 45.0018 14.1231 45.4775C14.1663 45.4861 14.2442 45.4429 14.2355 45.5899L13.9241 46.0397C14.3047 47.069 13.8117 48.574 14.3134 49.6466C14.0452 49.3352 13.5781 48.9806 13.336 48.2886L13.4657 48.1675C13.3879 48.0724 13.3014 47.5015 13.0592 47.5188C12.8948 48.1761 12.9381 48.7384 13.1803 49.4303C13.1111 49.5601 13.0505 49.7071 12.9813 49.8023C13.0159 49.8023 13.0419 49.785 13.0765 49.7936C12.9208 50.0185 12.8948 49.9926 12.7997 49.9147C12.7824 49.9061 12.7651 49.8888 12.7478 49.8628C12.0212 50.278 13.2062 52.4404 12.8343 53.6427C12.9381 53.9973 12.9554 53.6773 13.0938 54.1184C12.8083 55.3466 12.5834 56.1856 12.4191 57.4744C12.7305 57.881 12.8516 57.9156 13.1803 57.4225L13.0765 58.3913C12.2461 57.509 12.2807 60.199 11.4504 59.2303C11.2601 59.5157 11.2168 60.0952 11.3552 60.6315C11.5628 60.6834 11.9001 60.7699 11.9001 61.4532C11.6234 62.4047 11.7271 62.1798 11.459 62.9582C11.1909 63.1399 11.0784 62.8545 10.8622 62.889C11.2082 64.1 10.274 63.9443 10.3259 65.086C10.4038 65.804 10.4384 67.2138 10.9141 67.2484C10.8968 68.2172 10.5422 68.2172 10.1529 68.1134L10.1702 68.1393Z" fill="#565656"/>
<path d="M49.4565 33.4633L49.4133 33.9909C49.3527 32.2956 49.4911 30.5051 49.6555 28.7406C48.0899 32.5983 46.7319 37.1393 50.2263 40.0456C48.3926 40.4002 47.6055 44.1282 48.0553 44.1974C48.4013 44.9672 48.6954 45.737 48.9289 46.5241C50.4339 51.4976 49.8977 56.9295 49.2749 62.5517C48.9721 65.6742 48.704 74.1335 48.2196 77.3338C48.1591 77.8009 48.1072 78.2593 48.0639 78.7264C48.1677 78.2074 48.2687 77.6885 48.3667 77.1695C48.8857 79.107 49.396 80.8628 49.7333 82.5668C49.9928 82.2641 50.2436 82.2035 50.5983 81.4856L50.4339 82.3592C51.2124 83.1377 51.2037 84.9714 51.5411 85.8277C51.1345 85.646 51.074 86.3294 51.0221 86.9262L51.2816 86.684C51.1518 88.9588 51.5151 91.5883 51.4978 93.6123C51.4978 93.8977 51.3594 94.1053 51.221 94.2437L51.5584 96.1812C51.0221 96.0428 51.1172 97.7987 50.7626 96.8818C51.42 98.3263 51.0567 99.814 51.7314 101.189C51.887 106.145 52.3801 111.422 53.3575 116.534L53.5564 116.404C53.937 118.194 55.0182 119.76 54.7068 121.948C55.442 123.497 55.8572 125.702 56.9816 126.308C57.1633 128.107 57.7341 128.816 58.0542 130.572C58.5991 130.105 58.7461 132.276 59.1613 131.402C59.9138 130.217 59.2565 130.165 59.8619 129.162L59.6803 129.197C60.4328 124.552 60.8394 119.907 61.021 115.202C60.502 112.079 60.8307 108.671 60.6404 105.41C60.3896 101.907 59.9657 98.1187 59.4554 95.1173C59.2824 94.3994 59.7409 93.8804 59.9917 93.2577C59.6976 90.4984 59.8274 86.9694 59.4814 83.8556C59.4814 83.9161 59.4727 83.968 59.4641 84.0113C59.343 82.3506 59.8966 81.105 59.7755 79.4876C59.6198 79.4962 59.6025 79.2454 59.5246 79.1243C60.2512 78.8302 57.8466 69.6184 58.2618 69.0389C58.2272 68.8745 58.1926 68.7016 58.1666 68.5199C58.4434 65.0947 59.8101 61.5397 59.6371 58.6075C59.2824 57.9761 58.971 57.2668 58.5732 56.7306C58.8759 56.2029 58.2704 56.1164 58.3396 55.4937C59.7841 53.8849 59.1527 52.9594 58.651 53.7897C58.4348 52.4836 58.5386 51.1776 58.4694 50.0185C58.3569 49.4822 58.2358 48.946 58.0974 48.4097C57.9677 47.9513 58.1839 47.6918 58.5213 47.4496C58.2964 46.2733 58.6597 46.6192 58.7894 45.3737C59.2997 45.0623 57.9245 42.2858 58.0715 41.9312L58.1493 42.1301C58.2185 40.7029 59.1959 39.7342 59.2132 38.333C59.5246 34.4407 59.0835 30.211 59.1959 26.6042C58.6597 26.5782 59.3257 27.3999 58.6164 27.4518C58.677 25.324 59.3084 23.1789 59.3689 21.0338C59.5073 20.6446 59.7668 20.1689 59.9398 19.9872C60.1301 19.3039 59.6803 19.5894 59.7409 19.0877L60.2252 19.0098C59.8187 18.2833 60.7442 17.9287 60.5366 17.2453C60.3377 17.2107 60.3117 16.9599 60.3204 16.7177C60.8307 16.7004 60.2685 15.9652 60.7442 15.9912H60.7009C60.7009 15.8355 60.675 15.7317 60.7615 15.55C60.5799 15.2732 59.1267 12.6697 58.9018 12.3843L58.9883 12.2545C58.9624 11.8653 58.5818 11.701 58.4953 11.9345L58.5126 11.4501L58.5472 11.502L58.5645 11.0177C58.6077 10.9312 58.85 10.8274 59.0748 10.9571C58.8932 10.689 58.7894 10.3776 58.8759 10.1095C58.5732 10.8706 58.132 11.8221 57.6304 12.6265C57.4487 12.3064 57.7168 11.7096 57.6476 11.355C57.985 10.9312 58.2531 10.0489 58.478 9.37424C58.4434 9.2272 57.8725 9.13205 58.1147 8.79472C58.5126 8.62173 58.0974 8.41414 58.3742 8.1287C58.5904 8.44874 58.504 8.76012 58.4867 9.08881C58.9537 9.02826 58.7894 8.29305 58.9191 8.02491C58.7721 7.90382 58.9191 7.2724 58.7721 6.88317C59.2219 7.04751 59.0575 6.56313 59.2911 6.32095C59.343 6.05281 59.1613 5.88847 58.997 5.99226C58.504 5.91442 58.7202 7.05616 58.2012 6.69288C58.4348 6.58908 58.3483 6.07011 58.3223 5.78467C58.0542 5.78467 58.1234 5.98361 57.8639 5.80197C57.9158 5.49059 57.5871 5.16191 57.8639 4.98027C57.9417 5.04081 57.8898 5.17056 57.8898 5.25705C57.9071 4.85052 59.663 7.43674 59.5073 6.90912C59.2738 7.04751 57.8898 4.61698 57.8725 4.88512C57.7428 5.13596 57.3882 4.71213 57.3017 4.97162L57.6304 5.2484C57.5352 5.60303 57.0682 5.75008 56.8865 5.62898C56.9211 5.04081 58.7375 7.2724 58.4607 6.77072L58.3396 6.97831C58.1666 6.77072 58.0023 6.19985 58.2791 5.97496C58.0196 5.97496 57.9158 5.68953 57.8207 5.45599L57.8639 5.36949C57.7255 5.12731 57.786 4.78133 57.4401 4.94567C57.5093 6.39014 54.7414 4.03746 54.6117 5.43869C55.1825 4.84187 55.2085 5.62898 55.2863 6.2431C55.0874 6.30365 54.802 6.58043 54.6549 7.03021C54.7068 7.41079 54.8712 7.2551 55.0182 7.3243C54.8885 7.54053 54.7846 7.94706 54.4819 7.89517C54.8538 8.18925 54.257 8.37954 54.3868 8.73417C54.5598 9.04556 54.5425 8.70823 54.7241 8.93311C54.6895 9.40884 54.6549 10.0749 54.5857 10.4554C54.3003 10.6025 53.7986 11.0609 53.3488 10.7409C53.4007 10.023 54.084 11.0004 53.9716 10.2565C53.3229 10.5852 53.7813 9.59913 53.2796 9.46939C52.9855 9.71157 52.9942 10.1959 53.0807 10.6025L53.1672 10.516C53.2623 10.8706 53.4094 11.5799 53.0634 11.9691C52.8299 11.8826 52.6569 12.0556 52.5963 11.7961L52.5617 12.2891C52.6396 12.3497 52.7088 12.4102 52.7607 12.2718C52.9423 12.4967 52.8472 12.7303 52.7174 12.9119C52.4752 12.9725 53.7813 15.5068 53.6343 15.4289C53.6516 15.7836 53.2796 15.8701 53.5391 16.216C53.738 16.2506 52.6482 12.8514 52.7347 13.3184C52.4752 13.6212 54.0149 17.3059 53.5564 17.5308C53.5824 17.7903 53.6343 18.1103 53.8851 18.0411C53.7727 18.4822 53.4094 17.92 53.1845 18.2314C53.2277 18.2314 53.3056 18.2054 53.2969 18.3006L52.9855 18.612C53.3834 19.2953 52.8991 20.3073 53.418 21.0165C53.1499 20.809 52.6742 20.5841 52.4233 20.1256L52.5531 20.0391C52.4752 19.9786 52.3801 19.598 52.1379 19.6067C51.9822 20.0478 52.0341 20.4284 52.2849 20.8868C52.2157 20.9733 52.1552 21.0771 52.086 21.1376C52.1206 21.1376 52.1465 21.129 52.1811 21.1376C52.0341 21.2933 52.0082 21.276 51.9044 21.2241C51.8871 21.2241 51.8698 21.2068 51.8438 21.1895C51.1259 21.475 52.3282 22.9108 51.9649 23.7152C52.0687 23.9487 52.086 23.7325 52.233 24.0266C51.9563 24.8483 51.7486 25.4192 51.593 26.2841C51.913 26.5523 52.0341 26.5696 52.3541 26.2322L52.259 26.8809C51.42 26.3014 51.4892 28.1005 50.6415 27.4691C50.4512 27.6594 50.4253 28.0486 50.5637 28.4119C50.7712 28.4465 51.1086 28.4984 51.1172 28.9568C50.8491 29.5969 50.9443 29.4412 50.6934 29.9775C50.4253 30.1072 50.3128 29.9169 50.0966 29.9429C50.4599 30.7473 49.5171 30.6608 49.5776 31.422C49.6641 31.8977 49.716 32.8491 50.1917 32.8578C50.1831 33.5065 49.8285 33.5065 49.4392 33.4546L49.4565 33.4633Z" fill="#565656"/>
<path d="M41.819 115.85L42.0352 115.902C41.3432 115.937 40.6253 115.772 39.9074 115.573C41.4557 117.2 43.2894 118.627 44.4917 115.176C44.6214 117.009 46.1264 117.866 46.161 117.416C46.4724 117.078 46.7925 116.802 47.1125 116.577C46.8963 116.707 46.6714 116.854 46.4551 117.027C46.6714 116.854 46.8876 116.707 47.1125 116.577C49.1365 115.15 51.3335 115.772 53.6083 116.482C54.8712 116.836 58.2964 117.234 59.5852 117.77C59.7755 117.84 59.9571 117.9 60.1474 117.952C59.9398 117.843 59.7322 117.733 59.5246 117.623C60.3117 117.13 61.0296 116.655 61.7216 116.343C61.6005 116.075 61.5746 115.824 61.2891 115.461L61.6438 115.634C61.9638 114.873 62.7076 114.907 63.0536 114.587C62.9758 114.985 63.2526 115.063 63.4948 115.124L63.3996 114.856C64.3165 115.02 65.389 114.7 66.2107 114.743C66.3232 114.743 66.4096 114.89 66.4615 115.029L67.2487 114.717C67.1881 115.253 67.906 115.184 67.5255 115.522C68.1136 114.89 68.7104 115.279 69.2727 114.622C71.2794 114.544 73.4158 114.138 75.4917 113.238L75.4398 113.039C76.1664 112.685 76.8064 111.629 77.6887 111.984C78.3201 111.275 79.2197 110.894 79.4705 109.778C80.1971 109.623 80.4911 109.069 81.2004 108.775C81.0188 108.221 81.8924 108.109 81.5464 107.676C81.0707 106.907 81.0447 107.564 80.6468 106.941V107.123C78.7785 106.292 76.9016 105.817 74.9987 105.566C73.7272 106.033 72.3519 105.652 71.0372 105.791C69.6186 105.99 68.079 106.353 66.8594 106.811C66.5654 106.967 66.3577 106.509 66.1069 106.249C64.9825 106.5 63.564 106.31 62.2925 106.613C62.3184 106.613 62.3357 106.621 62.353 106.63C61.6783 106.725 61.1767 106.154 60.5193 106.249C60.5193 106.405 60.4242 106.414 60.3723 106.5C60.2598 105.765 56.5146 108.022 56.281 107.607C56.2118 107.642 56.1426 107.676 56.0734 107.694C54.6895 107.365 53.2537 105.938 52.0687 106.068C51.8092 106.414 51.5238 106.716 51.2989 107.106C51.0913 106.794 51.048 107.4 50.7972 107.313C50.1571 105.843 49.7766 106.457 50.1139 106.976C49.5863 107.175 49.05 107.045 48.5829 107.097C48.3667 107.201 48.1504 107.313 47.9256 107.443C47.7353 107.564 47.6315 107.348 47.545 107.002C47.0692 107.209 47.2076 106.846 46.706 106.699C46.5849 106.189 45.4518 107.512 45.3047 107.356L45.3826 107.279C44.8031 107.192 44.4225 106.197 43.8516 106.154C42.2774 105.774 40.5648 106.154 39.103 105.981C39.0857 106.517 39.423 105.86 39.4403 106.578C38.584 106.483 37.7104 105.817 36.8455 105.73C36.6898 105.583 36.4995 105.315 36.4303 105.142C36.1535 104.943 36.266 105.402 36.067 105.332L36.0411 104.848C35.747 105.246 35.6086 104.312 35.3318 104.511C35.3145 104.71 35.2194 104.736 35.1156 104.718C35.1156 104.199 34.8128 104.753 34.8215 104.286V104.32C34.7609 104.32 34.7177 104.346 34.6398 104.26C34.5274 104.441 33.4635 105.851 33.3424 106.068L33.2905 105.981C33.1348 105.998 33.0656 106.379 33.1521 106.474L32.9532 106.448L32.9791 106.414L32.7802 106.388C32.7456 106.344 32.7023 106.102 32.7629 105.877C32.6504 106.059 32.5293 106.154 32.4169 106.059C32.7283 106.379 33.1089 106.829 33.4289 107.348C33.2991 107.521 33.057 107.253 32.9186 107.304C32.7456 106.967 32.3996 106.673 32.1228 106.44C32.0623 106.465 32.019 107.045 31.8806 106.794C31.8114 106.396 31.7249 106.811 31.6125 106.517C31.7422 106.31 31.872 106.405 32.0017 106.422C31.9758 105.955 31.6817 106.102 31.5779 105.972C31.526 106.119 31.2752 105.972 31.1108 106.094C31.18 105.644 30.9811 105.808 30.8859 105.566C30.7821 105.514 30.7129 105.696 30.7562 105.851C30.7216 106.344 31.1887 106.145 31.033 106.656C30.9897 106.422 30.7821 106.5 30.6697 106.526C30.6697 106.794 30.7475 106.725 30.6697 106.984C30.5399 106.924 30.4102 107.244 30.3324 106.967C30.3583 106.898 30.4102 106.941 30.4448 106.95C30.2805 106.924 31.3357 105.211 31.1281 105.367C31.18 105.601 30.1853 106.95 30.2977 106.967C30.4015 107.097 30.2286 107.452 30.3324 107.547L30.4448 107.227C30.5832 107.33 30.6437 107.797 30.5918 107.979C30.3496 107.936 31.2665 106.154 31.0676 106.431L31.1541 106.561C31.0676 106.734 30.834 106.889 30.7475 106.604C30.7475 106.863 30.6264 106.958 30.5313 107.054L30.4967 107.01C30.3929 107.14 30.2545 107.08 30.3237 107.426C30.9119 107.382 29.9431 110.107 30.5054 110.263C30.2718 109.683 30.5832 109.666 30.834 109.597C30.86 109.796 30.9724 110.09 31.1454 110.237C31.3011 110.193 31.2405 110.02 31.2665 109.873C31.353 110.003 31.5173 110.116 31.4914 110.418C31.6125 110.055 31.6817 110.652 31.8287 110.522C31.9585 110.349 31.8287 110.366 31.9066 110.185C32.0969 110.219 32.365 110.271 32.5207 110.349C32.5812 110.635 32.7629 111.145 32.6245 111.595C32.3304 111.534 32.7369 110.868 32.4342 110.963C32.5639 111.621 32.1661 111.145 32.1142 111.638C32.2093 111.932 32.4082 111.941 32.5726 111.854L32.538 111.768C32.685 111.681 32.9705 111.543 33.1262 111.897C33.0916 112.131 33.1607 112.304 33.0483 112.356L33.2473 112.399C33.2732 112.33 33.2991 112.252 33.2473 112.2C33.3424 112.018 33.4375 112.122 33.5067 112.261C33.524 112.503 34.562 111.231 34.5274 111.387C34.6744 111.387 34.709 111.75 34.8474 111.5C34.8647 111.301 33.4808 112.339 33.6711 112.252C33.7922 112.52 35.2885 111.032 35.3837 111.491C35.4875 111.474 35.6172 111.422 35.5913 111.171C35.7729 111.292 35.5394 111.647 35.6691 111.871C35.6691 111.837 35.6605 111.75 35.6951 111.759L35.8162 112.07C36.093 111.69 36.4995 112.183 36.7936 111.681C36.7071 111.949 36.6119 112.416 36.4217 112.659L36.387 112.529C36.3611 112.607 36.2054 112.693 36.214 112.935C36.3957 113.1 36.5427 113.056 36.733 112.814C36.7676 112.883 36.8109 112.944 36.8368 113.013C36.8368 112.979 36.8368 112.953 36.8368 112.918C36.8974 113.074 36.8887 113.1 36.8714 113.195C36.8714 113.212 36.8714 113.229 36.8628 113.247C36.9752 113.973 37.5634 112.788 37.8834 113.16C37.9786 113.056 37.8921 113.039 38.0132 112.901C38.3419 113.186 38.5754 113.411 38.9214 113.575C39.0338 113.264 39.0425 113.143 38.9041 112.814L39.1635 112.918C38.9214 113.748 39.6566 113.714 39.3884 114.544C39.4663 114.734 39.622 114.778 39.769 114.639C39.7863 114.432 39.8036 114.094 39.9939 114.094C40.2534 114.371 40.1928 114.267 40.4004 114.536C40.4523 114.804 40.3745 114.916 40.3831 115.132C40.7118 114.786 40.6686 115.72 40.98 115.669C41.1702 115.591 41.5595 115.556 41.5681 115.08C41.8276 115.098 41.8276 115.452 41.8017 115.842L41.819 115.85Z" fill="#565656"/>
<path d="M9.99724 37.3901L10.1962 37.3036C9.67722 37.6842 9.0112 37.9696 8.34519 38.2378C10.3173 38.1772 12.7997 38.2551 11.6753 35.5564C12.8429 36.5511 14.5469 36.283 14.2961 35.9889C14.322 35.6083 14.3912 35.2623 14.4864 34.9336C14.4085 35.1412 14.3307 35.3575 14.2788 35.5824C14.3393 35.3575 14.4085 35.1412 14.4864 34.9336C14.7632 33.913 15.4465 33.1259 16.1644 32.5291C16.1644 32.2955 16.2076 32.1052 16.2249 31.9495C16.2422 31.8804 16.2249 31.7852 16.2422 31.7593C16.3114 31.7852 16.3806 31.8112 16.4412 31.8544C16.545 31.9149 16.6834 31.9668 16.7871 32.0706C16.8563 32.2609 16.9082 32.4253 16.9255 32.581C16.9255 32.754 16.9947 32.7799 16.7266 33.1432C16.6401 33.2643 16.545 33.3854 16.4498 33.4978C16.5709 33.3364 16.6862 33.172 16.7958 33.0048C16.7439 32.9442 16.8044 32.901 17.0293 33.0048C17.1331 32.754 17.3753 32.5896 17.5916 32.1917L17.4791 32.4772C18.1797 32.1485 18.7074 32.6329 19.1571 32.6329C18.8371 32.8491 18.9755 33.074 19.1139 33.2556L19.2177 33.0221C19.7626 33.6881 20.7313 34.1119 21.3022 34.6223C21.3887 34.6915 21.3541 34.8298 21.3109 34.9423L22.072 35.2104C21.7087 35.4959 22.2796 35.8591 21.8039 35.8418C22.6083 35.8072 22.8418 36.3608 23.6203 36.3176C25.1599 37.4161 27.0542 38.3243 28.9052 39.1979L28.9311 39.1027C29.5972 39.3882 30.3324 39.492 30.8513 40.132C31.4568 40.3483 32.1055 40.8759 32.3996 40.9191C32.8494 41.4295 33.0483 41.6025 33.4203 42.1733C33.3857 42.0868 33.4721 42.2252 33.5413 42.3636C33.5932 42.5107 33.7143 42.5626 33.5932 42.4588C33.4202 42.009 33.3857 42.009 33.2559 41.6111V41.6371C32.9186 40.7375 32.5639 39.8639 32.2699 38.9211C31.9412 38.0129 31.6125 37.1047 31.2492 36.2138C30.514 35.2796 30.021 33.9735 29.3117 32.9529C28.516 31.889 27.4953 30.8943 26.5266 30.2629C26.2671 30.1418 26.4228 29.7093 26.4401 29.3633C25.653 28.68 24.9437 27.521 23.9749 26.829C23.9922 26.8463 23.9922 26.8723 24.0009 26.8896C23.8798 26.7858 23.8019 26.6647 23.7327 26.5263C23.6981 26.4571 23.6722 26.3965 23.6463 26.3187L23.4473 25.9814C23.1792 25.5316 22.8937 25.0645 22.4699 24.6839C22.3834 24.8137 22.2623 24.7012 22.1585 24.7012C22.2277 24.5109 21.9077 24.1822 21.4233 23.8103C21.1811 23.6027 20.8957 23.473 20.593 23.1875C20.2816 22.8156 19.9615 22.4523 19.6415 22.1063C18.3614 20.7051 17.2975 19.9353 17.185 19.3471C17.1072 19.2952 17.0293 19.2347 16.9515 19.1482L16.7958 18.8195C16.0865 19.5634 15.2821 20.0478 14.4085 20.8781C13.976 21.2846 13.5263 21.7604 13.0938 22.3053C12.9813 22.4523 12.8776 22.5907 12.7738 22.7291C12.67 22.8675 12.5748 22.9021 12.471 23.0059C12.2807 23.1789 12.0904 23.3605 11.9261 23.5681C11.7704 24.2255 11.5801 24.8483 11.5542 25.4191C11.139 25.4191 11.4417 25.9468 11.1217 26.1716C10.7238 26.0765 10.4038 26.0851 10.1702 26.137C10.0492 26.163 9.954 26.1976 9.88481 26.2408C9.81561 26.2754 9.80695 26.2841 9.781 26.3187C9.72046 26.4398 9.91075 26.6387 10.1875 26.6906C9.99724 27.1923 9.59072 27.4777 9.33988 27.8497C9.27933 28.0745 9.21879 28.2994 9.17554 28.5416C9.14094 28.7579 8.94201 28.6887 8.65657 28.533C8.50953 29.0087 8.36248 28.68 7.97325 28.9482C7.58402 28.7146 7.75701 30.3753 7.56672 30.3753V30.2715C7.16884 30.6348 6.37308 30.3407 6.0444 30.7559C4.98051 31.7593 4.31449 33.3421 3.52738 34.4666C3.75227 34.7174 3.63117 34.1465 3.95985 34.4493C3.46683 35.0807 2.80082 35.5564 2.39429 36.283C2.27319 36.3695 2.10886 36.4473 2.02236 36.456C1.84937 36.6463 2.03966 36.6895 1.93586 36.8538L1.77152 36.7241C1.77152 37.122 1.44284 36.9576 1.39959 37.2863C1.45149 37.3555 1.42554 37.4593 1.38229 37.5545C1.2439 37.4161 1.28715 37.8572 1.16605 37.7188V37.7361C1.1574 37.7966 1.14875 37.8399 1.1055 37.8918C1.1228 38.0648 1.0709 39.4055 1.0536 39.5352L1.01901 39.5698C0.967113 39.7255 1.00171 39.8466 1.0536 39.786L0.967115 39.959V39.9331L0.889259 40.1061C0.863311 40.132 0.820071 40.132 0.802772 40.0455C0.794122 40.1753 0.750865 40.305 0.698968 40.4002C0.85466 40.158 1.07956 39.8812 1.3304 39.6995C1.30445 39.8466 1.14875 40.0023 1.09685 40.1407C0.96711 40.2358 0.776821 40.504 0.638428 40.7288C0.621129 40.7894 0.664379 40.8845 0.586533 40.9883C0.517336 41.0143 0.525986 41.1354 0.465439 41.2132C0.491388 41.0748 0.54328 40.9537 0.595177 40.8326C0.53463 40.798 0.448134 41.1094 0.404886 41.2046C0.404886 41.2651 0.309742 41.5073 0.257845 41.6717C0.257845 41.5765 0.197298 41.7841 0.162699 41.8706C0.128101 41.9744 0.110808 42.0522 0.128107 42.0176C0.128107 42.0695 0.283794 41.6111 0.257845 41.7841C0.231896 41.81 0.154047 42.0176 0.119449 42.1301C0.119449 42.1301 0.154051 42.0609 0.136752 42.1301C0.102154 42.2339 0.102154 42.2252 0.0156586 42.4501C0.0416072 42.3896 0.0416099 42.3723 0.058909 42.3377C0.0243108 42.5193 0.301099 41.4035 0.223253 41.6111C0.2665 41.5852 -0.0189349 42.6058 0.00701375 42.4847C0.041612 42.3896 -0.0189397 42.5539 0.0156586 42.4588L0.058909 42.3463C0.110806 42.2166 0.145406 42.1733 0.128107 42.2252C0.0416115 42.4588 0.335691 41.5419 0.257845 41.7322L0.292451 41.663C0.275152 41.7581 0.188644 41.9744 0.145397 42.0522C0.145397 42.0522 0.119455 42.1733 0.0848566 42.2685L0.0675538 42.3031C0.0329556 42.3982 -0.0189349 42.528 0.00701375 42.4674C0.119458 42.1906 0.102157 42.3031 0.058909 42.3896C0.0156612 42.4761 -0.0448926 42.5453 0.119449 42.3463C-0.0275935 42.5193 0.154058 42.2771 0.292451 42.0868C0.30975 42.0782 0.387596 42.009 0.50869 41.8879C0.595185 41.7754 0.551935 41.81 0.560585 41.7754C0.621132 41.7235 0.724924 41.6111 0.733573 41.6544C0.776821 41.5333 0.871966 41.5419 0.949812 41.4295C1.01036 41.3257 0.932517 41.4208 0.967115 41.3343C1.08821 41.2046 1.26119 41.0229 1.36499 40.9191C1.44283 40.9191 1.63313 40.8759 1.61583 41.0316C1.40824 41.2046 1.58123 40.8499 1.39959 41.0662C1.57258 41.0662 1.25254 41.2651 1.26984 41.3603C1.37364 41.3343 1.51204 41.2219 1.61583 41.1094H1.58123C1.66772 41.0143 1.84071 40.8067 2.0137 40.7721C2.031 40.8326 2.10885 40.824 2.03965 40.8932L2.19535 40.7807C2.19535 40.7807 2.204 40.7202 2.1521 40.7461C2.1867 40.6597 2.27319 40.6164 2.35104 40.5991C2.43753 40.651 2.87002 39.7341 2.87002 39.7687C2.96516 39.6736 3.0776 39.7514 3.1122 39.5958C3.08625 39.5525 2.36834 40.651 2.47213 40.504C2.54133 40.504 2.77487 40.1926 2.98246 39.8725C3.19005 39.5525 3.38034 39.2238 3.47548 39.2584C3.54468 39.1892 3.61388 39.0854 3.51873 39.0335C3.67442 38.9557 3.62253 39.2065 3.77822 39.1979C3.76957 39.1806 3.73497 39.1633 3.76092 39.146L3.94255 39.1633C4.01175 38.8692 4.46153 38.7827 4.48748 38.4281C4.52208 38.5751 4.61722 38.8 4.56532 38.9903L4.49614 38.9643C4.49614 38.9643 4.41829 39.1287 4.49614 39.1979C4.67778 39.146 4.78157 39.0508 4.83347 38.8605C4.88537 38.8605 4.93726 38.8605 4.98051 38.8692C4.97186 38.8605 4.95455 38.8519 4.9459 38.8346C5.04105 38.8519 5.0497 38.8692 5.067 38.9124C5.067 38.9124 5.06701 38.9297 5.07565 38.9384C5.42164 39.1373 5.42163 38.3675 5.80221 38.3156C5.82816 38.2205 5.75897 38.2637 5.79357 38.134C6.1482 38.0561 6.41634 38.0215 6.73637 37.8918C6.68447 37.6929 6.63257 37.6323 6.39904 37.5718L6.63257 37.4593C6.82285 37.961 7.34183 37.5285 7.51482 38.0475C7.66187 38.0907 7.80026 38.0215 7.85216 37.8831C7.76566 37.7793 7.62727 37.615 7.77431 37.5112C8.103 37.5026 8.00786 37.4853 8.29329 37.4939C8.46628 37.5977 8.45763 37.6929 8.56143 37.788C8.64792 37.442 9.07174 37.9264 9.29663 37.7361C9.40907 37.5977 9.69451 37.3815 9.46097 37.1306C9.66856 37.0009 9.85021 37.1825 10.0318 37.3988L9.99724 37.3901Z" fill="#565656"/>
<path d="M48.4964 19.0877L48.704 18.9926C48.1504 19.4077 47.4498 19.7191 46.7579 20.0305C48.7905 19.8921 51.3595 19.8921 50.2869 17.1329C51.4546 18.1189 53.2277 17.7816 52.9769 17.4875C53.0202 17.0983 53.1067 16.735 53.2105 16.389C53.124 16.6053 53.0374 16.8388 52.9682 17.0724C53.0374 16.8388 53.1153 16.6053 53.2105 16.389C53.5564 15.3165 54.2138 14.4948 55.0787 13.8288L55.2431 13.7077C55.2431 13.7077 55.2604 13.6471 55.269 13.6212L55.295 13.4655L55.3469 13.1973C55.3642 13.1195 55.3729 13.0417 55.3729 12.9811C55.3556 12.9292 55.4161 12.9725 55.4507 12.9811C55.4853 12.9984 55.5199 13.0157 55.5545 13.033C55.6669 13.0849 55.814 13.1282 55.9177 13.2319C55.9956 13.4222 56.0475 13.6039 56.0648 13.7596C56.0735 13.8374 56.0735 13.9066 56.0648 13.9758C56.0216 14.071 55.8745 14.2785 55.788 14.3996C55.7015 14.5207 55.6064 14.6418 55.5112 14.7543C55.6381 14.5928 55.7592 14.4285 55.8745 14.2612C55.8745 14.2612 55.8745 14.2093 55.9177 14.2093C55.9956 14.2093 55.9177 14.2007 56.4281 14.3477C56.4713 14.218 56.5319 14.1056 56.5838 13.9758C56.6097 13.9066 56.6357 13.8374 56.653 13.7509C56.6703 13.6644 56.6789 13.5693 56.7568 13.4741C56.7568 13.5001 56.7395 13.526 56.7308 13.552L56.7654 13.6385L56.8346 13.8115C57.5871 13.5087 58.1234 14.0191 58.5905 14.0364C58.2704 14.2526 58.4261 14.4861 58.5645 14.6764L58.6683 14.4429C59.2565 15.1521 60.2771 15.6192 60.874 16.1728C60.9605 16.242 60.9345 16.389 60.8912 16.5015L61.687 16.8042C61.3237 17.081 61.9292 17.4789 61.4362 17.4443C62.2665 17.4443 62.5347 18.0152 63.3391 17.9979C64.9652 19.1915 66.9546 20.1948 68.9094 21.1636L68.9353 21.0684C69.636 21.3885 70.3971 21.5182 70.9593 22.2015C71.5908 22.4524 72.2914 23.0146 72.5941 23.0665C73.0698 23.6114 73.2947 23.8017 73.6926 24.3985C73.6494 24.312 73.7445 24.4591 73.8223 24.5975C73.8829 24.7532 74.004 24.8137 73.8742 24.6926C73.6753 24.2255 73.6493 24.2169 73.4937 23.8017V23.8277C72.7238 21.9594 72.0492 20.0046 71.2275 18.1449C70.4317 17.1588 69.8868 15.7749 69.1083 14.7024C68.2434 13.5779 67.1535 12.5054 66.1242 11.8221C65.8475 11.6923 65.9945 11.2425 66.0031 10.8879C65.1641 10.1527 64.3857 8.92447 63.365 8.18061C63.3823 8.1979 63.391 8.22385 63.391 8.24115C63.1401 8.01626 63.0277 7.72218 62.9152 7.41945C62.9152 7.36755 62.8115 7.22051 62.7423 7.10806L62.5001 6.75343C62.3357 6.51989 62.1454 6.295 61.9205 6.09606C61.834 6.22581 61.6957 6.09606 61.5919 6.09606C61.6611 5.91442 61.3237 5.55979 60.8048 5.16191C60.5453 4.96297 60.2425 4.74673 59.9225 4.53049C59.7668 4.4613 59.5938 4.23641 59.4208 4.05477C59.2565 3.87313 59.0835 3.69149 58.9105 3.5012C57.5525 2.03077 56.4194 1.19176 56.2983 0.603595C56.2205 0.543048 56.134 0.4825 56.0561 0.396005L55.8918 0.0673218C55.1306 0.854432 54.283 1.3907 53.3488 2.26431C52.8904 2.69679 52.4147 3.18981 51.9563 3.76068C51.8438 3.93367 51.7314 3.98557 51.6276 4.07207C51.5238 4.15856 51.4113 4.24506 51.3075 4.3402C51.1 4.52184 50.901 4.72078 50.728 4.93702C50.555 5.60304 50.3561 6.24311 50.3301 6.81398C49.889 6.83128 50.209 7.35025 49.8717 7.59244C48.9549 7.52324 48.704 7.51459 48.6262 7.64433C48.5656 7.76543 48.7473 7.96437 49.0327 8.01626C48.8165 8.54389 48.384 8.85527 48.1159 9.2445C48.0467 9.47804 47.9775 9.72023 47.9169 9.96241C47.8737 10.1873 47.6661 10.1181 47.3806 9.96241C47.2076 10.4641 47.0693 10.1181 46.6541 10.4122C46.2562 10.1873 46.3773 11.8999 46.187 11.9086V11.7961C45.7718 12.1854 44.9588 11.9086 44.5955 12.3497C43.4624 13.4222 42.7185 15.0916 41.8622 16.2766C42.0871 16.5274 41.9747 15.9393 42.3034 16.242C41.7757 16.9253 41.0751 17.4356 40.6167 18.1968C40.4956 18.2919 40.314 18.3784 40.2275 18.3957C40.0372 18.5947 40.2361 18.6379 40.1237 18.8109L39.9593 18.6812C39.9593 19.0877 39.6047 18.9407 39.5528 19.278C39.6047 19.3472 39.5701 19.4596 39.5269 19.5548C39.3885 19.4164 39.4144 19.8748 39.302 19.7364V19.7537C39.2847 19.8143 39.276 19.8662 39.2328 19.9181C39.2501 20.0997 39.1376 21.475 39.1117 21.6134L39.0684 21.648C39.0079 21.8037 39.0425 21.9334 39.0944 21.8642L38.9992 22.0458V22.0199L38.9127 22.2015C38.8868 22.2275 38.8349 22.2361 38.8262 22.141C38.8089 22.2794 38.7743 22.4178 38.7138 22.5129C38.8781 22.2448 39.129 21.9593 39.3885 21.7691C39.3539 21.9248 39.1809 22.0891 39.1203 22.2275C38.9819 22.3313 38.7743 22.6167 38.6359 22.8589C38.6187 22.9195 38.6619 23.0232 38.5754 23.127C38.5062 23.153 38.5148 23.2827 38.437 23.3692C38.4716 23.2222 38.5322 23.1011 38.5841 22.9713C38.5235 22.9367 38.4283 23.2654 38.3764 23.3606C38.3764 23.4211 38.264 23.672 38.2121 23.845C38.2121 23.7498 38.1516 23.966 38.1083 24.0525C38.0651 24.165 38.0478 24.2428 38.0737 24.1996C38.0737 24.2515 38.2467 23.7758 38.2121 23.9487C38.1862 23.9747 38.0997 24.1909 38.0564 24.312C38.0564 24.312 38.091 24.2428 38.0737 24.312C38.0305 24.4245 38.0305 24.4245 37.9353 24.6494C37.9613 24.5888 37.9699 24.5715 37.9786 24.5369C37.9353 24.7272 38.2554 23.5595 38.1775 23.7758C38.2294 23.7498 37.8921 24.8137 37.918 24.684C37.9613 24.5888 37.8834 24.7532 37.9353 24.6494L37.9872 24.5369C38.0478 24.3985 38.0824 24.3553 38.0651 24.4072C37.9699 24.6494 38.2986 23.6979 38.2121 23.8969L38.2554 23.819C38.2294 23.9142 38.1343 24.1477 38.091 24.2255C38.091 24.2255 38.0564 24.3553 38.0218 24.4504L38.0045 24.485C37.9699 24.5888 37.9094 24.7272 37.9353 24.658C38.0564 24.3726 38.0391 24.485 37.9872 24.5715C37.944 24.6667 37.8661 24.7359 38.0564 24.5196C37.9007 24.7013 38.0997 24.4504 38.2467 24.2428C38.2727 24.2342 38.3505 24.1563 38.4716 24.0266C38.5668 23.9055 38.5149 23.9401 38.5235 23.9141C38.584 23.8536 38.6965 23.7412 38.7138 23.7758C38.757 23.6547 38.8608 23.6547 38.9473 23.5336C39.0165 23.4211 38.9214 23.5249 38.9646 23.4384C39.0944 23.3 39.276 23.1011 39.3885 22.9973C39.4663 22.9973 39.6739 22.9454 39.6479 23.1011C39.4317 23.2914 39.622 22.9195 39.4231 23.1443C39.6047 23.1443 39.2587 23.3606 39.2847 23.4557C39.3885 23.4298 39.5441 23.3 39.6479 23.1789H39.6134C39.7085 23.0838 39.8901 22.8589 40.0718 22.8157C40.0804 22.8762 40.1669 22.8676 40.0977 22.9454L40.2621 22.8243C40.2621 22.8243 40.2707 22.7638 40.2188 22.7897C40.2534 22.6946 40.3485 22.6513 40.4264 22.634C40.5129 22.6859 40.9886 21.7172 40.9886 21.7604C41.0838 21.6566 41.2049 21.7345 41.2481 21.5701C41.2222 21.5269 40.4437 22.6859 40.5562 22.5302C40.634 22.5216 40.8762 22.2015 41.1011 21.8556C41.326 21.5182 41.5335 21.1636 41.6287 21.2068C41.6979 21.129 41.7757 21.0252 41.6806 20.9733C41.8449 20.8868 41.7844 21.1549 41.9487 21.1376C41.9401 21.1203 41.9055 21.1117 41.9401 21.0857L42.1217 21.103C42.2082 20.7917 42.6753 20.6879 42.7099 20.3246C42.7445 20.4716 42.831 20.7052 42.7704 20.9041L42.7012 20.8782C42.7012 20.8782 42.6147 21.0511 42.7012 21.1203C42.8915 21.0598 43.004 20.956 43.0645 20.7571C43.1164 20.7571 43.1683 20.7571 43.2115 20.7571C43.2029 20.7484 43.1856 20.7398 43.177 20.7225C43.2808 20.7398 43.2807 20.7484 43.298 20.8003C43.298 20.8003 43.2981 20.8176 43.3067 20.8263C43.6613 21.0166 43.6873 20.2294 44.0765 20.1602C44.1111 20.0564 44.0333 20.1083 44.0765 19.9786C44.4484 19.8835 44.7252 19.8316 45.0626 19.6932C45.0193 19.4942 44.9674 19.425 44.7252 19.3731L44.9674 19.252C45.1404 19.7624 45.7026 19.3039 45.867 19.8316C46.014 19.8748 46.1611 19.797 46.2216 19.6499C46.1351 19.5461 46.0054 19.3731 46.1524 19.2607C46.4897 19.2347 46.3946 19.2261 46.6887 19.2261C46.8617 19.3299 46.8444 19.425 46.9568 19.5202C47.0606 19.1655 47.4844 19.6413 47.718 19.4423C47.8391 19.2953 48.1418 19.0617 47.9083 18.8023C48.1332 18.6552 48.3148 18.8369 48.4964 19.0617V19.0877Z" fill="#565656"/>
<path d="M86.2777 37.4853L86.4853 37.3815C85.9144 37.814 85.1879 38.1513 84.4786 38.48C86.5632 38.2897 89.184 38.2378 88.1547 35.444C89.331 36.43 91.1474 36.0495 90.8966 35.7467C90.9485 35.3402 91.0436 34.9683 91.1647 34.6223C91.5366 33.5151 92.2373 32.6675 93.1282 31.9669L93.4741 31.7074L93.5088 31.543L93.5693 31.2662C93.6212 31.1106 93.5606 30.903 93.7596 31.05C93.8807 31.1019 94.0277 31.1365 94.1402 31.2403C94.218 31.4392 94.2699 31.6209 94.2872 31.7766C94.2872 31.8544 94.3045 31.915 94.2872 32.0015C94.1834 32.1745 94.0796 32.3215 93.9758 32.4599C93.8807 32.581 93.7855 32.7021 93.6904 32.8145C93.823 32.6531 93.9441 32.4887 94.0536 32.3215C94.0536 32.3215 94.0537 32.2696 94.1229 32.2696C94.1575 32.2696 94.1834 32.2696 94.2353 32.2955C94.4429 32.3474 94.6332 32.408 94.8235 32.4685C94.91 32.2091 95.0657 32.0188 95.0829 31.569L95.2387 31.9323C96.0085 31.6382 96.5534 32.1745 97.0378 32.1918C96.7177 32.408 96.8734 32.6502 97.0291 32.8491L97.1243 32.6069C97.7384 33.3421 98.7936 33.8438 99.4164 34.4233C99.5115 34.5012 99.4856 34.6482 99.4423 34.7607L100.264 35.0894C99.9008 35.3661 100.524 35.7813 100.022 35.7381C100.87 35.7467 101.155 36.3435 101.977 36.3435C103.663 37.5977 105.722 38.6703 107.737 39.6909L107.763 39.5958C108.49 39.9331 109.268 40.0888 109.856 40.7981C110.514 41.0662 111.232 41.663 111.543 41.7149C112.045 42.2771 112.27 42.4761 112.693 43.0988C112.65 43.0037 112.754 43.1594 112.832 43.3064C112.901 43.4621 113.022 43.5313 112.892 43.4102C112.685 42.9259 112.65 42.9172 112.486 42.4934V42.5193C111.656 40.5991 110.92 38.5751 110.047 36.6636C109.216 35.6429 108.628 34.2157 107.806 33.1C106.898 31.9323 105.757 30.8165 104.701 30.0899C104.416 29.9515 104.563 29.5017 104.563 29.1385C103.689 28.3686 102.868 27.0972 101.812 26.3101C101.83 26.3274 101.838 26.3533 101.838 26.3706C101.579 26.1371 101.458 25.8257 101.337 25.5229L101.241 25.2894C101.207 25.2116 101.094 25.0559 101.017 24.9521C100.844 24.7099 100.645 24.485 100.411 24.2688C100.325 24.3985 100.178 24.2688 100.065 24.2601C100.134 24.0785 99.7883 23.7152 99.2434 23.2914C98.6985 22.8329 97.9806 22.5388 97.2799 21.6479C95.8701 20.1343 94.6851 19.2434 94.564 18.6638C94.4775 18.6033 94.3996 18.5341 94.3132 18.439L94.1402 18.1016C93.353 18.9147 92.4621 19.4942 91.4934 20.4024C91.0177 20.8349 90.516 21.3885 90.0489 21.9161C89.5905 22.2448 89.1407 22.6253 88.7688 23.0665C88.5871 23.7411 88.3796 24.3899 88.345 24.9694C87.8865 25.004 88.2152 25.5143 87.8606 25.7651C87.7481 25.7478 87.6443 25.7478 87.5492 25.7392C87.454 25.7305 87.3935 25.7046 87.3243 25.6873C87.1946 25.6613 87.0821 25.644 86.9956 25.644C86.814 25.644 86.7188 25.6873 86.6842 25.7478C86.615 25.8776 86.7967 26.0765 87.0908 26.1198C86.8572 26.6647 86.4075 26.9934 86.122 27.3912C86.0442 27.6334 85.975 27.8756 85.9058 28.1351C85.8625 28.36 85.6463 28.2995 85.3609 28.1524C85.1792 28.6627 85.0322 28.3254 84.617 28.6281C84.2191 28.4032 84.3056 30.1505 84.1067 30.1678V30.0553C83.6742 30.4618 82.8525 30.2024 82.4719 30.6521C81.2956 31.7766 80.4912 33.4892 79.5916 34.7261C79.8165 34.9769 79.7213 34.3801 80.0414 34.6828C79.4878 35.3921 78.7612 35.9284 78.2769 36.7155C78.1471 36.8106 77.9655 36.9058 77.8703 36.9231C77.6714 37.1306 77.8703 37.1652 77.7579 37.3469L77.5935 37.2171C77.5762 37.6323 77.2303 37.4853 77.1697 37.8399C77.2216 37.9091 77.187 38.0216 77.1351 38.1253C76.9881 37.987 77.014 38.454 76.9016 38.3156V38.3329C76.8843 38.3935 76.8756 38.4454 76.8237 38.5059C76.841 38.6876 76.694 40.1061 76.6681 40.2445L76.6248 40.2791C76.5556 40.4434 76.5902 40.5732 76.6507 40.504L76.547 40.6943V40.6683L76.4518 40.8586C76.4259 40.8846 76.374 40.8932 76.3653 40.7981C76.348 40.9365 76.3048 41.0835 76.2442 41.1786C76.4172 40.9019 76.6767 40.5991 76.9535 40.4002C76.9189 40.5559 76.7373 40.7289 76.6681 40.8759C76.521 40.9797 76.3134 41.2824 76.1577 41.5333C76.1318 41.6025 76.175 41.6976 76.0885 41.8101C76.0193 41.836 76.0193 41.9658 75.9415 42.0522C75.9761 41.8966 76.0366 41.7755 76.1058 41.6457C76.0453 41.6111 75.9415 41.9485 75.8809 42.0436C75.8809 42.1041 75.7599 42.3636 75.6993 42.5453C75.6993 42.4415 75.6301 42.6664 75.5869 42.7615C75.5436 42.874 75.5263 42.9605 75.5436 42.9172C75.5436 42.9691 75.7339 42.4761 75.6907 42.6577C75.6647 42.6837 75.5696 42.9086 75.5263 43.0296C75.5263 43.0296 75.5609 42.9518 75.5436 43.0296C75.5004 43.1421 75.4917 43.1507 75.3966 43.3756C75.4225 43.3151 75.4312 43.2891 75.4485 43.2545C75.3966 43.4448 75.7599 42.2512 75.6647 42.4761C75.7166 42.4501 75.3533 43.54 75.3793 43.4102C75.4225 43.3064 75.3447 43.4794 75.3966 43.3756L75.4485 43.2545C75.509 43.1075 75.5523 43.0642 75.535 43.1161C75.4312 43.367 75.7945 42.3809 75.6993 42.5885L75.7426 42.5107C75.7166 42.6145 75.6128 42.848 75.5695 42.9259C75.5695 42.9259 75.5263 43.0556 75.4917 43.1594L75.4744 43.194C75.4312 43.2978 75.3706 43.4362 75.3966 43.3756C75.5263 43.0815 75.5003 43.194 75.4571 43.2891C75.4139 43.3843 75.336 43.4621 75.5263 43.2372C75.362 43.4275 75.5696 43.1594 75.7253 42.9518C75.7512 42.9432 75.829 42.8567 75.9588 42.7269C76.0626 42.6058 76.0107 42.6404 76.0193 42.6058C76.0799 42.5453 76.201 42.4242 76.2096 42.4674C76.2615 42.3377 76.3653 42.3377 76.4518 42.2166C76.521 42.0955 76.4259 42.2079 76.4691 42.1214C76.5989 41.9744 76.7892 41.7668 76.9102 41.663C76.9881 41.663 77.2043 41.6025 77.1697 41.7668C76.9448 41.9658 77.1438 41.5765 76.9362 41.8187C77.1265 41.8187 76.7632 42.0436 76.7805 42.1387C76.893 42.1041 77.0486 41.9744 77.1611 41.8533H77.1265C77.2303 41.7495 77.4206 41.5246 77.6022 41.4727C77.6109 41.5419 77.6973 41.5246 77.6281 41.6025L77.7925 41.4814C77.7925 41.4814 77.8098 41.4208 77.7493 41.4468C77.7925 41.3516 77.879 41.3084 77.9655 41.2824C78.052 41.3343 78.5623 40.331 78.5537 40.3742C78.6575 40.2704 78.7785 40.3396 78.8218 40.1753C78.7958 40.132 77.9741 41.3343 78.0952 41.17C78.1731 41.1613 78.4326 40.824 78.6661 40.4694C78.9083 40.1234 79.1245 39.7601 79.2197 39.7947C79.2975 39.7169 79.3754 39.6044 79.2802 39.5525C79.4532 39.4574 79.384 39.7342 79.5484 39.7082C79.5397 39.6909 79.5051 39.6823 79.5397 39.6563H79.73C79.8251 39.3536 80.3009 39.2325 80.3528 38.8519C80.3787 39.0076 80.4738 39.2325 80.4046 39.4401L80.3355 39.4228C80.3355 39.466 80.249 39.5958 80.3355 39.6736C80.5344 39.6131 80.6469 39.5006 80.716 39.293C80.7679 39.293 80.8198 39.293 80.8717 39.293C80.8631 39.2844 80.8458 39.2757 80.8371 39.2584C80.9409 39.2757 80.9409 39.2844 80.9582 39.3363C80.9582 39.3363 80.9582 39.3536 80.9669 39.3622C81.3215 39.5525 81.3648 38.7395 81.7713 38.6616C81.8059 38.5578 81.728 38.6097 81.7713 38.4713C82.1519 38.3675 82.4373 38.3156 82.7919 38.1599C82.7487 37.9524 82.6968 37.8918 82.4546 37.8399L82.7054 37.7102C82.8698 38.2291 83.458 37.7448 83.6137 38.281C83.7607 38.3156 83.9164 38.2378 83.9769 38.0908C83.8904 37.987 83.7607 37.814 83.9077 37.7015C84.2537 37.6669 84.1499 37.6583 84.4613 37.6583C84.6343 37.7534 84.617 37.8572 84.7294 37.9524C84.8419 37.5804 85.2657 38.0648 85.5079 37.8572C85.6377 37.7015 85.949 37.4593 85.7155 37.1998C85.949 37.0442 86.1307 37.2344 86.3123 37.4507L86.2777 37.4853Z" fill="#565656"/>
</svg>
