<svg width="101" height="135" viewBox="0 0 101 135" fill="none" xmlns="http://www.w3.org/2000/svg">
<path d="M72.5544 51.9515L72.1219 52.5051C72.4247 52.0294 72.7447 51.5536 73.082 51.0779C73.3934 50.5849 73.6529 50.0659 73.9643 49.5643C74.6216 48.5782 75.0628 47.4711 75.625 46.4158C73.9729 48.5955 72.0181 50.5416 70.4612 52.4964C69.5876 53.4133 68.9648 54.4686 68.3334 55.4719C68.0307 55.9909 67.8144 56.579 67.5896 57.1413C67.356 57.6948 67.1744 58.3003 67.0533 58.9663C66.6814 58.6722 66.1451 58.6203 65.531 58.6636C64.8995 58.6809 64.2162 58.8106 63.6021 58.9923C62.9967 59.1999 62.3912 59.3469 61.9673 59.5199C61.5435 59.6929 61.284 59.8659 61.3186 59.9783C61.137 60.1686 60.964 60.3589 60.7737 60.5405L60.1682 61.0163C59.7617 61.3276 59.3379 61.639 58.8968 61.9418C59.5022 61.5439 60.099 61.146 60.6613 60.7308C60.099 61.1374 59.5022 61.5439 58.8968 61.9418C56.077 63.7149 52.4961 64.5366 48.8979 64.329C45.2824 64.1474 41.6841 62.8932 38.553 60.973C36.7798 59.9783 33.666 57.79 31.27 54.9183C30.9414 54.5896 30.6732 54.2091 30.4137 53.8285C30.1456 53.4566 29.8775 53.0846 29.618 52.7213C29.099 51.9861 28.7271 51.1904 28.3033 50.4984C27.594 49.028 27.0491 47.7305 26.8501 46.7358C26.7117 46.1736 26.4955 45.646 26.4177 45.0665C26.4609 45.5595 26.5214 45.793 26.5733 46.0266C26.6252 46.2601 26.6771 46.5023 26.7896 46.978C25.3538 44.9454 24.4023 42.8003 23.7709 40.6206C23.5374 41.0531 23.2779 41.1482 23.1222 42.1602C23.1222 41.7624 23.053 41.3731 23.0876 40.9752C22.6637 40.4909 22.3956 39.6086 22.1707 38.7004C22.041 37.7836 21.9718 36.8494 21.8074 36.2439C22.015 36.3823 22.1188 36.2093 22.214 35.9066C22.3178 35.6039 22.3956 35.1714 22.4648 34.7649L22.1707 35.0676C22.5427 31.9538 23.1741 28.3123 24.4196 25.752C24.5494 25.3801 24.8607 25.1984 25.0597 25.1033L25.544 23.8405C25.6997 23.4166 25.8554 22.9842 26.0803 22.5949C26.4263 23.0447 27.6978 21.0034 27.2826 22.2403C27.4297 21.7473 27.6026 21.2542 27.8621 20.8218C28.1303 20.3979 28.4244 19.9914 28.7184 19.5849C29.2634 18.7372 29.938 18.0193 30.3965 17.0938C32.8529 14.646 35.7938 12.5182 39.0806 10.918C42.3674 9.30921 46.0089 8.23666 49.7628 7.75229L49.5725 7.55335C50.2299 7.4755 50.8873 7.31116 51.536 7.19872C52.1933 7.12087 52.8507 7.02573 53.5427 6.95653C54.2346 6.86139 54.9352 6.90463 55.6791 6.99113C56.4143 7.09492 57.1928 7.17277 57.9626 7.53605C58.5767 7.53605 59.26 7.57065 59.9606 7.6139C60.6613 7.65715 61.3359 7.83014 62.0106 7.90798C63.3599 8.05502 64.5189 8.27991 65.2282 8.02043C65.8942 8.34046 66.4997 8.54805 67.0187 8.78159C67.5376 9.03242 68.022 9.23137 68.5064 9.43895C68.9908 9.64654 69.4925 9.83683 70.0201 10.0963C70.5218 10.3818 71.0667 10.7104 71.6894 11.1256C71.5683 10.6672 72.2344 10.9959 72.8398 11.2986C73.4626 11.6013 73.8778 11.8349 73.5318 11.2208C72.442 9.34381 71.9576 9.75034 70.9456 8.19342L70.8764 8.37506C64.7092 2.86529 56.1289 -0.179353 47.462 0.15798C46.0348 0.426116 44.5731 0.573158 43.1199 0.945089C42.3934 1.10943 41.6582 1.23917 40.9316 1.42946C40.2137 1.6457 39.4871 1.85329 38.7606 2.06953L37.6707 2.38957L36.6068 2.80474L34.4877 3.6524C33.8044 3.97243 33.1384 4.34436 32.4637 4.69035C31.7977 5.05363 31.123 5.39096 30.5175 5.84074C29.8602 6.30781 29.1942 6.78354 28.5282 7.25062C27.8621 7.71769 27.274 8.30586 26.6512 8.84213C25.3797 9.88873 24.3245 11.1429 23.2519 12.3279C22.6983 12.9074 22.2832 13.5907 21.8074 14.2135C21.3663 14.8536 20.8819 15.4504 20.5014 16.1078C20.1294 16.7651 19.7662 17.4052 19.4202 18.0366C19.2472 18.348 19.0828 18.6594 18.9098 18.9621C18.7714 19.2821 18.6331 19.6022 18.5033 19.9136C18.2698 20.519 17.9497 20.9688 17.5951 21.384C17.4135 21.5916 17.2232 21.7905 17.0329 21.9895C16.8512 22.1971 16.6869 22.4133 16.5226 22.6468C16.3063 23.235 16.0901 23.8491 15.8652 24.4719C15.7527 24.7833 15.623 25.0947 15.5279 25.4233C15.4327 25.752 15.3462 26.0807 15.2511 26.418C15.0608 27.0841 14.8705 27.7674 14.6802 28.4593C14.5072 29.1513 14.4034 29.8692 14.265 30.5871C13.9536 32.0143 13.8671 33.4934 13.7634 34.9551C13.6855 35.6817 13.7461 36.4169 13.7634 37.1348C13.7979 37.8527 13.8066 38.5707 13.8844 39.2626C13.8758 39.1588 13.8844 39.055 13.8844 38.9858C14.0661 40.4649 14.0315 41.771 14.1353 43.0684C14.1958 43.7171 14.265 44.3659 14.3602 45.0319C14.4034 45.3606 14.464 45.6979 14.5245 46.0439C14.6197 46.3812 14.7148 46.7185 14.8359 47.0732C14.9829 47.0213 15.1213 47.4538 15.2597 47.6354C14.957 47.9727 16.5745 52.0813 19.1693 55.567C21.7209 59.1134 25.1116 61.8034 25.3191 62.2791C25.5527 62.4607 25.7862 62.651 26.0198 62.8586C26.4955 63.4381 27.075 63.9139 27.6026 64.4501C28.1476 64.9691 28.6579 65.54 29.2288 66.0503C29.8083 66.5433 30.3878 67.045 30.9673 67.538C31.2614 67.7802 31.5468 68.0397 31.8409 68.2732L32.7664 68.9306C33.3979 69.3631 34.0206 69.7869 34.6347 70.2107C35.2748 70.5913 35.9321 70.92 36.5809 71.2487C37.861 71.9493 39.219 72.3645 40.5078 72.7105C40.8105 72.7105 41.1133 72.7105 41.4246 72.7105C41.736 72.6845 42.0474 72.6586 42.3588 72.6413C42.9729 72.5894 43.5524 72.5202 44.0541 72.4164C44.9104 72.9094 45.1785 72.3212 46.2597 72.5029C46.9171 72.9353 47.5399 73.2294 48.0588 73.4111C48.5865 73.6014 49.019 73.61 49.313 73.61C49.9099 73.5754 49.9531 73.29 49.2265 73.0305C51.5446 72.8921 53.8627 72.8143 55.8867 72.4337C56.8035 72.1396 57.7118 71.8628 58.6113 71.5341C59.3552 71.1881 59.8396 71.266 60.3412 71.4822C62.2874 70.6865 61.803 71.2141 63.9135 70.5221C64.0865 70.5913 64.4757 70.4443 64.9774 70.1848C65.479 69.934 66.0326 69.4755 66.5948 69.0517C67.1484 68.6192 67.702 68.1781 68.1431 67.8235C68.567 67.4342 68.887 67.1574 69.034 67.1056L68.7745 67.365C69.3108 67.0364 69.8385 66.7855 70.3574 66.5693C70.885 66.353 71.404 66.1714 71.8797 65.9292C72.8485 65.4621 73.8864 65.021 74.8292 64.1734C77.5538 61.9072 79.8806 58.9663 81.7575 55.8438C83.548 52.6521 84.8108 49.2875 85.719 46.1217C85.2173 45.9228 85.4336 47.5489 84.7243 47.4192L85.1827 46.0612C85.3471 45.6114 85.4422 45.1357 85.5806 44.6772C85.8142 43.7431 86.1601 42.8176 86.3331 41.8661C86.5234 40.9147 86.7051 39.9459 86.8694 38.9772C86.9559 37.9998 87.0078 37.0137 87.0251 36.0277C87.1981 35.3098 87.3365 34.4275 87.4835 34.0815C87.5614 32.7841 87.1548 33.355 87.1289 32.4208L87.596 32.2305C87.0338 30.9331 87.7776 30.1546 87.3365 28.9005C87.1289 28.8745 87.0251 28.4161 86.9213 27.9577C87.4143 27.8106 86.4889 26.591 86.9559 26.5305H86.9126C86.8434 26.2537 86.7483 26.0721 86.7397 25.7174C86.6618 25.5963 86.4283 25.2417 86.1082 24.766C85.7882 24.2902 85.3211 23.7367 84.88 23.1745C84.4389 22.6295 83.9891 22.0846 83.6345 21.6521C83.2452 21.2369 82.9425 20.9515 82.8301 20.8564L82.7954 20.6055C82.4495 19.9741 81.9651 19.8876 82.0776 20.2941L81.697 19.507L81.7748 19.5762L81.3856 18.7891C81.351 18.6248 81.4461 18.348 81.7835 18.4431C81.3596 18.1145 80.9704 17.6993 80.7715 17.2322C81.325 18.5383 81.6883 20.2941 81.87 21.7559C81.4462 21.3234 81.2039 20.2855 80.8579 19.7579C80.8407 19.5503 80.806 19.2994 80.7455 19.0227C80.6677 18.7545 80.5639 18.4691 80.4514 18.1664C80.2266 17.5609 79.9498 16.9035 79.7076 16.3327C79.526 16.1337 78.9896 16.2894 78.808 15.6753C78.9378 15.2082 78.3669 15.1563 78.2717 14.5854C78.7994 14.9055 79.1021 15.3985 79.4308 15.8915C79.7768 15.5196 78.7907 14.5681 78.6004 14.1184C78.3409 14.0405 77.7441 13.0458 77.1646 12.5874C77.7182 12.5095 76.9657 11.9819 76.8359 11.5062C76.5246 11.117 76.1785 11.0218 76.2045 11.2727C75.7461 11.5062 77.3549 12.8469 76.5072 12.7171C76.5591 12.4317 75.8326 11.8176 75.4606 11.4803C75.2703 11.6705 75.5644 11.8695 75.1493 11.8176C74.7946 11.3765 74.1546 11.2035 74.12 10.771C74.2411 10.7883 74.3794 10.9872 74.4832 11.1083C74.2324 10.8402 75.2271 11.2121 76.2131 11.6186C77.2078 12.0165 78.1593 12.4749 77.7701 12.1636C77.7701 12.3366 76.7235 11.8349 75.7374 11.3765C74.7514 10.918 73.8345 10.4856 73.9989 10.6672C74.2237 11.0737 73.4539 10.8056 73.7134 11.1948L74.293 11.3073C74.6649 11.8176 74.5178 12.3279 74.2324 12.3106C73.8864 11.9387 74.7082 12.1117 75.5472 12.3625C76.3775 12.6047 77.2251 12.9247 76.8013 12.6912C76.8532 12.8123 76.9137 12.9161 76.957 13.0458C76.5678 12.8728 75.7374 12.2674 75.6596 11.7916C75.4693 11.9733 75.0455 11.6792 74.6735 11.4457L74.5957 11.3073C74.1978 11.0997 73.7999 10.6239 73.774 11.0824C74.6908 11.9646 73.921 12.1463 73.1599 12.3625C72.3901 12.5787 71.6375 12.8382 72.3814 13.6859C72.1046 12.5874 73.0215 13.4783 73.7913 14.153C73.7134 14.3606 73.8345 14.8795 74.2151 15.4936C74.6389 15.9434 74.6043 15.632 74.7946 15.632C74.9157 15.9867 75.253 16.5662 74.9589 16.6959C75.5471 16.843 75.2617 17.4398 75.7201 17.8031C76.1785 18.0972 75.8239 17.682 76.1959 17.855C76.6111 18.5037 77.1473 19.4378 77.4241 19.9828C77.3117 20.3374 77.2597 21.1851 76.6024 20.9861C76.0402 20.0174 77.4587 20.9602 76.7235 20.0347C76.4467 20.8131 75.9969 19.2649 75.4693 19.3686C75.426 19.8444 75.8326 20.4585 76.2478 20.9342V20.7872C76.663 21.1764 77.2857 22.1019 77.2511 22.7852C76.983 22.7679 76.9484 23.0793 76.7148 22.7506L77.0175 23.4253C77.13 23.4772 77.2424 23.5291 77.1819 23.3128C77.5019 23.5464 77.5798 23.901 77.5884 24.1951C77.5192 24.2729 78.0988 25.086 78.7302 25.8904C79.0329 26.2969 79.3702 26.6862 79.5605 27.0062C79.7508 27.3176 79.8633 27.5165 79.82 27.4992C79.9844 28.0269 79.673 28.2604 80.0622 28.7015C80.1141 28.7015 79.993 28.3988 79.7941 27.9663C79.5778 27.5338 79.3443 26.9457 78.981 26.4353C78.3063 25.3887 77.6749 24.4546 77.8479 24.766C77.8306 24.8957 78.0296 25.2849 78.3496 25.8039C78.6523 26.3229 79.1194 26.963 79.4395 27.6636C79.7941 28.3469 80.14 29.0475 80.3822 29.6011C80.5898 30.1633 80.659 30.5871 80.5725 30.6909C80.6677 31.0888 80.8147 31.5559 81.0396 31.4175C81.0569 32.1181 80.5379 31.305 80.3996 31.824C80.4428 31.824 80.512 31.7635 80.5379 31.9192L80.3217 32.4295C80.6331 32.9139 80.6158 33.5712 80.685 34.2199C80.7196 34.8773 80.8407 35.526 81.0742 36.0709C80.8233 35.7596 80.3044 35.4222 79.993 34.7562L80.1141 34.6265C80.0276 34.5313 79.8892 33.9777 79.647 34.021C79.5433 34.687 79.6643 35.2233 79.9411 35.9066C79.8719 36.0363 79.8114 36.1834 79.7422 36.2872C79.7768 36.2872 79.8027 36.2699 79.8373 36.2699C79.6816 36.5034 79.6557 36.4775 79.5605 36.3996C79.5432 36.391 79.5259 36.3737 79.5086 36.3564C78.7734 36.7629 80.0276 38.8993 79.4654 40.067C79.5346 40.4217 79.5865 40.1103 79.6816 40.5601C79.5865 40.8541 79.4913 41.1223 79.4048 41.3818C79.3097 41.6413 79.1886 41.8834 79.0848 42.1256C78.8772 42.61 78.6869 43.103 78.488 43.6999C78.7215 44.1583 78.834 44.2275 79.2405 43.8123C79.154 44.1237 79.0588 44.4264 78.9205 44.7205C78.3582 43.6999 77.6576 46.1996 77.1213 45.0665C76.8618 45.2654 76.6716 45.7757 76.6629 46.3034C76.8446 46.4158 77.1646 46.6147 76.9051 47.2116C76.3083 47.9468 76.4813 47.7911 75.9537 48.3706C75.6423 48.4225 75.6423 48.1284 75.4261 48.0765C75.3396 49.2615 74.5092 48.7252 74.0854 49.6594C73.8605 50.2735 73.2983 51.4153 73.6529 51.6747C73.1426 52.4013 72.8485 52.211 72.5717 51.9256L72.5544 51.9515Z" fill="#565656"/>
<path d="M85.0012 67.1489L84.5514 67.5467C85.9267 66.1715 87.3539 64.6837 88.7378 63.1614C86.9214 64.6232 84.8714 65.9985 83.1934 67.4429C81.4808 68.8701 80.166 70.4184 79.7422 72.5462C79.1194 72.0964 77.822 72.3126 76.7408 72.6586C75.6337 72.9873 74.6995 73.4371 74.786 73.6274C74.2238 74.302 73.601 74.9335 72.9437 75.5303C70.8418 77.3986 68.2123 78.7998 65.3407 79.6907C62.469 80.5903 59.3725 80.9709 56.2673 81.0141C54.5547 81.0833 51.3717 81.1438 48.2319 80.8065C45.0921 80.5038 42.0301 79.7686 40.43 79.1631C39.9629 78.9901 39.4958 78.8604 39.0287 78.6787C39.7899 79.0247 39.7986 79.0074 40.5684 79.3361C38.4146 79.4312 36.4339 79.3015 34.531 79.0161C34.7559 79.3707 34.7299 79.6042 35.3787 80.1751L34.4964 79.7253C33.9515 79.9156 33.1903 79.8205 32.4378 79.6734C31.6853 79.5177 30.9587 79.2582 30.4311 79.2063C30.7857 78.9469 30.0937 78.5922 29.5142 78.2376L29.644 78.5749C27.3518 77.3726 24.5753 76.1271 22.6724 74.7432C22.3956 74.5615 22.2745 74.328 22.2227 74.1464C21.5739 73.7744 20.9079 73.4198 20.2506 73.0306C20.6744 72.7884 19.0483 71.5861 20.0689 72.0272C19.6537 71.8715 19.2731 71.6726 18.9099 71.4477C18.5639 71.2055 18.2265 70.9547 17.8892 70.6952C17.2059 70.1935 16.5831 69.6572 15.8133 69.268C11.6356 65.2892 7.64815 60.3849 4.75919 54.8665L4.73325 55.0395C3.678 53.1279 2.65735 51.4067 2.10377 48.7945C1.35991 47.0127 0.858254 44.314 0.607417 43.5788C0.477673 42.4717 0.425776 41.7019 0.391178 40.932C0.330631 40.1622 0.330631 39.3924 0.391178 38.3026C0.34793 38.8648 0.486321 36.1921 0.443073 37.2646C0.278731 38.8389 0.287384 38.7005 0.148991 40.0238L0.166281 39.9892C-0.274847 45.7499 0.123018 51.7872 1.82698 57.7122C3.28011 61.5007 5.00137 65.6784 7.42325 69.2593C8.75528 71.1536 10.2949 73.0392 11.947 74.6913C13.599 76.3433 15.3289 77.7965 16.9637 78.9296C17.7681 79.4399 18.0449 80.201 18.5725 80.8671C21.5912 82.9689 25.5354 85.633 29.4969 87.0169C29.4277 86.9823 29.3585 86.9477 29.3153 86.9217C31.3739 87.7089 32.7578 88.8246 34.877 89.3782C34.9116 89.2312 35.2316 89.3177 35.4132 89.2831C35.4911 89.6983 38.7001 90.2432 41.9436 90.3297C45.2045 90.4421 48.4394 90.0442 48.8027 90.2605C49.0276 90.2345 49.2525 90.2086 49.4861 90.1913C50.6105 90.2864 51.7436 90.3902 52.8853 90.5286C54.0271 90.5978 55.1774 90.7708 56.3105 90.7795C57.4436 90.8313 58.5681 90.84 59.6493 90.7449C60.7305 90.6757 61.7598 90.494 62.7199 90.2172C63.4811 89.6983 64.3201 89.1187 64.8996 88.5565C65.6435 88.643 65.6089 88.0635 66.4046 87.8559C68.8524 88.5133 69.8212 87.4148 68.6276 87.3888C69.3974 86.965 70.1931 86.6277 70.9629 86.2817C71.7241 85.9184 72.4766 85.5897 73.1513 85.2264C73.7308 84.794 74.3103 84.3701 74.8812 83.929C75.3569 83.5398 75.7288 83.5225 76.1526 83.6436C77.3809 82.6575 77.1733 83.2197 78.6005 82.398C79.2146 82.571 81.524 79.4053 81.9219 79.2063L81.7576 79.4312C82.4928 78.8604 83.2453 78.5403 83.9632 78.1857C84.6725 77.8224 85.3817 77.4418 86.065 76.8104C87.9852 75.0805 89.7238 72.996 91.2548 70.8422C92.7857 68.6798 94.0486 66.4223 95.173 64.355C94.9222 64.1475 94.7579 65.3238 94.3513 65.1249C95.718 62.7289 97.1624 60.333 98.0447 57.6776C98.2609 57.2278 98.5377 56.6742 98.6761 56.484C98.9961 55.6536 98.702 55.9304 98.9096 55.3163H99.1345C99.1691 54.3129 99.6448 54.0102 99.7313 53.0933C99.6621 53.0241 99.7227 52.6954 99.766 52.3841C99.9563 52.4273 99.8957 51.4067 100.06 51.5018V51.4845C100.077 51.2942 100.086 51.1558 100.147 50.9309C100.147 50.7406 100.112 49.7632 100.069 48.8031C100.043 47.843 99.9908 46.9002 99.9649 46.71L99.9995 46.5456C100.017 46.0439 99.9389 45.819 99.8957 46.1045L99.9389 45.4904V45.5596L99.9822 44.9541C99.9909 44.8416 100.043 44.7206 100.095 44.9022C100.051 44.5476 100.034 44.1583 100.051 43.8123C100.025 44.7725 99.8351 45.9401 99.6102 46.9175C99.6016 46.5024 99.7314 45.7671 99.7573 45.326C99.887 44.807 99.939 43.7172 99.9822 42.8696C99.9736 42.6793 99.9043 42.5495 99.913 42.1257C99.9562 41.9267 99.887 41.65 99.913 41.2953C99.9562 41.7019 99.9822 42.0997 99.9908 42.5063C100.069 42.4457 99.9822 41.5116 99.9735 41.1829C99.9389 41.0272 99.913 40.2401 99.8524 39.7471C99.9216 39.9633 99.8265 39.3492 99.7919 39.0551C99.7486 38.7264 99.7054 38.5102 99.7227 38.6486C99.6881 38.5361 99.8784 39.9719 99.7832 39.5049C99.7832 39.3838 99.7054 38.7351 99.6621 38.3891C99.6535 38.3891 99.6795 38.6226 99.6449 38.3977C99.6016 38.0258 99.567 37.7231 99.5324 37.3771C99.5411 37.4809 99.5583 37.6106 99.5756 37.7231C99.5497 37.4722 99.6275 38.1555 99.74 38.8216C99.8524 39.4876 99.9822 40.1449 99.9303 39.8163C99.9044 39.9806 99.4632 36.9273 99.5238 37.2733C99.5583 37.576 99.4978 37.057 99.5324 37.3684L99.5756 37.7231C99.6189 38.1555 99.6189 38.3372 99.6016 38.1815C99.5757 37.8182 99.6276 38.3372 99.6968 38.8648C99.7746 39.4011 99.8697 39.946 99.8265 39.6346L99.8438 39.8854C99.8005 39.6173 99.7141 38.9081 99.6968 38.6399C99.6968 38.6399 99.6794 38.5448 99.6621 38.4237C99.6448 38.2853 99.6275 38.1296 99.6102 37.9912V37.8874C99.567 37.5847 99.5151 37.1608 99.5411 37.3598C99.6362 38.2507 99.5756 37.9566 99.5583 37.6539C99.5324 37.3511 99.5411 37.0484 99.5411 37.9134C99.5411 37.1868 99.5583 38.1555 99.5756 38.9167C99.567 38.9859 99.5584 39.3232 99.5411 39.8768C99.5238 40.3525 99.541 40.1536 99.5583 40.2487C99.5324 40.5082 99.4978 41.0099 99.4719 40.9407C99.4978 41.3126 99.4113 41.5289 99.4026 41.97C99.4026 42.3592 99.4286 41.944 99.4373 42.2208C99.3854 42.8004 99.2816 43.6134 99.221 44.0805C99.1518 44.2535 98.9702 44.7811 98.9269 44.3746C99.0567 43.501 99.0307 44.7292 99.1259 43.8123C98.9442 44.1843 99.195 42.9993 99.1259 42.8263C99.0307 43.1117 98.9442 43.6999 98.8837 44.1929L98.9183 44.0978C98.8837 44.5303 98.7626 45.4039 98.5809 45.845C98.5463 45.7239 98.4599 45.9228 98.5118 45.6028L98.3733 46.191C98.3733 46.2688 98.3733 46.3467 98.4252 46.1823C98.4166 46.4678 98.3301 46.7446 98.2523 46.9435C98.2263 46.9694 98.088 47.7566 97.9842 48.5264C97.889 49.3048 97.7852 50.066 97.7679 50.0054C97.6468 50.4206 97.4911 50.4898 97.4565 50.9136C97.543 50.9742 98.2523 46.8483 98.1398 47.4106C98.0447 47.5749 97.8457 48.7858 97.6208 49.9795C97.37 51.1645 97.1365 52.3581 96.9808 52.4446C96.8856 52.7473 96.7732 53.1193 96.903 53.0847C96.6781 53.5777 96.7645 52.8684 96.5483 53.1971C96.557 53.2144 96.6089 53.1885 96.5656 53.3009L96.3147 53.6036C96.211 54.46 95.4844 55.4979 95.3893 56.4061C95.3633 56.1207 95.2595 55.766 95.3806 55.2038L95.4758 55.1346C95.4758 55.0481 95.6228 54.607 95.5103 54.5811C95.2249 55.0395 95.0606 55.4633 94.9482 56.0169C94.879 56.0947 94.8011 56.1985 94.7319 56.2591C94.7492 56.2591 94.7665 56.2591 94.7838 56.2677C94.6281 56.3975 94.6281 56.3802 94.6108 56.3023C94.6108 56.2937 94.6022 56.2764 94.6108 56.2591C94.3686 56.3369 94.187 56.8213 93.988 57.3835C93.8064 57.9544 93.5902 58.6031 93.2528 58.975C93.1663 59.2518 93.3047 59.0269 93.2009 59.3729C92.5955 60.1687 92.1111 60.679 91.471 61.492C91.4624 61.864 91.5143 61.9332 91.8948 61.691L91.4364 62.3224C91.3932 61.4747 90.1909 63.2479 90.1909 62.3397C89.9574 62.4608 89.6633 62.8068 89.4903 63.2047C89.5768 63.3171 89.7238 63.4901 89.4038 63.9312C88.7896 64.4156 88.954 64.3118 88.4177 64.6924C88.1755 64.6924 88.262 64.4761 88.1236 64.4156C87.7171 65.2892 87.2933 64.8308 86.7224 65.4968C86.3937 65.9379 85.6931 66.7683 85.9353 67.0105C85.399 67.5381 85.2087 67.3737 85.0444 67.1316L85.0012 67.1489Z" fill="#565656"/>
<path d="M46.6576 93.7462L46.623 93.9625C46.4846 93.2532 46.5798 92.5093 46.7268 91.7828C44.9104 93.3743 43.8379 95.2599 47.7561 96.4968C45.7581 96.6265 45.1612 98.1748 45.637 98.2094C46.0435 98.5294 46.3808 98.8581 46.6576 99.1868C48.3962 101.263 47.9723 103.529 47.7734 105.864C47.6696 107.162 47.9637 110.682 47.8858 112.014C47.8858 112.204 47.8772 112.395 47.8858 112.594C47.9147 112.38 47.9435 112.164 47.9724 111.945C48.4394 112.758 48.8459 113.493 49.1314 114.202C49.2698 114.081 49.4082 114.055 49.5898 113.761L49.5293 114.125C50.0136 114.453 50.0742 115.214 50.2818 115.578C50.0569 115.5 50.0482 115.785 50.0396 116.036L50.1693 115.941C50.1866 116.884 50.4634 117.982 50.5239 118.83C50.5326 118.951 50.4807 119.038 50.4201 119.089L50.6364 119.902C50.4028 119.842 50.5153 120.577 50.3337 120.188C50.6624 120.793 50.5845 121.408 50.8873 121.987C51.1208 124.054 51.484 126.251 51.7781 128.388L51.8128 128.336C51.9252 129.08 52.0895 129.746 52.0636 130.654C52.1587 131.303 52.1847 132.228 52.2452 132.488C52.2279 133.24 52.2366 133.534 52.1847 134.269C52.202 134.079 52.1414 134.979 52.1587 134.624C52.2106 134.14 52.2106 134.114 52.2712 133.699C52.5134 131.778 52.868 129.849 53.2226 127.895C53.3264 126.589 53.6205 125.17 53.7935 123.821C53.9578 122.359 54.053 120.776 54.0011 119.531C53.9665 119.228 54.2 119.012 54.3471 118.761C54.3903 117.61 54.6844 116.14 54.6844 114.842C54.6844 114.868 54.6758 114.894 54.6671 114.903C54.7017 114.211 55.0996 113.692 55.1428 113.017C55.0477 113.017 55.0563 112.914 55.0131 112.862C55.2466 112.801 55.1515 111.807 54.9871 110.803C54.8228 109.791 54.5806 108.771 54.7449 108.658C54.7276 108.589 54.7103 108.52 54.7017 108.442C55.0563 107.015 56.4143 105.544 56.5008 104.325C56.2413 104.057 56.0164 103.762 55.6964 103.538C55.9991 103.321 55.4628 103.278 55.5666 103.019C56.9765 102.361 56.4748 101.972 55.9472 102.309C55.8261 101.764 56.0078 101.219 56.0164 100.735C55.9386 100.51 55.8521 100.285 55.7483 100.06C55.6445 99.8701 55.8694 99.7577 56.2327 99.6625C56.0856 99.1695 56.4229 99.3166 56.6392 98.7976C57.1928 98.6765 55.9472 97.5088 56.1202 97.3617L56.1894 97.4482C56.3451 96.8514 57.4695 96.4535 57.6079 95.874C58.2653 94.2566 58.0837 92.492 58.5075 90.9957C57.8415 90.9784 58.6026 91.3244 57.729 91.3417C57.9539 90.4594 58.9227 89.5685 59.1822 88.6776C59.3984 88.5132 59.7876 88.323 60.0212 88.2451C60.3326 87.9597 59.7098 88.0808 59.8395 87.8645L60.4882 87.8386C60.0125 87.5358 61.2926 87.3888 61.0764 87.1034C60.8169 87.0861 60.7996 86.9823 60.8342 86.8785C61.5349 86.8785 60.8429 86.5671 61.483 86.5757H61.4311C61.457 86.5152 61.4137 86.4633 61.5521 86.3941C61.3359 86.2817 59.5627 85.1832 59.2514 85.0621L59.3811 85.0102C59.3811 84.8458 58.8535 84.7766 58.7064 84.8718L58.7756 84.6728L58.8189 84.6988L58.8881 84.4999C58.9573 84.4653 59.3033 84.422 59.6233 84.4739C59.3811 84.3615 59.26 84.2317 59.407 84.1193C58.9054 84.4393 58.2134 84.8285 57.4436 85.1572C57.21 85.0188 57.6252 84.7766 57.556 84.6296C58.0577 84.4566 58.5162 84.0933 58.8968 83.8079C58.8622 83.7473 58.0318 83.7041 58.421 83.5657C59.0092 83.4965 58.421 83.41 58.8535 83.2889C59.1475 83.4273 58.9832 83.557 58.94 83.6868C59.6233 83.6608 59.4503 83.3581 59.6579 83.2457C59.4503 83.1938 59.7098 82.9343 59.5455 82.7699C60.1942 82.8391 59.9866 82.6402 60.3585 82.5364C60.4537 82.424 60.2028 82.3548 59.952 82.398C59.2254 82.3634 59.459 82.8391 58.7151 82.6834C59.0697 82.6402 58.9746 82.424 58.9573 82.3115C58.5594 82.3115 58.6459 82.3894 58.274 82.3115C58.3778 82.1818 57.9107 82.0434 58.3345 81.9655C58.4383 81.9915 58.3691 82.0434 58.3518 82.078C58.4297 81.905 60.8169 82.9948 60.6094 82.7786C60.2634 82.8391 58.3951 81.8098 58.3518 81.9223C58.1442 82.0261 57.6339 81.8444 57.4869 81.9569L57.9539 82.078C57.7896 82.225 57.089 82.2856 56.8208 82.2337C56.916 81.9915 59.4503 82.9343 59.0697 82.718L58.8708 82.8045C58.6286 82.718 58.4296 82.4759 58.8621 82.3894C58.4729 82.3894 58.3431 82.2683 58.2134 82.1731L58.2826 82.1385C58.0923 82.0347 58.2048 81.8963 57.6771 81.9569C57.6944 82.5624 53.6811 81.559 53.4216 82.1472C54.3038 81.905 54.3125 82.2337 54.399 82.4845C54.1049 82.5105 53.6638 82.6229 53.4389 82.8045C53.4994 82.9602 53.7503 82.8997 53.9665 82.9256C53.7676 83.0121 53.6032 83.1851 53.1534 83.1592C53.6811 83.2803 52.8075 83.3581 52.9891 83.5052C53.2313 83.6349 53.2226 83.4965 53.4735 83.5917C53.4129 83.7906 53.3264 84.0674 53.2226 84.2231C52.8075 84.2836 52.0809 84.4653 51.4408 84.3355C51.5273 84.0328 52.4788 84.448 52.3404 84.1366C51.3976 84.275 52.0809 83.8598 51.363 83.8079C50.9391 83.903 50.9392 84.1106 51.0603 84.275L51.1813 84.2404C51.3111 84.3874 51.51 84.6815 51.0083 84.8458C50.6796 84.8112 50.4375 84.8804 50.351 84.768L50.2991 84.9756C50.4029 85.0015 50.5066 85.0275 50.5845 84.9756C50.844 85.0707 50.697 85.1659 50.5153 85.2437C50.1866 85.2697 51.9684 86.3336 51.7522 86.299C51.7609 86.446 51.2591 86.4806 51.6051 86.6276C51.8906 86.6449 50.4288 85.2178 50.5326 85.4167C50.178 85.5464 52.2539 87.0861 51.6138 87.1726C51.6397 87.285 51.7089 87.4148 52.0463 87.3888C51.8819 87.5705 51.4149 87.3369 51.1035 87.4667C51.1554 87.4667 51.2678 87.458 51.2592 87.5013L50.844 87.631C51.363 87.9164 50.7142 88.3403 51.3889 88.6343C51.0343 88.5478 50.4201 88.4527 50.0915 88.2538L50.2645 88.2192C50.1607 88.1932 50.0396 88.0289 49.7109 88.0375C49.5033 88.2192 49.5725 88.3749 49.9012 88.5738C49.8147 88.6084 49.7282 88.6516 49.6417 88.6776C49.685 88.6776 49.7195 88.6776 49.7714 88.6776C49.5725 88.7381 49.5379 88.7381 49.4168 88.7122C49.3909 88.7122 49.3649 88.7122 49.339 88.6949C48.4048 88.8073 49.979 89.4128 49.512 89.7501C49.6503 89.8453 49.6677 89.7588 49.8493 89.8799C49.5033 90.2259 49.2352 90.4594 49.0536 90.814C49.4514 90.9265 49.6071 90.9351 50.005 90.7967L49.8925 91.0649C48.8459 90.8227 48.9497 91.5665 47.9031 91.2984C47.6783 91.3763 47.6436 91.5406 47.8253 91.6876C48.0848 91.7049 48.4913 91.7309 48.5086 91.9125C48.1972 92.1807 48.3097 92.1115 48.0069 92.3364C47.6869 92.3882 47.5485 92.3104 47.289 92.3191C47.7474 92.6564 46.6144 92.6131 46.7182 92.9332C46.8393 93.1321 46.9258 93.53 47.488 93.5386C47.488 93.8068 47.0901 93.8068 46.6316 93.7808L46.6576 93.7462Z" fill="#565656"/>
<path d="M36.0879 111.737L36.3301 111.815C35.543 111.72 34.7213 111.443 33.9082 111.175C35.6727 112.516 37.7659 114.332 39.1325 111.625C39.2796 113.156 41.0009 114.168 41.0354 113.779C41.3901 113.536 41.7534 113.337 42.1166 113.173C41.8658 113.268 41.615 113.363 41.3641 113.484C41.615 113.363 41.8658 113.26 42.1166 113.173C44.4261 112.118 46.9258 112.792 49.5207 113.588C50.9565 114.003 54.8661 114.393 56.3365 114.808C56.5528 114.868 56.7603 114.912 56.9766 114.946C56.7402 114.854 56.5008 114.759 56.2586 114.661C57.1582 114.133 57.9713 113.623 58.7584 113.268C58.62 113.026 58.594 112.784 58.2654 112.447L58.6719 112.594C59.0352 111.841 59.8828 111.832 60.2807 111.504C60.1942 111.884 60.5056 111.936 60.7824 111.979L60.67 111.737C61.7166 111.824 62.9361 111.435 63.8703 111.4C64 111.391 64.0951 111.512 64.1557 111.625L65.0553 111.279C64.9861 111.737 65.7991 111.59 65.3753 111.91C66.05 111.313 66.7333 111.538 67.3734 110.959C69.6655 110.647 72.1047 109.964 74.466 109.255L74.4055 109.168C75.2358 108.892 75.9623 108.45 76.9743 108.537C77.6923 108.26 78.7216 108.174 79.007 107.992C79.8374 108.035 80.166 108.018 80.9791 108.165C80.8753 108.13 81.0742 108.165 81.2472 108.217C81.4202 108.277 81.5673 108.234 81.3683 108.251C80.8321 108.061 80.7975 108.078 80.339 107.888L80.3564 107.905C78.2199 107.127 76.0748 106.219 73.9038 105.484C72.4593 105.337 70.8851 104.766 69.3801 104.549C67.7626 104.359 66.0067 104.385 64.6142 104.619C64.2855 104.722 64.0433 104.299 63.7579 104.039C62.4777 104.108 60.8516 103.797 59.4158 103.987C59.4417 103.987 59.4677 104.005 59.485 104.013C58.7152 104.056 58.1443 103.477 57.4004 103.529C57.4004 103.685 57.2879 103.685 57.2361 103.762C57.1669 103.399 56.0684 103.719 54.9526 104.117C53.8368 104.506 52.7037 104.965 52.5653 104.757C52.4875 104.792 52.4096 104.826 52.3231 104.844C50.7402 104.515 49.1142 103.122 47.7562 103.313C47.4621 103.667 47.1334 103.97 46.8826 104.359C46.6404 104.065 46.5971 104.653 46.3117 104.584C45.5764 103.2 45.1526 103.832 45.5246 104.299C44.9191 104.524 44.3136 104.428 43.7773 104.515C43.5265 104.636 43.2843 104.748 43.0335 104.887C42.8173 105.017 42.7048 104.818 42.5924 104.515C42.0474 104.748 42.2118 104.402 41.6409 104.325C41.5025 103.883 40.2051 105.181 40.0494 105.051L40.1445 104.982C39.4872 104.956 39.0461 104.186 38.3973 104.247C36.6069 104.203 34.6434 104.852 32.9827 105.094C32.9654 105.432 33.346 104.939 33.3719 105.388C32.3945 105.501 31.3998 105.345 30.4138 105.579C30.2322 105.561 30.0159 105.492 29.9381 105.44C29.618 105.44 29.7478 105.622 29.5229 105.657L29.4883 105.449C29.151 105.734 28.9953 105.38 28.6752 105.587C28.6579 105.674 28.5455 105.726 28.433 105.76C28.433 105.561 28.0871 105.907 28.1044 105.726V105.743C28.0352 105.769 27.9833 105.795 27.8968 105.804C27.767 105.942 26.5561 106.842 26.4177 106.919H26.3572C26.1755 106.98 26.0977 107.101 26.2015 107.092L25.9766 107.153L26.0025 107.136L25.7776 107.205C25.7776 107.205 25.6911 107.17 25.7517 107.101C25.6219 107.188 25.4835 107.257 25.3538 107.283C25.7084 107.214 26.1409 107.179 26.5042 107.231C26.3572 107.317 26.0804 107.309 25.916 107.369C25.7171 107.343 25.3192 107.404 25.0078 107.473C24.9386 107.508 24.8954 107.603 24.7397 107.62C24.6618 107.585 24.5667 107.681 24.4369 107.689C24.584 107.611 24.731 107.56 24.8781 107.516C24.8521 107.447 24.5148 107.611 24.3937 107.646C24.3418 107.689 24.0477 107.784 23.8661 107.871C23.9439 107.802 23.719 107.905 23.6066 107.94C23.4855 107.992 23.4076 108.035 23.4509 108.018C23.4076 108.053 23.9439 107.836 23.7709 107.94C23.7277 107.94 23.4855 108.035 23.3558 108.087C23.3558 108.096 23.4422 108.061 23.3558 108.104C23.226 108.148 23.2087 108.156 22.9752 108.243C23.0444 108.217 23.0703 108.208 23.1049 108.191C22.9146 108.295 24.1256 107.698 23.8834 107.793C23.9439 107.81 22.8108 108.329 22.9406 108.251C23.053 108.208 22.8627 108.277 22.9752 108.243L23.1049 108.2C23.2692 108.139 23.3298 108.139 23.2779 108.165C23.0098 108.269 24.0477 107.828 23.8142 107.905L23.9093 107.88C23.8142 107.931 23.546 108.027 23.4423 108.053C23.4423 108.061 23.3125 108.122 23.2001 108.165L23.1568 108.182C23.0444 108.226 22.88 108.286 22.9579 108.26C23.2952 108.148 23.1828 108.208 23.0703 108.243C22.9579 108.277 22.8454 108.277 23.1655 108.251C22.8973 108.269 23.2606 108.226 23.5374 108.191C23.5633 108.191 23.6931 108.2 23.892 108.2C24.065 108.182 23.9958 108.174 24.0304 108.156C24.1256 108.156 24.3158 108.156 24.2899 108.191C24.4283 108.139 24.5148 108.208 24.6791 108.191C24.8262 108.156 24.6705 108.165 24.7743 108.139C24.9905 108.13 25.3019 108.122 25.4749 108.122C25.5441 108.174 25.7517 108.286 25.596 108.381C25.2673 108.364 25.7257 108.234 25.3797 108.251C25.5268 108.381 25.077 108.286 25.0078 108.373C25.1203 108.424 25.3452 108.442 25.5268 108.433L25.4922 108.416C25.6565 108.416 25.9852 108.381 26.1669 108.476C26.1236 108.528 26.2015 108.58 26.0804 108.589L26.3053 108.615C26.3053 108.615 26.3658 108.58 26.3053 108.563C26.409 108.52 26.5215 108.563 26.5993 108.597C26.6253 108.693 27.8016 108.347 27.767 108.373C27.9314 108.373 27.966 108.511 28.1303 108.416C28.1476 108.364 26.5734 108.641 26.7896 108.606C26.8588 108.649 27.3172 108.606 27.7757 108.52C28.2341 108.442 28.6839 108.338 28.7358 108.433C28.8569 108.433 29.0039 108.407 28.978 108.303C29.1856 108.355 28.9174 108.502 29.0645 108.606C29.0645 108.589 29.0558 108.554 29.0991 108.554L29.2374 108.693C29.5575 108.537 30.0159 108.788 30.3532 108.554C30.2581 108.684 30.1457 108.909 29.9294 109.004L29.8948 108.943C29.8948 108.943 29.6872 109.004 29.6959 109.116C29.8948 109.212 30.0765 109.212 30.2841 109.116C30.3273 109.151 30.3706 109.194 30.3965 109.229C30.3965 109.212 30.3965 109.203 30.3965 109.177C30.4657 109.263 30.457 109.272 30.4311 109.315C30.4311 109.315 30.4311 109.333 30.4138 109.341C30.5435 109.731 31.2096 109.186 31.5815 109.419C31.6939 109.376 31.5901 109.35 31.7285 109.289C32.1091 109.48 32.3686 109.644 32.7665 109.782C32.8962 109.609 32.9049 109.523 32.7492 109.315L33.0519 109.402C32.7838 109.886 33.6141 109.955 33.3114 110.448C33.3979 110.578 33.5795 110.639 33.7439 110.57C33.7612 110.44 33.7871 110.224 33.9947 110.25C34.2888 110.466 34.2196 110.397 34.4618 110.604C34.5223 110.794 34.4272 110.855 34.4445 111.002C34.8164 110.82 34.7732 111.46 35.1278 111.486C35.3527 111.469 35.7852 111.512 35.7938 111.166C36.0879 111.218 36.0879 111.478 36.062 111.763L36.0879 111.737Z" fill="#565656"/>
</svg>
