<svg width="90" height="150" viewBox="0 0 90 150" fill="none" xmlns="http://www.w3.org/2000/svg">
<path d="M53.9629 59.0569C54.1354 59.0741 54.308 59.1259 54.4719 59.1604C52.7985 58.962 51.0043 58.8671 49.2275 59.0741C51.2459 59.3157 53.1953 59.9281 54.9721 60.2903C56.7576 60.713 58.4741 60.9028 60.4666 60.6354C60.2682 61.2909 60.872 62.1966 61.4586 62.9643C62.0537 63.732 62.6575 64.3961 62.7955 64.3099C63.5028 64.6721 64.1843 65.112 64.7967 65.6555C66.7633 67.3547 68.152 69.9079 68.6695 72.7025C69.2043 75.4972 68.8938 78.4989 67.8502 81.2591C67.7294 81.6473 67.5138 82.1044 67.3067 82.6306C67.0393 83.243 66.7461 83.9244 66.4355 84.649C66.1078 85.3908 65.7886 86.1843 65.4695 87.021C65.1417 87.849 64.8052 88.703 64.512 89.5655C63.2526 93.0158 62.2434 96.5609 61.7173 98.5103C61.5534 99.0709 61.424 99.6402 61.286 100.218C61.5534 99.2693 61.5361 99.2693 61.8208 98.3291C61.493 100.787 61.2601 103.013 61.0704 105.161C61.2256 104.807 61.3378 104.755 61.6138 103.901L61.3723 104.962C61.4931 105.997 61.1652 108.257 61.1739 109.344C61.0617 109.094 60.9237 109.931 60.8461 110.672L60.9669 110.388C60.6305 113.2 60.596 116.495 60.6305 119.022C60.6305 119.375 60.596 119.634 60.5529 119.798C60.6046 120.609 60.6563 121.42 60.7426 122.222C60.5701 122.041 60.7685 124.249 60.5788 123.093C60.8979 124.904 61.0532 126.768 61.588 128.45C62.2522 131.512 63.5632 134.574 65.4436 137.196C67.3067 139.835 69.5666 142.19 72.0939 144.122L71.9904 144.001C72.8702 144.674 73.7414 145.261 74.6902 145.821C75.6304 146.399 76.6569 146.943 77.8731 147.512C78.7529 147.892 79.8483 148.28 80.8316 148.539C81.8149 148.806 82.6689 148.944 83.0484 148.996C84.1352 149.177 84.9028 149.237 85.6705 149.263C86.4382 149.28 87.1972 149.28 88.2754 149.185C87.7234 149.263 90.3629 148.927 89.3019 149.065C87.8787 149.229 87.7924 149.229 86.5762 149.237H86.6108C83.7729 149.229 80.9696 148.53 78.4423 147.305C75.8977 146.106 73.612 144.398 71.6023 142.432C68.868 139.861 66.4269 136.463 64.995 132.944C63.4079 129.157 63.0198 124.603 62.9422 120.997C62.9076 120.135 63.0629 119.505 63.1751 118.772C63.2441 115.434 63.7874 111.224 64.4171 107.524C64.3998 107.593 64.3826 107.662 64.374 107.705C64.7104 105.738 65.2797 104.324 65.7196 102.435C65.6506 102.435 65.7282 102.142 65.7368 101.986C65.9266 101.857 66.5045 99.0623 67.2722 96.2503C68.0054 93.4298 68.9197 90.6006 69.1354 90.3246C69.1871 90.1262 69.2647 89.9278 69.3337 89.7294C69.7823 88.7979 70.2393 87.8577 70.7655 86.9606L71.5504 85.6236L71.9473 84.9595L72.3699 84.2091C73.4913 82.1993 74.2675 80.017 74.5004 77.9641C74.4142 77.0585 74.3193 76.0493 74.0864 75.3247C74.2934 74.6088 73.9052 74.4794 73.9138 73.6341C74.2761 72.5128 74.2848 71.5985 74.1727 71.1499C74.0778 70.7014 73.8966 70.7014 73.8362 71.2879C73.4222 69.537 72.9737 67.786 72.3354 66.311C71.9731 65.6555 71.6109 65.0172 71.1882 64.4047C70.8346 63.8786 70.7569 63.5249 70.7914 63.1195C70.3256 62.4467 70.1617 62.2139 70.041 61.9292C69.9202 61.6532 69.8254 61.334 69.3251 60.6181C69.3423 60.3335 68.5401 59.5658 67.6603 58.893C66.7891 58.2116 65.8145 57.6768 65.6679 57.4698L65.9094 57.6164C64.4431 56.2967 63.7012 54.9339 61.9071 53.9247C59.4661 52.467 56.5161 51.5872 53.5921 51.2939C50.6594 51.0265 47.7612 51.3198 45.1735 51.8977C45.2339 52.3376 46.2948 51.544 46.4846 52.1047C43.4829 52.6222 40.3001 53.2864 37.5399 54.8994C36.9879 55.0891 36.246 55.2789 35.9527 55.322C35.0125 55.7878 35.5991 55.8568 34.9609 56.2536L34.6072 55.9862C33.9689 56.935 33.0373 56.6676 32.3473 57.5043C32.4335 57.6682 32.1748 57.9528 31.8987 58.2116C31.5451 57.9011 31.1052 59.0569 30.8292 58.7291L30.8464 58.7636C30.6739 58.9189 30.5876 59.0569 30.3461 59.2208C30.2771 59.445 29.7855 60.506 29.4405 61.6014C29.0954 62.7055 28.8022 63.7837 28.8108 64.0252L28.6382 64.1546C28.3536 64.6549 28.5434 65.043 28.7849 64.8015L28.3967 65.3967V65.3104C28.2759 65.5088 28.1553 65.7072 28.0431 65.9142C27.9483 66.0091 27.6722 66.0436 27.5773 65.7676C27.5428 66.2075 27.4307 66.6474 27.1719 66.9665C27.5687 66.5266 27.9914 66.0436 28.4744 65.5951C28.9747 65.1552 29.4922 64.7325 29.9839 64.3789C29.889 64.8533 29.2421 65.4398 29.0351 65.897C28.4744 66.2765 27.6463 67.2598 27.0512 68.0879C26.9994 68.3035 27.4566 68.6313 27.0512 69.0022C26.6026 69.0884 26.8615 69.5197 26.4474 69.8043C26.4215 69.3041 26.6889 68.9073 26.8787 68.4674C26.4302 68.3811 26.1455 69.4421 25.8954 69.7612C25.973 69.9769 25.5503 70.8135 25.4985 71.4087C25.1535 71.0551 25.0673 71.7882 24.7654 72.0729C24.6187 72.4524 24.7396 72.737 24.9293 72.6163C25.1536 72.7284 25.3088 72.3661 25.4641 72.0556C25.628 71.7451 25.7918 71.5036 25.9557 71.8227C25.6711 71.9004 25.5848 72.6594 25.5158 73.0648C25.7746 73.1252 25.7746 72.8319 25.9643 73.1424C25.8091 73.5737 26.0247 74.0913 25.6969 74.2896C25.6451 74.1948 25.7315 74.0223 25.766 73.8929C25.6883 74.1775 25.4296 73.3322 25.2139 72.4697C24.9724 71.6071 24.9033 70.7618 24.8343 71.1586C24.9723 71.0896 25.0759 72.0211 25.2743 72.9096C25.4468 73.7894 25.6193 74.6088 25.6625 74.419C25.8695 74.0999 26.0851 74.7382 26.2489 74.4018L26.0161 73.9533C26.2232 73.4788 26.7148 73.3753 26.8614 73.5824C26.7579 73.9791 26.4301 73.3322 26.1627 72.6422C25.8781 71.9521 25.7573 71.2448 25.7573 71.633L25.9643 71.3828C25.9988 71.5553 25.9902 71.84 25.9384 72.1246C25.8953 72.4093 25.8004 72.6767 25.6279 72.8061C25.8781 72.8664 25.8781 73.2891 25.904 73.6341L25.8349 73.7462C25.8867 74.1171 25.7229 74.5829 26.111 74.419C26.3094 73.4185 26.8873 73.8756 27.4997 74.3155C28.1121 74.7554 28.7591 75.1695 29.0092 74.3155C28.2846 74.9538 28.4744 73.9619 28.5779 73.1597C28.7849 73.1252 29.1299 72.8406 29.4405 72.3489C29.5354 71.8659 29.3197 72.0125 29.2076 71.8831C29.406 71.6502 29.6561 71.1844 29.9234 71.3483C29.6819 70.8739 30.3375 70.848 30.372 70.3909C30.3634 69.9596 30.2167 70.365 30.1564 70.0372C30.2857 69.7612 30.4324 69.4335 30.579 69.1229C30.7515 68.821 30.9154 68.5364 31.0534 68.3294C31.3812 68.269 32.0454 67.993 32.261 68.5364C31.8384 69.3041 31.778 67.9326 31.4761 68.8038C32.2179 68.7089 31.2691 69.606 31.6831 69.951C32.0281 69.7785 32.2869 69.2782 32.4162 68.8038L32.3041 68.8555C32.3559 68.6485 32.4422 68.3294 32.5802 68.0361C32.7268 67.7428 32.9424 67.4841 33.1926 67.3633C33.3306 67.5617 33.5721 67.4668 33.4685 67.7601L33.7792 67.2771C33.7533 67.1822 33.7273 67.0787 33.6066 67.1994C33.598 66.8803 33.805 66.6819 34.0206 66.5698C34.1327 66.6043 34.3484 65.8452 34.5726 65.0689C34.8142 64.3099 35.1074 63.5681 35.1247 63.6457C35.3835 63.3007 35.694 63.4387 35.8148 62.9902C35.7458 62.8953 35.2368 63.8182 34.8228 64.6894C34.426 65.5778 34.1673 66.4318 34.2794 66.173C34.4864 66.0954 34.8659 64.9482 35.4266 63.87C35.6767 63.3093 36.0217 62.8176 36.2805 62.4209C36.5479 62.0327 36.7722 61.7912 36.9016 61.8257C37.1259 61.6014 37.376 61.3082 37.1689 61.196C37.6347 60.9114 37.3415 61.6187 37.7555 61.5066C37.7383 61.4721 37.6606 61.4462 37.7555 61.3685L38.204 61.334C38.3765 60.9114 38.8164 60.644 39.2132 60.3335C39.61 60.0143 40.024 59.7211 40.2655 59.307C40.1965 59.6521 40.1707 60.1092 39.886 60.6267L39.748 60.5922C39.7307 60.6958 39.4289 61.0321 39.5755 61.1874C40.0585 60.989 40.3518 60.6785 40.6796 60.2213C40.7917 60.2213 40.921 60.1955 41.0159 60.2041C40.9987 60.1782 40.9815 60.1696 40.9642 60.1351C41.1799 60.1523 41.1798 60.1782 41.1712 60.2817C41.1712 60.299 41.1712 60.3162 41.1712 60.3421C41.7319 60.6785 42.603 58.9534 43.595 58.8413C43.802 58.6515 43.5691 58.7378 43.8279 58.4876C44.768 58.2892 45.4323 58.2806 46.3725 58.0822C46.5881 57.7458 46.5881 57.6337 46.1482 57.487C46.3897 57.4353 46.6398 57.4094 46.8813 57.3663C46.4328 58.203 48.3305 57.6509 47.7957 58.4962C48.02 58.5825 48.4253 58.5221 48.7789 58.3582C48.7876 58.1857 48.8049 57.9011 49.2879 57.8148C49.9866 57.9011 49.8226 57.8838 50.4005 58.0218C50.5472 58.2202 50.3488 58.3323 50.3919 58.5049C51.22 58.1426 51.1423 58.9189 51.91 58.824C52.393 58.755 53.3505 58.7464 53.4109 58.4014C54.075 58.4704 54.0406 58.7377 53.9285 59.031L53.9629 59.0569Z" fill="#565656"/>
<path d="M31.9419 112.475L31.9936 111.88C31.916 113.821 31.7435 115.856 31.571 117.857C32.3904 113.493 33.6239 108.335 31.9246 104.962C32.8993 104.6 33.6583 100.356 33.3996 100.27C33.2616 99.3901 33.1408 98.5016 33.0459 97.596C33.0977 98.217 33.1495 98.8294 33.2185 99.4418C33.1495 98.8294 33.089 98.217 33.0459 97.596C32.4421 91.9031 32.9856 85.7186 33.7792 79.3184C33.9775 77.5415 34.2535 74.2465 34.5726 70.9343C34.9004 67.6221 35.3404 64.3013 35.7199 62.4813C35.8148 61.9551 35.9183 61.4289 36.0132 60.8942C35.8694 61.4807 35.7228 62.0701 35.5732 62.6624C35.3058 60.4456 34.9953 58.4359 34.8056 56.4865C34.5295 56.8315 34.2793 56.8919 33.8912 57.7027L34.1068 56.7108C33.4168 55.8051 33.529 53.7177 33.2357 52.7344C33.6325 52.9414 33.736 52.1737 33.8136 51.4923L33.5376 51.7597C33.7878 49.172 33.4858 46.1703 33.5204 43.85C33.5204 43.5309 33.667 43.2894 33.8136 43.1427L33.4599 40.926C34.0206 41.0985 33.8999 39.0887 34.2708 40.141C33.5807 38.4849 33.9085 36.7943 33.2012 35.2158C32.9252 29.5575 32.1316 23.5454 31.2 17.6973L31.0707 17.8439C30.7084 15.7997 30.0529 13.9883 30.1909 11.5041C29.7769 9.72728 29.6216 7.19999 29.2765 6.49269C29.3197 4.43981 29.2162 3.62038 29.3973 1.61062C29.3283 1.86939 29.3542 1.37773 29.3973 0.955076C29.4663 0.523797 29.3973 0.152898 29.3973 0.653181C29.0609 1.99014 29.1558 2.05915 28.8366 3.1891L28.8798 3.1546C27.8102 8.43344 26.6372 13.7295 25.7832 19.086C25.6884 22.657 25.0241 26.5385 24.8516 30.2475C24.7395 34.2498 24.8775 38.5712 25.3002 42.0042C25.4468 42.8236 24.9638 43.4101 24.6964 44.1088C24.9207 47.2658 24.8344 51.2766 25.3088 54.839C25.3088 54.77 25.3088 54.7096 25.3174 54.6665C25.4899 56.5555 25.0242 57.9701 25.2226 59.8246C25.3692 59.816 25.3951 60.1006 25.4727 60.2386C25.1363 60.4025 25.6624 63.1196 26.1454 65.8797C26.6371 68.6399 27.0684 71.4432 26.9131 71.7624C26.9476 71.9521 26.9735 72.1505 26.9994 72.3575C26.8182 76.2563 25.8695 80.2844 26.1024 83.6312C26.3784 84.3557 26.6199 85.1751 26.9131 85.7876C26.7147 86.3827 27.1374 86.4949 27.1029 87.2021C26.1541 89.0135 26.6199 90.0745 26.939 89.1343C27.1202 90.6265 27.0857 92.1187 27.1633 93.4384C27.2582 94.0508 27.353 94.6633 27.4393 95.2843C27.5342 95.8105 27.4048 96.1037 27.2064 96.3711C27.3789 97.7167 27.146 97.3199 27.1115 98.7259C26.8269 99.0709 27.7239 102.262 27.6463 102.659L27.5946 102.426C27.5946 104.057 27.1116 105.143 27.1633 106.73C27.1892 111.155 27.6118 115.994 27.7584 120.1C27.9654 120.143 27.6636 119.194 27.9396 119.151C28.0086 121.575 27.8965 124.007 28.0172 126.457C28 126.897 27.9482 127.44 27.9051 127.639C27.8965 128.415 28.0086 128.096 28.0259 128.674L27.8878 128.751C28.0603 129.588 27.8189 129.976 27.931 130.761C27.9828 130.804 28.0173 131.089 28.0345 131.365C27.8965 131.382 28.1035 132.228 27.9827 132.184H27.9913C28 132.357 28.0172 132.478 28.0172 132.685C28.1035 133.004 28.6297 136.006 28.6814 136.325V136.48C28.7073 136.929 28.7936 137.118 28.7936 136.86L28.8195 137.412V137.351L28.8366 137.903C28.8366 138.007 28.7935 138.119 28.7418 137.964C28.7935 138.274 28.8366 138.628 28.8366 138.938C28.8366 138.076 28.8625 136.998 28.9315 136.092C28.9832 136.463 28.9574 137.136 28.9919 137.541C28.9488 138.024 28.9488 139.016 28.9488 139.784C28.966 139.956 29.0609 140.068 29.0436 140.456C28.9919 140.646 29.0695 140.888 29.0436 141.207C28.9919 140.836 28.9833 140.482 28.966 140.111C28.897 140.172 28.966 141.017 28.966 141.31C28.9919 141.448 29.0178 142.164 29.0695 142.621C29.0005 142.423 29.0609 142.984 29.0436 143.251C29.0609 143.553 29.0954 143.751 29.1041 143.631C29.1644 143.725 29.0609 142.423 29.1558 142.846C29.1299 142.958 29.1817 143.553 29.1989 143.872C29.2334 143.872 29.2076 143.656 29.2507 143.863C29.268 144.217 29.3197 144.597 29.3024 144.804C29.2938 144.735 29.2852 144.588 29.2852 144.485C29.3283 144.95 28.9229 141.966 28.9747 142.57C29.0092 142.414 29.3369 145.218 29.3111 144.907C29.3111 144.623 29.3714 145.114 29.3628 144.821L29.3111 144.493C29.3024 144.096 29.3455 143.924 29.3714 144.071C29.4059 144.743 29.061 142.164 29.1213 142.734V142.501C29.1645 142.742 29.2162 143.398 29.1989 143.648C29.2334 143.648 29.2593 143.976 29.2852 144.252V144.347C29.311 144.631 29.3284 145.019 29.3542 144.838C29.2852 143.191 29.6561 145.925 29.6302 144.329C29.5785 145.002 29.5612 144.105 29.544 143.398C29.5699 143.329 29.5957 143.018 29.6129 142.509C29.6043 142.069 29.5785 142.251 29.5612 142.164C29.5785 141.923 29.5871 141.457 29.6302 141.517C29.5698 141.172 29.6561 140.974 29.6302 140.56C29.6043 140.198 29.6043 140.586 29.5784 140.327C29.5784 139.784 29.5784 139.033 29.587 138.602C29.6388 138.438 29.7337 137.929 29.8113 138.3C29.7941 139.119 29.6819 137.99 29.6992 138.843C29.8113 138.473 29.7337 139.602 29.8113 139.758C29.8631 139.482 29.8717 138.938 29.8545 138.473L29.8372 138.567C29.8286 138.162 29.8027 137.351 29.8718 136.911C29.9149 137.015 29.9494 136.825 29.958 137.118L29.9753 136.558C29.958 136.489 29.9493 136.411 29.9321 136.575C29.8976 136.308 29.9235 136.049 29.958 135.842C30.0184 135.781 29.7596 132.866 29.7855 132.961C29.7855 132.555 29.8803 132.461 29.8199 132.064C29.8113 132.055 29.82 132.288 29.8286 132.642C29.8458 132.987 29.8718 133.452 29.889 133.91C29.9321 134.807 29.9752 135.652 29.9666 135.385C30.0529 135.04 29.7164 130.822 29.8199 130.572C29.8199 130.27 29.8027 129.916 29.7337 129.985C29.7682 129.485 29.8631 130.14 29.9321 129.778C29.9235 129.778 29.8977 129.804 29.8977 129.692L29.9925 129.347C29.889 128.562 30.0529 127.415 29.8977 126.595C29.9839 126.837 30.1219 127.104 30.1909 127.63L30.1477 127.725C30.1736 127.803 30.1909 128.234 30.2599 128.225C30.3202 127.725 30.3202 127.294 30.2512 126.768C30.2771 126.673 30.2944 126.561 30.3203 126.483C30.3117 126.483 30.303 126.492 30.2858 126.483C30.3375 126.31 30.3461 126.328 30.372 126.388C30.372 126.388 30.3806 126.405 30.3893 126.423C30.6308 126.112 30.2858 124.456 30.4238 123.542C30.3893 123.274 30.3806 123.516 30.3375 123.179C30.4582 122.248 30.5532 121.601 30.6394 120.618C30.5273 120.307 30.4755 120.281 30.3461 120.661L30.3979 119.919C30.6998 120.592 30.7429 118.539 31.0535 119.281C31.1397 119.065 31.1656 118.625 31.1311 118.211C31.0448 118.168 30.9154 118.108 30.9327 117.581C31.0707 116.857 31.0189 117.029 31.157 116.426C31.2777 116.288 31.3122 116.503 31.4071 116.477C31.295 115.554 31.6918 115.667 31.709 114.795C31.7004 114.252 31.7348 113.165 31.5192 113.139C31.5537 112.406 31.7176 112.406 31.8987 112.475H31.9419Z" fill="#565656"/>
<path d="M13.3625 33.2923L13.6127 33.37C12.8105 33.2751 11.9737 32.9991 11.1456 32.7317C12.9484 34.0686 15.0789 35.88 16.4677 33.1802C16.6229 34.7069 18.3653 35.7161 18.3998 35.328C18.7621 35.0864 19.133 34.8881 19.5039 34.7242C19.2451 34.8191 18.995 34.9139 18.7448 35.0347C18.995 34.9139 19.2537 34.8104 19.5039 34.7242C21.8587 33.6719 24.4118 34.3446 27.0513 35.1382C28.5176 35.5522 32.494 35.9404 33.9949 36.3544C34.2105 36.4148 34.4261 36.4579 34.6503 36.4924C34.4088 36.4004 34.1673 36.3055 33.9258 36.2078C34.8401 35.6816 35.6681 35.1727 36.4789 34.8191C36.3409 34.5775 36.3151 34.336 35.9787 33.9996L36.3927 34.1463C36.7636 33.3958 37.6262 33.3872 38.0316 33.0594C37.9453 33.439 38.2645 33.4907 38.5491 33.5338L38.437 33.2923C39.5065 33.3786 40.7486 32.9904 41.6975 32.9559C41.8268 32.9473 41.9303 33.0681 41.9907 33.1802L42.9051 32.8352C42.836 33.2923 43.6641 33.1457 43.2242 33.4648C43.9056 32.8697 44.6043 33.0939 45.2598 32.516C47.5973 32.2055 50.0815 31.5241 52.488 30.8168L52.4277 30.7305C53.273 30.4545 54.0147 30.0146 55.0412 30.1009C55.7744 29.8248 56.8181 29.7386 57.1113 29.5575C57.9566 29.6006 58.293 29.5833 59.1211 29.73C59.0176 29.6955 59.216 29.73 59.3971 29.7817C59.5783 29.8421 59.7249 29.799 59.5265 29.8162C58.9745 29.6265 58.9486 29.6437 58.4741 29.4539L58.4914 29.4712C56.3091 28.6949 54.1269 27.7892 51.9187 27.056C50.4438 26.9094 48.8481 26.3401 47.3127 26.1245C45.6652 25.9347 43.8797 25.9606 42.4565 26.1935C42.1201 26.297 41.8786 25.8743 41.5853 25.6156C40.2829 25.6846 38.6267 25.3741 37.1604 25.5638C37.1863 25.5638 37.2122 25.5811 37.2295 25.5897C36.4532 25.6328 35.8665 25.0549 35.0989 25.1067C35.0989 25.2619 34.9868 25.2619 34.9264 25.3396C34.8574 24.9773 33.736 25.2964 32.5974 25.6932C31.4589 26.0814 30.3031 26.5385 30.1651 26.3315C30.0874 26.366 30.0012 26.4005 29.9235 26.4177C28.3105 26.09 26.6544 24.7013 25.2657 24.891C24.9638 25.2447 24.6275 25.5466 24.3773 25.9347C24.1358 25.6414 24.084 26.228 23.7908 26.159C23.0403 24.7789 22.6091 25.4086 22.9886 25.8743C22.3762 26.0986 21.7551 26.0037 21.2117 26.09C20.9616 26.2107 20.7028 26.3229 20.4527 26.4609C20.237 26.5903 20.1163 26.3919 20.0041 26.09C19.4521 26.3229 19.616 25.9778 19.0294 25.9002C18.8914 25.4603 17.5717 26.7541 17.4078 26.6248L17.5027 26.5558C16.8299 26.5299 16.3814 25.7622 15.7259 25.8226C13.8973 25.7795 11.9047 26.4264 10.2055 26.6679C10.1882 27.0043 10.5764 26.5126 10.6022 26.9612C9.60167 27.0733 8.59248 26.918 7.59192 27.1509C7.41078 27.1337 7.18657 27.0647 7.10894 27.0129C6.78979 27.0129 6.91919 27.1941 6.6863 27.2286L6.65176 27.0215C6.30674 27.3062 6.15151 26.9525 5.82374 27.1595C5.80649 27.2458 5.6857 27.2976 5.57356 27.3321C5.57356 27.1337 5.2199 27.4787 5.23715 27.2976V27.3148C5.16815 27.3407 5.1164 27.3666 5.03015 27.3752C4.90077 27.5132 3.65869 28.4103 3.52931 28.4879H3.46898C3.28784 28.5483 3.20154 28.669 3.31367 28.6604L3.0894 28.7208L3.1153 28.7035L2.89102 28.7725C2.89102 28.7725 2.80474 28.738 2.86512 28.669C2.73574 28.7553 2.58913 28.8243 2.45975 28.8502C2.81339 28.7812 3.26191 28.7467 3.63281 28.7984C3.47755 28.8847 3.20158 28.876 3.0377 28.9364C2.83931 28.9105 2.43385 28.9709 2.1147 29.0399C2.0457 29.0744 1.99399 29.1693 1.83873 29.1866C1.7611 29.1521 1.65761 29.2469 1.52822 29.2556C1.68348 29.1779 1.83004 29.1262 1.9853 29.0831C1.95942 29.014 1.61444 29.1779 1.49369 29.2124C1.43331 29.2556 1.14003 29.3504 0.950272 29.4367C1.0279 29.3677 0.803595 29.4712 0.691462 29.5057C0.562079 29.5575 0.484508 29.6006 0.536261 29.5833C0.493133 29.6178 1.03655 29.4022 0.864037 29.5057C0.820909 29.5057 0.570776 29.6006 0.441392 29.6523C0.441392 29.661 0.527648 29.6265 0.441392 29.6696C0.312009 29.7127 0.286069 29.7213 0.0531786 29.8076C0.122183 29.7817 0.148081 29.7731 0.182583 29.7558C-0.00717928 29.8594 1.22632 29.2642 0.976174 29.3591C1.03655 29.3763 -0.11927 29.8939 0.010114 29.8162C0.130872 29.7731 -0.0762133 29.8421 0.0445447 29.8076L0.182583 29.7645C0.346469 29.7041 0.415537 29.7041 0.355158 29.73C0.0791396 29.8335 1.13999 29.3936 0.907102 29.4712L1.00208 29.4453C0.898569 29.4971 0.631134 29.592 0.527627 29.6178C0.527627 29.6265 0.389584 29.6868 0.277452 29.73L0.234387 29.7472C0.122255 29.7903 -0.0417195 29.8507 0.0359107 29.8248C0.372308 29.7127 0.26018 29.7731 0.148047 29.8076C0.0359149 29.8421 -0.0847504 29.8421 0.243021 29.8162C-0.032997 29.8335 0.337852 29.7903 0.622496 29.7558C0.648372 29.7558 0.777794 29.7645 0.984807 29.7645C1.16594 29.7472 1.08824 29.7386 1.12274 29.7213C1.22625 29.7213 1.41606 29.7213 1.39018 29.7558C1.52819 29.7041 1.61442 29.7731 1.78693 29.7558C1.93356 29.7213 1.77829 29.73 1.8818 29.7041C2.10606 29.6955 2.41665 29.6868 2.59778 29.6868C2.66679 29.7386 2.87382 29.8507 2.72719 29.9456C2.39079 29.9284 2.85656 29.799 2.50292 29.8162C2.65818 29.9456 2.19234 29.8507 2.12334 29.937C2.23547 29.9887 2.45972 30.006 2.64948 29.9974L2.61505 29.9801C2.77894 29.9801 3.11526 29.9456 3.2964 30.0405C3.25327 30.0922 3.33092 30.144 3.21017 30.1526L3.44307 30.1785C3.44307 30.1785 3.50345 30.144 3.44307 30.1267C3.55521 30.0836 3.65869 30.1267 3.74495 30.1612C3.77082 30.2561 4.96978 29.9111 4.93528 29.937C5.09917 29.937 5.14234 30.075 5.30623 29.9801C5.32348 29.9284 3.71905 30.2044 3.93468 30.1699C4.00369 30.213 4.47813 30.1699 4.94391 30.0836C5.4097 30.006 5.87549 29.9025 5.92724 29.9974C6.048 29.9974 6.20329 29.9715 6.16878 29.868C6.3758 29.9197 6.10838 30.0664 6.25502 30.1699C6.25502 30.1526 6.24632 30.1181 6.28945 30.1181L6.43612 30.2561C6.75527 30.1009 7.22973 30.351 7.57476 30.1181C7.47987 30.2475 7.36774 30.4718 7.14348 30.5666L7.10894 30.5063C7.10894 30.5063 6.90194 30.5666 6.90194 30.6788C7.10895 30.7737 7.29004 30.7737 7.50568 30.6788C7.54881 30.7133 7.59195 30.7564 7.62645 30.7909C7.62645 30.7737 7.62645 30.765 7.62645 30.7392C7.69546 30.8254 7.68687 30.834 7.66099 30.8772C7.66099 30.8772 7.66097 30.8944 7.64372 30.903C7.77311 31.2912 8.45453 30.7478 8.83405 30.9807C8.94619 30.9375 8.84272 30.9117 8.98073 30.8513C9.36888 31.0411 9.63624 31.2049 10.033 31.3429C10.1624 31.1704 10.171 31.0842 10.0158 30.8772L10.3176 30.9634C10.0416 31.4465 10.887 31.5155 10.5851 32.0071C10.6713 32.1365 10.8611 32.1969 11.025 32.1279C11.0422 31.9985 11.068 31.7829 11.2837 31.8087C11.5856 32.0244 11.508 31.9554 11.7581 32.1624C11.8185 32.3521 11.7236 32.4125 11.7322 32.5592C12.1118 32.378 12.0687 33.0163 12.4223 33.0422C12.6466 33.0249 13.095 33.0681 13.1037 32.723C13.4056 32.7748 13.4056 33.0336 13.3797 33.3182L13.3625 33.2923Z" fill="#565656"/>
</svg>
