<svg width="126" height="127" viewBox="0 0 126 127" fill="none" xmlns="http://www.w3.org/2000/svg">
<path d="M70.0703 116.44C69.6067 116.515 69.1433 116.532 68.6797 116.574C73.1551 115.984 77.7907 114.889 82.2239 113.279C79.7123 113.903 77.0743 114.349 74.4446 114.72C71.8066 115.083 69.1685 115.268 66.6147 115.47C64.0525 115.647 61.5661 115.774 59.2062 116.001C56.8463 116.195 54.6044 116.507 52.4973 116.987C52.3625 116.507 51.6545 116.001 50.7021 115.479C49.7581 114.914 48.5445 114.417 47.3814 113.86C45.0299 112.832 42.8217 111.838 42.6447 112.006C42.1558 111.897 41.6501 111.796 41.1613 111.669L39.6948 111.239C38.7002 110.97 37.7478 110.565 36.7701 110.203C37.4359 110.464 38.1018 110.725 38.7592 110.995C39.4335 111.214 40.1077 111.433 40.7735 111.652C40.0993 111.433 39.4335 111.214 38.7592 110.995C38.1018 110.734 37.4359 110.472 36.7701 110.203C30.6596 107.733 24.9115 103.443 20.3771 97.9057C15.8174 92.3767 12.5303 85.6088 10.8025 78.4363C10.2716 76.4641 9.71523 73.5816 9.36967 70.2525C9.03254 66.9233 8.99886 63.1053 9.40341 59.3462C9.79955 55.5872 10.6339 51.8872 11.6959 48.735C12.7494 45.566 14.0221 42.9448 14.9998 41.1495C15.6151 40.1297 16.1545 39.0846 16.8288 38.0901C16.2557 38.8992 15.9944 39.329 15.7415 39.7505C15.4887 40.1803 15.1937 40.5849 14.7133 41.4614C16.4411 36.7415 18.624 32.5864 21.3379 28.9875C20.6215 29.4174 20.3265 29.3499 18.8768 30.6395C19.4162 30.0748 19.9051 29.4679 20.4698 28.9285C20.6721 28.406 21.0345 27.7823 21.4812 27.108C21.9532 26.459 22.5178 25.7595 23.091 25.0684C23.7062 24.4025 24.3215 23.7367 24.8862 23.1298C25.4762 22.5483 26.0072 22.0173 26.3949 21.5706C26.3359 21.8909 26.6562 21.7476 27.1619 21.4273C27.676 21.1155 28.3755 20.6098 29.0245 20.1378L28.3671 20.3316C30.8534 18.5196 33.6179 16.6906 36.4751 15.1482C39.3239 13.6143 42.2317 12.3248 44.8698 11.5325C45.5946 11.2712 46.2013 11.2965 46.5638 11.3134C47.3897 11.0184 48.2158 10.7318 49.067 10.5043C49.9099 10.2598 50.7527 9.99856 51.6124 9.81313C51.4607 10.1081 52.5563 10.0238 53.3739 9.97327C54.2083 9.95641 54.7645 9.95641 53.5593 10.2683C57.352 9.07987 61.3723 9.30744 65.1566 8.91973C71.8908 9.28215 78.7852 10.892 85.2497 13.7407C91.7226 16.5726 97.7658 20.6351 102.915 25.6078L102.814 25.2201C104.635 26.9479 106.43 28.5577 108.09 30.4793C109.776 32.3757 111.361 34.5923 112.625 37.4411C113.982 39.2363 115.271 41.6384 116.401 43.7707C117.505 45.9115 118.39 47.8163 119.165 48.5665C119.528 49.8476 119.831 50.9348 120.109 51.9293C120.379 52.9323 120.615 53.8341 120.859 54.736C121.07 55.6462 121.298 56.548 121.5 57.5594C121.66 58.5708 121.871 59.6834 121.98 61.0066C122.233 60.3155 122.427 61.5882 122.604 62.7344C122.789 63.8975 122.899 64.7825 123.11 63.5435C123.784 59.9447 123.118 59.7761 123.447 56.6829L123.278 56.7925C122.916 49.6453 121.179 42.5149 118.213 35.8566C115.246 29.1982 110.981 23.0708 105.739 17.8284C102.022 14.5667 97.9427 11.4229 93.4504 8.81017C88.9834 6.18054 84.154 4.03132 79.1898 2.69965C76.5349 1.94953 73.7535 1.46069 70.9637 1.07299C69.5646 0.938134 68.1656 0.752712 66.7665 0.71057C66.0669 0.676857 65.3758 0.634715 64.6763 0.617859C63.9851 0.617859 63.294 0.617859 62.6028 0.617859C57.0907 0.66 51.8231 1.57026 47.3392 2.84293C46.2688 3.15478 45.3333 3.3402 44.4146 3.47505C43.4959 3.59305 42.6025 3.67733 41.6585 3.87961C37.5961 5.36299 33.0954 7.36893 28.8138 10.0323C24.5407 12.6956 20.4697 15.9574 17.1658 19.5141C17.2923 19.3793 17.4187 19.2613 17.5114 19.1938C15.7331 21.0565 14.1401 22.6494 12.6567 24.3351C11.915 25.1779 11.165 26.0123 10.4823 26.9479C10.1367 27.4114 9.79114 27.8834 9.42872 28.3638C9.10002 28.8611 8.77127 29.3836 8.43414 29.9231C8.57742 29.9821 8.16445 30.6479 8.0296 31.0103C7.89474 31.0524 7.58296 31.5076 7.14469 32.2661C6.92555 32.6454 6.66425 33.1005 6.38612 33.6147C6.13327 34.1456 5.84671 34.744 5.54329 35.3846C4.34647 37.9805 3.04005 41.4951 2.13822 45.1361C1.21111 48.7687 0.713858 52.5025 0.469438 55.4102C0.41044 56.1351 0.359816 56.8093 0.309246 57.4246C0.283962 58.0399 0.258705 58.5877 0.233421 59.0597C0.174422 60.0037 0.12391 60.6273 0.0817688 60.8465C0.0986254 61.3606 0.11542 61.8916 0.123849 62.4394C-0.162714 67.6481 0.0311578 73.0254 0.882416 78.1835C1.69996 83.3416 3.29295 88.23 5.45059 92.2925C5.75401 92.697 6.0574 93.1184 6.36925 93.5399C6.69795 93.9444 7.02668 94.3574 7.34696 94.7535C7.67566 95.1497 7.99594 95.5374 8.29936 95.8998C8.62807 96.2538 8.94834 96.5825 9.25176 96.8775C9.85017 98.403 10.5244 98.3187 11.578 99.9285C12.4377 102.322 13.5586 103.983 14.2581 104.716C14.9577 105.466 15.2105 105.339 14.5784 104.219C17.3513 107.143 20.217 110 23.0573 112.183C24.4058 113.153 25.8218 114.004 27.263 114.847C28.5189 115.504 29.0582 116.119 29.4965 116.785C32.7582 118.42 31.6288 118.226 35.0002 120.064C35.1603 120.274 35.8093 120.578 36.7111 120.932C37.6045 121.294 38.7845 121.598 39.9476 121.943C41.1275 122.238 42.3244 122.491 43.2684 122.71C44.2292 122.887 44.954 123.039 45.2068 123.148L44.5916 123.047C45.1141 123.207 45.6199 123.376 46.1003 123.545C46.5891 123.696 47.061 123.848 47.5162 124.008C48.4264 124.328 49.2946 124.666 50.1795 124.935C51.9326 125.534 53.7194 126.031 55.9024 126.259C58.9197 126.646 62.0382 126.697 65.1651 126.579C68.3004 126.419 71.4357 125.98 74.5036 125.365C77.5631 124.708 80.5467 123.814 83.387 122.786C86.219 121.716 88.9076 120.51 91.4192 119.221C91.276 118.707 89.2531 120.46 88.8317 119.895C91.8153 118.488 94.7737 116.962 97.6225 115.209C100.48 113.464 103.202 111.45 105.646 109.132C106.641 108.416 107.829 107.489 108.352 107.202C109.978 105.744 109.026 106.081 110.13 104.935L110.627 105.078C111.259 104.084 111.849 103.468 112.498 102.912C113.147 102.356 113.779 101.791 114.336 100.83C114.243 100.62 114.707 99.9622 115.145 99.3132C115.583 99.5577 116.418 97.2652 116.746 97.6023L116.729 97.5602C116.999 97.164 117.134 96.8522 117.496 96.397C117.572 96.1779 117.817 95.5205 118.145 94.6271C118.466 93.7421 118.803 92.6043 119.157 91.4918C119.477 90.3624 119.764 89.2246 119.991 88.3312C120.193 87.4209 120.32 86.7382 120.354 86.5107L120.581 86.1567C121.036 85.002 120.817 84.3699 120.514 85.0188L121.028 83.5945L121.003 83.7715L121.508 82.3555C121.643 82.1111 121.938 81.8667 122.039 82.3555C122.107 81.479 122.284 80.5266 122.596 79.7259C121.668 81.9425 120.37 84.6227 118.954 86.6792C119.056 86.1819 119.342 85.533 119.637 84.884C119.915 84.2266 120.185 83.5523 120.337 83.0298C120.522 82.7516 120.733 82.3808 120.943 81.9594C121.146 81.5295 121.356 81.0491 121.576 80.5434C121.786 80.0293 122.022 79.4983 122.225 78.9673C122.41 78.4279 122.604 77.8885 122.772 77.3912C122.84 76.9277 122.402 76.5147 122.823 75.537C123.295 75.1072 123.017 74.3739 123.447 73.5648C123.464 74.5846 123.228 75.5454 122.992 76.5315C123.506 76.4641 123.742 74.1463 124.02 73.3709C123.944 72.9748 124.34 71.0363 124.357 69.7889C124.753 70.3705 124.711 68.8196 125.006 68.0948C125.124 67.2604 124.989 66.7126 124.804 67.0413C124.349 66.7463 124.264 70.3367 123.86 69.1315C124.104 68.8449 124.18 67.2183 124.18 66.3417C123.919 66.3165 123.969 66.9233 123.733 66.3502C123.818 65.3809 123.531 64.3527 123.809 63.8048C123.877 63.9902 123.818 64.3864 123.809 64.6645C123.826 64.0324 124.256 65.7433 124.542 67.4458C124.829 69.1484 125.048 70.8424 125.057 69.9996C124.922 70.2019 124.694 68.3308 124.45 66.5609C124.138 64.7825 123.843 63.0968 123.826 63.5182C123.683 64.2768 123.371 62.9788 123.261 63.7627L123.556 64.6392C123.43 65.718 122.966 66.1395 122.798 65.7602C122.823 64.8668 123.287 66.1479 123.582 67.4964C123.885 68.8365 124.146 70.2525 124.079 69.4518C124.02 69.6625 123.969 69.8648 123.902 70.0755C123.801 69.3928 123.775 67.6313 124.104 66.9654C123.86 66.9486 123.792 66.0552 123.716 65.3135L123.767 65.0522C123.657 64.2852 123.742 63.2317 123.388 63.7205C123.354 65.9372 122.722 65.1786 122.056 64.4454C121.399 63.7037 120.716 62.9873 120.59 65.0353C121.18 63.316 121.196 65.6338 121.129 67.4543C120.918 67.6144 120.581 68.4067 120.328 69.6878C120.227 70.8087 120.455 70.3705 120.564 70.598C120.362 71.2049 120.101 72.3764 119.823 72.1741C120.05 73.0928 119.359 73.5142 119.308 74.5677C119.308 75.5117 119.469 74.534 119.528 75.2167C119.19 76.5653 118.727 78.4616 118.322 79.4983C117.935 79.8354 117.109 80.9311 116.948 79.9029C117.572 77.9306 117.412 80.8637 117.909 78.7566C117.471 79.119 117.564 78.647 117.715 78.0234C117.833 77.3912 118.01 76.6074 117.817 76.363C117.597 76.6664 117.412 77.1468 117.26 77.7031C117.092 78.2509 116.932 78.8662 116.814 79.4309L116.957 79.2286C116.797 80.24 116.257 82.2206 115.575 83.1393C115.448 82.8191 115.136 83.2152 115.322 82.4904C115.17 82.9286 114.993 83.3585 114.808 83.7799C114.808 83.9653 114.808 84.1676 115.01 83.8136C114.934 84.4879 114.597 85.0694 114.294 85.4824C114.167 85.5077 113.661 87.2945 113.097 89.0391C112.532 90.7838 111.866 92.461 111.858 92.3177C111.352 93.2027 110.948 93.2364 110.61 94.1888C110.678 94.29 111.79 92.1239 112.625 90.0084C112.835 89.4858 113.038 88.9633 113.223 88.4913C113.392 88.0193 113.527 87.581 113.645 87.2355C113.872 86.5444 113.973 86.1988 113.855 86.5107C113.704 86.6792 113.417 87.4462 113.021 88.4913C112.591 89.5196 112.102 90.8681 111.487 92.1492C110.922 93.4556 110.24 94.6945 109.709 95.6638C109.144 96.6077 108.68 97.2483 108.503 97.3073C108.09 97.9394 107.576 98.6811 107.871 98.6895C106.995 99.6167 107.736 98.108 107.003 98.6895C107.02 98.7317 107.146 98.7064 106.961 98.9255L106.186 99.4144C105.739 100.308 104.888 101.176 104.095 102.103C103.236 102.963 102.427 103.89 101.837 104.766C102.098 104.176 102.233 103.359 102.958 102.255L103.21 102.179C103.295 102.002 103.952 101.151 103.741 101.007C102.806 101.825 102.106 102.6 101.365 103.696C101.145 103.814 100.901 103.957 100.716 104.042C100.741 104.058 100.775 104.067 100.792 104.092C100.379 104.278 100.395 104.227 100.446 104.05C100.446 104.025 100.446 103.991 100.471 103.949C99.9487 103.949 99.1817 104.884 98.2208 105.887C97.3022 106.932 96.1475 108.028 95.1614 108.584C94.6809 109.048 95.1867 108.719 94.5883 109.301C94.0826 109.579 93.6106 109.832 93.1639 110.076C92.7087 110.304 92.2621 110.514 91.8238 110.734C91.3855 110.953 90.9473 111.172 90.4753 111.408C90.0033 111.627 89.5144 111.863 88.975 112.116C88.4693 112.756 88.4694 112.9 89.4302 112.714C88.8908 112.992 88.3513 113.262 87.7866 113.498C88.857 112.04 84.449 114.341 85.6964 112.79C85.157 112.866 84.1793 113.237 83.3364 113.776C83.328 114.004 83.3196 114.383 82.1481 114.838C80.4287 115.226 80.8586 115.184 79.4089 115.394C79.0044 115.251 79.4678 114.981 79.3414 114.804C77.3776 115.841 77.3524 114.847 75.4139 115.462C74.2002 115.866 71.7307 116.44 71.7475 116.869C70.0281 117.156 69.9776 116.819 70.0872 116.414L70.0703 116.44Z" fill="#565656"/>
<path d="M54.4359 60.8128L54.5539 60.6442C54.3179 61.2427 54.023 61.8495 53.7195 62.5069C54.6129 61.8495 55.5316 61.4534 55.8771 60.9477C56.0963 60.7032 56.1047 60.3914 56.0289 59.9784C55.9109 59.5486 55.6496 59.0007 55.1945 58.2337C55.5653 58.495 55.9277 58.6467 56.2564 58.7563C56.6019 58.8743 56.9054 58.9417 57.1414 58.9586C57.6134 59.0007 57.8999 58.9417 57.7651 58.7479C57.7229 58.3265 57.8157 57.9978 57.9084 57.6353C57.8241 57.8545 57.7567 58.0736 57.7061 58.3012C57.7482 58.0736 57.8241 57.8545 57.9084 57.6353C58.2708 56.5818 59.24 55.975 60.2682 55.8654C61.3133 55.739 62.3922 56.1182 63.2519 56.6914C63.7407 56.9695 64.6089 57.5005 65.2747 58.2085C65.949 58.8996 66.3366 59.7424 66.3703 60.2734C66.3872 60.4251 66.4294 60.5431 66.4378 60.6948C66.48 60.4167 66.4547 60.4335 66.4631 60.1554C67.1964 60.3408 67.8621 60.6864 68.3678 61.1584C68.5785 60.9645 68.8145 60.8634 69.0253 60.4757C69.0168 60.6021 69.0252 60.7285 68.9999 60.8549C69.3961 60.8802 69.6489 61.0825 69.8596 61.3185C70.0366 61.5629 70.1631 61.8326 70.3654 61.9928C69.9693 61.9843 69.944 62.2793 69.9018 62.5322L70.1463 62.3973C70.121 63.3582 70.3907 64.5044 70.1463 65.3725C70.1379 65.4989 69.9524 65.5495 69.8091 65.5664C69.8176 65.8445 69.8765 66.1563 69.8596 66.4429C69.3877 66.2153 69.1854 66.9065 69.0168 66.4345C69.2107 66.8222 69.1264 67.1256 69.0337 67.4206C68.9663 67.7324 68.8483 68.0021 68.9494 68.4404C67.8032 70.2946 66.1597 72.0477 63.8166 73.4721L63.9262 73.6491C63.7155 73.7755 63.5216 73.961 63.3193 74.1379C63.1086 74.2981 62.8979 74.4751 62.662 74.6352C62.426 74.8038 62.1731 74.9049 61.9034 74.9723C61.6337 75.0229 61.3387 75.0566 61.0352 74.9386C60.1166 75.6129 58.7006 75.7056 58.0095 76.6074C57.4027 76.5316 56.9475 76.54 56.4755 76.5569C56.2395 76.5569 55.9951 76.5822 55.7338 76.5653C55.481 76.54 55.2028 76.4979 54.8825 76.4136C54.9078 76.7254 54.5539 76.7339 54.2337 76.7254C53.8881 76.717 53.7027 76.7507 53.8122 77.0541C54.2674 78.133 54.6045 77.602 55.0596 78.4869L55.1101 78.31C58.1865 80.5687 62.468 81.42 66.4883 80.5097C67.112 80.1895 67.7526 79.945 68.3847 79.6163C68.705 79.4646 69.0168 79.3129 69.3371 79.1612L70.2811 78.6555C70.9216 78.3352 71.5032 77.9054 72.1016 77.5177C72.6663 77.071 73.231 76.6327 73.7114 76.1017C74.7481 74.9808 75.6162 73.6407 76.2399 72.2837C76.5518 71.601 76.7878 70.9099 76.9901 70.2441C77.1418 69.553 77.3272 68.9124 77.3693 68.2803C77.3693 67.6734 77.9508 67.3869 78.2795 66.9233C78.3807 65.7518 78.5324 64.437 78.4566 63.0884C78.4229 61.7399 78.1447 60.3577 77.6896 59.1524C77.7064 59.203 77.7064 59.2451 77.7064 59.2789C77.2429 58.0062 77.403 56.8262 76.6782 55.6378C76.5434 55.7137 76.4338 55.5367 76.3158 55.4861C76.5855 55.2164 75.2623 53.5813 73.6187 52.4266C71.9752 51.2383 70.1293 50.5977 70.0535 50.3111C69.9271 50.269 69.7922 50.2184 69.6743 50.1679C69.1517 49.7549 68.6123 49.3335 68.0729 48.8783C67.5082 48.4822 66.9435 47.9934 66.3282 47.6562C66.0248 47.4708 65.713 47.2938 65.4011 47.1252C65.0809 46.9735 64.7606 46.8471 64.4403 46.7291C63.7998 46.4763 63.1339 46.3836 62.5102 46.3667C61.9539 46.6448 61.3555 46.9904 60.9425 47.3697C60.5043 47.0747 60.4621 47.6731 59.9648 47.6478C59.2569 47.0073 58.6753 46.8724 58.4225 46.982C58.1612 47.0747 58.2033 47.3444 58.5741 47.5298C57.5796 47.9175 56.543 48.1029 55.6917 48.4906C55.3293 48.7603 54.9838 49.0216 54.6551 49.3082C54.3938 49.5863 54.1156 49.4936 53.7869 49.2829C53.0537 49.915 53.1295 49.4683 52.194 49.9234C51.9495 49.7886 51.5197 50.3111 51.1994 50.918C51.0392 51.213 50.8792 51.5164 50.7528 51.7524C50.6348 51.9968 50.542 52.1738 50.4661 52.1907L50.5252 52.0221C49.6655 52.7385 48.4265 52.7216 47.6764 53.6656C46.5807 54.913 45.7885 56.4891 45.2575 58.1158C44.7602 59.7593 44.5326 61.4281 44.3894 62.9705C44.9119 63.021 44.3219 62.2878 45.013 62.2962C44.8023 64.0156 44.263 65.9119 44.6591 67.7577C44.5833 68.1201 44.4736 68.5837 44.3556 68.786C44.3556 69.435 44.7012 69.0557 44.777 69.494L44.3472 69.7131C44.9287 70.1935 44.2208 70.8172 44.6591 71.3313C44.8445 71.2808 44.9541 71.483 45.0468 71.6937C44.6001 71.9297 45.4091 72.2922 44.9877 72.4776H45.0215C45.0805 72.5956 45.1564 72.663 45.1648 72.8568C45.2996 72.9327 45.9738 73.3373 46.6734 73.6491C47.3561 73.9778 48.0557 74.2307 48.2243 74.2475V74.3908C48.4603 74.6436 48.8395 74.5088 48.7805 74.3065L49.0165 74.6352L48.9575 74.6184L49.2019 74.9471C49.2187 75.0313 49.1092 75.2505 48.8648 75.3179C49.1598 75.3685 49.4126 75.4865 49.5137 75.714C49.2524 75.0566 49.084 74.1464 49.0755 73.3457C49.3705 73.4384 49.4632 73.961 49.6908 74.1464C49.6402 74.6352 49.9689 75.3095 50.2133 75.8826C50.3313 75.9416 50.7527 75.596 50.8033 75.9585C50.66 76.3377 51.0562 76.1439 51.0562 76.5063C50.719 76.4979 50.5673 76.2619 50.3734 76.068C50.0953 76.4473 50.6853 76.7339 50.778 76.9699C50.9465 76.9193 51.2752 77.3828 51.6208 77.4756C51.2415 77.7453 51.6882 77.8548 51.7219 78.1582C51.8905 78.3268 52.1097 78.2594 52.1181 78.0824C52.4384 77.72 51.5197 77.3491 52.076 77.1131C52.0085 77.3491 52.4215 77.5177 52.6238 77.6273C52.7671 77.4081 52.5986 77.3744 52.8598 77.248C53.0453 77.4334 53.4329 77.307 53.416 77.6188C53.3402 77.6525 53.2728 77.5598 53.2138 77.5177C53.3486 77.6188 52.7502 77.7453 52.1433 77.8295C51.5365 77.9223 50.9297 77.956 51.1657 78.0318C51.1826 77.9054 51.8316 77.8801 52.43 77.8295C53.0284 77.7874 53.5594 77.7284 53.4751 77.6694C53.3739 77.4503 53.8291 77.3323 53.7027 77.1469L53.3486 77.2986C53.1632 77.0626 53.315 76.6159 53.4835 76.5232C53.6605 76.658 53.1633 76.8687 52.6491 77.0204C52.135 77.1721 51.6124 77.2648 51.8652 77.2733C51.84 77.2058 51.8147 77.1469 51.7979 77.0794C52.0423 77.0457 52.5142 77.1721 52.5142 77.5008C52.6575 77.2901 52.9019 77.3407 53.1126 77.366L53.1464 77.4418C53.3824 77.4418 53.5846 77.6357 53.6436 77.2733C53.1463 76.9867 53.6605 76.5316 54.1577 76.0512C54.655 75.5623 55.127 75.0398 54.7898 74.7279C54.8236 75.4275 54.3769 75.1578 53.9808 74.9808C54.0566 74.7954 54.0566 74.4667 53.9049 74.1801C53.6858 74.0621 53.6689 74.2559 53.5425 74.3402C53.5088 74.1464 53.3655 73.8935 53.5762 73.6828C53.1969 73.8345 53.475 73.312 53.2222 73.2698C52.9525 73.2698 53.1295 73.3963 52.9019 73.43C52.6996 73.194 52.43 72.8484 52.3035 72.6293C52.43 72.3596 52.607 71.837 53.0621 71.6769C53.3234 72.014 52.43 72.0477 52.8261 72.309C53.1379 71.719 53.239 72.4691 53.6267 72.1657C53.7194 71.8539 53.534 71.6685 53.3065 71.5589L53.2812 71.6516C53.0621 71.5757 52.6912 71.3398 52.8177 70.9436C53.0199 70.8425 53.0958 70.6571 53.2222 70.7329L53.079 70.4969C53.0031 70.5138 52.9188 70.5306 52.9357 70.6233C52.7165 70.6318 52.7081 70.4716 52.7503 70.3199C52.8261 70.2441 52.4384 70.0924 52.0086 69.9407C51.5787 69.7889 51.1657 69.5951 51.2416 69.5782C51.132 69.3928 51.4185 69.1821 51.1151 69.1147C51.0308 69.1484 51.427 69.5108 51.8652 69.7721C52.3035 70.0334 52.7165 70.2272 52.6154 70.1429C52.6828 69.9912 52.1013 69.7384 51.5872 69.3675C51.3343 69.1821 51.073 68.9883 50.9044 68.8197C50.7443 68.6427 50.6769 68.491 50.7696 68.4151C50.6938 68.2803 50.5757 68.1286 50.365 68.255C50.365 67.9684 50.8202 68.1539 50.955 67.8926C50.9213 67.901 50.8454 67.9516 50.837 67.8926L51.0562 67.6229C50.5673 67.3785 50.8538 66.6873 50.2723 66.4261C50.542 66.4851 51.0308 66.4935 51.3343 66.6536L51.2247 66.7295C51.309 66.7463 51.4523 66.9149 51.6714 66.8306C51.7557 66.5609 51.6461 66.4008 51.3511 66.2238C51.4017 66.1648 51.4607 66.0973 51.5112 66.0468C51.4775 66.0552 51.4522 66.0636 51.4185 66.0721C51.5449 65.9625 51.5703 65.9625 51.6714 65.9709C51.6883 65.9709 51.7051 65.9709 51.7304 65.9709C52.3962 65.6844 51.0898 65.2124 51.427 64.7235C51.309 64.614 51.309 64.7235 51.1573 64.5887C51.368 64.1336 51.6208 63.847 51.7557 63.4256C51.4438 63.2907 51.3258 63.2654 51.014 63.434C51.0393 63.3244 51.073 63.2064 51.1236 63.0969C51.9074 63.4087 51.9411 62.549 52.725 62.9115C52.9188 62.8356 52.9694 62.6839 52.843 62.5069C52.6407 62.4648 52.3119 62.4058 52.3541 62.195C52.6743 61.9506 52.5648 62.0012 52.8598 61.8158C53.1295 61.8158 53.2138 61.9169 53.4245 61.9422C53.1379 61.5376 54.0397 61.7821 54.0735 61.4871C54.0482 61.2848 54.1072 60.9224 53.6942 60.7622C53.8122 60.5178 54.1324 60.6442 54.478 60.8044L54.4359 60.8128Z" fill="#565656"/>
</svg>
