<svg width="102" height="147" viewBox="0 0 102 147" fill="none" xmlns="http://www.w3.org/2000/svg">
<path d="M9.42377 27.0759L9.51027 27.5776C9.12104 25.9947 8.71451 24.334 8.38583 22.6473C8.49827 26.6002 8.07444 31.072 11.4045 33.0527C10.0725 33.762 9.89085 37.3775 10.2801 37.3516C10.678 38.0003 11.0758 38.6576 11.3699 39.3583C11.1969 38.8739 10.9547 38.4068 10.7299 37.9397C10.9634 38.4068 11.1969 38.8739 11.3699 39.3583C13.3939 43.7436 13.4199 49.0285 12.9268 54.296C12.8057 57.2369 12.2176 65.0993 11.5083 67.9883C11.4305 68.4121 11.3353 68.8273 11.2402 69.2511C11.4651 68.5592 11.4737 68.5592 11.6554 67.8586C12.0359 69.7009 12.2954 71.3876 12.4771 73.031C12.7539 72.7801 12.996 72.7715 13.4112 72.1401L13.169 72.9358C13.861 73.7921 13.5323 75.5048 13.7226 76.3697C13.3766 76.1362 13.2123 76.7589 13.0825 77.3125L13.3507 77.1309C13.2382 77.6585 13.1517 78.2207 13.0739 78.7829C12.9787 79.3452 12.8922 79.916 12.8144 80.4869C12.6501 81.62 12.529 82.7358 12.3127 83.6786C12.2522 83.9467 12.0792 84.1111 11.9408 84.1976L11.7938 86.0832C11.3872 85.8237 11.0931 87.4844 11.0153 86.5416C11.2488 88.0553 10.5569 89.3181 10.7212 90.7712C9.53622 95.3987 8.26473 100.39 6.66456 105.19L6.79431 105.121C6.27533 106.825 5.92935 108.399 4.82221 110.25C4.56272 110.985 4.17349 111.833 3.83616 112.577C3.48153 113.321 3.17014 113.943 3.0923 114.255C2.1149 115.743 1.76026 116.357 0.653121 117.715C0.808813 117.55 0.540676 117.879 0.289839 118.156C0.0303524 118.433 -0.11669 118.718 0.116848 118.355C0.921257 117.507 0.947206 117.446 1.64782 116.729L1.61322 116.746C4.76166 113.329 7.86685 109.731 10.5828 105.752C12.0792 102.958 13.9821 100.009 15.3314 96.9557C15.6774 96.134 16.032 95.2863 16.3607 94.43C16.6807 93.5737 16.9575 92.6914 17.2257 91.8351C17.7965 90.1225 18.1771 88.4185 18.4539 86.9049C18.5491 86.1697 19.094 85.7631 19.5092 85.2182C19.7859 83.8256 20.1925 82.2601 20.599 80.6512C20.9709 79.0338 21.2564 77.3471 21.438 75.7469C21.4207 75.8075 21.4034 75.8594 21.3861 75.9026C21.5245 75.0636 21.7407 74.3371 21.957 73.6192C22.1819 72.9012 22.3981 72.1833 22.4673 71.3443C22.3116 71.3443 22.3376 71.0762 22.277 70.9464C22.4587 70.8945 22.5625 70.2458 22.5711 69.303C22.5538 68.3516 22.45 67.106 22.3376 65.8519C22.2338 64.5977 22.0954 63.3435 21.9397 62.3747C21.8099 61.3973 21.758 60.6967 21.8618 60.5583C21.8272 60.3853 21.8013 60.2123 21.784 60.0307C21.8618 59.1571 22.0521 58.2748 22.1905 57.4012C22.3376 56.519 22.4846 55.6367 22.6316 54.7631C22.7787 53.8895 22.9084 53.0332 22.9776 52.2029C23.0036 51.3725 22.9776 50.5767 22.8652 49.8242C22.45 49.2015 22.0781 48.4922 21.6369 47.9905C21.8705 47.4283 21.291 47.3937 21.2823 46.7536C22.4241 44.9718 21.6629 44.0896 21.3169 44.9978C20.8931 43.709 20.8325 42.3597 20.5125 41.2093C20.2963 40.6903 20.0714 40.1713 19.8378 39.6523C19.6216 39.2112 19.76 38.9258 20.0195 38.6317C19.5524 37.4986 19.9849 37.7667 19.7773 36.5212C20.1319 36.1233 18.2031 33.6323 18.2463 33.269L18.3674 33.4506C18.0647 32.0321 18.4799 30.9076 18.0474 29.5324C17.5544 27.6035 16.6808 25.692 15.8677 23.815C14.9595 21.9726 14.1032 20.1649 13.2469 18.5388C12.9182 18.6339 13.7053 19.2221 13.3074 19.4297C12.823 18.4609 12.4425 17.4576 11.9927 16.4715C11.5429 15.4855 11.0585 14.5167 10.505 13.5826C10.3579 13.2193 10.1936 12.7695 10.1676 12.5792C9.8476 11.9651 9.8303 12.2938 9.56217 11.8527L9.71786 11.697C9.12104 11.1693 9.29403 10.6936 8.7837 10.1746C8.68856 10.1746 8.52422 9.98436 8.36853 9.78542C8.53287 9.68162 7.8755 9.1886 8.05714 9.12805H8.03984C7.9447 9.00696 7.86685 8.92911 7.78036 8.77342C7.53817 8.57448 5.44498 6.72348 5.22874 6.52454L5.16819 6.41209C4.91735 6.10936 4.72706 6.02286 4.84816 6.21315L4.54542 5.82392L4.58867 5.86717L4.27729 5.49524C4.22539 5.41739 4.20809 5.3136 4.33783 5.40009C4.12159 5.2098 3.90535 4.98492 3.73236 4.76868C4.19079 5.37415 4.70976 6.16126 5.05575 6.87917C4.82221 6.63698 4.53677 6.12666 4.30323 5.85852C4.10429 5.48659 3.60262 4.77733 3.19609 4.24105C3.0923 4.12861 2.9539 4.09401 2.76361 3.82587C2.70307 3.67018 2.50413 3.54044 2.34843 3.3069C2.59062 3.53179 2.79821 3.77398 3.01445 4.01616C3.0404 3.92967 2.51278 3.40205 2.34843 3.20311C2.24464 3.12526 1.82946 2.64953 1.54403 2.37275C1.69972 2.47654 1.33644 2.13056 1.17209 1.95757C0.981804 1.76728 0.85206 1.65484 0.921257 1.73268C0.843411 1.68078 1.66512 2.50249 1.37103 2.25166C1.31914 2.17381 0.947206 1.79323 0.748266 1.59429C0.739616 1.59429 0.878009 1.73268 0.748266 1.61159C0.540676 1.39535 0.393634 1.23966 0.177395 1.01477C0.237942 1.08396 0.307138 1.15316 0.367685 1.21371C0.0476515 0.936922 2.0111 2.74468 1.63917 2.3641C1.69972 2.48519 -0.099391 0.763931 0.116848 0.945572C0.289839 1.12721 -0.00424584 0.815828 0.168745 1.00612L0.367685 1.21371C0.609873 1.4732 0.687719 1.58564 0.601223 1.49914C0.186044 1.07532 1.81216 2.67548 1.46618 2.3122L1.59592 2.46789C1.44023 2.32085 1.0337 1.90567 0.895308 1.74133C0.886659 1.74133 0.679069 1.54239 0.514728 1.3694L0.454181 1.30885C0.28119 1.13586 0.0476515 0.885025 0.151446 0.997469C0.644471 1.52509 0.46283 1.3694 0.298489 1.18776C0.134147 1.00612 -0.00424584 0.807179 0.402283 1.36075C0.0649506 0.893675 0.532027 1.50779 0.903958 1.99217C0.929906 2.04407 1.0856 2.26895 1.32779 2.63224C1.54403 2.94362 1.47483 2.80523 1.52673 2.85712C1.63917 3.03876 1.85541 3.36745 1.79486 3.35015C2.00245 3.56639 2.03705 3.75668 2.24464 4.04211C2.44358 4.2843 2.24464 4.01616 2.40033 4.18051C2.65982 4.56974 3.0058 5.13196 3.19609 5.45199C3.23069 5.59903 3.36043 6.03151 3.11824 5.80662C2.76361 5.19251 3.38638 5.96232 2.9885 5.33955C3.0404 5.67688 2.61657 4.80327 2.47818 4.73408C2.55602 4.96762 2.78956 5.37415 3.0058 5.71148L2.97985 5.63363C3.17014 5.92772 3.56802 6.50724 3.67182 6.88782C3.57667 6.83592 3.61992 7.00891 3.49018 6.78402L3.70641 7.2165C3.74966 7.25975 3.80156 7.303 3.74101 7.17325C3.88806 7.34625 3.97455 7.56248 4.02645 7.73548C3.97455 7.82197 5.52282 9.83732 5.44498 9.79407C5.60932 10.0968 5.53147 10.2352 5.77366 10.4947C5.8515 10.4947 3.97455 7.69223 4.21674 8.08146C4.26864 8.38419 6.41373 11.3683 6.37913 11.6364C6.50887 11.8613 6.65591 12.1294 6.72511 12.0257C6.87215 12.4408 6.49157 11.9997 6.53482 12.3284C6.55212 12.3284 6.56942 12.2851 6.61267 12.3716V12.7003C7.06244 13.2366 7.27868 14.2313 7.80631 14.7589C7.59872 14.6292 7.28733 14.5254 7.0019 14.1621L7.02784 14.067C6.9673 14.0237 6.77701 13.7037 6.68186 13.7642C6.78566 14.188 6.95 14.5167 7.24408 14.88C7.24408 14.9665 7.26138 15.0703 7.25273 15.1481C7.27003 15.1395 7.27868 15.1308 7.29598 15.1222C7.27868 15.2952 7.26138 15.2865 7.20084 15.2519C7.19219 15.2519 7.17489 15.2519 7.16624 15.2346C6.9327 15.6412 8.01389 16.6964 8.13499 17.5095C8.27338 17.6998 8.20418 17.5095 8.38583 17.7344C8.55882 18.5388 8.60207 19.1183 8.801 19.94C9.06914 20.113 9.14699 20.1043 9.21618 19.7238L9.38052 20.3379C8.71451 20.0005 9.31998 21.6353 8.62801 21.2374C8.57612 21.4537 8.67126 21.8256 8.8702 22.1197C9.00859 22.1024 9.23348 22.0678 9.36322 22.4916C9.37187 23.149 9.39782 22.9846 9.37187 23.5382C9.23348 23.7199 9.11239 23.5642 8.98265 23.642C9.42377 24.308 8.801 24.4378 9.03454 25.1384C9.21618 25.5622 9.49297 26.4272 9.813 26.332C9.96004 26.9375 9.70921 27.024 9.42377 27.0586V27.0759Z" fill="#565656"/>
<path d="M91.8973 92.2417L91.8022 91.7487C92.2692 93.2969 92.5633 95.0096 92.9439 96.6703C92.9093 94.7068 92.9439 92.5877 92.6239 90.728C92.3298 88.8597 91.5686 87.2769 89.9166 86.2649C91.3005 85.5383 91.3783 81.9487 91.0323 81.966C90.6345 81.3173 90.2885 80.6513 89.9598 79.9593C90.1587 80.4351 90.3663 80.9108 90.5999 81.3779C90.375 80.9108 90.1674 80.4437 89.9598 79.9593C87.9791 75.574 87.8061 70.2978 88.3856 65.0215C88.4202 63.5598 88.6797 60.8525 88.8354 58.1538C89.1554 55.4638 89.4062 52.7738 89.8128 51.3293C89.9079 50.9055 89.9944 50.4903 90.0722 50.0665C89.9339 50.5335 89.7955 51.0006 89.6571 51.4677C89.3024 49.634 88.9132 47.93 88.8354 46.2953C88.5499 46.5374 88.3077 46.5547 87.8753 47.1862L88.1434 46.3904C87.512 45.5427 87.7369 43.8128 87.5466 42.9479C87.8839 43.1814 88.0656 42.5586 88.2126 42.0051L87.9358 42.1867C88.1866 41.1315 88.3337 39.9724 88.4634 38.8307C88.6191 37.6976 88.8008 36.5904 88.9997 35.639C89.0516 35.3709 89.2159 35.2065 89.3543 35.1114C89.3716 34.48 89.4235 33.8485 89.4927 33.2258C89.8906 33.4853 90.2193 31.8245 90.2885 32.7673C90.1068 31.271 90.6864 29.9735 90.5826 28.5377C91.7589 23.9102 93.039 18.9194 94.6392 14.1189L94.5095 14.1881C94.7949 13.3491 94.9852 12.5187 95.2706 11.6797C95.5647 10.8407 95.9366 9.99306 96.4816 9.06755C97.0005 7.59713 98.0385 5.66828 98.2201 5.06281C99.1975 3.57509 99.5608 2.96097 100.659 1.60299C100.504 1.76733 100.772 1.43864 101.023 1.16186C101.282 0.885073 101.429 0.599638 101.196 0.962919C100.391 1.81058 100.365 1.87112 99.6646 2.58039L99.6992 2.56309C96.5508 5.97966 93.4369 9.56923 90.7123 13.548C89.9858 14.9579 89.0862 16.3678 88.2904 17.8555C87.8753 18.5907 87.4687 19.3346 87.0535 20.0784C86.673 20.831 86.301 21.5921 85.9637 22.3533C85.2112 23.988 84.623 25.7612 84.0608 27.4738C83.5245 29.1951 83.1439 30.899 82.8153 32.4041C82.7374 33.1393 82.2098 33.5458 81.8119 34.0994C81.5178 35.492 81.0508 37.0402 80.7221 38.6663C80.3588 40.2925 79.9782 41.9618 79.8744 43.5706C79.8831 43.5101 79.909 43.4582 79.9177 43.415C79.8139 44.2626 79.5803 44.9805 79.3381 45.6984C79.096 46.4163 78.8624 47.1343 78.8278 47.9646C78.9835 47.9646 78.9576 48.2328 79.0268 48.3625C78.8451 48.4144 78.7673 49.0631 78.7673 50.0146C78.7673 50.966 78.7932 52.2029 78.9662 53.4571C79.243 55.9655 79.5976 58.4652 79.4333 58.7593C79.4679 58.9323 79.5025 59.1052 79.5198 59.2869C79.39 61.0254 78.9143 62.8159 78.6548 64.5545C78.404 66.293 78.2137 67.9883 78.4126 69.4934C78.8365 70.1161 79.2344 70.8167 79.6841 71.3184C79.4506 71.8806 80.0561 71.9152 80.0647 72.5553C78.8884 74.3458 79.6236 75.228 79.9869 74.3198C80.3761 75.6173 80.5491 76.9406 80.8259 78.0997C81.0335 78.6186 81.241 79.1376 81.4659 79.6566C81.6649 80.0977 81.5438 80.3832 81.2929 80.6772C81.7773 81.8103 81.3708 81.5335 81.5611 82.7877C81.1978 83.1943 83.0748 85.6853 83.0834 86.0486L82.9623 85.867C83.3169 87.2769 82.8326 88.4186 83.265 89.7852C84.4154 93.6083 86.4048 97.5093 88.0828 100.762C88.4115 100.666 87.6331 100.078 88.0309 99.862C88.9305 101.817 89.7003 103.849 90.8334 105.709C90.9891 106.072 91.1361 106.531 91.1707 106.712C91.4821 107.335 91.5081 106.998 91.7676 107.439L91.6119 107.595C92.2 108.131 92.0357 108.598 92.5547 109.117C92.6498 109.117 92.8142 109.307 92.9699 109.506C92.8055 109.61 93.4629 110.112 93.2812 110.164H93.2985C93.3937 110.285 93.4715 110.363 93.558 110.518C93.8002 110.717 95.902 112.56 96.101 112.767L96.1615 112.88C96.4124 113.191 96.6027 113.269 96.4729 113.078L96.7757 113.459L96.7324 113.416L97.0438 113.796C97.0957 113.874 97.113 113.978 96.9832 113.892C97.1995 114.082 97.4157 114.307 97.5801 114.523C97.1303 113.917 96.594 113.13 96.2567 112.412C96.4902 112.655 96.7757 113.165 97.0092 113.433C97.2081 113.805 97.7098 114.514 98.1163 115.051C98.2201 115.163 98.3585 115.198 98.5488 115.466C98.6094 115.621 98.8083 115.751 98.964 115.985C98.7218 115.76 98.5142 115.518 98.298 115.275C98.272 115.362 98.7997 115.89 98.964 116.089C99.0678 116.166 99.483 116.642 99.7684 116.919C99.6127 116.815 99.976 117.161 100.14 117.334C100.331 117.524 100.46 117.637 100.391 117.559C100.469 117.611 99.6473 116.789 99.9414 117.04C99.9933 117.118 100.365 117.498 100.564 117.697C100.573 117.697 100.434 117.559 100.564 117.68C100.772 117.896 100.919 118.052 101.135 118.277C101.074 118.208 101.005 118.138 100.945 118.078C101.265 118.355 99.3013 116.547 99.6819 116.928C99.6214 116.806 101.42 118.528 101.204 118.346C101.031 118.164 101.325 118.476 101.152 118.286L100.953 118.078C100.711 117.818 100.633 117.706 100.72 117.792C101.135 118.216 99.5089 116.616 99.8549 116.979L99.7252 116.824C99.8808 116.971 100.287 117.386 100.426 117.55C100.434 117.55 100.642 117.749 100.806 117.922L100.867 117.983C101.04 118.156 101.273 118.407 101.17 118.294C100.677 117.767 100.858 117.922 101.023 118.104C101.187 118.286 101.325 118.484 100.919 117.931C101.256 118.398 100.789 117.784 100.417 117.299C100.391 117.248 100.235 117.023 100.002 116.659C99.7857 116.348 99.8549 116.486 99.803 116.435C99.6906 116.253 99.4743 115.924 99.5349 115.941C99.3273 115.725 99.2927 115.535 99.0851 115.25C98.8861 115.007 99.0851 115.275 98.9294 115.111C98.6699 114.722 98.3239 114.16 98.1336 113.84C98.099 113.693 97.9693 113.26 98.2115 113.485C98.5661 114.099 97.9433 113.329 98.3412 113.952C98.2893 113.615 98.7132 114.488 98.8515 114.558C98.7737 114.324 98.5402 113.909 98.3239 113.58L98.3499 113.658C98.1596 113.364 97.7704 112.776 97.6579 112.404C97.7531 112.456 97.7098 112.283 97.8395 112.508L97.6233 112.075C97.5801 112.032 97.5282 111.989 97.5887 112.118C97.4417 111.937 97.3552 111.729 97.3033 111.556C97.3552 111.47 95.8069 109.454 95.8847 109.498C95.7204 109.195 95.7983 109.048 95.5647 108.797C95.4869 108.797 97.3638 111.599 97.1216 111.21C97.0697 110.907 94.9246 107.923 94.9679 107.647C94.8382 107.422 94.6738 107.154 94.6133 107.257C94.4662 106.842 94.8468 107.283 94.8036 106.955C94.7863 106.955 94.769 106.998 94.7257 106.911V106.583C94.2759 106.046 94.0683 105.052 93.5407 104.515C93.7483 104.645 94.051 104.758 94.3451 105.121L94.3192 105.225C94.3797 105.268 94.57 105.588 94.6652 105.527C94.5614 105.104 94.397 104.766 94.1029 104.412C94.1029 104.325 94.0856 104.221 94.0943 104.143C94.077 104.143 94.0683 104.161 94.051 104.169C94.0597 103.996 94.077 104.014 94.1462 104.04C94.1548 104.04 94.1721 104.04 94.1808 104.057C94.397 103.659 93.3331 102.587 93.212 101.782C93.0736 101.592 93.1428 101.782 92.9612 101.557C92.8055 100.744 92.7104 100.191 92.5374 99.3516C92.2779 99.17 92.1914 99.1873 92.1222 99.5679L91.9578 98.9451C92.6239 99.2911 92.027 97.6477 92.719 98.0455C92.7709 97.8293 92.6844 97.4574 92.4855 97.1546C92.3471 97.1719 92.1308 97.1979 91.9838 96.7827C91.9578 96.134 91.9319 96.2983 91.9578 95.7448C92.0962 95.5631 92.2173 95.7188 92.3471 95.641C91.9146 94.975 92.5374 94.8366 92.3125 94.1446C92.1395 93.7208 91.8714 92.8558 91.534 92.951C91.3697 92.3541 91.6205 92.2677 91.906 92.2331L91.8973 92.2417Z" fill="#565656"/>
<path d="M32.6824 64.3988L32.9419 64.4507C32.0943 64.4853 31.1947 64.3209 30.3125 64.122C32.2327 65.7481 34.4988 67.1753 35.9779 63.7241C36.1423 65.5578 38.0019 66.4141 38.0365 65.9643C38.4257 65.627 38.815 65.3502 39.2129 65.1253C41.7126 63.6981 44.4372 64.3209 47.2483 65.0302C48.8052 65.3848 53.0435 65.7827 54.6437 66.319C54.8772 66.3882 55.1021 66.4487 55.3443 66.5006C55.0848 66.391 54.8253 66.2815 54.5658 66.1719C55.5432 65.6789 56.4255 65.2032 57.2818 64.8918C57.1347 64.6236 57.1088 64.3728 56.7455 64.0095L57.178 64.1825C57.5759 63.4214 58.4927 63.456 58.9252 63.1359C58.8301 63.5338 59.176 63.6116 59.4701 63.6722L59.349 63.4041C60.4908 63.5684 61.8055 63.2484 62.8261 63.2916C62.9645 63.2916 63.077 63.4387 63.1375 63.577L64.1149 63.2657C64.0371 63.8019 64.9193 63.7327 64.4609 64.0701C65.1875 63.4387 65.9313 63.8279 66.6233 63.1705C69.1057 63.0927 71.7525 62.6861 74.3214 61.7866L74.2609 61.5877C75.1604 61.233 75.9562 60.1778 77.046 60.5324C77.8245 59.8231 78.9403 59.4426 79.2517 58.3268C80.1512 58.1711 80.5145 57.6175 81.3967 57.3234C81.1719 56.7698 82.253 56.6574 81.8206 56.2249C81.2324 55.4551 81.2065 56.1125 80.7048 55.4897L80.7221 55.6714C78.404 54.841 76.0773 54.3653 73.7246 54.1144C72.1504 54.5815 70.4551 54.2009 68.8203 54.3393C67.0644 54.5383 65.1615 54.9015 63.6565 55.36C63.2932 55.5157 63.0337 55.0572 62.731 54.7977C61.3471 55.0486 59.5826 54.8583 58.017 55.161C58.0429 55.161 58.0775 55.1697 58.0948 55.1783C57.2645 55.2735 56.6417 54.7026 55.8287 54.7977C55.8287 54.9534 55.7076 54.9621 55.647 55.0486C55.5086 54.3134 50.8725 56.5709 50.587 56.1557C50.5005 56.1903 50.414 56.2249 50.3275 56.2422C48.6149 55.9135 46.8418 54.4864 45.3713 54.6161C45.0513 54.9621 44.6967 55.2648 44.4199 55.6541C44.1604 55.3427 44.1085 55.9481 43.7971 55.8616C43.0014 54.3912 42.5343 55.0053 42.9495 55.5243C42.2921 55.7233 41.6347 55.5935 41.0552 55.6454C40.7871 55.7492 40.5189 55.8616 40.2421 55.9914C40.0086 56.1125 39.8789 55.8962 39.7664 55.5503C39.1783 55.7578 39.3512 55.3946 38.7285 55.2475C38.5814 54.7372 37.1716 56.0606 36.9986 55.9049L37.1024 55.827C36.3844 55.7405 35.9087 54.7459 35.2081 54.7026C33.262 54.322 31.1342 54.7026 29.3351 54.5296C29.3178 55.0659 29.7329 54.4085 29.7502 55.1264C28.6863 55.0313 27.6138 54.3653 26.5412 54.2788C26.351 54.1317 26.1088 53.8636 26.0223 53.6906C25.6763 53.4917 25.8233 53.9501 25.5725 53.8809L25.5379 53.3965C25.1746 53.7944 25.0016 52.8602 24.6556 53.0592C24.6383 53.2581 24.5086 53.2841 24.3875 53.2668C24.3875 52.7478 24.0069 53.3014 24.0242 52.8343V52.8689C23.9464 52.8689 23.8945 52.8948 23.7993 52.8083C23.6609 52.99 22.3376 54.3999 22.1992 54.6161L22.13 54.5296C21.931 54.5469 21.8445 54.9275 21.9656 55.0226L21.7234 54.9967L21.7494 54.9621L21.5072 54.9361C21.464 54.8929 21.4121 54.6507 21.4813 54.4258C21.3429 54.6075 21.1872 54.7026 21.0574 54.6075C21.438 54.9275 21.9137 55.3773 22.3116 55.8962C22.1473 56.0692 21.8532 55.8011 21.6715 55.853C21.464 55.5157 21.0228 55.2216 20.6855 54.988C20.6077 55.014 20.5558 55.5935 20.3914 55.3427C20.3049 54.9448 20.2011 55.36 20.0627 55.0659C20.2271 54.8583 20.3828 54.9534 20.5471 54.9707C20.5212 54.5037 20.1492 54.6507 20.0195 54.521C19.9589 54.668 19.6389 54.521 19.4486 54.6421C19.5351 54.1923 19.2843 54.3566 19.1718 54.1144C19.0421 54.0625 18.9556 54.2442 19.0075 54.3999C18.9642 54.8929 19.5438 54.694 19.3535 55.2043C19.3016 54.9707 19.0421 55.0486 18.9037 55.0745C18.9037 55.3427 18.9988 55.2735 18.9037 55.533C18.748 55.4724 18.5837 55.7924 18.4885 55.5157C18.5145 55.4465 18.5837 55.4897 18.6269 55.4984C18.4193 55.4724 19.734 53.7598 19.4659 53.9155C19.5351 54.149 18.3069 55.4984 18.4366 55.5157C18.5577 55.6454 18.3501 56 18.4799 56.0865L18.6269 55.7665C18.7999 55.8703 18.8777 56.3374 18.8172 56.519C18.5231 56.4758 19.6562 54.694 19.4054 54.9707L19.5092 55.1005C19.4054 55.2735 19.1199 55.4292 19.0075 55.1437C19.0075 55.4032 18.8604 55.4984 18.7393 55.5935L18.6961 55.5503C18.575 55.68 18.402 55.6195 18.4799 55.9654C19.2064 55.9222 18.0041 58.6468 18.7047 58.8025C18.4107 58.223 18.7999 58.2057 19.1113 58.1365C19.1372 58.3354 19.2756 58.6295 19.5005 58.7765C19.6908 58.7333 19.613 58.5603 19.6475 58.4133C19.7513 58.543 19.9589 58.6555 19.933 58.9582C20.08 58.5949 20.1752 59.1917 20.3482 59.062C20.5039 58.889 20.3395 58.9063 20.452 58.7246C20.6855 58.7592 21.0228 58.8111 21.2131 58.889C21.2823 59.1744 21.5072 59.6847 21.3429 60.1345C20.9796 60.074 21.4813 59.408 21.1093 59.5031C21.2737 60.1605 20.7806 59.6847 20.7114 60.1778C20.8325 60.4719 21.0747 60.4805 21.2737 60.394L21.2304 60.3075C21.4121 60.221 21.7667 60.0826 21.957 60.4373C21.9137 60.6708 21.9916 60.8438 21.8618 60.8957L22.104 60.9389C22.1386 60.8697 22.1646 60.7919 22.104 60.74C22.2165 60.5584 22.3376 60.6621 22.4241 60.8005C22.45 61.0427 23.7301 59.7712 23.6955 59.9269C23.8685 59.9269 23.9118 60.2902 24.0848 60.0394C24.1021 59.8404 22.3895 60.8784 22.623 60.7919C22.77 61.06 24.6297 59.5723 24.7421 60.0307C24.8719 60.0134 25.0276 59.9615 25.0016 59.7107C25.2265 59.8318 24.9324 60.1864 25.0968 60.4113C25.0968 60.3767 25.0881 60.2902 25.1314 60.2989L25.2871 60.6102C25.633 60.2297 26.1347 60.7227 26.498 60.221C26.3942 60.4892 26.2731 60.9562 26.0396 61.1984L25.9963 61.0687C25.9617 61.1465 25.7714 61.233 25.7801 61.4752C25.9963 61.6395 26.1866 61.5963 26.4202 61.3541C26.4634 61.4233 26.5153 61.4839 26.5499 61.5531C26.5499 61.5185 26.5499 61.4925 26.5499 61.4579C26.6277 61.6136 26.6191 61.6395 26.5931 61.7347C26.5931 61.752 26.5931 61.7693 26.5758 61.7866C26.7142 62.5132 27.4408 61.3282 27.8473 61.7001C27.9684 61.5963 27.856 61.579 28.003 61.4406C28.4182 61.726 28.695 61.9509 29.1275 62.1153C29.2659 61.8039 29.2745 61.6828 29.1102 61.3541L29.4388 61.4579C29.1448 62.2883 30.0443 62.2537 29.7156 63.084C29.8108 63.2743 30.0011 63.3176 30.1827 63.1792C30.2 62.9716 30.226 62.6342 30.4595 62.6342C30.7795 62.911 30.7017 62.8072 30.9698 63.0754C31.0304 63.3435 30.9352 63.456 30.9439 63.6722C31.3504 63.3262 31.2985 64.2604 31.6791 64.2085C31.9213 64.1306 32.397 64.096 32.4056 63.6203C32.7257 63.6376 32.7257 63.9922 32.6997 64.3815L32.6824 64.3988Z" fill="#565656"/>
<path d="M45.3973 43.0604L45.3454 43.3285C45.3108 42.4549 45.4751 41.5294 45.6741 40.6212C44.048 42.6019 42.6208 44.9373 46.0719 46.4683C44.2382 46.6326 43.3819 48.5528 43.8317 48.5961C44.169 48.9939 44.4458 49.4005 44.6707 49.807C44.541 49.5302 44.3939 49.2448 44.2209 48.968C44.3939 49.2448 44.541 49.5216 44.6707 49.807C46.0979 52.3846 45.4751 55.187 44.7659 58.0846C44.4112 59.6935 44.0134 64.0615 43.4771 65.7135C43.4079 65.9557 43.3473 66.1893 43.2954 66.4315C43.405 66.1662 43.5146 65.901 43.6241 65.6357C44.1171 66.639 44.5929 67.5559 44.9043 68.4382C45.1724 68.2825 45.4232 68.2565 45.7865 67.8846L45.6135 68.3344C46.3747 68.7409 46.3401 69.6923 46.6601 70.1335C46.2622 70.0383 46.1844 70.3843 46.1238 70.6957L46.392 70.5746C46.2276 71.7509 46.5477 73.1089 46.5044 74.1555C46.5044 74.3026 46.3574 74.415 46.219 74.4755L46.5304 75.4789C45.9941 75.4011 46.0633 76.3093 45.726 75.8335C46.3574 76.586 45.9682 77.3472 46.6255 78.0651C46.7034 80.6254 47.1099 83.35 48.0095 86.0054L48.2084 85.9449C48.563 86.8704 49.6183 87.6921 49.2636 88.8165C49.9729 89.6209 50.3535 90.7627 51.4693 91.0827C51.625 92.0082 52.1785 92.3801 52.4726 93.297C53.0262 93.0634 53.1386 94.1792 53.5711 93.7295C54.3409 93.124 53.6836 93.0894 54.3063 92.5791L54.1247 92.5964C54.955 90.2004 55.4308 87.8045 55.6816 85.3826C55.2145 83.7652 55.5951 82.0093 55.4567 80.3226C55.2578 78.5149 54.8945 76.5514 54.4361 74.9945C54.2804 74.6226 54.7388 74.3545 54.9983 74.0431C54.7475 72.6159 54.9377 70.7908 54.635 69.182C54.635 69.2166 54.6264 69.2426 54.6177 69.2599C54.5226 68.4036 55.0934 67.7635 54.9983 66.9245C54.8426 66.9245 54.834 66.7947 54.7475 66.7342C55.4827 66.5872 53.2251 61.8126 53.6403 61.5099C53.6057 61.4234 53.5711 61.3369 53.5538 61.2417C53.8825 59.4772 55.3097 57.6522 55.1799 56.1298C54.834 55.8011 54.5312 55.4292 54.142 55.1524C54.4534 54.8843 53.8479 54.8324 53.9344 54.5124C55.4048 53.6907 54.7907 53.2149 54.2717 53.6388C54.0728 52.9641 54.2025 52.2894 54.1506 51.684C54.0468 51.4072 53.9344 51.1304 53.8047 50.845C53.6836 50.6028 53.8998 50.473 54.2458 50.3519C54.0382 49.7465 54.4015 49.9195 54.5485 49.2794C55.0588 49.1237 53.7355 47.6792 53.8911 47.4976L53.969 47.6014C54.0555 46.8662 55.0502 46.3731 55.0934 45.6466C55.474 43.6399 55.0934 41.4515 55.2664 39.5919C54.7302 39.5746 55.3875 39.9984 54.6696 40.0244C54.7648 38.9259 55.4308 37.8187 55.5173 36.7202C55.6643 36.5213 55.9324 36.2791 56.1054 36.184C56.3044 35.8293 55.8459 35.9764 55.9151 35.7169L56.3995 35.6823C56.0016 35.3017 56.9358 35.1287 56.7369 34.7741C56.5379 34.7568 56.512 34.627 56.5293 34.4973C57.0482 34.4973 56.4947 34.1081 56.9617 34.1254H56.9271C56.9271 34.0475 56.9012 33.987 56.9877 33.9005C56.806 33.7534 55.3962 32.3954 55.1799 32.2484L55.2664 32.1792C55.2491 31.9803 54.8685 31.8851 54.7734 32.0062L54.7994 31.7554L54.834 31.7813L54.8599 31.5305C54.9031 31.4872 55.1453 31.4353 55.3702 31.5045C55.1886 31.3662 55.0934 31.2018 55.1886 31.0634C54.8685 31.4526 54.4188 31.9457 53.8998 32.3522C53.7268 32.1792 53.9949 31.8765 53.943 31.6948C54.2804 31.4786 54.5745 31.0288 54.808 30.6742C54.7821 30.5963 54.2025 30.5444 54.4534 30.3715C54.8513 30.285 54.4361 30.1725 54.7302 30.0341C54.9377 30.1985 54.8426 30.3628 54.8253 30.5358C55.2924 30.5098 55.1453 30.1293 55.2751 29.9909C55.128 29.9303 55.2751 29.6016 55.154 29.4027C55.6038 29.4892 55.4394 29.2384 55.6816 29.1173C55.7335 28.9789 55.5519 28.8924 55.3962 28.9443C54.9031 28.901 55.1021 29.4892 54.5918 29.2989C54.8253 29.247 54.7475 28.9789 54.7215 28.8318C54.4534 28.8318 54.5226 28.927 54.2631 28.8318C54.3236 28.6675 54.0036 28.4945 54.2804 28.408C54.3496 28.4426 54.3063 28.5031 54.2977 28.555C54.3236 28.3475 56.0362 29.6968 55.8805 29.42C55.647 29.4892 54.2977 28.2177 54.2804 28.3648C54.1506 28.4945 53.796 28.2696 53.7095 28.408L54.0295 28.555C53.9257 28.7367 53.4587 28.8145 53.277 28.7453C53.3203 28.4426 55.1021 29.6103 54.8253 29.3508L54.6956 29.4546C54.5226 29.3422 54.3669 29.0481 54.6523 28.9356C54.3928 28.9356 54.2977 28.7886 54.2025 28.6588L54.2458 28.6156C54.116 28.4858 54.1766 28.3129 53.8306 28.3907C53.8738 29.1346 51.1492 27.8977 50.9935 28.6242C51.5731 28.3215 51.5904 28.728 51.6596 29.0481C51.4606 29.0827 51.1665 29.2211 51.0195 29.4459C51.0627 29.6449 51.2357 29.5584 51.3828 29.6016C51.253 29.7141 51.1406 29.9217 50.8379 29.8957C51.2011 30.0514 50.6043 30.1466 50.7341 30.3282C50.9071 30.4925 50.8898 30.3196 51.0714 30.432C51.0368 30.6742 50.9849 31.0202 50.9071 31.2191C50.6216 31.297 50.1113 31.5218 49.6615 31.3575C49.7221 30.9856 50.3881 31.4959 50.2929 31.1153C49.6356 31.2797 50.1113 30.7693 49.6183 30.7001C49.3242 30.8212 49.3155 31.0721 49.402 31.2797L49.4885 31.2364C49.575 31.418 49.7134 31.79 49.3588 31.9889C49.1252 31.9457 48.9523 32.0322 48.9004 31.8938L48.8571 32.1446C48.9263 32.1792 49.0041 32.2138 49.056 32.1446C49.2377 32.2657 49.1339 32.3868 48.9955 32.4733C48.7533 32.4992 50.0248 33.8226 49.8691 33.7794C49.8691 33.961 49.5058 34.0043 49.7567 34.1859C49.9556 34.2032 48.9177 32.4387 49.0042 32.6809C48.736 32.8366 50.2237 34.7481 49.7653 34.8606C49.7826 34.999 49.8345 35.1547 50.0853 35.1287C49.9643 35.3536 49.6096 35.0595 49.3847 35.2239C49.4193 35.2239 49.5058 35.2066 49.4972 35.2585L49.1858 35.4141C49.5664 35.7688 49.0733 36.2877 49.575 36.6597C49.3069 36.5559 48.8398 36.4261 48.5976 36.1926L48.7274 36.1494C48.6495 36.1148 48.563 35.9158 48.3208 35.9245C48.1565 36.1494 48.1997 36.3483 48.4419 36.5818C48.3727 36.6251 48.3122 36.677 48.243 36.7116C48.2776 36.7116 48.3035 36.7116 48.3381 36.7116C48.1824 36.7894 48.1565 36.7808 48.0613 36.7548C48.044 36.7548 48.0267 36.7548 48.0095 36.7375C47.2829 36.8759 48.4679 37.6284 48.0959 38.0436C48.1997 38.1647 48.217 38.0523 48.3554 38.208C48.07 38.6318 47.8451 38.9259 47.6808 39.367C47.9922 39.5054 48.1132 39.5227 48.4419 39.3497L48.3381 39.687C47.5078 39.3843 47.5424 40.3098 46.712 39.9725C46.5217 40.0676 46.4785 40.2665 46.6169 40.4568C46.8245 40.4741 47.1618 40.5087 47.1618 40.7423C46.885 41.071 46.9888 40.9931 46.7207 41.2612C46.4525 41.3218 46.3401 41.2266 46.1238 41.2353C46.4698 41.6505 45.5357 41.5986 45.5876 41.9965C45.6654 42.2473 45.7 42.7317 46.1757 42.749C46.1584 43.0863 45.8038 43.0863 45.4146 43.0517L45.3973 43.0604Z" fill="#565656"/>
<path d="M53.8652 135.974L53.3462 136C53.7528 135.922 54.1766 135.87 54.6004 135.818C55.0242 135.749 55.4394 135.645 55.8633 135.576C56.7282 135.472 57.5586 135.178 58.4322 134.988C56.339 134.971 54.2977 134.642 52.4986 134.728C51.5817 134.685 50.7254 134.893 49.8691 135.126C49.4453 135.256 49.0128 135.49 48.589 135.723C48.1651 135.948 47.7327 136.233 47.2829 136.605C47.2829 136.138 47.058 135.714 46.7553 135.317C46.4612 134.893 46.0719 134.521 45.6914 134.227C45.3021 133.959 44.9389 133.664 44.6448 133.509C44.3507 133.353 44.1344 133.31 44.0739 133.405C43.8836 133.422 43.676 133.448 43.4857 133.448L42.9149 133.414C42.5343 133.379 42.145 133.336 41.7472 133.275C39.3166 132.791 37.0505 131.269 35.3984 129.175C33.7204 127.091 32.7084 124.461 32.3105 121.806C32.0251 120.353 31.7396 117.585 32.1808 114.912C32.5613 112.231 33.7117 109.792 34.594 108.659C34.8448 108.321 35.0265 107.967 35.3119 107.655C34.8016 108.148 34.8621 108.183 34.395 108.728C34.6545 106.92 35.2427 105.294 36.0471 103.824C35.6492 103.867 35.4157 103.728 34.7064 104.083C34.9313 103.893 35.1303 103.668 35.3811 103.503C35.3551 102.967 35.6752 102.344 36.0471 101.748C36.4709 101.203 36.938 100.675 37.1629 100.243C37.2235 100.467 37.3878 100.459 37.6127 100.381C37.8462 100.303 38.1317 100.139 38.3911 99.9831L38.0365 99.9226C39.9654 98.6165 42.2575 97.0596 44.3074 96.4887C44.5756 96.3762 44.8437 96.4887 45.0081 96.5838C45.6308 96.3416 46.2363 96.0043 46.885 95.8227C46.8418 96.3762 48.589 96.0389 47.7067 96.5146C48.044 96.307 48.3987 96.134 48.762 96.0476C49.1252 95.9697 49.4972 95.9178 49.8691 95.8659C50.613 95.7275 51.3395 95.7189 52.0834 95.4334C57.2645 95.6583 62.705 97.6304 67.2288 101.263L67.2807 101.021C67.6785 101.341 68.1283 101.601 68.5521 101.895C68.9587 102.206 69.3825 102.509 69.7977 102.846C70.2388 103.175 70.5934 103.581 70.9394 104.04C71.2681 104.507 71.6314 105 71.8044 105.631C72.159 105.96 72.5223 106.358 72.8942 106.764C73.2575 107.18 73.5516 107.638 73.8889 108.053C74.5722 108.884 75.1258 109.645 75.7659 109.895C75.9389 110.449 76.1465 110.907 76.3022 111.331C76.4492 111.764 76.6049 112.144 76.7606 112.534C76.9163 112.923 77.0893 113.312 77.2363 113.753C77.3574 114.194 77.4698 114.687 77.5736 115.276C77.8331 114.955 78.0321 115.526 78.2051 116.037C78.3867 116.573 78.4991 116.919 78.724 116.4C79.4073 114.748 78.7759 114.687 79.2776 113.234L79.096 113.295C79.2257 106.661 76.5011 99.8015 71.6227 94.7501C70.6713 94.0495 69.7804 93.2624 68.777 92.605C68.284 92.259 67.7996 91.8958 67.298 91.5584C66.779 91.2384 66.26 90.9184 65.741 90.5983L64.9539 90.1226L64.1322 89.7074L62.4802 88.8944C61.9179 88.6522 61.3384 88.4532 60.7589 88.2457C60.1794 88.0467 59.6172 87.8218 59.0203 87.7094C58.3803 87.571 57.7402 87.4412 57.0915 87.3028C56.4428 87.1645 55.7768 87.1385 55.1194 87.0607C53.8047 86.879 52.4813 86.9396 51.1925 86.9569C50.5524 86.9482 49.9124 87.078 49.2896 87.1385C48.6668 87.225 48.0527 87.2769 47.4559 87.4066C46.8677 87.5537 46.2882 87.6921 45.726 87.8305C45.4492 87.8997 45.1724 87.9775 44.9043 88.0467C44.6361 88.1419 44.3766 88.237 44.1258 88.3321C43.1743 88.756 42.318 88.4359 41.4012 88.5138C40.4757 88.9376 39.4464 89.2663 38.469 89.8112C37.9673 90.0621 37.457 90.3215 36.9467 90.581C36.4363 90.8492 35.952 91.1779 35.4503 91.4806C33.4349 92.6915 31.6012 94.2917 30.0876 95.9611C30.1481 95.9005 30.2087 95.8486 30.2519 95.814C29.4734 96.7222 28.6604 97.3882 27.9165 98.1407C27.5532 98.5213 27.1986 98.9019 26.844 99.3171C26.671 99.5247 26.4894 99.7323 26.325 99.9572C26.1693 100.191 26.0223 100.442 25.8752 100.692C26.0136 100.77 25.832 101.082 25.806 101.281C25.3736 101.246 23.8599 104.472 23.2631 107.915C22.6057 111.366 22.9257 114.808 22.7095 115.189C22.7354 115.423 22.7527 115.665 22.7614 115.916C22.6662 116.504 22.6835 117.101 22.6316 117.706C22.5971 118.312 22.5192 118.917 22.5106 119.531C22.5106 120.145 22.5106 120.759 22.5106 121.365C22.5106 121.676 22.5106 121.979 22.5106 122.29L22.5884 123.199C22.6489 123.804 22.7095 124.409 22.7787 125.015C22.8825 125.603 23.0295 126.183 23.1679 126.753C23.4188 127.904 23.8945 128.95 24.3875 129.902C24.5605 130.075 24.7421 130.248 24.9238 130.43C25.1227 130.594 25.313 130.758 25.512 130.923C25.9012 131.243 26.2818 131.537 26.645 131.753C26.7575 132.557 27.3543 132.332 27.8127 133.085C27.8819 134.426 28.2885 135.299 28.6604 135.611C29.0064 135.939 29.2399 135.775 29.0496 135.178C30.4076 136.45 31.6791 137.808 33.0025 138.802C33.6771 139.174 34.3431 139.546 35.0351 139.875C35.6492 140.108 35.8395 140.48 35.9433 140.947C37.4829 141.639 36.8688 141.7 38.4084 142.617C38.4949 142.945 39.5934 143.265 40.7438 143.387C41.306 143.456 41.8769 143.525 42.3267 143.577C42.7851 143.603 43.1311 143.637 43.2349 143.698H42.9408C44.8351 144.329 46.0201 145.523 48.07 145.8C50.8898 146.241 53.9171 146.051 56.7974 145.471C59.6777 144.814 62.3677 143.741 64.755 142.591C64.5561 142.089 63.7603 143.214 63.3884 142.591C66.1562 141.345 69.1922 140.134 71.5362 137.937C72.0725 137.669 72.7212 137.306 73.0326 137.237C73.8803 136.605 73.2575 136.614 73.8111 136.095L74.2522 136.337C74.6674 135.247 75.6794 135.377 76.1724 134.4C76.0427 134.235 76.2589 133.924 76.4838 133.613C76.9249 133.881 77.0633 132.601 77.4352 132.903L77.4093 132.877C77.539 132.687 77.5909 132.531 77.8158 132.332C77.8418 132.22 77.9023 131.865 77.9888 131.398C78.0753 130.931 78.1186 130.326 78.1878 129.746C78.2483 129.158 78.3002 128.587 78.3261 128.129C78.3261 127.662 78.3261 127.307 78.3088 127.195L78.4559 127.039C78.6462 126.485 78.3694 126.131 78.1618 126.408L78.4299 125.759V125.845L78.6981 125.197C78.7846 125.093 79.0441 125.015 79.2084 125.274C79.1392 124.833 79.1652 124.366 79.3468 124.003C78.8019 125.024 77.8677 126.157 77.0028 127.013C77.0028 126.52 77.539 125.837 77.6601 125.344C78.2224 124.902 78.7586 123.761 79.243 122.861C79.2603 122.645 78.7673 122.385 79.0787 121.962C79.5025 121.797 79.1479 121.417 79.4938 121.071C79.6236 121.564 79.4765 122.014 79.3554 122.463C79.8571 122.489 79.8571 121.373 80.0474 121.027C79.9263 120.829 80.229 119.929 80.1598 119.341C80.5923 119.644 80.4712 118.9 80.7307 118.571C80.8086 118.173 80.6356 117.914 80.4712 118.061C79.9869 117.914 80.0993 119.592 79.6149 119.012C79.8571 118.891 79.8225 118.13 79.8139 117.723C79.5457 117.706 79.5976 117.991 79.3554 117.723C79.4333 117.274 79.1392 116.806 79.4246 116.547C79.4938 116.633 79.4419 116.815 79.4246 116.945C79.4506 116.651 79.8571 117.447 80.2204 118.26C80.601 119.073 80.9124 119.903 80.8778 119.497C80.7567 119.583 80.4107 118.675 80.082 117.844C79.7533 117.005 79.4506 116.227 79.4333 116.426C79.2862 116.772 78.9576 116.175 78.8538 116.538L79.1565 116.945C79.0354 117.438 78.5597 117.62 78.378 117.447C78.4213 117.04 78.8451 117.628 79.2344 118.26C79.6149 118.891 79.9523 119.574 79.8398 119.194C79.7879 119.289 79.7533 119.384 79.6928 119.479C79.5544 119.151 79.4333 118.329 79.736 118.026C79.4765 118.009 79.3987 117.594 79.3208 117.256L79.3727 117.135C79.2517 116.781 79.3381 116.296 78.9835 116.521C78.9576 117.542 78.3002 117.17 77.6255 116.841C76.9422 116.504 76.2416 116.201 76.1205 117.083C76.7433 116.348 76.7087 117.351 76.7346 118.156C76.527 118.216 76.233 118.554 76.0427 119.09C76.0167 119.574 76.2157 119.401 76.3454 119.505C76.1724 119.756 75.9908 120.258 75.6967 120.145C75.9994 120.578 75.3766 120.699 75.4285 121.166C75.5323 121.59 75.5842 121.166 75.714 121.486C75.5496 122.065 75.2729 122.861 75.0912 123.302C74.7712 123.406 74.1484 123.787 73.8111 123.276C74.0879 122.455 74.4252 123.804 74.5636 122.887C73.8284 123.095 74.5895 122.057 74.1484 121.789C73.7851 121.996 73.6467 122.541 73.6035 123.034L73.7073 122.965C73.7073 123.406 73.5429 124.254 73.0499 124.565C72.8683 124.384 72.6434 124.513 72.6866 124.211L72.4531 124.729C72.4963 124.825 72.5396 124.92 72.6434 124.781C72.7212 125.101 72.5309 125.318 72.332 125.465C72.2282 125.456 72.1244 126.226 72.0379 127.022C71.9774 127.826 71.8217 128.604 71.7784 128.527C71.5622 128.899 71.1989 128.795 71.1903 129.279C71.2422 129.34 71.6487 128.388 71.8649 127.445C72.0725 126.494 72.2282 125.638 72.1417 125.897C72.0379 125.949 71.9341 126.269 71.8217 126.719C71.7006 127.169 71.6054 127.783 71.3979 128.336C71.2162 128.907 71.0173 129.487 70.8443 129.919C70.6453 130.334 70.4378 130.603 70.308 130.585C70.135 130.845 69.9447 131.182 70.1869 131.277C69.7717 131.632 69.9101 130.862 69.4949 131.026C69.5209 131.061 69.6074 131.078 69.5295 131.165L69.0711 131.26C68.9933 131.71 68.5954 132.038 68.2581 132.41C67.8948 132.765 67.592 133.171 67.4364 133.63C67.4364 133.275 67.2893 132.739 67.471 132.177L67.6266 132.194C67.6266 132.082 67.8515 131.71 67.6612 131.554C67.2028 131.805 66.9693 132.159 66.7703 132.704C66.6492 132.722 66.5195 132.748 66.4157 132.748C66.4417 132.774 66.4676 132.782 66.4849 132.808C66.2514 132.808 66.2514 132.782 66.2254 132.67C66.2254 132.652 66.2081 132.627 66.2168 132.609C65.4989 132.272 65.1183 134.279 64.1149 134.486C63.9679 134.728 64.1668 134.599 63.9852 134.91C63.0943 135.265 62.3937 135.334 61.5201 135.697C61.4163 136.13 61.4509 136.251 61.9266 136.337C61.7017 136.441 61.4768 136.536 61.2346 136.605C61.4249 135.593 59.6777 136.476 59.9458 135.42C59.6864 135.334 59.3058 135.472 59.0203 135.766C59.0722 135.974 59.1587 136.329 58.6917 136.484C57.9564 136.458 58.1381 136.493 57.5326 136.432C57.325 136.216 57.4807 136.052 57.3856 135.853C56.7196 136.484 56.5206 135.524 55.8113 135.766C55.3702 135.965 54.4707 136.233 54.5226 136.675C53.8652 136.752 53.8133 136.406 53.8133 136.009L53.8652 135.974Z" fill="#565656"/>
</svg>
