<svg width="83" height="125" viewBox="0 0 83 125" fill="none" xmlns="http://www.w3.org/2000/svg">
<path d="M45.6214 73.9693L44.7847 74.0469C45.4575 73.9348 46.1303 73.8313 46.8204 73.745C47.5018 73.6242 48.1746 73.4431 48.8646 73.3051C50.262 73.0895 51.5903 72.5719 52.9704 72.2097C49.7876 72.6409 46.4926 72.6237 43.4823 72.8393C41.9642 72.8221 40.5064 73.0895 39.1005 73.262C38.4018 73.3741 37.7031 73.607 37.0217 73.8054C36.3402 73.9865 35.6761 74.2453 35.0033 74.5731C34.9516 74.0987 34.5461 73.6588 34.0114 73.2188C33.4766 72.7358 32.7951 72.2873 32.1224 71.9164C31.4323 71.58 30.8026 71.1832 30.2937 70.9503C29.7935 70.7174 29.4312 70.6226 29.3622 70.7174C29.0603 70.6916 28.7412 70.6743 28.4393 70.6312L27.5422 70.4328C26.9384 70.2948 26.3346 70.1395 25.7222 69.9756C26.5502 70.2258 27.3697 70.45 28.1805 70.6571C27.3697 70.45 26.5502 70.2172 25.7222 69.9756C21.9356 68.7594 18.3905 66.2321 15.682 62.8768C12.9477 59.5387 11.1019 55.3725 10.222 51.0598C9.65276 48.6964 9.04898 44.1593 9.63551 39.6913C9.66139 39.1306 9.78215 38.5786 9.90291 38.0438C10.015 37.5004 10.1185 36.9656 10.2307 36.4308C10.3083 35.896 10.5153 35.3957 10.662 34.8954C10.8172 34.4038 10.9725 33.9208 11.1191 33.4464C11.835 31.6177 12.5423 30.0565 13.2324 29.0646C13.6119 28.478 13.8965 27.8484 14.3451 27.2963C13.9569 27.7449 13.8017 27.9864 13.6464 28.2365C13.4825 28.478 13.3186 28.7282 12.9995 29.2198C13.2324 28.5212 13.3618 27.7707 13.655 27.1152C13.9311 26.4424 14.1984 25.7868 14.4572 25.1313C14.7073 24.4671 15.0955 23.8978 15.406 23.2768C15.7424 22.6816 16.0357 22.052 16.4583 21.5258C16.1996 21.6121 16.0012 21.6379 15.7424 21.7069C15.4923 21.7932 15.199 21.9485 14.7074 22.2935C15.0437 21.9657 15.3284 21.5862 15.7079 21.2929C15.8459 20.577 16.4411 19.6627 17.0794 18.757C17.8039 17.9376 18.5802 17.1354 19.0029 16.523C19.0201 16.7817 19.2358 16.7214 19.5722 16.5575C19.9172 16.4022 20.3571 16.1176 20.7625 15.8502L20.2881 15.8761C23.3157 13.7024 27.0592 11.3994 30.3024 10.4592C30.7337 10.2781 31.1304 10.3816 31.3719 10.4506L32.8814 9.90717C33.3817 9.71741 33.8906 9.52765 34.4168 9.41551C34.2788 9.97617 37.0993 9.48452 35.6589 10.0366C36.2195 9.80366 36.7888 9.5794 37.3753 9.47589C37.9619 9.38964 38.557 9.32926 39.1522 9.26025C39.7474 9.21712 40.3339 9.08774 40.9204 9.07912C41.507 9.04461 42.0935 8.97561 42.68 8.84622C46.7944 9.07049 50.9951 9.9848 55.006 11.6495C59.0083 13.3056 62.8035 15.6863 66.133 18.6535V18.3602C66.7109 18.8864 67.3492 19.3435 67.9444 19.8438C68.5137 20.37 69.0916 20.9048 69.6781 21.4482C70.2905 21.9916 70.7822 22.6471 71.2825 23.3544C71.7655 24.079 72.3003 24.8208 72.6108 25.761C73.0679 26.3044 73.551 26.9427 74.034 27.5896C74.517 28.2451 74.8793 28.9697 75.3106 29.6166C75.7074 30.2808 76.1731 30.8759 76.4923 31.4021C76.8373 31.9196 77.1823 32.325 77.5187 32.5407C77.7602 33.3601 78.0363 34.0415 78.226 34.6798C78.4072 35.3181 78.5883 35.896 78.7694 36.4739C78.9506 37.0518 79.1576 37.6297 79.3301 38.2853C79.4595 38.9408 79.5889 39.6654 79.701 40.5193C79.9512 40.0622 80.1582 40.8902 80.3479 41.632C80.5463 42.3997 80.6498 42.9431 80.8741 42.1582C81.521 39.7948 80.8999 39.6826 81.3485 37.6298L81.176 37.7074C80.9948 28.2451 76.9408 18.688 69.9973 11.6323C68.6862 10.6145 67.4527 9.47589 66.0295 8.5357C65.3394 8.04405 64.658 7.51789 63.9507 7.04348C63.2175 6.59495 62.4844 6.14642 61.7426 5.69789L60.6299 5.0251L59.4654 4.44718L57.1279 3.30861C56.3257 2.97221 55.5063 2.69619 54.6955 2.3943C53.8847 2.10966 53.0825 1.79051 52.2372 1.618C51.3401 1.41961 50.4345 1.2126 49.5202 1.00558C48.6145 0.798569 47.6656 0.746816 46.7427 0.617432C44.8882 0.332788 43.0078 0.384541 41.1878 0.375916H40.5064L39.825 0.44492C39.3764 0.488048 38.9279 0.531176 38.4794 0.58293C37.591 0.686437 36.7198 0.73819 35.8745 0.902076C35.0292 1.08321 34.2097 1.26435 33.4076 1.43686C33.0108 1.52312 32.614 1.618 32.2259 1.70425C31.8463 1.82501 31.4754 1.95439 31.1045 2.07515C30.4059 2.33392 29.7848 2.42018 29.1552 2.44605C28.8446 2.4633 28.5342 2.4633 28.2236 2.4633C27.9131 2.48056 27.6026 2.51506 27.2834 2.56681C26.6193 2.8342 25.9292 3.11022 25.2219 3.40349C24.8683 3.55013 24.506 3.67088 24.1523 3.84339C23.8073 4.01591 23.4537 4.18842 23.0914 4.36955C22.3755 4.7232 21.6509 5.08548 20.9177 5.44775C20.1932 5.82728 19.5032 6.29306 18.7872 6.72433C17.3295 7.55239 16.0098 8.61333 14.6815 9.63978C14.0001 10.1314 13.4221 10.7439 12.8184 11.3045C12.2318 11.8824 11.628 12.4345 11.0932 13.0296C11.1709 12.9434 11.2657 12.8657 11.3261 12.8226C10.7482 13.4523 10.2134 14.0388 9.66139 14.5822C9.12661 15.1429 8.54006 15.6087 8.06565 16.1866C7.574 16.7472 7.08235 17.2993 6.59069 17.8944C6.34917 18.1877 6.09903 18.4982 5.85751 18.8088C5.64187 19.1452 5.43487 19.4902 5.21923 19.8611C5.35724 19.9301 5.09845 20.3786 5.03807 20.6374C4.56367 20.6633 2.26929 25.1572 1.23422 30.022C0.121521 34.8954 0.371662 39.8551 0.156023 40.4072C0.173274 40.7436 0.190506 41.0972 0.190506 41.4509C0.0697483 42.3048 0.121498 43.1674 0.0783697 44.0299C0.0611185 44.8925 -0.00788285 45.7723 0.000742714 46.6435C0.035245 47.5147 0.078377 48.3945 0.112879 49.257C0.138756 49.6969 0.138771 50.1368 0.181899 50.5681C0.242278 50.9994 0.302649 51.4307 0.363028 51.8533C0.492412 52.7159 0.621797 53.5698 0.742555 54.4065C0.923692 55.2345 1.15657 56.0453 1.38084 56.8475C1.78624 58.4691 2.47629 59.9268 3.16634 61.2897C3.38198 61.5485 3.60624 61.8158 3.83913 62.0832C4.08927 62.3334 4.3394 62.5835 4.58092 62.8337C5.07258 63.3253 5.55563 63.7825 6.00416 64.1447C6.28018 65.2316 6.90982 65.0504 7.59987 66.1028C7.781 66.9653 8.03977 67.6899 8.29854 68.2678C8.54868 68.8543 8.88509 69.2166 9.11798 69.4667C9.60101 69.9498 9.84254 69.7945 9.48026 69.0096C11.3606 70.8899 13.2237 72.7962 15.0955 74.2367C16.0357 74.806 16.9672 75.3752 17.9247 75.9014C18.7872 76.2809 19.1064 76.7295 19.3306 77.2815C21.487 78.3511 20.6935 78.2993 22.9102 79.5414C22.9965 79.7225 23.4192 79.9468 24.0143 80.1711C24.6095 80.4126 25.4203 80.542 26.2052 80.7145C26.9902 80.8697 27.7837 81.0164 28.422 81.1371C29.0689 81.2061 29.552 81.2751 29.7158 81.3614L29.3018 81.3355C30.0005 81.5425 30.6215 81.784 31.208 82.0428C31.7946 82.3102 32.3553 82.5862 32.9418 82.7932C34.089 83.2245 35.2621 83.7248 36.7025 83.8714C40.7134 84.4148 44.9831 84.1388 49.0802 83.3366C53.1601 82.4137 56.9813 80.9129 60.3452 79.2481C60.1641 78.7392 58.9048 80.0762 58.5166 79.481L60.0175 78.8168C60.5264 78.6012 60.9922 78.3166 61.4925 78.075L62.976 77.3246C63.4763 77.0745 63.9766 76.833 64.4424 76.5224C65.3912 75.9359 66.34 75.3494 67.2802 74.7283C68.1686 74.0469 69.0312 73.331 69.8765 72.5892C70.601 72.1752 71.4291 71.58 71.8172 71.4334C72.9472 70.4932 72.2054 70.6226 72.9731 69.8894L73.4389 70.0964C74.1461 68.6646 75.2675 68.6128 76.0179 67.3103C75.8971 67.1292 76.2163 66.6893 76.5182 66.258C76.9581 66.5168 77.3376 64.8521 77.6912 65.1712L77.6654 65.1367C77.8379 64.8693 77.9327 64.6537 78.2088 64.3604C78.2519 64.2051 78.3899 63.748 78.5711 63.1269C78.7436 62.5059 78.8816 61.6951 79.0455 60.9188C79.1921 60.1425 79.3387 59.3576 79.4595 58.7365C79.5371 58.1069 79.563 57.6238 79.563 57.4686L79.7355 57.2357C80.0029 56.4594 79.7614 56.0022 79.5112 56.4162L79.8821 55.4847V55.6054L80.2444 54.6739C80.3566 54.5186 80.6239 54.3806 80.7706 54.7256C80.7447 54.1218 80.8137 53.4749 81.0466 52.9488C80.4083 54.4237 79.2611 56.1057 78.226 57.4168C78.2864 56.7354 78.9592 55.7089 79.149 55.0189C79.3042 54.8464 79.4768 54.6135 79.6493 54.3461C79.8045 54.0701 79.9598 53.7596 80.1237 53.4232C80.4428 52.759 80.7706 52.0172 81.0552 51.3703C81.0897 51.0598 80.6239 50.7492 80.9776 50.1196C81.4175 49.8608 81.0811 49.3433 81.452 48.8257C81.5469 49.5158 81.383 50.1541 81.2191 50.801C81.7367 50.7924 81.797 49.2311 82.0213 48.7222C81.9092 48.4548 82.2714 47.1696 82.2369 46.3416C82.6596 46.747 82.5561 45.7033 82.8235 45.2289C82.9097 44.6682 82.7458 44.3059 82.5733 44.5216C82.0989 44.3146 82.1679 46.7039 81.6935 45.893C81.9437 45.7119 81.9178 44.6251 81.9264 44.0472C81.659 44.0299 81.7021 44.4267 81.4693 44.0472C81.5555 43.4089 81.2709 42.7275 81.5641 42.3652C81.6331 42.4859 81.5727 42.7447 81.5641 42.9345C81.5986 42.5205 81.9782 43.6504 82.3318 44.789C82.6941 45.9275 82.9873 47.0834 82.9615 46.5141C82.8321 46.6435 82.5129 45.3841 82.2024 44.2024C81.8919 43.0121 81.6073 41.908 81.5814 42.1841C81.4261 42.6843 81.1156 41.8304 81.0035 42.3393L81.2967 42.9172C81.1673 43.6245 80.6843 43.8919 80.5118 43.6418C80.5636 43.0552 80.9776 43.9005 81.3485 44.7976C81.7194 45.6947 82.0385 46.6435 81.935 46.1087C81.8833 46.2467 81.8488 46.3847 81.7798 46.5141C81.6504 46.0569 81.5469 44.8839 81.8574 44.4526C81.5986 44.4353 81.5296 43.8402 81.4606 43.3571L81.5124 43.1846C81.4002 42.6843 81.4951 41.9857 81.1328 42.3048C81.0811 43.7625 80.4428 43.2536 79.77 42.7706C79.0972 42.2876 78.4072 41.8304 78.2605 43.1415C78.8988 42.046 78.8385 43.5296 78.8471 44.7113C78.6401 44.8148 78.3382 45.3151 78.1312 46.1259C78.0708 46.8419 78.2778 46.5745 78.4072 46.7211C78.2174 47.1093 77.9932 47.8511 77.7085 47.7044C77.9845 48.3168 77.3462 48.5497 77.3635 49.2311C77.4411 49.8436 77.5274 49.2225 77.6309 49.671C77.398 50.5336 77.0185 51.7239 76.7769 52.3967C76.4319 52.5865 75.7419 53.2334 75.4658 52.5261C75.854 51.2754 76.0351 53.2162 76.2853 51.8619C75.509 52.2587 76.4147 50.6371 75.992 50.2921C75.5953 50.6457 75.3796 51.4738 75.2761 52.207L75.3969 52.0862C75.3624 52.7418 75.0346 54.0011 74.4653 54.5272C74.3014 54.2943 74.0426 54.5272 74.1461 54.0615L73.8097 54.8636C73.8442 54.993 73.8701 55.131 74.0081 54.9068C74.034 55.3553 73.8011 55.7089 73.5683 55.9591C73.4647 55.9677 73.1801 57.0977 72.9299 58.2449C72.7919 58.8142 72.697 59.4007 72.559 59.8061C72.421 60.2029 72.3348 60.4616 72.3175 60.4099C71.9898 60.9619 71.593 60.9102 71.4808 61.5657C71.5153 61.6088 71.6879 61.2724 71.9207 60.7549C72.1364 60.2374 72.4814 59.5818 72.6539 58.8659C73.0765 57.4772 73.4216 56.2092 73.275 56.5974C73.1542 56.6923 72.9731 57.1667 72.7574 57.8395C72.5332 58.5036 72.3175 59.4007 71.938 60.2115C71.593 61.0395 71.2479 61.8762 70.946 62.5145C70.6096 63.1269 70.2991 63.5151 70.1525 63.5323C69.8851 63.9205 69.5832 64.4121 69.842 64.4725C69.2641 65.0418 69.6091 63.9981 69.0829 64.3086C69.1088 64.3431 69.2123 64.3431 69.0916 64.4898L68.5223 64.7313C68.3239 65.361 67.7373 65.8699 67.2284 66.4392C66.685 66.9826 66.2193 67.6036 65.9001 68.1988C66.0036 67.7675 65.9519 67.1119 66.3228 66.3443L66.5125 66.327C66.5384 66.189 66.9265 65.637 66.7281 65.4903C66.0812 65.9389 65.7017 66.4736 65.3049 67.2155C65.1497 67.2672 64.9685 67.3362 64.8391 67.3707C64.865 67.388 64.8909 67.4052 64.9168 67.4311C64.6149 67.5001 64.6235 67.457 64.6235 67.3276C64.6235 67.3103 64.6235 67.2845 64.6235 67.25C64.1922 67.1464 63.7351 67.7244 63.2003 68.423C62.7 69.1562 61.9927 69.8463 61.3286 70.1309C61.0612 70.4587 61.3717 70.2517 61.0439 70.6743C60.7161 70.8296 60.4142 70.9762 60.1296 71.1142C59.8363 71.2436 59.5344 71.3385 59.2498 71.4506C58.6719 71.6662 58.094 71.9078 57.4298 72.2183C57.1797 72.7358 57.2055 72.8652 57.8524 72.848C57.516 73.0205 57.1796 73.1843 56.8174 73.3051C57.3349 72.1407 54.592 73.4949 55.2217 72.2787C54.8508 72.2442 54.2642 72.4857 53.7726 72.8738C53.7984 73.0895 53.8588 73.4604 53.1256 73.7191C52.0216 73.8226 52.2976 73.8313 51.3833 73.883C51.0986 73.7019 51.366 73.4862 51.2625 73.2965C50.1239 74.1073 49.9946 73.1067 48.8215 73.469C48.0969 73.745 46.6306 74.159 46.6651 74.5817C45.6128 74.7197 45.561 74.3747 45.6041 73.9779L45.6214 73.9693Z" fill="#565656"/>
<path d="M36.8664 86.1227L36.8406 86.3297C36.7457 85.6656 36.8147 84.9669 36.9096 84.2768C35.702 85.7691 34.9861 87.5373 37.591 88.6931C36.2626 88.8225 35.8659 90.2716 36.185 90.2975C36.4524 90.5994 36.6766 90.9013 36.8664 91.2118C36.7543 90.9962 36.6335 90.7891 36.4869 90.5821C36.6335 90.7891 36.7543 91.0048 36.8664 91.2118C38.0222 93.1612 37.7376 95.2831 37.6082 97.474C37.5392 98.6902 37.7376 101.994 37.6858 103.244C37.6858 103.426 37.6858 103.607 37.6858 103.788C37.7031 103.587 37.7232 103.385 37.7462 103.184C38.0567 103.943 38.3242 104.633 38.5226 105.297C38.6088 105.177 38.7123 105.159 38.8244 104.883L38.7899 105.22C39.1091 105.53 39.1522 106.246 39.2902 106.583C39.1436 106.514 39.1349 106.772 39.1349 107.005L39.2212 106.91C39.2298 107.799 39.4196 108.825 39.4627 109.619C39.4627 109.731 39.4368 109.809 39.3937 109.86L39.5404 110.619C39.3851 110.559 39.4627 111.249 39.3419 110.887C39.5576 111.456 39.5059 112.034 39.7042 112.577C39.8595 114.518 40.101 116.58 40.2908 118.581L40.308 118.529C40.3856 119.228 40.4891 119.849 40.4719 120.703C40.5323 121.315 40.5582 122.178 40.5927 122.419C40.584 123.118 40.5927 123.402 40.5582 124.092C40.5668 123.911 40.5323 124.765 40.5409 124.42C40.5927 123.765 40.5668 124.084 40.6099 123.549C40.7738 121.755 41.0067 119.935 41.2482 118.106C41.3172 116.882 41.5156 115.553 41.6277 114.285C41.7312 112.914 41.8002 111.43 41.7657 110.257C41.7398 109.972 41.8951 109.774 41.9986 109.533C42.0245 108.454 42.2229 107.074 42.2229 105.858C42.2229 105.884 42.2143 105.901 42.2143 105.918C42.2315 105.271 42.4989 104.788 42.5248 104.15C42.4644 104.15 42.4644 104.055 42.4385 104.004C42.5938 103.952 42.5334 103.02 42.4213 102.071C42.3091 101.123 42.1539 100.165 42.2574 100.053C42.2488 99.984 42.2315 99.915 42.2315 99.846C42.4731 98.509 43.3701 97.1289 43.4305 95.9817C43.258 95.7316 43.1113 95.4556 42.8957 95.2399C43.0941 95.0416 42.7404 94.9984 42.8094 94.7569C43.741 94.1359 43.4132 93.7736 43.0682 94.0927C42.9906 93.5838 43.1113 93.0663 43.1113 92.6178C43.0596 92.4108 42.9992 92.1951 42.9388 91.9881C42.8698 91.807 43.0251 91.7035 43.258 91.6172C43.1545 91.16 43.3874 91.2894 43.534 90.8064C43.8963 90.6856 43.0768 89.5988 43.189 89.4608L43.2321 89.5384C43.3356 88.9778 44.086 88.6069 44.1723 88.0635C44.6122 86.5454 44.4914 84.8893 44.7675 83.4833C44.3275 83.466 44.8364 83.7938 44.2499 83.8111C44.3965 82.983 45.0434 82.1463 45.2159 81.3096C45.354 81.163 45.6127 80.9732 45.7766 80.9042C45.9836 80.6369 45.5696 80.749 45.6559 80.5506L46.0871 80.5247C45.768 80.2401 46.6219 80.1107 46.4753 79.8347C46.3028 79.8174 46.2942 79.7225 46.32 79.6277C46.7858 79.6277 46.32 79.3344 46.7513 79.343H46.7168C46.7341 79.2826 46.7082 79.2395 46.7944 79.1705C46.6564 79.0584 45.4747 78.0319 45.2677 77.9198L45.354 77.868C45.354 77.7128 45.0003 77.6524 44.9054 77.7387L44.9486 77.5489L44.9831 77.5748L45.0262 77.385C45.0693 77.3505 45.3022 77.3074 45.5179 77.3678C45.3626 77.2643 45.2763 77.1435 45.3798 77.0314C45.0434 77.3246 44.5863 77.6955 44.0774 78.0061C43.9222 77.8767 44.1981 77.6438 44.155 77.5058C44.4914 77.3419 44.7933 76.9969 45.0435 76.7381C45.0176 76.6777 44.4742 76.6432 44.7243 76.5052C45.1125 76.4448 44.7243 76.3586 45.0089 76.2464C45.1987 76.3758 45.0952 76.4966 45.0693 76.626C45.5265 76.6001 45.4057 76.3154 45.5437 76.2119C45.4057 76.1688 45.5783 75.9187 45.4661 75.7634C45.8974 75.8324 45.7594 75.6426 46.0095 75.5478C46.0785 75.4443 45.906 75.3753 45.7421 75.4184C45.2591 75.3839 45.4144 75.8324 44.9227 75.6858C45.1556 75.6513 45.0952 75.4443 45.0866 75.3321C44.8192 75.3321 44.8796 75.4098 44.6294 75.3321C44.6984 75.2114 44.3879 75.082 44.6726 75.013C44.7416 75.0389 44.6898 75.082 44.6812 75.1251C44.7329 74.9699 46.3201 75.9877 46.1821 75.7807C45.9492 75.8324 44.7157 74.875 44.6812 74.9785C44.5432 75.0734 44.2068 74.9095 44.1033 75.013L44.4138 75.1251C44.3016 75.2631 43.8359 75.3149 43.6547 75.2717C43.7151 75.0389 45.4057 75.9273 45.147 75.7289L45.0176 75.8065C44.8537 75.7203 44.7243 75.5046 45.0176 75.4184C44.7588 75.4184 44.6726 75.3063 44.5863 75.2114L44.6294 75.1769C44.5087 75.082 44.5777 74.944 44.224 75.0044C44.2327 75.565 41.5673 74.6335 41.3948 75.1769C41.9814 74.944 41.99 75.2545 42.0417 75.496C41.8434 75.5219 41.5587 75.6254 41.4035 75.7979C41.4466 75.9445 41.6105 75.8842 41.7571 75.9187C41.6278 76.0049 41.5156 76.1602 41.2224 76.1429C41.576 76.2637 40.9895 76.3327 41.1102 76.4707C41.2741 76.5915 41.2655 76.4707 41.4294 76.5483C41.3862 76.7295 41.3345 76.9969 41.2655 77.1435C40.9895 77.2039 40.5064 77.3764 40.0838 77.247C40.1442 76.9624 40.7738 77.3505 40.6875 77.0659C40.0579 77.1953 40.515 76.8071 40.0406 76.7553C39.756 76.8502 39.756 77.04 39.8422 77.1952L39.9285 77.1607C40.0148 77.2988 40.1442 77.5748 39.8164 77.73C39.6007 77.6955 39.4369 77.7645 39.3851 77.661L39.3506 77.8508C39.4196 77.8767 39.4886 77.9025 39.5404 77.8508C39.7129 77.937 39.618 78.0319 39.4886 78.1009C39.2643 78.1182 40.4546 79.1188 40.308 79.0929C40.308 79.2309 39.9802 79.2654 40.2045 79.3948C40.3943 79.412 39.4196 78.0751 39.4886 78.2562C39.2557 78.377 40.6358 79.8174 40.2045 79.9037C40.2217 80.0072 40.2649 80.1279 40.4892 80.1021C40.3856 80.2746 40.0665 80.0503 39.8595 80.1711C39.894 80.1711 39.9716 80.1624 39.963 80.1969L39.687 80.3177C40.032 80.5851 39.6007 80.9819 40.0492 81.2579C39.8164 81.1803 39.4023 81.0854 39.1867 80.9042L39.2988 80.8697C39.2298 80.8439 39.1522 80.6972 38.9366 80.6972C38.7986 80.8697 38.8417 81.0164 39.066 81.1975C39.0056 81.232 38.9538 81.2665 38.8934 81.2924C38.9193 81.2924 38.9452 81.2924 38.9797 81.2924C38.8503 81.3528 38.8244 81.3441 38.7382 81.3269C38.7209 81.3269 38.7037 81.3269 38.6864 81.3183C38.0654 81.4218 39.109 81.9911 38.7985 82.3102C38.8934 82.4051 38.902 82.3188 39.0228 82.431C38.7899 82.7501 38.6174 82.9744 38.4966 83.3108C38.764 83.4143 38.8589 83.4229 39.1263 83.2935L39.0487 83.5437C38.35 83.3108 38.419 84.0181 37.729 83.7593C37.5737 83.8369 37.5565 83.9836 37.6772 84.1302C37.8497 84.1475 38.1258 84.1647 38.1344 84.3458C37.9274 84.596 38.005 84.5356 37.8066 84.7426C37.591 84.7944 37.5047 84.7167 37.3236 84.7254C37.6255 85.0445 36.8751 85.0014 36.9441 85.3033C37.0217 85.493 37.082 85.8639 37.4529 85.8726C37.4529 86.1227 37.1856 86.1227 36.8837 86.0968L36.8664 86.1227Z" fill="#565656"/>
<path d="M25.7912 102.839L26.0155 102.917C25.2996 102.822 24.5405 102.546 23.7987 102.278C25.4203 103.615 27.3352 105.427 28.5859 102.727C28.7239 104.254 30.2938 105.263 30.3283 104.875C30.6561 104.633 30.9838 104.435 31.3202 104.271C31.0873 104.366 30.8631 104.461 30.6302 104.581C30.8544 104.461 31.0873 104.357 31.3202 104.271C33.4335 103.219 35.7279 103.891 38.1085 104.685C39.4282 105.099 43.0078 105.487 44.3534 105.901C44.5518 105.962 44.7416 106.005 44.94 106.039C44.7215 105.947 44.503 105.852 44.2845 105.755C45.1039 105.228 45.8543 104.719 46.5788 104.366C46.4495 104.124 46.4322 103.883 46.1303 103.546L46.5012 103.693C46.8376 102.943 47.6139 102.934 47.9762 102.606C47.8985 102.986 48.1832 103.037 48.442 103.081L48.3385 102.839C49.2959 102.925 50.4172 102.537 51.2712 102.503C51.3919 102.494 51.4782 102.615 51.5385 102.718L52.358 102.373C52.2976 102.83 53.0394 102.684 52.6513 103.003C53.2637 102.408 53.8934 102.632 54.4799 102.054C56.5759 101.744 58.8099 101.054 60.9836 100.355L60.9318 100.269C61.6908 99.9927 62.3636 99.5528 63.2866 99.639C63.9421 99.363 64.8823 99.2767 65.1497 99.0956C65.9088 99.1387 66.2106 99.1215 66.9611 99.2681C66.8662 99.2336 67.0473 99.2681 67.2026 99.3199C67.3579 99.3803 67.4959 99.3371 67.3147 99.3544C66.8231 99.1646 66.7886 99.1819 66.3745 98.9921V99.0094C64.4252 98.233 62.4671 97.3274 60.4746 96.5942C59.1463 96.4562 57.7058 95.8696 56.3344 95.6626C54.8508 95.4729 53.2464 95.4987 51.9698 95.7316C51.6679 95.8351 51.4437 95.4125 51.1849 95.1537C50.0118 95.2227 48.5196 94.9122 47.1999 95.102C47.2258 95.102 47.2516 95.1192 47.2689 95.1278C46.5702 95.171 46.0441 94.5931 45.354 94.6448C45.354 94.8001 45.2505 94.8001 45.1988 94.8777C45.1384 94.5154 44.1292 94.8346 43.1028 95.2313C42.0763 95.6195 41.0412 96.0767 40.9205 95.8696C40.8515 95.9041 40.7738 95.9386 40.6962 95.9559C39.2471 95.6281 37.7549 94.2394 36.5128 94.4292C36.2454 94.7828 35.9435 95.0847 35.7106 95.4729C35.495 95.1796 35.4519 95.7661 35.1845 95.6971C34.5117 94.317 34.1235 94.9467 34.4686 95.4125C33.9165 95.6367 33.3645 95.5419 32.8728 95.6281C32.6485 95.7489 32.4157 95.861 32.1914 95.999C31.993 96.1284 31.8895 95.93 31.786 95.6281C31.2857 95.861 31.4324 95.516 30.9148 95.4384C30.7854 94.9985 29.6037 96.2923 29.4571 96.1629L29.5433 96.0939C28.9396 96.068 28.5342 95.3004 27.9476 95.3607C26.3001 95.3176 24.506 95.9645 22.9879 96.206C22.9707 96.5424 23.3243 96.0508 23.3416 96.4993C22.4445 96.6114 21.5388 96.4734 20.6331 96.6891C20.4693 96.6718 20.2709 96.6028 20.1932 96.5511C19.9 96.5511 20.0207 96.7322 19.8137 96.7667L19.7878 96.5597C19.4773 96.8443 19.3307 96.4907 19.046 96.6977C19.0288 96.7839 18.9253 96.8357 18.8218 96.8702C18.8218 96.6718 18.5026 97.0168 18.5199 96.8357V96.853C18.4509 96.8788 18.4077 96.9047 18.3301 96.9133C18.2093 97.0513 17.0967 97.9484 16.9759 98.026H16.9155C16.7516 98.0864 16.674 98.2072 16.7775 98.1985L16.5705 98.2589L16.5964 98.2417L16.3894 98.3107C16.3894 98.3107 16.3117 98.2762 16.3635 98.2072C16.2513 98.2934 16.122 98.3624 16.0012 98.3883C16.3204 98.3193 16.7257 98.2848 17.0621 98.3366C16.9241 98.4228 16.674 98.4142 16.5274 98.4746C16.3462 98.4487 15.984 98.5091 15.6907 98.5781C15.6303 98.6126 15.5872 98.7075 15.4406 98.7247C15.3716 98.6902 15.2767 98.7851 15.1645 98.7937C15.3025 98.7161 15.4319 98.6643 15.5699 98.6212C15.5441 98.5522 15.2335 98.7161 15.1214 98.7506C15.0696 98.7937 14.8022 98.8886 14.6384 98.9748C14.7074 98.9058 14.5004 99.0093 14.4055 99.0438C14.2933 99.0956 14.2243 99.1387 14.2675 99.1215C14.233 99.156 14.716 98.9403 14.5607 99.0438C14.5176 99.0438 14.302 99.1387 14.1812 99.1905C14.1812 99.1991 14.2588 99.1646 14.1812 99.2077C14.0691 99.2509 14.0605 99.2595 13.8362 99.3457C13.8966 99.3199 13.9225 99.3112 13.957 99.294C13.7844 99.3975 14.8885 98.8023 14.6729 98.8972C14.7333 98.9145 13.6895 99.432 13.8017 99.3544C13.9052 99.3112 13.7241 99.3802 13.8362 99.3457L13.957 99.3026C14.1036 99.2422 14.164 99.2422 14.1122 99.2681C13.8621 99.3716 14.8195 98.9317 14.6039 99.0094L14.6901 98.9835C14.6039 99.0352 14.3623 99.1301 14.2675 99.156C14.2675 99.1646 14.1467 99.225 14.0432 99.2681L14.0087 99.2854C13.9052 99.3285 13.7586 99.3889 13.8276 99.363C14.1295 99.2509 14.0346 99.3112 13.9311 99.3457C13.8276 99.3802 13.7241 99.3802 14.0173 99.3544C13.7672 99.3716 14.1036 99.3285 14.3624 99.294C14.3882 99.294 14.5004 99.3026 14.6901 99.3026C14.854 99.2854 14.785 99.2767 14.8195 99.2595C14.9058 99.2595 15.0783 99.2595 15.061 99.294C15.1904 99.2422 15.2594 99.3112 15.4147 99.294C15.5527 99.2595 15.406 99.2681 15.5009 99.2422C15.6993 99.2336 15.984 99.225 16.1392 99.225C16.1996 99.2767 16.3893 99.3889 16.2513 99.4837C15.9494 99.4665 16.3635 99.3371 16.053 99.3544C16.191 99.4838 15.7769 99.3889 15.7166 99.4751C15.8201 99.5269 16.0185 99.5441 16.191 99.5355L16.1565 99.5183C16.3031 99.5183 16.605 99.4837 16.7689 99.5786C16.7344 99.6304 16.8034 99.6821 16.6913 99.6908L16.8983 99.7166C16.8983 99.7166 16.95 99.6821 16.8983 99.6649C16.9931 99.6218 17.0967 99.6649 17.1657 99.6994C17.1916 99.7943 18.2697 99.4492 18.2352 99.4751C18.3819 99.4751 18.425 99.6131 18.563 99.5183C18.5803 99.4665 17.1311 99.7425 17.3295 99.708C17.3899 99.7511 17.8212 99.708 18.2352 99.6218C18.6579 99.5441 19.0719 99.4406 19.115 99.5355C19.2272 99.5355 19.3565 99.5096 19.3307 99.4061C19.5204 99.4579 19.2703 99.6045 19.4083 99.708C19.4083 99.6908 19.3997 99.6563 19.4428 99.6563L19.5722 99.7943C19.8655 99.639 20.2881 99.8892 20.59 99.6563C20.5037 99.7857 20.4003 100.01 20.2019 100.105L20.1674 100.044C20.1674 100.044 19.9776 100.105 19.9862 100.217C20.176 100.312 20.3313 100.312 20.5296 100.217C20.5641 100.251 20.6073 100.295 20.6331 100.329C20.6331 100.312 20.6331 100.303 20.6331 100.277C20.6935 100.364 20.6935 100.372 20.6677 100.415C20.6677 100.415 20.6676 100.433 20.6504 100.441C20.7711 100.829 21.3836 100.286 21.72 100.51C21.8235 100.467 21.7286 100.441 21.858 100.381C22.203 100.571 22.4445 100.734 22.8068 100.872C22.9189 100.7 22.9275 100.614 22.7895 100.407L23.0656 100.493C22.8154 100.976 23.5745 101.045 23.3071 101.537C23.3847 101.666 23.5486 101.726 23.7038 101.657C23.7211 101.528 23.747 101.312 23.9367 101.338C24.2041 101.554 24.1437 101.485 24.368 101.692C24.4198 101.882 24.3421 101.942 24.3508 102.089C24.6958 101.908 24.6527 102.546 24.9718 102.572C25.1788 102.554 25.5756 102.606 25.5842 102.253C25.8602 102.304 25.8602 102.563 25.8344 102.848L25.7912 102.839Z" fill="#565656"/>
</svg>
