<svg width="132" height="53" viewBox="0 0 132 53" fill="none" xmlns="http://www.w3.org/2000/svg">
<path d="M7.40002 10.29C4.97002 12.76 2.64002 15.6 0.270019 18.98C-0.209981 19.65 -0.0399812 20.59 0.630019 21.07C0.890019 21.25 1.19002 21.34 1.49002 21.34C1.98002 21.34 2.44002 21.1 2.72002 20.7L2.77002 20.62C5.00002 17.46 7.27002 14.69 9.53002 12.39C10.11 11.8 10.11 10.85 9.53002 10.27C8.96002 9.71003 7.97002 9.72003 7.41002 10.29H7.40002Z" fill="black"/>
<path d="M61.97 19.69C56.11 18.4 51.68 14.39 47 10.14C46.65 9.83001 46.3 9.51001 45.94 9.19001C40.7 4.49001 35.35 0.27001 27.64 0.26001C27.49 0.26001 27.35 0.26001 27.2 0.26001H27C23.75 0.36001 20.51 1.22001 17.34 2.79001C16.98 2.97001 16.71 3.28001 16.58 3.66001C16.45 4.04001 16.48 4.44001 16.66 4.80001C17.02 5.52001 17.94 5.84001 18.66 5.49001H18.68C21.46 4.09001 24.29 3.35001 27.09 3.26001H27.11C27.3 3.26001 27.47 3.26001 27.64 3.26001H27.66C34.29 3.26001 38.95 6.96001 43.94 11.43C44.43 11.86 44.92 12.3 45.41 12.74C49.96 16.86 54.67 21.12 61.31 22.62C61.42 22.64 61.53 22.66 61.64 22.66C62.33 22.66 62.95 22.16 63.1 21.49C63.19 21.09 63.12 20.69 62.9 20.35C62.69 20.01 62.35 19.78 61.97 19.69Z" fill="black"/>
<path d="M77.88 16.28C74.62 18.44 71.6 19.63 68.41 20.01C68.25 20.03 68.1 20.0799 67.96 20.1399C67.8 20.0999 67.64 20.09 67.48 20.1H67.44C67.06 20.14 66.71 20.32 66.46 20.61C66.19 20.91 66.06 21.3 66.09 21.7C66.14 22.48 66.8 23.1 67.59 23.1C67.63 23.1 67.66 23.1 67.69 23.1C67.88 23.09 68.05 23.0399 68.22 22.9699C68.4 23.0099 68.58 23.0299 68.76 22.9999C72.39 22.5699 75.92 21.19 79.54 18.79C80.23 18.33 80.42 17.3999 79.96 16.7099C79.52 16.0499 78.55 15.85 77.88 16.29V16.28Z" fill="black"/>
<path d="M89 11.11L89.1 11.02C94.04 6.79 99.05 3.01 105.96 3.01H106.47C116.08 3.23 124.2 10.92 129.32 17.32C129.61 17.68 130.03 17.88 130.49 17.88C130.83 17.88 131.16 17.77 131.43 17.55C132.07 17.03 132.18 16.09 131.66 15.45C128.14 11.07 124.68 7.72 121.08 5.21C116.37 1.91 111.48 0.17 106.57 0.02C106.37 0.02 106.16 0 105.96 0C97.97 0.01 92.24 4.37 87.05 8.83C86.74 9.09 86.56 9.46 86.53 9.86C86.5 10.25 86.62 10.64 86.88 10.95C87.4 11.55 88.4 11.62 89 11.11Z" fill="black"/>
<path d="M7.40002 39.4499C4.98002 41.9099 2.65002 44.7499 0.270019 48.1399C-0.209981 48.8099 -0.0399812 49.7499 0.630019 50.2299C0.890019 50.3999 1.18002 50.4999 1.49002 50.4999C1.98002 50.4999 2.44002 50.2599 2.72002 49.8599L2.77002 49.7899C5.00002 46.6199 7.28002 43.8499 9.53002 41.5499C10.11 40.9699 10.11 40.0199 9.53002 39.4299C8.96002 38.8699 7.97002 38.8799 7.41002 39.4499H7.40002Z" fill="black"/>
<path d="M121.08 34.37C116.36 31.08 111.48 29.33 106.57 29.18C106.37 29.17 106.16 29.17 105.96 29.17C97.97 29.17 92.24 33.53 87.05 37.99C86.74 38.25 86.56 38.62 86.53 39.02C86.5 39.41 86.62 39.8 86.88 40.11C87.4 40.71 88.4 40.79 89 40.27C93.97 36 99 32.17 105.96 32.17H106.47C116.08 32.4 124.2 40.08 129.32 46.49C129.61 46.84 130.03 47.05 130.49 47.05C130.83 47.05 131.16 46.93 131.43 46.72C132.07 46.2 132.18 45.25 131.66 44.61C128.14 40.23 124.68 36.88 121.08 34.37Z" fill="black"/>
<path d="M61.97 48.86C56.12 47.56 51.7 43.56 47.02 39.32C46.66 39 46.3 38.68 45.94 38.36C40.69 33.65 35.34 29.43 27.64 29.42C27.41 29.42 27.2 29.43 27 29.44C23.76 29.54 20.51 30.39 17.34 31.96C16.98 32.14 16.71 32.45 16.58 32.83C16.45 33.21 16.48 33.62 16.66 33.98C17.02 34.69 17.94 35.01 18.66 34.65H18.68C21.46 33.27 24.29 32.52 27.09 32.43C27.28 32.43 27.47 32.42 27.65 32.42C34.29 32.42 38.96 36.12 43.94 40.59C44.43 41.02 44.91 41.46 45.4 41.9C49.95 46.02 54.66 50.28 61.31 51.78C61.42 51.81 61.53 51.82 61.64 51.82C62.33 51.82 62.95 51.33 63.1 50.64C63.19 50.25 63.12 49.85 62.9 49.51C62.69 49.17 62.36 48.94 61.97 48.86Z" fill="black"/>
<path d="M77.88 45.44C74.62 47.6 71.61 48.79 68.41 49.17C68.25 49.19 68.1 49.24 67.95 49.3C67.8 49.26 67.64 49.25 67.48 49.26C66.66 49.32 66.04 50.04 66.09 50.86C66.15 51.66 66.83 52.29 67.64 52.26H67.69C67.88 52.24 68.06 52.2 68.22 52.12C68.4 52.16 68.57 52.17 68.76 52.15C72.4 51.72 75.93 50.34 79.54 47.94C79.87 47.72 80.1 47.38 80.18 46.99C80.26 46.6 80.18 46.2 79.96 45.86C79.52 45.2 78.55 44.99 77.88 45.44Z" fill="black"/>
</svg>
