<svg width="153" height="137" viewBox="0 0 153 137" fill="none" xmlns="http://www.w3.org/2000/svg">
<path d="M76.11 96.97C75.28 96.97 74.61 97.64 74.61 98.47V128.89C74.61 129.72 75.28 130.39 76.11 130.39C76.94 130.39 77.61 129.72 77.61 128.89V98.47C77.61 97.64 76.94 96.97 76.11 96.97Z" fill="black"/>
<path d="M76.11 131.65C75.28 131.65 74.61 132.32 74.61 133.15V134.73C74.61 135.56 75.28 136.23 76.11 136.23C76.94 136.23 77.61 135.56 77.61 134.73V133.15C77.61 132.32 76.94 131.65 76.11 131.65Z" fill="black"/>
<path d="M82.12 18.45C81.41 18.03 80.49 18.26 80.06 18.97C78.34 21.85 77.03 24.94 76.11 28.15C71.47 11.92 56.51 0 38.81 0C21.11 0 6.09 11.65 1.43 28.34C1.21 29.14 1.67 29.97 2.47 30.19C3.27 30.41 4.1 29.95 4.32 29.15C8.62 13.75 22.8 3 38.81 3C58.55 3 74.62 19.06 74.62 38.81V92.38C74.62 93.21 75.29 93.88 76.12 93.88C76.95 93.88 77.62 93.21 77.62 92.38V38.81C77.62 32.35 79.36 26.02 82.64 20.51C83.06 19.8 82.83 18.88 82.12 18.45Z" fill="black"/>
<path d="M113.42 0C102.32 0 91.73 4.77 84.37 13.08C83.82 13.7 83.88 14.65 84.5 15.2C85.12 15.75 86.07 15.69 86.62 15.07C93.42 7.4 103.19 3 113.43 3C133.17 3 149.24 19.06 149.24 38.81C149.24 39.64 149.91 40.31 150.74 40.31C151.57 40.31 152.24 39.64 152.24 38.81C152.24 17.41 134.83 0 113.43 0H113.42Z" fill="black"/>
<path d="M1.78 33.98C0.95 33.92 0.23 34.52 0.15 35.34C0.05 36.49 0 37.66 0 38.81C0 39.64 0.67 40.31 1.5 40.31C2.33 40.31 3 39.64 3 38.81C3 37.75 3.05 36.67 3.14 35.6C3.21 34.77 2.6 34.05 1.78 33.97V33.98Z" fill="black"/>
</svg>
