<svg width="134" height="139" viewBox="0 0 134 139" fill="none" xmlns="http://www.w3.org/2000/svg">
<path d="M40.97 51.2399C40.53 50.8299 40.08 50.4399 39.62 50.0599C35.31 46.5799 29.89 44.6699 24.35 44.6699C16.19 44.6699 8.96 48.7099 4.54 54.8899C6.77 44.6899 11.4 35.0799 18.11 26.9599C18.62 26.3399 19.14 25.7299 19.68 25.1299C22.94 21.4699 26.61 18.1699 30.59 15.3199C31.26 14.8399 31.42 13.8999 30.94 13.2299C30.46 12.5599 29.52 12.3999 28.85 12.8799C24.69 15.8599 20.85 19.3099 17.45 23.1399C16.89 23.7699 16.35 24.3999 15.81 25.0499C5.61 37.3699 0 52.9799 0 68.9999C0 82.4199 10.92 93.3399 24.34 93.3399C29.32 93.3399 34.1 91.8499 38.18 89.0299C38.86 88.5599 39.03 87.6199 38.56 86.9399C38.09 86.2599 37.15 86.0899 36.47 86.5599C32.9 89.0299 28.7 90.3399 24.34 90.3399C12.57 90.3399 3 80.7699 3 68.9999C3 57.2299 12.57 47.6599 24.34 47.6599C29.2 47.6599 33.96 49.3399 37.73 52.3899C38.14 52.7199 38.53 53.0599 38.92 53.4199C43.28 57.4999 45.67 63.0299 45.67 68.9999C45.67 70.5799 45.5 72.1599 45.15 73.6899C45.04 74.1599 45.18 74.6299 45.46 74.9699C45.04 75.1199 44.68 75.4399 44.53 75.8999C43.8 78.0399 42.73 80.0499 41.36 81.8599C40.86 82.5199 40.99 83.4599 41.65 83.9599C41.92 84.1699 42.24 84.2599 42.55 84.2599C43 84.2599 43.45 84.0499 43.75 83.6599C45.31 81.5899 46.53 79.2999 47.37 76.8599C47.54 76.3499 47.43 75.8199 47.11 75.4299C47.58 75.2599 47.96 74.8699 48.08 74.3399C48.47 72.5899 48.67 70.7899 48.67 68.9899C48.67 62.2799 45.86 55.8099 40.97 51.2199V51.2399Z" fill="black"/>
<path d="M122.91 34.75C123.18 35.25 123.7 35.54 124.23 35.54C124.47 35.54 124.71 35.48 124.94 35.36C125.67 34.97 125.94 34.06 125.55 33.33C125.24 32.76 124.88 32.11 124.45 31.38C124.03 30.66 123.11 30.43 122.4 30.85C121.69 31.27 121.45 32.19 121.87 32.9C122.28 33.59 122.62 34.21 122.91 34.76V34.75Z" fill="black"/>
<path d="M116.41 25.09C117.27 26.14 118.1 27.23 118.89 28.32C119.18 28.73 119.64 28.95 120.11 28.95C120.41 28.95 120.72 28.86 120.98 28.67C121.65 28.19 121.81 27.25 121.33 26.58C120.51 25.43 119.63 24.29 118.73 23.19C118.2 22.55 117.26 22.46 116.62 22.98C115.98 23.51 115.89 24.45 116.41 25.09Z" fill="black"/>
<path d="M39.35 10.01C48.59 5.35998 58.57 2.99997 69.02 2.99997C76.5 2.92997 87.8 4.19998 99.49 10.82C104.78 13.81 109.58 17.59 113.76 22.05C114.06 22.37 114.45 22.52 114.85 22.52C115.22 22.52 115.59 22.39 115.88 22.11C116.48 21.54 116.52 20.59 115.95 19.99C111.56 15.31 106.52 11.34 100.97 8.19998C88.69 1.26998 76.79 -0.080025 69 -2.49636e-05C58.09 -2.49636e-05 47.67 2.46997 38 7.32998C37.26 7.69998 36.96 8.59998 37.33 9.33998C37.7 10.08 38.61 10.38 39.34 10.01H39.35Z" fill="black"/>
<path d="M109.55 48.1701C111.34 48.1701 113.11 48.3901 114.83 48.8301C115.64 49.0301 116.45 48.5501 116.65 47.7501C116.85 46.9501 116.37 46.1301 115.57 45.9301C113.61 45.4301 111.58 45.1801 109.55 45.1801C96.13 45.1801 85.21 56.1 85.21 69.5201C85.21 72.9201 85.9 76.2101 87.26 79.3101C91.15 88.1501 99.9 93.8601 109.55 93.8601C111.05 93.8601 112.56 93.7201 114.03 93.4501C114.84 93.3001 115.38 92.5201 115.23 91.7001C115.08 90.8801 114.29 90.3501 113.48 90.5001C112.19 90.7401 110.87 90.8601 109.55 90.8601C101.09 90.8601 93.42 85.8501 90.01 78.1001C88.82 75.3901 88.22 72.5001 88.22 69.5201C88.22 57.75 97.79 48.1801 109.56 48.1801L109.55 48.1701Z" fill="black"/>
<path d="M12.92 107.09C12.24 106 11.59 104.88 10.98 103.76C10.59 103.03 9.67 102.76 8.95 103.15C8.22 103.54 7.95 104.45 8.34 105.18C8.97 106.36 9.66 107.53 10.38 108.67C10.92 109.54 11.49 110.39 12.06 111.22C12.35 111.64 12.82 111.86 13.29 111.86C13.59 111.86 13.88 111.77 14.15 111.59C14.83 111.12 15 110.18 14.53 109.5C13.98 108.72 13.45 107.9 12.93 107.07L12.92 107.09Z" fill="black"/>
<path d="M47.59 133.2C42.99 131.89 38.55 130.04 34.4 127.69C29.54 124.94 25.09 121.52 21.16 117.52C20.58 116.93 19.63 116.92 19.04 117.5C18.45 118.08 18.44 119.03 19.02 119.62C23.15 123.82 27.83 127.41 32.93 130.3C37.29 132.77 41.95 134.71 46.78 136.08C46.92 136.12 47.05 136.14 47.19 136.14C47.84 136.14 48.44 135.71 48.63 135.05C48.86 134.25 48.39 133.42 47.6 133.2H47.59Z" fill="black"/>
<path d="M126.53 97.11C125.78 96.76 124.89 97.07 124.53 97.82C113.66 120.72 90.24 135.51 64.86 135.51C61.45 135.55 58 135.29 54.6 134.75C53.79 134.62 53.01 135.18 52.88 135.99C52.75 136.81 53.31 137.58 54.12 137.71C57.46 138.24 60.84 138.51 64.17 138.51C64.4 138.51 64.64 138.51 64.87 138.51C91.38 138.51 115.86 123.04 127.23 99.11C127.59 98.36 127.27 97.47 126.52 97.11H126.53Z" fill="black"/>
<path d="M133.89 69.5C133.89 61.77 130.33 54.67 124.13 50.02C123.47 49.52 122.53 49.66 122.03 50.32C121.53 50.98 121.67 51.92 122.33 52.42C127.77 56.49 130.89 62.72 130.89 69.51C130.89 77.68 126.12 85.25 118.74 88.77C117.99 89.13 117.68 90.02 118.03 90.77C118.29 91.31 118.82 91.62 119.38 91.62C119.6 91.62 119.82 91.57 120.03 91.47C123.83 89.65 127.02 86.89 129.38 83.55C128.85 85.98 128.2 88.39 127.39 90.75C127.12 91.53 127.54 92.39 128.33 92.65C128.49 92.7 128.65 92.73 128.81 92.73C129.43 92.73 130.02 92.34 130.23 91.71C132.65 84.57 133.88 77.1 133.88 69.49C133.88 69.49 133.88 69.49 133.88 69.48L133.89 69.5Z" fill="black"/>
</svg>
