<svg width="138" height="138" viewBox="0 0 138 138" fill="none" xmlns="http://www.w3.org/2000/svg">
<path d="M8.16 123.55C4.89 126.85 2.44 129.35 0.43 131.42C0.15 131.71 0 132.09 0 132.49C0 132.89 0.17 133.26 0.46 133.54C0.74 133.81 1.11 133.96 1.5 133.96C1.91 133.96 2.29 133.8 2.58 133.51C4.79 131.24 7.38 128.6 10.29 125.66C10.57 125.38 10.73 125 10.73 124.6C10.72 124.2 10.57 123.82 10.28 123.54C9.71 122.97 8.72 122.98 8.16 123.55Z" fill="black"/>
<path d="M48.95 9.00997C49.16 9.11997 49.39 9.16997 49.63 9.16997C50.2 9.16997 50.71 8.85997 50.97 8.34997C51.34 7.61997 51.05 6.70997 50.31 6.33997C46.84 4.55997 43.48 2.51997 40.33 0.25997C39.67 -0.20003 38.69 -0.0300303 38.23 0.61997C38 0.93997 37.91 1.33997 37.97 1.72997C38.04 2.12997 38.26 2.46997 38.58 2.70997C41.85 5.03997 45.34 7.15997 48.95 9.00997Z" fill="black"/>
<path d="M47.04 104.59C47.22 104.23 47.25 103.83 47.13 103.45C45.85 99.44 45.16 95.27 45.04 91.05L75.25 60.83C75.54 60.55 75.69 60.18 75.69 59.78C75.69 59.37 75.54 58.99 75.25 58.71C74.69 58.14 73.7 58.14 73.14 58.71L43.11 88.74L42.47 89.37C42.47 89.37 29.15 102.51 16.64 115.03C16.36 115.31 16.2 115.69 16.2 116.09C16.2 116.49 16.36 116.86 16.64 117.15C16.93 117.43 17.3 117.59 17.7 117.59C18.1 117.59 18.48 117.43 18.76 117.15C28.44 107.47 38.31 97.7 42.19 93.87C42.49 97.43 43.2 100.96 44.28 104.36C44.52 105.13 45.39 105.58 46.16 105.33C46.54 105.21 46.85 104.95 47.04 104.59Z" fill="black"/>
<path d="M60.2 13.7599C63.74 14.9499 67.39 15.8999 71.04 16.5899C71.21 16.6199 71.38 16.6299 71.55 16.5899C71.7 16.6799 71.87 16.7299 72.04 16.7699C72.12 16.7699 72.21 16.7899 72.3 16.7899C73.03 16.7899 73.65 16.2599 73.77 15.5499C73.84 15.1499 73.75 14.7499 73.52 14.4199C73.29 14.0999 72.95 13.8799 72.56 13.8099C72.39 13.7799 72.22 13.7799 72.06 13.8099C71.92 13.7199 71.76 13.6599 71.59 13.6299C68.1 12.9799 64.58 12.0599 61.16 10.8999C60.39 10.6499 59.52 11.0799 59.26 11.8499C58.99 12.6299 59.42 13.4799 60.2 13.7499V13.7599Z" fill="black"/>
<path d="M78.1 17.6C79.14 17.7 80.22 17.78 81.31 17.85C82.82 17.93 84.35 17.98 85.86 17.98C92.94 17.98 100.04 17.02 106.95 15.14C112.27 13.7 117.5 11.7 122.5 9.20003C121.77 9.93003 121.02 10.67 120.27 11.42C120.15 11.54 120.05 11.68 119.97 11.83C119.82 11.9 119.68 12 119.56 12.12C119.27 12.4 119.12 12.78 119.11 13.18C119.11 13.58 119.27 13.96 119.55 14.24C120.12 14.81 121.1 14.82 121.67 14.24C121.8 14.12 121.9 13.98 121.97 13.83C122.12 13.75 122.26 13.65 122.38 13.53C125.31 10.63 127.94 8.02003 130.21 5.79003C130.49 5.52003 130.65 5.14003 130.66 4.74003C130.66 4.34003 130.51 3.96003 130.23 3.67003C129.67 3.10003 128.68 3.09003 128.11 3.65003C127.86 3.90003 127.61 4.15003 127.35 4.40003C126.89 3.93003 126.11 3.82003 125.53 4.15003C116.99 9.09003 103.19 14.97 85.88 14.97H85.86C84.36 14.97 82.88 14.92 81.47 14.84C80.51 14.79 79.5 14.71 78.39 14.6C77.55 14.53 76.83 15.13 76.75 15.95C76.71 16.35 76.83 16.74 77.08 17.05C77.34 17.36 77.7 17.55 78.1 17.59V17.6Z" fill="black"/>
<path d="M117.86 17.43C117.86 17.03 117.7 16.65 117.42 16.37C116.85 15.8 115.87 15.8 115.3 16.37C110.21 21.45 101.7 29.99 90.02 41.81C89.68 42.16 89.46 42.38 89.4 42.44L88.76 43.09L81.62 50.23C81.04 50.81 81.04 51.76 81.62 52.35C81.9 52.63 82.28 52.79 82.68 52.79C83.08 52.79 83.46 52.63 83.74 52.35L91.06 45.03C95.17 45.14 99.23 45.8 103.13 47.01C103.27 47.06 103.42 47.08 103.57 47.08C104.23 47.08 104.81 46.66 105.01 46.03C105.25 45.24 104.81 44.39 104.02 44.15C100.73 43.13 97.33 42.47 93.88 42.18C98.75 37.25 108.21 27.7 117.42 18.49C117.7 18.21 117.86 17.83 117.86 17.43Z" fill="black"/>
<path d="M49.67 109.71C49.6 109.57 49.5 109.43 49.38 109.32C49.36 109.15 49.32 108.99 49.25 108.85C48.91 108.12 47.98 107.78 47.25 108.13C46.89 108.29 46.62 108.59 46.48 108.97C46.35 109.34 46.36 109.75 46.53 110.12C46.61 110.28 46.71 110.42 46.83 110.54C46.85 110.72 46.9 110.89 46.98 111.05C48.66 114.44 50.75 117.63 53.19 120.53C53.47 120.86 53.89 121.06 54.34 121.06C54.69 121.06 55.03 120.93 55.3 120.71C55.61 120.45 55.8 120.09 55.83 119.69C55.86 119.29 55.74 118.9 55.48 118.59C53.2 115.87 51.24 112.88 49.67 109.71Z" fill="black"/>
<path d="M123.61 119.25C122.96 120 122.25 120.76 121.51 121.5C119.72 123.29 117.77 124.93 115.74 126.38C115.6 126.47 115.48 126.59 115.39 126.72C115.23 126.76 115.08 126.83 114.94 126.93C114.61 127.15 114.39 127.49 114.31 127.89C114.23 128.28 114.31 128.68 114.55 129.01C114.82 129.42 115.29 129.67 115.79 129.67C116.09 129.67 116.38 129.58 116.63 129.41C116.77 129.31 116.9 129.19 117 129.05C117.17 129 117.33 128.92 117.48 128.82C119.65 127.27 121.72 125.52 123.63 123.62C124.38 122.87 125.13 122.07 125.87 121.22C126.13 120.92 126.26 120.53 126.23 120.13C126.21 119.73 126.03 119.37 125.73 119.11C125.13 118.58 124.13 118.65 123.61 119.25Z" fill="black"/>
<path d="M128.69 61.96C128.23 61.31 127.25 61.15 126.6 61.62C126.27 61.85 126.06 62.19 125.99 62.59C125.93 62.98 126.02 63.38 126.26 63.71C131.73 71.34 134.63 80.36 134.64 89.81C134.64 96.66 133.04 103.51 130.03 109.62C129.86 109.98 129.83 110.38 129.96 110.76C130.09 111.14 130.36 111.45 130.72 111.63C130.92 111.73 131.15 111.78 131.38 111.78C131.95 111.78 132.47 111.46 132.73 110.94C135.94 104.43 137.63 97.12 137.63 89.81C137.63 79.73 134.54 70.1 128.69 61.96Z" fill="black"/>
<path d="M109.94 129.86C103.75 132.97 96.79 134.62 89.83 134.62C80.51 134.62 71.58 131.79 64.01 126.44C63.35 125.98 62.37 126.15 61.92 126.8C61.44 127.48 61.6 128.41 62.27 128.89C70.36 134.6 79.88 137.62 89.81 137.62H89.83C97.26 137.62 104.68 135.86 111.29 132.54C111.65 132.36 111.91 132.05 112.04 131.68C112.17 131.29 112.14 130.89 111.96 130.53C111.6 129.81 110.67 129.49 109.94 129.86Z" fill="black"/>
<path d="M121.7 58.32C121.77 58.39 121.84 58.46 121.9 58.53C122.02 58.65 122.15 58.74 122.3 58.82C122.37 58.97 122.46 59.1 122.57 59.22C122.86 59.53 123.25 59.7 123.67 59.7C124.05 59.7 124.41 59.56 124.69 59.3C124.98 59.02 125.15 58.65 125.17 58.25C125.17 57.89 125.06 57.54 124.83 57.26L124.76 57.18C124.63 57.05 124.49 56.94 124.33 56.86C124.26 56.7 124.16 56.56 124.04 56.43C123.9 56.29 123.76 56.15 123.62 56.01C121.07 53.46 118.25 51.2 115.23 49.31C114.55 48.88 113.59 49.1 113.17 49.78C112.73 50.48 112.94 51.41 113.64 51.85C116.46 53.62 119.11 55.74 121.5 58.13C121.57 58.19 121.63 58.25 121.69 58.32H121.7Z" fill="black"/>
</svg>
