<svg width="134" height="140" viewBox="0 0 134 140" fill="none" xmlns="http://www.w3.org/2000/svg">
<path d="M131.99 133.16C129.48 132.97 126.98 132.54 124.56 131.88C123.67 131.64 121.27 130.93 118.28 129.55C114.27 127.71 110.84 125.46 108.08 122.87C107.09 121.94 106.14 120.94 105.25 119.9C104.71 119.27 103.77 119.19 103.14 119.73C102.51 120.27 102.43 121.21 102.97 121.84C103.93 122.97 104.96 124.05 106.03 125.06C109.03 127.88 112.73 130.31 117.03 132.28C120.23 133.75 122.81 134.51 123.77 134.78C126.37 135.49 129.06 135.95 131.76 136.16C131.8 136.16 131.84 136.16 131.88 136.16C132.66 136.16 133.31 135.56 133.37 134.77C133.43 133.94 132.81 133.22 131.99 133.16Z" fill="black"/>
<path d="M94 12.42C94.5 11.76 94.38 10.82 93.72 10.32C84.99 3.67 73.7 0 61.94 0C61.39 0 60.84 0 60.28 0.02C54.54 0.19 48.99 1.14 43.79 2.85C38.05 4.74 32.88 7.5 28.41 11.07C27.76 11.59 27.66 12.53 28.17 13.18C28.47 13.55 28.9 13.74 29.34 13.74C29.67 13.74 30 13.63 30.27 13.41C34.46 10.07 39.31 7.48 44.71 5.7C49.63 4.08 54.89 3.18 60.35 3.02C71.98 2.69 83.28 6.15 91.88 12.7C92.54 13.2 93.48 13.08 93.98 12.42H94Z" fill="black"/>
<path d="M102.25 24.06C102.53 24.52 103.02 24.77 103.52 24.77C103.79 24.77 104.06 24.7 104.31 24.54C105.01 24.1 105.23 23.18 104.79 22.47C102.97 19.55 100.81 16.83 98.38 14.39C97.79 13.8 96.84 13.8 96.26 14.39C95.67 14.98 95.67 15.93 96.26 16.51C98.53 18.79 100.55 21.32 102.25 24.06Z" fill="black"/>
<path d="M16.53 29.21C16.73 29.3 16.94 29.35 17.15 29.35C17.72 29.35 18.26 29.02 18.52 28.47C19.86 25.53 21.54 22.76 23.51 20.25C24.02 19.6 23.91 18.65 23.25 18.14C22.59 17.63 21.66 17.74 21.14 18.4C19.03 21.1 17.22 24.07 15.78 27.22C15.44 27.97 15.77 28.86 16.52 29.21H16.53Z" fill="black"/>
<path d="M97.01 102.74C96.85 101.93 96.05 101.4 95.24 101.56C94.43 101.72 93.9 102.51 94.06 103.33C94.75 106.74 95.85 110.05 97.33 113.15C97.59 113.69 98.12 114 98.68 114C98.9 114 99.12 113.95 99.33 113.85C100.08 113.49 100.39 112.6 100.04 111.85C98.66 108.97 97.64 105.91 97.01 102.74Z" fill="black"/>
<path d="M94.87 98.58C95.7 98.53 96.33 97.83 96.29 97C96.25 96.25 96.23 95.49 96.23 94.74C96.23 92.91 96.35 91.05 96.59 89.21C97.5 82.26 100.59 76.35 103.86 70.09C105.48 67 107.15 63.8 108.53 60.47C110.03 56.85 110.99 53.04 111.36 49.17C111.48 47.91 111.54 46.62 111.54 45.35C111.54 40.8 110.76 36.24 109.23 31.79C108.96 31.01 108.11 30.59 107.32 30.86C106.54 31.13 106.12 31.98 106.39 32.77C107.81 36.91 108.53 41.14 108.53 45.36C108.53 46.54 108.47 47.72 108.36 48.89C108.01 52.47 107.13 55.98 105.74 59.33C104.41 62.54 102.77 65.68 101.18 68.72C97.93 74.93 94.58 81.36 93.6 88.83C93.34 90.8 93.21 92.79 93.21 94.75C93.21 95.56 93.23 96.38 93.28 97.18C93.32 97.98 93.99 98.6 94.78 98.6C94.81 98.6 94.84 98.6 94.86 98.6L94.87 98.58Z" fill="black"/>
<path d="M36.31 93.6501C32.14 89.9301 28.47 85.7401 25.41 81.1801C22.14 76.3101 19.58 71.0501 17.8 65.5401C16.65 61.9701 14.5 55.3201 14.5 47.1101C14.5 42.9301 15.07 38.8001 16.19 34.8101C16.28 34.5001 16.37 34.1901 16.46 33.8801C16.7 33.0901 16.26 32.2501 15.46 32.0101C14.67 31.7701 13.83 32.2101 13.59 33.0001C13.49 33.3301 13.39 33.6601 13.3 34.0001C12.11 38.2501 11.5 42.6601 11.5 47.1101C11.5 55.7901 13.82 62.9901 14.94 66.4601C16.8 72.2301 19.48 77.7401 22.91 82.8501C24.83 85.7001 26.97 88.4101 29.32 90.9701C28.8 90.8601 28.29 90.7501 27.76 90.6701C26.6 90.5001 25.41 90.4101 24.22 90.4101C19.3 90.4101 14.56 91.8701 10.51 94.6301C9.83 95.1001 9.65 96.0301 10.12 96.7101C10.59 97.4001 11.52 97.5701 12.2 97.1001C15.75 94.6801 19.9 93.4001 24.22 93.4001C25.26 93.4001 26.3 93.4801 27.32 93.6201C37.71 95.1301 45.55 104.21 45.55 114.73C45.55 120.1 43.55 125.23 39.91 129.18C35.88 133.56 30.16 136.06 24.21 136.06C13.72 136.06 4.87 128.56 3.16 118.24C3.03 117.42 2.25 116.87 1.44 117.01C0.619997 117.15 0.069997 117.92 0.209997 118.74C2.16 130.52 12.26 139.07 24.22 139.07C31 139.07 37.53 136.21 42.13 131.22C46.28 126.72 48.56 120.86 48.56 114.74C48.56 105.86 43.65 97.8901 36.3 93.6401L36.31 93.6501Z" fill="black"/>
<path d="M1.35997 114.03C1.35997 114.03 1.45997 114.03 1.50997 114.03C2.26997 114.03 2.92997 113.45 2.99997 112.67C3.29997 109.53 4.26997 106.57 5.87997 103.87C6.29997 103.16 6.06997 102.24 5.35997 101.81C4.64997 101.38 3.72997 101.62 3.29997 102.33C1.46997 105.42 0.359971 108.8 0.0199706 112.38C-0.0600294 113.2 0.539971 113.94 1.36997 114.02L1.35997 114.03Z" fill="black"/>
</svg>
