<svg width="137" height="92" viewBox="0 0 137 92" fill="none" xmlns="http://www.w3.org/2000/svg">
<path d="M13.5 88.39H1.5C0.67 88.39 0 89.06 0 89.89C0 90.72 0.67 91.38 1.5 91.38H13.5C14.32 91.38 15 90.71 15 89.89C15 89.07 14.32 88.39 13.5 88.39Z" fill="black"/>
<path d="M96.5 88.39C95.67 88.39 95 89.06 95 89.89C95 90.72 95.67 91.38 96.5 91.38C97.33 91.38 98 90.71 98 89.89C98 89.07 97.32 88.39 96.5 88.39Z" fill="black"/>
<path d="M90.5 88.39H20.5C19.67 88.39 19 89.06 19 89.89C19 90.72 19.67 91.38 20.5 91.38H90.5C91.33 91.38 92 90.71 92 89.89C92 89.07 91.33 88.39 90.5 88.39Z" fill="black"/>
<path d="M112.5 88.39H100.5C99.67 88.39 99 89.06 99 89.89C99 90.72 99.67 91.38 100.5 91.38H112.5C113.33 91.38 114 90.71 114 89.89C114 89.07 113.33 88.39 112.5 88.39Z" fill="black"/>
<path d="M135.43 88.39H119.5C118.67 88.39 118 89.06 118 89.89C118 90.72 118.67 91.38 119.5 91.38H135.43C136.26 91.38 136.93 90.71 136.93 89.89C136.93 89.07 136.26 88.39 135.43 88.39Z" fill="black"/>
<path d="M91.15 12.44C91.43 12.72 91.81 12.88 92.21 12.88C92.61 12.88 92.99 12.72 93.27 12.44C93.55 12.16 93.71 11.79 93.71 11.39C93.71 10.98 93.56 10.61 93.28 10.32C92.71 9.74996 91.73 9.74996 91.16 10.32C90.57 10.9 90.57 11.86 91.16 12.45L91.15 12.44Z" fill="black"/>
<path d="M116.43 56.92C108.08 56.92 99.9401 56.88 95.7701 56.86C98.2001 53.84 100.09 50.46 101.39 46.83C102.76 43.03 103.45 39.05 103.45 34.99C103.45 27.85 101.32 20.98 97.2801 15.13C96.8201 14.48 95.8501 14.3 95.1901 14.75C94.5101 15.22 94.3401 16.16 94.8101 16.84C98.5001 22.19 100.45 28.46 100.45 34.99C100.45 43.36 97.2301 51.28 91.3901 57.29L88.9301 59.81L92.4501 59.84H92.4701C93.6901 59.84 104.79 59.92 116.43 59.93C117.25 59.93 117.93 59.25 117.93 58.43C117.93 57.61 117.26 56.93 116.43 56.92Z" fill="black"/>
<path d="M37.85 50.06C38.06 50.06 38.26 50.01 38.46 49.93C39.21 49.59 39.55 48.7 39.22 47.95C37.4 43.86 36.48 39.5 36.48 34.99C36.51 17.38 50.86 3.03 68.47 3C69.55 3 70.64 3.06 71.72 3.16C72.55 3.25 73.28 2.64 73.36 1.82C73.4 1.42 73.28 1.03 73.03 0.72C72.78 0.41 72.42 0.22 72.02 0.18C70.86 0.06 69.66 0 68.47 0C59.12 0 50.34 3.64 43.73 10.25C37.12 16.85 33.48 25.64 33.48 34.99C33.48 39.92 34.49 44.69 36.48 49.17C36.72 49.71 37.26 50.06 37.85 50.06Z" fill="black"/>
<path d="M123.43 59.92C127.96 59.91 132.12 59.88 135.44 59.84C135.85 59.84 136.22 59.67 136.5 59.38C136.78 59.1 136.93 58.72 136.92 58.32C136.92 57.5 136.24 56.84 135.43 56.84H135.4C132.42 56.88 128.5 56.91 123.42 56.92C122.59 56.92 121.92 57.6 121.92 58.43C121.92 59.25 122.6 59.92 123.42 59.92H123.43Z" fill="black"/>
<path d="M78.2499 4.51996C81.8999 5.68996 85.2799 7.49996 88.2999 9.88996C88.5699 10.1 88.8899 10.22 89.2299 10.22C89.6899 10.22 90.1199 10.01 90.4099 9.64996C90.6599 9.32996 90.7699 8.93996 90.7199 8.53996C90.6799 8.13996 90.4799 7.78996 90.1599 7.53996C86.8699 4.92996 83.1699 2.94996 79.1699 1.66996C78.3799 1.40996 77.5299 1.86996 77.2799 2.63996C77.1499 3.01996 77.1899 3.41996 77.3699 3.77996C77.5599 4.13996 77.8699 4.39996 78.2499 4.51996Z" fill="black"/>
<path d="M1.47998 59.84C5.75998 59.9 11.66 59.93 19.01 59.93C21.86 59.93 24.66 59.93 27.33 59.91C28.15 59.91 28.82 59.24 28.82 58.41C28.82 57.58 28.15 56.92 27.32 56.92H19.01C11.41 56.92 5.67998 56.9 1.51998 56.84H1.49998C0.679981 56.84 0.00998139 57.5 -1.86117e-05 58.32C-0.0100186 58.72 0.139981 59.1 0.419981 59.38C0.699981 59.67 1.07998 59.83 1.47998 59.84Z" fill="black"/>
<path d="M39.92 52.55C39.58 52.78 39.36 53.1199 39.28 53.5099C39.21 53.8999 39.29 54.3 39.52 54.64C39.8 55.05 40.26 55.29 40.76 55.29C41.06 55.29 41.35 55.1999 41.6 55.0299C42.26 54.5799 42.45 53.6999 42.05 53.0299L42 52.95C41.55 52.29 40.58 52.1 39.92 52.55Z" fill="black"/>
<path d="M34.33 59.8901C40.23 59.8701 44.44 59.8401 44.48 59.8401L48 59.8101L45.54 57.2901C45.13 56.8701 44.72 56.4201 44.33 55.9701C43.81 55.3701 42.82 55.3001 42.21 55.8301C41.92 56.0901 41.73 56.4601 41.7 56.8501C39.91 56.8501 37.35 56.8801 34.32 56.8901C33.92 56.8901 33.55 57.0501 33.26 57.3301C32.98 57.6201 32.83 58.0001 32.83 58.4001C32.83 59.2201 33.5 59.8901 34.33 59.8901Z" fill="black"/>
</svg>
