<svg width="76" height="139" viewBox="0 0 76 139" fill="none" xmlns="http://www.w3.org/2000/svg">
<path d="M25.5101 98.39C24.7201 98.18 23.8801 98.67 23.6801 99.45C20.1701 112.6 14.3001 125.37 6.72005 136.38C6.49005 136.71 6.40005 137.11 6.48005 137.5C6.55005 137.89 6.77005 138.24 7.10005 138.46C7.35005 138.63 7.64005 138.73 7.95005 138.73C8.44005 138.73 8.91005 138.48 9.19005 138.08C16.9801 126.75 22.9901 113.67 26.5701 100.22C26.7901 99.42 26.3101 98.6 25.5101 98.39Z" fill="black"/>
<path d="M6.65994 2.26001L6.71994 2.33001C8.74994 5.28001 10.6799 8.38001 12.4599 11.56C12.7199 12.03 13.2199 12.33 13.7699 12.33C14.0199 12.33 14.2699 12.26 14.4999 12.14C14.8499 11.94 15.0999 11.62 15.2099 11.23C15.3199 10.85 15.2699 10.44 15.0699 10.1C13.2499 6.83001 11.3199 3.73001 9.18994 0.630006C8.73994 -0.0199943 7.75994 -0.209994 7.09994 0.250006C6.76994 0.480006 6.54994 0.820006 6.47994 1.21001C6.40994 1.58001 6.47994 1.94001 6.66994 2.26001H6.65994Z" fill="black"/>
<path d="M29.02 74.68C28.2 74.63 27.48 75.27 27.43 76.09C27.42 76.26 27.43 76.43 27.49 76.6C27.42 76.75 27.39 76.91 27.37 77.08C27.14 80.68 26.72 84.31 26.15 87.87C26.08 88.26 26.18 88.66 26.41 88.98C26.65 89.31 26.99 89.52 27.39 89.59C27.47 89.6 27.55 89.61 27.63 89.61C28.37 89.61 28.99 89.08 29.11 88.34C29.7 84.7 30.12 80.97 30.37 77.28C30.37 77.1 30.37 76.93 30.31 76.77C30.37 76.62 30.41 76.47 30.42 76.32V76.27C30.47 75.44 29.84 74.73 29.02 74.68Z" fill="black"/>
<path d="M50.73 87.87C50.15 84.33 49.74 80.7 49.5 77.08C49.5 76.91 49.45 76.75 49.38 76.6C49.43 76.44 49.45 76.27 49.44 76.1C49.39 75.28 48.68 74.64 47.85 74.69C47.45 74.71 47.09 74.88 46.82 75.18C46.55 75.48 46.42 75.87 46.44 76.27C46.44 76.44 46.49 76.61 46.56 76.77C46.51 76.93 46.49 77.11 46.5 77.28C46.75 80.98 47.18 84.7 47.76 88.34C47.88 89.07 48.5 89.61 49.24 89.61C49.32 89.61 49.4 89.61 49.48 89.59C50.3 89.46 50.85 88.69 50.73 87.87Z" fill="black"/>
<path d="M62.37 12.14C62.6 12.26 62.85 12.33 63.1 12.33C63.65 12.33 64.15 12.03 64.42 11.56C66.2 8.37001 68.13 5.27 70.16 2.34C70.63 1.66 70.45 0.720005 69.77 0.250005C69.12 -0.199995 68.14 -0.0199951 67.69 0.630005C65.56 3.71 63.64 6.81 61.8 10.09C61.39 10.81 61.65 11.73 62.37 12.14Z" fill="black"/>
<path d="M53.19 99.45C52.99 98.67 52.15 98.18 51.36 98.39C50.56 98.6 50.09 99.42 50.3 100.22C53.89 113.69 59.9 126.78 67.69 138.08C67.97 138.48 68.43 138.73 68.92 138.73C69.23 138.73 69.52 138.64 69.77 138.46C70.1 138.23 70.33 137.89 70.4 137.5C70.47 137.1 70.38 136.7 70.16 136.38C62.56 125.34 56.69 112.57 53.19 99.45Z" fill="black"/>
<path d="M74.5 67.85H49.25C49.25 67.67 49.25 67.51 49.25 67.32C49.52 51.79 52.84 36.6 59.14 22.18C59.47 21.42 59.12 20.53 58.36 20.2C57.62 19.88 56.71 20.24 56.39 20.97C49.94 35.76 46.53 51.33 46.25 67.26C46.25 67.45 46.25 67.65 46.25 67.85H30.62C30.62 67.65 30.62 67.45 30.62 67.26C30.35 51.33 26.94 35.76 20.48 20.97C20.16 20.24 19.25 19.88 18.51 20.2C18.14 20.36 17.86 20.65 17.71 21.03C17.57 21.4 17.57 21.81 17.73 22.17C24.03 36.6 27.36 51.78 27.62 67.32C27.62 67.49 27.62 67.67 27.62 67.85H24.5C23.67 67.85 23 68.53 23 69.36C23 70.19 23.67 70.85 24.5 70.85H27.79C28.03 71.34 28.53 71.68 29.11 71.69H29.13C29.72 71.69 30.22 71.34 30.47 70.85H46.41C46.66 71.34 47.17 71.69 47.76 71.69H47.77C48.35 71.69 48.85 71.34 49.09 70.85H74.51C75.34 70.85 76.01 70.18 76.01 69.36C76.01 68.54 75.34 67.85 74.51 67.85H74.5Z" fill="black"/>
<path d="M14 69.36C14 68.53 13.33 67.85 12.5 67.85H1.5C0.67 67.85 0 68.53 0 69.36C0 70.19 0.67 70.85 1.5 70.85H12.5C13.33 70.85 14 70.18 14 69.36Z" fill="black"/>
</svg>
