<svg width="141" height="138" viewBox="0 0 141 138" fill="none" xmlns="http://www.w3.org/2000/svg">
<path d="M66.99 65.91C67.06 66.06 67.17 66.19 67.29 66.31C67.57 66.58 67.94 66.72 68.32 66.72C68.74 66.72 69.12 66.56 69.41 66.25C69.68 65.96 69.83 65.58 69.82 65.18C69.82 64.78 69.64 64.41 69.35 64.13C69.23 64.01 69.08 63.92 68.93 63.85C68.85 63.7 68.74 63.56 68.61 63.44C65.9 60.91 63.01 58.52 60.03 56.32C59.39 55.85 58.4 56 57.93 56.64C57.69 56.96 57.6 57.35 57.65 57.75C57.71 58.15 57.92 58.5 58.25 58.74C61.13 60.86 63.94 63.18 66.58 65.64C66.71 65.75 66.85 65.84 67 65.91H66.99Z" fill="black"/>
<path d="M97.88 123.33C97.48 123.37 97.13 123.57 96.88 123.88C96.63 124.2 96.52 124.59 96.56 124.99C96.96 128.55 97.16 132.19 97.16 135.79C97.16 136.62 97.83 137.29 98.66 137.29C99.49 137.29 100.16 136.62 100.16 135.79C100.16 132.08 99.95 128.33 99.54 124.65C99.45 123.83 98.7 123.23 97.88 123.33Z" fill="black"/>
<path d="M49.06 52.53C49.6 52.53 50.1 52.23 50.37 51.76C50.57 51.41 50.61 51.01 50.51 50.62C50.4 50.23 50.15 49.91 49.8 49.72C42.58 45.67 34.87 42.54 26.89 40.42C18.65 38.24 10.12 37.13 1.52 37.13H1.5C0.67 37.13 0 37.8 0 38.63C0 39.46 0.67 40.13 1.5 40.13C17.92 40.13 34.11 44.35 48.33 52.34C48.55 52.46 48.8 52.53 49.06 52.53Z" fill="black"/>
<path d="M97.26 113.79C97.47 113.45 97.53 113.05 97.44 112.67C93.49 96.19 85.26 80.9 73.64 68.45C73.1 67.87 72.11 67.84 71.52 68.38C71.23 68.66 71.06 69.03 71.05 69.43C71.03 69.83 71.18 70.21 71.45 70.5C82.71 82.57 90.69 97.39 94.52 113.36C94.68 114.04 95.28 114.51 95.98 114.51C96.1 114.51 96.22 114.49 96.33 114.47C96.72 114.37 97.05 114.13 97.26 113.79Z" fill="black"/>
<path d="M55.28 83.11L19.93 118.47C19.64 118.75 19.49 119.13 19.49 119.53C19.49 119.93 19.64 120.3 19.93 120.59C20.21 120.87 20.59 121.03 20.99 121.03C21.39 121.03 21.76 120.87 22.05 120.59L57.41 85.23C57.99 84.65 57.99 83.7 57.41 83.11C56.84 82.55 55.85 82.54 55.28 83.11Z" fill="black"/>
<path d="M68.01 70.38L60.23 78.16C60.11 78.28 60.01 78.42 59.94 78.58C59.79 78.65 59.65 78.75 59.53 78.87C59.24 79.15 59.09 79.53 59.09 79.93C59.09 80.33 59.24 80.71 59.53 80.99C59.81 81.27 60.19 81.43 60.59 81.43C60.99 81.43 61.36 81.27 61.65 80.99C61.77 80.87 61.87 80.73 61.94 80.58C62.09 80.5 62.23 80.4 62.35 80.28L70.13 72.5C70.72 71.92 70.72 70.97 70.13 70.38C69.57 69.82 68.58 69.82 68.01 70.38Z" fill="black"/>
<path d="M11.44 126.95L3.67 134.73C3.38 135.01 3.23 135.39 3.22 135.79C3.22 136.19 3.38 136.57 3.67 136.85C3.95 137.14 4.32 137.29 4.73 137.29C5.14 137.29 5.5 137.14 5.79 136.85L13.56 129.07C14.15 128.49 14.15 127.54 13.56 126.95C13 126.39 12.01 126.38 11.44 126.95Z" fill="black"/>
<path d="M111.85 26.54L76.5 61.9C76.21 62.18 76.06 62.56 76.06 62.96C76.06 63.36 76.21 63.74 76.5 64.02C76.78 64.3 77.16 64.46 77.56 64.46C77.96 64.46 78.33 64.3 78.62 64.02L113.97 28.66C114.56 28.08 114.56 27.13 113.97 26.54C113.41 25.98 112.42 25.98 111.85 26.54Z" fill="black"/>
<path d="M124.58 13.81L116.8 21.59C116.68 21.71 116.58 21.85 116.51 22.01C116.35 22.08 116.22 22.18 116.1 22.3C115.81 22.58 115.66 22.96 115.66 23.36C115.66 23.76 115.81 24.14 116.1 24.42C116.38 24.7 116.76 24.86 117.16 24.86C117.56 24.86 117.93 24.7 118.22 24.42C118.34 24.3 118.43 24.16 118.51 24.01C118.66 23.93 118.8 23.83 118.92 23.71L126.7 15.94C127.29 15.35 127.29 14.4 126.7 13.81C126.14 13.25 125.15 13.25 124.58 13.81Z" fill="black"/>
<path d="M75.82 3H86.82C87.65 3 88.32 2.33 88.32 1.5C88.32 0.67 87.65 0 86.82 0H75.82C75 0 74.32 0.67 74.32 1.5C74.32 2.33 75 3 75.82 3Z" fill="black"/>
<path d="M98.82 0C97.99 0 97.32 0.67 97.32 1.5C97.32 2.33 97.99 3 98.82 3H135.4L133.07 5.33C132.78 5.61 132.62 5.99 132.62 6.39C132.62 6.79 132.78 7.17 133.07 7.45C133.35 7.73 133.72 7.89 134.13 7.89C134.54 7.89 134.9 7.73 135.18 7.45L137.39 5.25V11.43C137.39 12.26 138.06 12.93 138.89 12.93C139.72 12.93 140.39 12.26 140.39 11.43V0H98.82Z" fill="black"/>
<path d="M138.89 15.9301C138.06 15.9301 137.39 16.6101 137.39 17.4301C137.39 17.6101 137.42 17.7801 137.47 17.9401C137.42 18.1001 137.39 18.2601 137.39 18.4301V29.4301C137.39 30.2601 138.06 30.9301 138.89 30.9301C139.72 30.9301 140.39 30.2601 140.39 29.4301V18.4301C140.39 18.2601 140.36 18.1001 140.3 17.9401C140.36 17.7701 140.39 17.6101 140.39 17.4301C140.39 16.6101 139.71 15.9301 138.89 15.9301Z" fill="black"/>
<path d="M138.89 39.9301C138.06 39.9301 137.39 40.6101 137.39 41.4301V64.5601C137.39 65.3901 138.06 66.0601 138.89 66.0601C139.72 66.0601 140.39 65.3901 140.39 64.5601V41.4301C140.39 40.6101 139.71 39.9301 138.89 39.9301Z" fill="black"/>
</svg>
