<svg width="131" height="135" viewBox="0 0 131 135" fill="none" xmlns="http://www.w3.org/2000/svg">
<path d="M20.78 111.99C19.95 111.99 19.28 112.66 19.28 113.49V118.99C19.28 119.82 19.95 120.49 20.78 120.49C21.61 120.49 22.28 119.82 22.28 118.99V113.49C22.28 112.66 21.61 111.99 20.78 111.99Z" fill="black"/>
<path d="M20.79 44.7799C19.96 44.7799 19.29 45.4499 19.29 46.2799V100.48C19.29 101.31 19.96 101.98 20.79 101.98C21.62 101.98 22.29 101.31 22.29 100.48V46.2799C22.29 45.4499 21.62 44.7799 20.79 44.7799Z" fill="black"/>
<path d="M63.37 110.86C62.54 110.86 61.87 111.54 61.87 112.37C61.87 112.57 61.91 112.75 61.98 112.92C61.91 113.1 61.87 113.29 61.87 113.49V118.99C61.87 119.82 62.54 120.49 63.37 120.49C64.2 120.49 64.87 119.82 64.87 118.99V113.49C64.87 113.29 64.83 113.1 64.76 112.93C64.83 112.76 64.87 112.57 64.87 112.37C64.87 111.54 64.19 110.86 63.37 110.86Z" fill="black"/>
<path d="M20.79 25.2599C19.96 25.2599 19.29 25.9299 19.29 26.7599V38.6899C19.29 38.8799 19.33 39.0599 19.39 39.2299C19.32 39.3999 19.29 39.5799 19.29 39.7699C19.29 40.5999 19.96 41.2699 20.79 41.2699C21.62 41.2699 22.29 40.5999 22.29 39.7699C22.29 39.5799 22.25 39.3999 22.19 39.2299C22.26 39.0599 22.29 38.8799 22.29 38.6899V26.7599C22.29 25.9299 21.61 25.2599 20.79 25.2599Z" fill="black"/>
<path d="M63.37 42.0299C62.54 42.0299 61.87 42.7099 61.87 43.5399V105.86C61.87 106.68 62.54 107.36 63.37 107.36C64.2 107.36 64.87 106.68 64.87 105.86V43.5399C64.87 42.7099 64.19 42.0299 63.37 42.0299Z" fill="black"/>
<path d="M104.04 22.5399C104.04 23.8599 103.91 25.1799 103.66 26.4699C101.44 37.6699 100.07 48.6599 99.57 59.1399C99.55 59.5399 99.69 59.9199 99.96 60.2199C100.23 60.5099 100.59 60.6899 100.99 60.6999C101.02 60.7099 101.04 60.7099 101.07 60.7099C101.87 60.7099 102.53 60.0799 102.56 59.2799C103.06 48.9199 104.42 38.0799 106.6 27.0499C106.89 25.5499 107.04 24.0299 107.04 22.5399C107.04 20.1299 106.67 17.7399 105.93 15.4399C105.68 14.6699 104.82 14.2199 104.04 14.4799C103.66 14.5999 103.35 14.8599 103.17 15.2199C102.99 15.5699 102.95 15.9799 103.07 16.3599C103.72 18.3599 104.04 20.4399 104.04 22.5399Z" fill="black"/>
<path d="M118.43 125.69C118.72 126 119.12 126.17 119.54 126.17C119.91 126.17 120.28 126.03 120.55 125.77C121.16 125.21 121.2 124.26 120.64 123.65C120.09 123.05 119.64 122.54 119.21 122.05C119.21 122.05 118.76 121.52 117.99 120.52C115.88 117.77 110.57 110.33 106.9 100.63C105.36 96.5899 104.14 91.2499 103.37 85.1999C103.27 84.3899 102.51 83.8099 101.7 83.9099C100.87 84.0099 100.29 84.7699 100.4 85.5899C101.21 91.9399 102.45 97.3599 104.1 101.69C109.02 114.67 116.62 123.63 116.94 124.01C117.43 124.57 117.93 125.14 118.43 125.69Z" fill="black"/>
<path d="M101.08 76.4398C101.91 76.3998 102.55 75.6998 102.51 74.8698C102.41 72.5698 102.36 70.1998 102.36 67.8198C102.36 66.8598 102.36 66.0798 102.38 65.3498C102.38 65.1998 102.36 65.0498 102.32 64.9098C102.36 64.7698 102.39 64.6298 102.39 64.4798C102.39 64.0798 102.25 63.6998 101.97 63.4098C101.69 63.1198 101.32 62.9598 100.92 62.9498H100.88C100.07 62.9498 99.4 63.6098 99.39 64.4198C99.39 64.5698 99.41 64.7198 99.45 64.8598C99.4 65.0098 99.38 65.1498 99.38 65.3098C99.36 66.2998 99.36 67.0998 99.36 67.8198C99.36 70.2498 99.41 72.6698 99.52 75.0098C99.55 75.8098 100.21 76.4398 101.01 76.4398H101.08Z" fill="black"/>
<path d="M100.48 7.05993C100.48 6.65993 100.3 6.28993 100.01 6.00993C98.73 4.80993 97.31 3.75993 95.79 2.90993C94.31 2.07993 92.74 1.41993 91.13 0.939933C90.98 0.899933 90.82 0.869933 90.66 0.879933C90.53 0.799933 90.38 0.729933 90.23 0.689933C89.43 0.489933 88.6 0.999933 88.41 1.77993C88.31 2.16993 88.37 2.56993 88.57 2.91993C88.76 3.22993 89.06 3.46993 89.41 3.57993H89.4L89.49 3.59993C89.63 3.63993 89.77 3.64993 89.9 3.64993C90.02 3.71993 90.14 3.77993 90.28 3.81993C91.68 4.23993 93.04 4.80993 94.32 5.52993C95.63 6.25993 96.85 7.15993 97.95 8.19993C98.23 8.45993 98.6 8.59993 98.98 8.59993C99.39 8.59993 99.79 8.42993 100.07 8.12993C100.35 7.83993 100.49 7.45993 100.48 7.05993Z" fill="black"/>
<path d="M84.67 -0.00012207H84.65C78.56 -0.00012207 72.84 2.36988 68.53 6.66988C66.22 8.97988 64.48 11.7199 63.36 14.6899C62 11.1299 59.77 7.91988 56.82 5.41988C52.71 1.92988 47.47 -0.00012207 42.08 -0.00012207C33.14 -0.00012207 24.99 5.26988 21.3 13.4099C21.14 13.7699 21.13 14.1699 21.27 14.5499C21.41 14.9199 21.69 15.2199 22.05 15.3899C22.79 15.7299 23.71 15.3699 24.04 14.6399C27.24 7.57988 34.32 3.00988 42.07 3.00988H42.08C51.74 3.00988 59.94 9.89988 61.58 19.4099C61.63 19.7399 61.8 20.0099 62.02 20.2299C61.93 21.0799 61.87 21.9299 61.87 22.7899V38.6499C61.87 39.4699 62.54 40.1499 63.37 40.1499C64.2 40.1499 64.87 39.4699 64.87 38.6499V22.7899C64.89 11.8999 73.77 3.02988 84.66 3.00988H84.68C85.5 3.00988 86.17 2.32988 86.17 1.50988C86.17 0.689878 85.5 -0.00012207 84.67 -0.00012207Z" fill="black"/>
<path d="M20.78 24.5898C21.61 24.5898 22.28 23.9198 22.28 23.0898C22.28 21.0998 22 19.1298 21.44 17.2398C21.21 16.4398 20.37 15.9898 19.58 16.2198C18.79 16.4498 18.33 17.2898 18.56 18.0798C19.03 19.6998 19.27 21.3898 19.27 23.0898C19.27 23.9198 19.94 24.5898 20.77 24.5898H20.78Z" fill="black"/>
<path d="M19.46 15.8799C19.82 15.6999 20.08 15.3899 20.21 15.0099C20.34 14.6299 20.31 14.2299 20.14 13.8699C17.88 9.30994 14.05 5.74994 9.35 3.83994C9.05 3.70994 8.72 3.68994 8.41 3.76994C8.27 3.57994 8.09 3.42994 7.89 3.31994H7.97L7.65 3.22994C7.65 3.22994 7.56 3.20994 7.51 3.19994C7.46 3.17994 7.41 3.14994 7.36 3.13994C5.47 2.58994 3.5 2.30994 1.51 2.30994C0.68 2.30994 0.0100002 2.97994 0.0100002 3.80994C0.0100002 4.63994 0.68 5.30994 1.51 5.30994C3.22 5.30994 4.9 5.54994 6.52 6.01994C6.55 6.01994 6.58 6.01994 6.61 6.02994C6.66 6.04994 6.71 6.07994 6.77 6.09994C7.04 6.17994 7.32 6.17994 7.58 6.10994C7.75 6.33994 7.97 6.50994 8.22 6.60994C12.25 8.24994 15.53 11.2999 17.46 15.1999C17.71 15.7099 18.23 16.0299 18.8 16.0299C19.03 16.0299 19.26 15.9799 19.47 15.8799H19.46Z" fill="black"/>
<path d="M130.49 120.22C130.49 119.39 129.82 118.72 128.99 118.72C128.16 118.72 127.49 119.39 127.49 120.22V125.72C127.49 125.78 127.5 125.83 127.51 125.89C127.51 125.95 127.49 126.01 127.49 126.07V127.71C127.49 127.71 127.49 127.71 127.49 127.72V130.07C126.62 129.36 125.75 128.64 124.93 127.89C124.81 127.79 124.68 127.72 124.55 127.66C124.48 127.53 124.41 127.4 124.3 127.3H124.28C123.69 126.75 122.7 126.78 122.16 127.37C121.89 127.66 121.75 128.04 121.76 128.44C121.76 128.84 121.94 129.21 122.24 129.49C122.36 129.6 122.51 129.68 122.65 129.75C122.73 129.88 122.81 130.01 122.92 130.12C123.53 130.67 124.15 131.2 124.78 131.73H123.5C123.4 131.73 123.3 131.74 123.21 131.76C123.14 131.75 123.06 131.74 122.98 131.74H120.56C120.56 131.74 120.52 131.74 120.5 131.74H115C114.17 131.74 113.5 132.41 113.5 133.24C113.5 134.07 114.17 134.74 115 134.74H120.5C120.5 134.74 120.53 134.74 120.54 134.74H122.98C123.06 134.74 123.14 134.73 123.22 134.72C123.31 134.74 123.4 134.75 123.5 134.75H130.5V127.75C130.5 127.75 130.5 127.75 130.5 127.74V126.1C130.5 126.04 130.49 125.98 130.48 125.93C130.48 125.87 130.5 125.81 130.5 125.75V120.25L130.49 120.22Z" fill="black"/>
</svg>
