<svg width="144" height="134" viewBox="0 0 144 134" fill="none" xmlns="http://www.w3.org/2000/svg">
<path d="M26.66 90.59C25.85 90.59 25.19 89.95 25.16 89.14C25.14 88.64 25.14 88.14 25.14 87.64C25.14 62.27 45.78 41.62 71.16 41.62C80.38 41.62 89.28 44.34 96.89 49.48C97.58 49.94 97.76 50.88 97.29 51.56C96.82 52.24 95.9 52.43 95.21 51.96C88.1 47.15 79.78 44.61 71.16 44.61C47.44 44.61 28.14 63.91 28.14 87.63C28.14 88.1 28.14 88.56 28.16 89.03C28.19 89.86 27.54 90.55 26.71 90.58C26.69 90.58 26.68 90.58 26.66 90.58V90.59Z" fill="black"/>
<path d="M32.03 110.39C31.5 110.39 30.98 110.11 30.71 109.61C28.28 105.15 26.63 100.36 25.78 95.35C25.64 94.53 26.19 93.76 27.01 93.62C27.83 93.48 28.6 94.03 28.74 94.85C29.53 99.52 31.08 104.01 33.35 108.17C33.75 108.9 33.48 109.81 32.75 110.2C32.52 110.32 32.28 110.38 32.03 110.38V110.39Z" fill="black"/>
<path d="M37.82 118.65C37.4 118.65 36.99 118.48 36.7 118.14C35.82 117.15 34.98 116.11 34.19 115.05C33.7 114.38 33.83 113.45 34.5 112.95C35.17 112.45 36.1 112.59 36.6 113.26C37.34 114.25 38.13 115.22 38.95 116.15C39.5 116.77 39.44 117.72 38.82 118.27C38.53 118.52 38.18 118.65 37.83 118.65H37.82Z" fill="black"/>
<path d="M71.15 133.66C62.6 133.66 54.26 131.3 47.02 126.83C46.31 126.39 46.1 125.47 46.53 124.77C46.96 124.06 47.89 123.85 48.59 124.28C55.35 128.45 63.15 130.66 71.14 130.66C94.86 130.66 114.16 111.36 114.16 87.64C114.16 79.61 111.94 71.78 107.73 65C107.29 64.3 107.51 63.37 108.21 62.93C108.91 62.5 109.84 62.71 110.28 63.41C114.78 70.67 117.16 79.05 117.16 87.63C117.16 113 96.52 133.65 71.14 133.65L71.15 133.66Z" fill="black"/>
<path d="M104.42 59.56C104.01 59.56 103.59 59.39 103.3 59.06C102.89 58.6 102.47 58.15 102.05 57.71C101.47 57.11 101.49 56.17 102.08 55.59C102.67 55.01 103.62 55.03 104.2 55.62C104.66 56.09 105.1 56.57 105.54 57.06C106.09 57.68 106.04 58.63 105.42 59.18C105.13 59.43 104.78 59.56 104.42 59.56Z" fill="black"/>
<path d="M3.73 3H1.5C0.67 3 0 2.33 0 1.5C0 0.67 0.67 0 1.5 0H3.73C4.56 0 5.23 0.67 5.23 1.5C5.23 2.33 4.56 3 3.73 3Z" fill="black"/>
<path d="M11.95 3H5.86C5.03 3 4.36 2.33 4.36 1.5C4.36 0.67 5.03 0 5.86 0H11.95C12.78 0 13.45 0.67 13.45 1.5C13.45 2.33 12.78 3 11.95 3Z" fill="black"/>
<path d="M28.58 11.8C28.11 11.8 27.64 11.58 27.35 11.16L25.25 8.17C22.98 4.93 19.25 3 15.29 3H11.94C11.11 3 10.44 2.33 10.44 1.5C10.44 0.67 11.11 0 11.94 0H15.29C20.23 0 24.87 2.41 27.7 6.45L29.8 9.44C30.28 10.12 30.11 11.05 29.43 11.53C29.17 11.71 28.87 11.8 28.57 11.8H28.58Z" fill="black"/>
<path d="M38.82 26.39C38.35 26.39 37.88 26.17 37.59 25.75L31.55 17.15C31.07 16.47 31.24 15.54 31.92 15.06C32.6 14.58 33.53 14.75 34.01 15.43L40.05 24.03C40.53 24.71 40.36 25.64 39.68 26.12C39.42 26.3 39.12 26.39 38.82 26.39Z" fill="black"/>
<path d="M89.04 39.3901H54.47C49.9 39.3901 45.6 37.1601 42.98 33.4201L37.6 25.7501C37.12 25.0701 37.29 24.1401 37.97 23.6601C38.65 23.1801 39.58 23.3501 40.06 24.0301L45.44 31.7001C47.5 34.6401 50.88 36.4001 54.48 36.4001H89.05C92.64 36.4001 96.02 34.6401 98.09 31.7001L115.81 6.46006C117.77 3.68006 120.64 1.61006 123.9 0.64006C124.7 0.41006 125.53 0.86006 125.77 1.65006C126.01 2.44006 125.55 3.28006 124.76 3.52006C122.14 4.30006 119.84 5.96006 118.27 8.19006L100.55 33.4301C97.92 37.1701 93.63 39.4001 89.06 39.4001L89.04 39.3901Z" fill="black"/>
<path d="M142.02 3H133.99C133.16 3 132.49 2.33 132.49 1.5C132.49 0.67 133.16 0 133.99 0H142.02C142.85 0 143.52 0.67 143.52 1.5C143.52 2.33 142.85 3 142.02 3Z" fill="black"/>
</svg>
