<svg width="144" height="144" viewBox="0 0 144 144" fill="none" xmlns="http://www.w3.org/2000/svg">
<path d="M20.78 100.48C19.95 100.48 19.28 101.15 19.28 101.98V118.98C19.28 119.81 19.95 120.48 20.78 120.48C21.61 120.48 22.28 119.81 22.28 118.98V101.98C22.28 101.15 21.61 100.48 20.78 100.48Z" fill="black"/>
<path d="M28.44 4.52002C24.81 7.23002 22.14 10.88 20.65 15C19.36 11.95 17.35 9.21002 14.72 7.04002C14.08 6.51002 13.14 6.60002 12.61 7.24002C12.08 7.88002 12.17 8.82002 12.81 9.35002C16.92 12.74 19.28 17.74 19.28 23.07C19.28 23.23 19.31 23.39 19.36 23.54C19.32 23.68 19.28 23.82 19.28 23.97V93.97C19.28 94.8 19.95 95.47 20.78 95.47C21.61 95.47 22.28 94.8 22.28 93.97V23.98C22.28 23.83 22.24 23.68 22.2 23.54C22.25 23.39 22.28 23.24 22.28 23.07C22.28 22.78 22.27 22.49 22.26 22.2C22.26 22.14 22.3 22.09 22.3 22.03C22.52 16.03 25.42 10.52 30.24 6.91002C30.9 6.41002 31.04 5.47002 30.54 4.81002C30.05 4.15002 29.11 4.01002 28.44 4.51002V4.52002Z" fill="black"/>
<path d="M51.76 2.16C48.72 0.73 45.46 0 42.07 0C39.31 0 36.62 0.49 34.06 1.45C33.28 1.74 32.89 2.61 33.18 3.38C33.47 4.16 34.34 4.55 35.11 4.26C37.33 3.43 39.67 3 42.07 3C45.01 3 47.84 3.63 50.48 4.87C50.69 4.97 50.9 5.01 51.12 5.01C51.68 5.01 52.22 4.69 52.48 4.15C52.83 3.4 52.51 2.51 51.76 2.15V2.16Z" fill="black"/>
<path d="M63.36 100.48C62.53 100.48 61.86 101.15 61.86 101.98V118.98C61.86 119.81 62.53 120.48 63.36 120.48C64.19 120.48 64.86 119.81 64.86 118.98V101.98C64.86 101.15 64.19 100.48 63.36 100.48Z" fill="black"/>
<path d="M79.46 3.69C81.14 3.23 82.89 3 84.65 3C88.19 3 91.67 3.95 94.7 5.74C94.94 5.88 95.2 5.95 95.46 5.95C95.97 5.95 96.47 5.69 96.75 5.21C97.17 4.5 96.94 3.58 96.22 3.16C92.72 1.09 88.72 0 84.64 0C82.62 0 80.61 0.27 78.67 0.79C77.87 1.01 77.4 1.83 77.62 2.63C77.84 3.43 78.66 3.9 79.46 3.69Z" fill="black"/>
<path d="M71.9 3.89999C67.95 6.56999 65 10.33 63.36 14.65C62.31 11.9 60.73 9.34999 58.66 7.14999C58.09 6.54999 57.14 6.51999 56.54 7.08999C55.94 7.65999 55.91 8.60999 56.48 9.20999C59.96 12.9 61.87 17.72 61.87 22.79V97.69C61.87 98.52 62.54 99.19 63.37 99.19C64.2 99.19 64.87 98.52 64.87 97.69V22.79C64.87 22.38 64.83 21.98 64.81 21.57C64.87 21.43 64.92 21.28 64.94 21.11C65.44 15.13 68.59 9.75999 73.59 6.37999C74.28 5.91999 74.46 4.97999 73.99 4.29999C73.52 3.60999 72.59 3.43999 71.91 3.89999H71.9Z" fill="black"/>
<path d="M118.7 4.98C121.15 3.77 123.78 3.11 126.51 3.01C126.78 3.01 127.05 3 127.26 3H127.6C129.52 3.1 131.44 3.81 133.33 5.13C133.59 5.31 133.89 5.4 134.19 5.4C134.66 5.4 135.13 5.18 135.42 4.76C135.89 4.08 135.73 3.15 135.05 2.67C132.69 1.02 130.24 0.12 127.7 0H127.26C127.02 0 126.72 0 126.41 0.01C123.25 0.12 120.21 0.89 117.38 2.28C116.64 2.65 116.33 3.55 116.7 4.29C117.07 5.03 117.96 5.34 118.71 4.97L118.7 4.98Z" fill="black"/>
<path d="M100.56 89.3C99.85 88.86 98.93 89.08 98.49 89.78C95.56 94.5 92.8501 99.61 90.4401 104.96C90.1001 105.72 90.4401 106.6 91.1901 106.94C91.3901 107.03 91.6 107.07 91.81 107.07C92.38 107.07 92.93 106.74 93.18 106.19C95.54 100.96 98.1801 95.97 101.05 91.36C101.49 90.66 101.27 89.73 100.57 89.29L100.56 89.3Z" fill="black"/>
<path d="M140.95 8.86996C140.51 8.16996 139.59 7.94996 138.88 8.38996C138.18 8.82996 137.96 9.74996 138.39 10.45C139.94 12.96 140.73 16.26 140.73 20.25C140.73 23.56 140.19 27.28 139.14 31.31C134.39 49.45 122.27 61.69 115.04 69L114.13 69.92C114.01 70.05 113.91 70.19 113.84 70.34C113.69 70.41 113.55 70.51 113.43 70.64L112.99 71.1C111.07 73.08 109.22 75.15 107.44 77.31V23.98V23.02C107.44 23.02 107.44 23.01 107.44 23C107.53 16.98 110.21 11.33 114.81 7.49996C115.45 6.96996 115.53 6.01996 115 5.38996C114.47 4.75996 113.53 4.66996 112.89 5.19996C109.77 7.79996 107.42 11.13 106 14.85C105.2 12.69 104.07 10.64 102.62 8.77996C102.11 8.12996 101.16 8.00996 100.51 8.51996C99.86 9.02996 99.74 9.96996 100.25 10.63C102.99 14.13 104.43 18.34 104.43 22.8V78.7V81.11C103.34 82.56 102.27 84.04 101.24 85.54C100.77 86.22 100.95 87.16 101.63 87.62C102.31 88.09 103.25 87.91 103.71 87.23C103.94 86.89 104.18 86.55 104.42 86.21V100.69C104.42 100.92 104.48 101.14 104.57 101.34C104.48 101.54 104.42 101.75 104.42 101.99V107.68V118.98C104.42 119.81 105.09 120.48 105.92 120.48C106.75 120.48 107.42 119.81 107.42 118.98V101.98C107.42 101.75 107.36 101.53 107.27 101.33C107.36 101.13 107.42 100.92 107.42 100.68V93.99V82.13C109.84 78.98 112.42 75.99 115.13 73.2L115.56 72.76C115.68 72.64 115.78 72.49 115.85 72.34C116 72.27 116.14 72.17 116.26 72.04L117.17 71.12C124.62 63.59 137.08 50.99 142.04 32.08C143.16 27.81 143.73 23.83 143.73 20.26C143.73 15.7 142.79 11.87 140.94 8.87996L140.95 8.86996Z" fill="black"/>
<path d="M89.27 111.56C88.5 111.26 87.63 111.65 87.33 112.42C83.86 121.43 81.03 131.36 78.92 141.92C78.76 142.73 79.29 143.52 80.1 143.68C80.2 143.7 80.3 143.71 80.39 143.71C81.09 143.71 81.72 143.22 81.86 142.5C83.93 132.1 86.71 122.35 90.12 113.49C90.42 112.72 90.03 111.85 89.26 111.55L89.27 111.56Z" fill="black"/>
<path d="M7.14 3.07005C5.31 2.56005 3.42 2.30005 1.5 2.30005C0.67 2.30005 0 2.97005 0 3.80005C0 4.63005 0.67 5.30005 1.5 5.30005C3.14 5.30005 4.77 5.52005 6.33 5.96005C6.47 6.00005 6.6 6.02005 6.74 6.02005C7.4 6.02005 8 5.59005 8.18 4.93005C8.4 4.13005 7.94 3.30005 7.14 3.08005V3.07005Z" fill="black"/>
</svg>
