<svg width="128" height="128" viewBox="0 0 128 128" fill="none" xmlns="http://www.w3.org/2000/svg">
<g clip-path="url(#clip0_1014_4975)">
<rect width="128" height="128" rx="23" fill="#B750F3"/>
<rect x="-1" width="130" height="129" fill="#0F0830"/>
<path d="M64.5 102C81.326 102 96.316 106.691 106 114C95.941 107.151 81.0791 103.8 64.5 103.8C47.9205 103.8 33.059 107.151 23 114C32.6839 106.691 47.674 102 64.5 102Z" fill="#B750F3"/>
<circle cx="65" cy="88" r="2" fill="#B750F3"/>
<circle cx="65" cy="77" r="5" fill="#B750F3"/>
<circle cx="65" cy="52.6157" r="15" fill="#B750F3"/>
<path fill-rule="evenodd" clip-rule="evenodd" d="M64.9913 15.7091C67.5002 15.7092 69.7583 16.7768 71.3409 18.4806C71.5084 18.4476 71.673 18.4177 71.8341 18.3898C72.9745 18.192 74.005 18.1118 74.8253 18.1984C75.5527 18.2753 76.5304 18.5303 76.9112 19.422C77.292 20.3144 76.7996 21.1981 76.3517 21.7765C75.8466 22.4287 75.0765 23.1174 74.1446 23.8039C73.9868 23.9201 73.8218 24.0357 73.6525 24.1535C73.6543 24.2275 73.6583 24.3017 73.6583 24.3761C73.6583 29.1628 69.778 33.043 64.9913 33.0431C62.5974 33.0431 60.43 32.0731 58.8614 30.5041C58.5967 30.5595 58.3396 30.6111 58.09 30.6544C56.9497 30.8523 55.9191 30.9324 55.0987 30.8459C54.3712 30.769 53.3916 30.5134 53.0109 29.6212C52.6302 28.7289 53.1245 27.8452 53.5724 27.2668C54.0774 26.6147 54.8478 25.9266 55.7794 25.2404C55.9574 25.1093 56.1434 24.977 56.3361 24.8439C56.3278 24.6891 56.3243 24.533 56.3243 24.3761C56.3245 19.5895 60.2046 15.7091 64.9913 15.7091ZM56.4659 25.9318C54.5911 27.2924 53.5828 28.5077 53.8966 29.2433C54.2135 29.9857 55.815 30.094 58.129 29.6681C57.2996 28.5942 56.7178 27.3211 56.4659 25.9318ZM76.0255 19.8C75.7194 19.0842 74.2193 18.9582 72.0372 19.3322C72.8102 20.41 73.3429 21.6711 73.5548 23.0392C75.3665 21.7077 76.3339 20.5227 76.0255 19.8Z" fill="#B750F3"/>
</g>
<defs>
<clipPath id="clip0_1014_4975">
<rect width="128" height="128" rx="23" fill="white"/>
</clipPath>
</defs>
</svg>
